<?xml version="1.0" encoding="utf-8"?>
<!-- Generator: Adobe Illustrator 19.2.0, SVG Export Plug-In . SVG Version: 6.00 Build 0)  -->
<svg version="1.1" id="airballoon" xmlns="http://www.w3.org/2000/svg" xmlns:xlink="http://www.w3.org/1999/xlink" x="0px" y="0px"
	 viewBox="0 0 140 220" enable-background="new 0 0 140 220" xml:space="preserve">
<g>
	<polygon fill="none" points="71.9608,184.5428 68.924,188 74.998,188 	"/>
	<polygon fill="none" points="79.3556,164 71.5116,164 64.5664,164 71.9608,172.418 	"/>
	<polygon fill="#4A8F9E" points="71.9608,172.418 64.5664,164 53.916,164 66.6348,178.4804 58.2716,188 68.924,188 
		71.9608,184.5428 74.998,188 85.6504,188 77.2872,178.4804 90.006,164 79.3556,164 	"/>
	<path fill="#BDB9FF" d="M70,0C31.4024,0,0,31.1877,0,69.5196c0,28.4688,17.5664,54.0664,44,64.5664V160c0,2.2108,1.7912,4,4,4
		h5.916h10.6504h6.9452c-1.2284,0-2.3864-0.5624-3.1464-1.5312C54.6212,144.9688,46.414,114.8868,46.414,82
		s8.2072-62.9688,21.9512-80.4688c1.5196-1.9376,4.7736-1.9376,6.2932,0c13.744,17.5,21.9492,47.582,21.9492,80.4688
		s-8.2052,62.9688-21.9492,80.4688c-0.76,0.9688-1.918,1.5312-3.1468,1.5312h7.844H90.006H96c2.2088,0,4-1.7892,4-4v-27.6484
		c24.3888-11.4884,40-35.8672,40-62.832C140,31.1877,108.5976,0,70,0z"/>
	<path fill="#B976DD" d="M96.6076,82c0-32.8868-8.2052-62.9688-21.9492-80.4688c-1.5196-1.9376-4.7736-1.9376-6.2932,0
		C54.6212,19.0312,46.414,49.1132,46.414,82s8.2072,62.9688,21.9512,80.4688c0.76,0.9688,1.918,1.5312,3.1464,1.5312
		c1.2288,0,2.3868-0.5624,3.1468-1.5312C88.4024,144.9688,96.6076,114.8868,96.6076,82z"/>
	<path fill="#BC9A67" d="M68.924,188H58.2716H48c-1.1756,0-2.2928,0.5156-3.0528,1.414c-0.7596,0.8984-1.086,2.082-0.8924,3.2424
		l4,24C48.3752,218.586,50.0448,220,52,220h40c1.9552,0,3.6252-1.414,3.9452-3.3436l4-24c0.1936-1.1604-0.1328-2.344-0.8924-3.2424
		C98.2928,188.5156,97.1756,188,96,188H85.6504H74.998H68.924z"/>
</g>
</svg>
