<?xml version="1.0" encoding="utf-8"?>
<!-- Generator: Adobe Illustrator 19.2.0, SVG Export Plug-In . SVG Version: 6.00 Build 0)  -->
<svg version="1.1" id="airpump" xmlns="http://www.w3.org/2000/svg" xmlns:xlink="http://www.w3.org/1999/xlink" x="0px" y="0px"
	 viewBox="0 0 176.0017 204" enable-background="new 0 0 176.0017 204" xml:space="preserve">
<g>
	<path fill="#FE8657" d="M120.0017,95.0508V24h-20v71.0508c2.8631-1.922,6.3007-3.0508,10-3.0508
		C113.7008,92,117.1384,93.1288,120.0017,95.0508z"/>
	<path fill="#2F4556" d="M176.0017,184h-48v1.9728c0,2.1248-0.4337,4.1328-1.1093,6.0272h49.1093V184z"/>
	<path fill="#456782" d="M140.0132,24c5.2032,0,9.5976-3.3556,11.25-8h16.7385V8h-16.7385c-1.6524-4.6444-6.0468-8-11.25-8H79.99
		c-5.2032,0-9.5976,3.3556-11.254,8H52.0017v8H68.736c1.6564,4.6444,6.0508,8,11.254,8h20.0117h20H140.0132z"/>
	<path fill="#2F4556" d="M92.2204,107.8632c-4.5664-1.5548-11.2968-2.6992-18.6524-0.0896
		c-11.914,4.246-21.1328,16.7108-27.3908,37.0508c-5.7108,18.5584-14.0896,30.9804-24.2304,35.9256
		c-8.8944,4.34-16.1796,1.6408-16.4608,1.5352c-2.0312-0.8244-4.3788,0.172-5.1992,2.2304
		c-0.8204,2.0508,0.1796,4.3788,2.2304,5.1992c0.246,0.0976,3.7928,1.4768,9.0936,1.4768c3.8164,0,8.5432-0.7152,13.6016-3.1332
		c12.4728-5.9608,22.1016-19.7184,28.6136-40.8828c5.3788-17.4804,13.1012-28.488,22.332-31.832
		c6.8124-2.4608,12.9296-0.3516,15.8437,1.0276v-6.344C92.0017,109.2852,92.1344,108.582,92.2204,107.8632z"/>
	<path fill="#9AB040" d="M128.0017,184v-73.9728c0-6.238-3.1797-11.738-8-14.9764c-2.8633-1.922-6.3009-3.0508-10-3.0508
		c-3.6993,0-7.1369,1.1288-10,3.0508c-4.2461,2.8556-7.1369,7.4884-7.7813,12.8124c-0.086,0.7188-0.2187,1.422-0.2187,2.164v6.344
		v69.6016c0,9.9412,8.0743,18.0272,18,18.0272c7.8047,0,14.3983-5.0312,16.8907-12c0.6756-1.8944,1.1093-3.9024,1.1093-6.0272V184z"
		/>
</g>
</svg>
