<?xml version="1.0" encoding="utf-8"?>
<!-- Generator: Adobe Illustrator 19.2.0, SVG Export Plug-In . SVG Version: 6.00 Build 0)  -->
<svg version="1.1" id="ambulance" xmlns="http://www.w3.org/2000/svg" xmlns:xlink="http://www.w3.org/1999/xlink" x="0px" y="0px"
	 viewBox="0 0 224 212" enable-background="new 0 0 224 212" xml:space="preserve">
<g>
	<path fill="#FCC24C" d="M160,44c0-11.0272-8.9729-20-20-20c-11.0273,0-20,8.9728-20,20v16h40V44z"/>
	<path fill="#FCD1C0" d="M203.9763,60H160h-40H72.0235c-10.1096,0-22.75,6.3476-28.7736,14.4532l-4.2072,5.664
		C39.3515,80.0392,39.672,80,40,80h52c2.2107,0,4,1.7892,4,4v48c0,2.2108-1.7893,4-4,4H6c-1.2893,0-2.4609-0.6484-3.2073-1.672
		C1.0663,139.7384,0,145.3204,0,149.9844v22.0352C0,183.0352,8.9803,192,20.0155,192h8.3436C28.1407,190.6952,28,189.3672,28,188
		c0-13.2344,10.7655-24,24-24c13.2343,0,24,10.7656,24,24c0,1.3672-0.1409,2.6952-0.3593,4h72.7184
		c-0.2184-1.3048-0.3591-2.6328-0.3591-4c0-13.2344,10.7655-24,24-24c13.2343,0,24,10.7656,24,24c0,1.3672-0.1409,2.6952-0.3593,4
		h8.3436C215.0195,192,224,183.0196,224,171.9804V80.0196C224,68.9804,215.0155,60,203.9763,60z M160,144
		c-17.6445,0-32-14.3556-32-32s14.3555-32,32-32c17.6443,0,32,14.3556,32,32S177.6443,144,160,144z"/>
	<path fill="#FCD1C0" d="M10.328,118.7736c-0.6757,0.91-1.332,1.918-1.9689,2.9764l4.922-6.9492L10.328,118.7736z"/>
	<path fill="#FF6B97" d="M160,80c-17.6445,0-32,14.3556-32,32s14.3555,32,32,32c17.6443,0,32-14.3556,32-32S177.6443,80,160,80z
		 M176,116h-12v12h-8v-12h-12v-8h12V96h8v12h12V116z"/>
	<polygon fill="#FCC24C" points="164,96 156,96 156,108 144,108 144,116 156,116 156,128 164,128 164,116 176,116 176,108 164,108 	
		"/>
	<path fill="#4A8F9E" d="M52,164c-13.2345,0-24,10.7656-24,24c0,1.3672,0.1407,2.6952,0.3591,4C30.2735,203.332,40.1327,212,52,212
		c11.8671,0,21.7263-8.668,23.6407-20C75.8591,190.6952,76,189.3672,76,188C76,174.7656,65.2343,164,52,164z"/>
	<path fill="#4A8F9E" d="M172,164c-13.2345,0-24,10.7656-24,24c0,1.3672,0.1407,2.6952,0.3591,4
		c1.9144,11.332,11.7736,20,23.6409,20c11.8671,0,21.7263-8.668,23.6407-20c0.2184-1.3048,0.3593-2.6328,0.3593-4
		C196,174.7656,185.2343,164,172,164z"/>
	<path fill="#618287" d="M6,136h86c2.2107,0,4-1.7892,4-4V84c0-2.2108-1.7893-4-4-4H40c-0.328,0-0.6485,0.0392-0.9573,0.1172
		c-0.9216,0.2264-1.746,0.7772-2.3084,1.5704l-23.4532,33.1132l-4.922,6.9492l-5.6248,7.9376
		c-0.8632,1.2224-0.9728,2.8204-0.2892,4.1484c0.094,0.1836,0.2304,0.332,0.3476,0.492C3.5391,135.3516,4.7107,136,6,136z M88,88v40
		H13.7343l28.336-40H88z"/>
	<polygon fill="#DBEEF7" points="13.7343,128 88,128 88,88 42.0703,88 	"/>
	<path fill="#FE8657" d="M113.172,30.828C113.9531,31.6092,114.9763,32,116,32c1.0235,0,2.0467-0.3908,2.828-1.172
		c1.5627-1.5624,1.5627-4.0936,0-5.656l-10.1993-10.1992c-1.5624-1.5628-4.0936-1.5628-5.656,0
		c-1.5628,1.5624-1.5628,4.0936,0,5.656L113.172,30.828z"/>
	<path fill="#FE8657" d="M164,32c1.0235,0,2.0467-0.3908,2.828-1.172l10.1991-10.1992c1.5628-1.5624,1.5628-4.0936,0-5.656
		c-1.5624-1.5628-4.0936-1.5628-5.656,0L161.172,25.172c-1.5629,1.5624-1.5629,4.0936,0,5.656C161.9531,31.6092,162.9763,32,164,32z
		"/>
	<path fill="#FE8657" d="M140,20c2.2107,0,4-1.7892,4-4V4c0-2.2108-1.7893-4-4-4c-2.2109,0-4,1.7892-4,4v12
		C136,18.2108,137.7891,20,140,20z"/>
</g>
</svg>
