<?xml version="1.0" encoding="utf-8"?>
<!-- Generator: Adobe Illustrator 19.2.0, SVG Export Plug-In . SVG Version: 6.00 Build 0)  -->
<svg version="1.1" id="attention" xmlns="http://www.w3.org/2000/svg" xmlns:xlink="http://www.w3.org/1999/xlink" x="0px" y="0px"
	 viewBox="0 0 210.2339 188" enable-background="new 0 0 210.2339 188" xml:space="preserve">
<g>
	<path fill="#F8A131" d="M207.5818,156.252L116.867,7.58C113.9294,2.7637,109.6442,0,105.1131,0
		c-4.5273,0.0021-8.8085,2.7657-11.7461,7.5821V7.58L2.6522,156.252c-3.0196,4.9473-3.4768,9.8185-1.2892,13.7169
		C3.5466,173.8577,7.9254,176,13.695,176h182.84c5.7696,0,10.1524-2.1423,12.336-6.0331
		C211.0586,166.0685,210.6014,161.1973,207.5818,156.252z M105.1171,160c-6.6173,0-12-5.3827-12-12c0-6.6171,5.3827-12,12-12
		c6.6171,0,12,5.3829,12,12C117.1171,154.6173,111.7342,160,105.1171,160z M117.1171,124c0,2.2089-1.7893,4-4,4h-16
		c-2.2109,0-4-1.7911-4-4V40c0-2.2087,1.7891-4,4-4h16c2.2107,0,4,1.7913,4,4V124z"/>
	<path fill="#EB4548" d="M113.1171,36h-16c-2.2109,0-4,1.7913-4,4v84c0,2.2089,1.7891,4,4,4h16c2.2107,0,4-1.7911,4-4V40
		C117.1171,37.7913,115.3278,36,113.1171,36z"/>
	<path fill="#EB4548" d="M105.1171,136c-6.6173,0-12,5.3829-12,12c0,6.6173,5.3827,12,12,12c6.6171,0,12-5.3827,12-12
		C117.1171,141.3829,111.7342,136,105.1171,136z"/>
	<path fill="#EB4548" d="M157.1171,180h-104c-2.2109,0-4,1.7913-4,4c0,2.2089,1.7891,4,4,4h104c2.2107,0,4-1.7911,4-4
		C161.1171,181.7913,159.3278,180,157.1171,180z"/>
</g>
</svg>
