<?xml version="1.0" encoding="utf-8"?>
<!-- Generator: Adobe Illustrator 19.2.0, SVG Export Plug-In . SVG Version: 6.00 Build 0)  -->
<svg version="1.1" id="autovehicle" xmlns="http://www.w3.org/2000/svg" xmlns:xlink="http://www.w3.org/1999/xlink" x="0px"
	 y="0px" viewBox="0 0 240 128" enable-background="new 0 0 240 128" xml:space="preserve">
<g>
	<path fill="#FE8657" d="M236,76h-4c0-17.6443-14.3517-32-31.992-32h-29.4337l1.0664,2.3457
		c0.5624,1.2364,0.4568,2.676-0.2776,3.8204C170.6251,51.3085,169.3591,52,168,52H72v0.1817h-8V52H36c-2.2109,0-4-1.7911-4-4v-4h-8
		c-2.2109,0-4,1.7913-4,4v28H4c-2.2109,0-4,1.7913-4,4v24c0,2.2089,1.7891,4,4,4h24.3591C28.1407,106.6953,28,105.3653,28,104
		c0-13.2343,10.7655-24,24-24c13.2343,0,24,10.7657,24,24c0,1.3653-0.1409,2.6953-0.3593,4h88.7184
		c-0.2184-1.3047-0.3591-2.6347-0.3591-4c0-13.2343,10.7655-24,24-24c13.2343,0,24,10.7657,24,24c0,1.3653-0.1409,2.6953-0.3593,4
		H236c2.2107,0,4-1.7911,4-4V80C240,77.7913,238.2107,76,236,76z"/>
	<path fill="#618287" d="M188,80c-13.2345,0-24,10.7657-24,24c0,1.3653,0.1407,2.6953,0.3591,4c1.9144,11.332,11.7736,20,23.6409,20
		c11.8671,0,21.7263-8.668,23.6407-20c0.2184-1.3047,0.3593-2.6347,0.3593-4C212,90.7657,201.2343,80,188,80z M188,112
		c-4.4101,0-8-3.588-8-8s3.5899-8,8-8c4.4099,0,8,3.588,8,8S192.4099,112,188,112z"/>
	<path fill="#618287" d="M52,80c-13.2345,0-24,10.7657-24,24c0,1.3653,0.1407,2.6953,0.3591,4C30.2735,119.332,40.1327,128,52,128
		c11.8671,0,21.7263-8.668,23.6407-20C75.8591,106.6953,76,105.3653,76,104C76,90.7657,65.2343,80,52,80z M52,112
		c-4.4101,0-8-3.588-8-8s3.5899-8,8-8c4.4099,0,8,3.588,8,8S56.4099,112,52,112z"/>
	<path fill="#7BE5E4" d="M36,52h28v0.1817h8V52h96c1.3591,0,2.6251-0.6915,3.3631-1.8339c0.7344-1.1444,0.84-2.584,0.2776-3.8204
		L170.5743,44L151.6407,2.3457C150.992,0.916,149.5703,0,148,0H72h-8H36c-2.2109,0-4,1.7913-4,4v40v4C32,50.2089,33.7891,52,36,52z
		 M145.4255,8l16.3636,36H72V8H145.4255z M40,8h24v36H40V8z"/>
	<polygon fill="#3BABB7" points="161.7891,44 145.4255,8 72,8 72,44 	"/>
	<rect x="40" y="8" fill="#3BABB7" width="24" height="36"/>
	<path fill="#4F676D" d="M188,96c-4.4101,0-8,3.588-8,8s3.5899,8,8,8c4.4099,0,8-3.588,8-8S192.4099,96,188,96z"/>
	<path fill="#4F676D" d="M52,96c-4.4101,0-8,3.588-8,8s3.5899,8,8,8c4.4099,0,8-3.588,8-8S56.4099,96,52,96z"/>
</g>
</svg>
