<?xml version="1.0" encoding="utf-8"?>
<!-- Generator: Adobe Illustrator 19.2.0, SVG Export Plug-In . SVG Version: 6.00 Build 0)  -->
<svg version="1.1" id="bigtruck" xmlns="http://www.w3.org/2000/svg" xmlns:xlink="http://www.w3.org/1999/xlink" x="0px" y="0px"
	 viewBox="0 0 236 148" enable-background="new 0 0 236 148" xml:space="preserve">
<g>
	<path fill="#50CCD3" d="M76,64V36c0-2.2108-1.7912-4-4-4H48c-2.2088,0-4,1.7892-4,4v24h28C74.2088,60,76,61.7892,76,64z"/>
	<rect x="160" y="20" fill="#FCC24C" width="28" height="68"/>
	<rect x="196" y="20" fill="#FCC24C" width="20" height="68"/>
	<polygon fill="#FCC24C" points="92,88 116,88 116,20 92,20 92,24 	"/>
	<rect x="124" y="20" fill="#FCC24C" width="28" height="68"/>
	<path fill="#F8A131" d="M76,104V64c0-2.2108-1.7912-4-4-4H44H24c-2.2088,0-4,1.7892-4,4v40.1016
		C20.6544,104.0428,21.3164,104,21.9864,104H76z"/>
	<path fill="#F8A131" d="M84,16v8v68c0,2.2108,1.7912,4,4,4h28v0.1056h8V96h28v0.1056h8V96h28v0.1056h8V96h24c2.2088,0,4-1.7892,4-4
		V16c0-2.2108-1.7912-4-4-4h-24h-8h-28h-8h-28h-8H92V8V0h-8H56v8h28V16z M216,20v68h-20V20H216z M188,20v68h-28V20H188z M152,20v68
		h-28V20H152z M116,20v68H92V24v-4H116z"/>
	<path fill="#BC9A67" d="M214.0136,104H76H21.9864c-0.67,0-1.332,0.0428-1.9864,0.1016C8.8048,105.1092,0,114.5428,0,126
		c0,12.1288,9.8632,22,21.9864,22h192.0272C226.1368,148,236,138.1288,236,126S226.1368,104,214.0136,104z M26,136
		c-5.5136,0-10-4.4844-10-10c0-5.5156,4.4864-10,10-10s10,4.4844,10,10C36,131.5156,31.5136,136,26,136z M58,136
		c-5.5136,0-10-4.4844-10-10c0-5.5156,4.4864-10,10-10s10,4.4844,10,10C68,131.5156,63.5136,136,58,136z M90,136
		c-5.5136,0-10-4.4844-10-10c0-5.5156,4.4864-10,10-10s10,4.4844,10,10C100,131.5156,95.5136,136,90,136z M122,136
		c-5.5136,0-10-4.4844-10-10c0-5.5156,4.4864-10,10-10s10,4.4844,10,10C132,131.5156,127.5136,136,122,136z M150,136
		c-5.5136,0-10-4.4844-10-10c0-5.5156,4.4864-10,10-10s10,4.4844,10,10C160,131.5156,155.5136,136,150,136z M182,136
		c-5.5136,0-10-4.4844-10-10c0-5.5156,4.4864-10,10-10s10,4.4844,10,10C192,131.5156,187.5136,136,182,136z M210,136
		c-5.5136,0-10-4.4844-10-10c0-5.5156,4.4864-10,10-10s10,4.4844,10,10C220,131.5156,215.5136,136,210,136z"/>
	<path fill="#89714D" d="M26,116c-5.5136,0-10,4.4844-10,10c0,5.5156,4.4864,10,10,10s10-4.4844,10-10
		C36,120.4844,31.5136,116,26,116z"/>
	<path fill="#89714D" d="M58,116c-5.5136,0-10,4.4844-10,10c0,5.5156,4.4864,10,10,10s10-4.4844,10-10
		C68,120.4844,63.5136,116,58,116z"/>
	<path fill="#89714D" d="M90,116c-5.5136,0-10,4.4844-10,10c0,5.5156,4.4864,10,10,10s10-4.4844,10-10
		C100,120.4844,95.5136,116,90,116z"/>
	<path fill="#89714D" d="M122,116c-5.5136,0-10,4.4844-10,10c0,5.5156,4.4864,10,10,10s10-4.4844,10-10
		C132,120.4844,127.5136,116,122,116z"/>
	<path fill="#89714D" d="M150,116c-5.5136,0-10,4.4844-10,10c0,5.5156,4.4864,10,10,10s10-4.4844,10-10
		C160,120.4844,155.5136,116,150,116z"/>
	<path fill="#89714D" d="M182,116c-5.5136,0-10,4.4844-10,10c0,5.5156,4.4864,10,10,10s10-4.4844,10-10
		C192,120.4844,187.5136,116,182,116z"/>
	<path fill="#89714D" d="M210,116c-5.5136,0-10,4.4844-10,10c0,5.5156,4.4864,10,10,10s10-4.4844,10-10
		C220,120.4844,215.5136,116,210,116z"/>
</g>
</svg>
