<?xml version="1.0" encoding="utf-8"?>
<!-- Generator: Adobe Illustrator 19.2.0, SVG Export Plug-In . SVG Version: 6.00 Build 0)  -->
<svg version="1.1" id="blimpballoon" xmlns="http://www.w3.org/2000/svg" xmlns:xlink="http://www.w3.org/1999/xlink" x="0px"
	 y="0px" viewBox="0 0 228 206.1219" enable-background="new 0 0 228 206.1219" xml:space="preserve">
<g>
	<path fill="none" d="M102.9296,133.8135l10.592,7.3044l7.3808-7.2224c-2.2852,0.1364-4.584,0.2264-6.9024,0.2264
		C110.2636,134.1219,106.5744,134.0127,102.9296,133.8135z"/>
	<polygon fill="none" points="114.4064,151.4423 93.3184,172.0751 138.1408,167.8055 	"/>
	<path fill="#2F4556" d="M120.9024,133.8955l-7.3808,7.2224l-10.592-7.3044c-5.4412-0.2932-10.7656-0.8128-15.9568-1.5236
		c0.2168,0.25,0.408,0.5236,0.6952,0.7188l20.0272,13.8084l-26.6384,26.0628c-0.1172,0.1132-0.1644,0.2656-0.264,0.3864
		l12.5256-1.1912l21.088-20.6328l23.7344,16.3632l11.494-1.0936c-0.2912-0.6056-0.6816-1.1644-1.2736-1.5744l-28.1308-19.3944
		l13.6308-13.336C129.6152,133.1219,125.2948,133.6335,120.9024,133.8955z"/>
	<path fill="#FF6B97" d="M221.6796,5.6843c0.7032-1.5116,0.3948-3.3008-0.7752-4.488c-1.166-1.1916-2.9512-1.5276-4.4748-0.8516
		l-44.5624,19.7968c12.91,6.2304,24.2032,13.824,33.2012,21.2968L221.6796,5.6843z"/>
	<path fill="#FCC24C" d="M114,42.1219c41.1388,0,100.258,6.0156,111.9256,22.1092c-3.3396-5.9452-10.6052-14.2772-20.8572-22.7928
		c-8.998-7.4728-20.2912-15.0664-33.2012-21.2968C154.8848,11.9463,135.1036,6.1219,114,6.1219c-62.8592,0-114,28.7108-114,64
		C0,49.5791,68.1756,42.1219,114,42.1219z"/>
	<path fill="#FCC24C" d="M114,134.1219c2.3184,0,4.6172-0.09,6.9024-0.2264c4.3924-0.262,8.7128-0.7736,12.9588-1.4884
		c46.3536-7.7892,83.178-40.5664,92.0644-56.3944C214.258,92.1063,155.1388,98.1219,114,98.1219c-45.8244,0-114-7.4572-114-28
		c0,30.0624,37.1212,55.336,86.9728,62.168c5.1912,0.7108,10.5156,1.2304,15.9568,1.5236
		C106.5744,134.0127,110.2636,134.1219,114,134.1219z"/>
	<path fill="#FF6B97" d="M114,98.1219c41.1388,0,100.258-6.0156,111.9256-22.1092C227.254,74.1803,228,72.2235,228,70.1219
		s-0.746-4.0584-2.0744-5.8908C214.258,48.1375,155.1388,42.1219,114,42.1219c-45.8244,0-114,7.4572-114,28
		S68.1756,98.1219,114,98.1219z M160,66.1219h28c2.2088,0,4,1.7892,4,4s-1.7912,4-4,4h-28c-2.2088,0-4-1.7892-4-4
		S157.7912,66.1219,160,66.1219z"/>
	<path fill="#FF8AAC" d="M160,74.1219h28c2.2088,0,4-1.7892,4-4s-1.7912-4-4-4h-28c-2.2088,0-4,1.7892-4,4
		S157.7912,74.1219,160,74.1219z"/>
	<path fill="#4A8F9E" d="M93.3184,172.0751l-12.5256,1.1912l-9.1716,0.8752C69.5684,174.3367,68,176.0595,68,178.1219v24
		c0,2.2108,1.7912,4,4,4h84c2.2088,0,4-1.7892,4-4v-32c0-1.1252-0.4748-2.2032-1.3084-2.9608
		c-0.834-0.758-1.9512-1.1212-3.0704-1.0196l-5.9864,0.5704l-11.494,1.0936L93.3184,172.0751z"/>
</g>
</svg>
