<?xml version="1.0" encoding="utf-8"?>
<!-- Generator: Adobe Illustrator 19.2.0, SVG Export Plug-In . SVG Version: 6.00 Build 0)  -->
<svg version="1.1" id="boatyaht" xmlns="http://www.w3.org/2000/svg" xmlns:xlink="http://www.w3.org/1999/xlink" x="0px" y="0px"
	 viewBox="0 0 236.0004 160.1933" enable-background="new 0 0 236.0004 160.1933" xml:space="preserve">
<g>
	<path fill="#D793FD" d="M110.3792,38.9276L98.2916,12.4161c-0.3596-0.7892-0.9652-1.4376-1.7268-1.8516L78.0452,0.4865
		c-1.1776-0.6408-2.5956-0.6484-3.7812-0.0236c-1.1836,0.6252-1.9764,1.8007-2.1112,3.1327l-3.1112,30.9025L110.3792,38.9276z"/>
	<path fill="#B976DD" d="M232.0004,76.2676h-41.8456l1.1932,1.3477c1.0432,1.1796,1.2988,2.8596,0.6544,4.2932
		c-0.6464,1.4372-2.0744,2.3591-3.6484,2.3591h-48.3536h-8h-84c-2.2088,0-4-1.7891-4-4v-4h-40c-1.3436,0-2.5996,0.6757-3.34,1.7969
		c-0.74,1.1252-0.8672,2.5431-0.3356,3.7776l24,56c0.6308,1.4764,2.082,2.4255,3.6736,2.4255c0.0704,0,0.1388,0,0.2072-0.004
		l155.4844-8c0.5368-0.0271,1.0624-0.164,1.5448-0.3983c11.91-5.7968,50.7656-25.8984,50.7656-41.2108V80.2676
		C236.0004,78.0569,234.2092,76.2676,232.0004,76.2676z"/>
	<path fill="#6FB9B3" d="M48.0004,84.2676h84h8h48.3536c1.574,0,3.002-0.9219,3.6484-2.3591
		c0.6444-1.4336,0.3888-3.1136-0.6544-4.2932l-1.1932-1.3477l-27.1604-30.6523c-0.662-0.746-1.576-1.2188-2.5684-1.324
		l-50.0468-5.3637l-41.3376-4.4295L48.426,32.2913c-1.1384-0.1252-2.2556,0.246-3.0996,1c-0.8436,0.7616-1.326,1.8396-1.326,2.9763
		v40v4C44.0004,82.4785,45.7916,84.2676,48.0004,84.2676z M179.4652,76.2676h-39.4648V50.1505l18.0332,1.9296L179.4652,76.2676z
		 M52.0004,40.7209l80,8.5704v26.9763h-80V40.7209z"/>
	<polygon fill="#B7F5F0" points="140.0004,76.2676 179.4652,76.2676 158.0336,52.0801 140.0004,50.1505 	"/>
	<polygon fill="#B7F5F0" points="132.0004,49.2913 52.0004,40.7209 52.0004,76.2676 132.0004,76.2676 	"/>
	<path fill="#50CCD3" d="M204.6412,144.5293h-54.1976c-3.3144,0-6,2.6876-6,6c0,3.3128,2.6856,6,6,6h54.1976c3.3144,0,6-2.6872,6-6
		C210.6412,147.2169,207.9556,144.5293,204.6412,144.5293z"/>
	<path fill="#50CCD3" d="M60.8364,148.1933H6.6392c-3.3144,0-6,2.6876-6,6c0,3.3128,2.6856,6,6,6h54.1972c3.3144,0,6-2.6872,6-6
		C66.8364,150.8809,64.1508,148.1933,60.8364,148.1933z"/>
</g>
</svg>
