<?xml version="1.0" encoding="utf-8"?>
<!-- Generator: Adobe Illustrator 19.2.0, SVG Export Plug-In . SVG Version: 6.00 Build 0)  -->
<svg version="1.1" id="bus" xmlns="http://www.w3.org/2000/svg" xmlns:xlink="http://www.w3.org/1999/xlink" x="0px" y="0px"
	 viewBox="0 0 240 132" enable-background="new 0 0 240 132" xml:space="preserve">
<g>
	<path fill="#FE8657" d="M184.008,0H25.8243C12.3983,0,1.34,10.2929,0.1211,23.3945C0.4219,21.4845,2.004,20,4,20h48h8h44h8h40h8
		h36.0235C207.0391,20,216,28.9729,216,40v16c0,2.2109-1.7893,4-4,4h-52h-8h-40h-8H60h-8H4c-2.2109,0-4-1.7891-4-4v30.1993
		C0,100.4257,11.5859,112,25.8243,112h2.5348C28.1407,110.6953,28,109.3673,28,108c0-13.2343,10.7655-24,24-24
		c8.3435,0,15.6991,4.2853,20,10.7617C76.3007,88.2853,83.6563,84,92,84c13.2343,0,24,10.7657,24,24
		c0,1.3673-0.1409,2.6953-0.3593,4h48.7184c-0.2184-1.3047-0.3591-2.6327-0.3591-4c0-13.2343,10.7655-24,24-24
		c13.2343,0,24,10.7657,24,24c0,1.3673-0.1409,2.6953-0.3593,4H236c2.2107,0,4-1.7891,4-4V76h-28v-8h28V56
		C240,25.1213,214.8827,0,184.008,0z"/>
	<path fill="#4A8F9E" d="M92,84c-8.3437,0-15.6993,4.2853-20,10.7617C67.6991,88.2853,60.3435,84,52,84c-13.2345,0-24,10.7657-24,24
		c0,1.3673,0.1407,2.6953,0.3591,4C30.2735,123.332,40.1327,132,52,132c8.3435,0,15.6991-4.2851,20-10.7615
		C76.3007,127.7149,83.6563,132,92,132c11.8671,0,21.7263-8.668,23.6407-20c0.2184-1.3047,0.3593-2.6327,0.3593-4
		C116,94.7657,105.2343,84,92,84z"/>
	<path fill="#4A8F9E" d="M188,84c-13.2345,0-24,10.7657-24,24c0,1.3673,0.1407,2.6953,0.3591,4c1.9144,11.332,11.7736,20,23.6409,20
		c11.8671,0,21.7263-8.668,23.6407-20c0.2184-1.3047,0.3593-2.6327,0.3593-4C212,94.7657,201.2343,84,188,84z"/>
	<path fill="#FFDC82" d="M4,60h48h8h44h8h40h8h52c2.2107,0,4-1.7891,4-4V40c0-11.0271-8.9609-20-19.9765-20H160h-8h-40h-8H60h-8H4
		c-1.996,0-3.5781,1.4845-3.8789,3.3945C0.0899,23.6017,0,23.7853,0,24v1.8009V56C0,58.2109,1.7891,60,4,60z M196.0235,28
		C202.6287,28,208,33.3829,208,40v12h-48V28H196.0235z M152,28v24h-40V28H152z M104,28v24H60V28H104z M8,28h44v24H8V28z"/>
	<rect x="8" y="28" fill="#FCC24C" width="44" height="24"/>
	<path fill="#FCC24C" d="M208,52V40c0-6.6171-5.3713-12-11.9765-12H160v24H208z"/>
	<rect x="60" y="28" fill="#FCC24C" width="44" height="24"/>
	<rect x="112" y="28" fill="#FCC24C" width="40" height="24"/>
	<rect x="212" y="68" fill="#FFDC82" width="28" height="8"/>
</g>
</svg>
