<?xml version="1.0" encoding="utf-8"?>
<!-- Generator: Adobe Illustrator 19.2.0, SVG Export Plug-In . SVG Version: 6.00 Build 0)  -->
<svg version="1.1" id="cartransport" xmlns="http://www.w3.org/2000/svg" xmlns:xlink="http://www.w3.org/1999/xlink" x="0px"
	 y="0px" viewBox="0 0 228.0009 128" enable-background="new 0 0 228.0009 128" xml:space="preserve">
<g>
	<path fill="none" d="M188.0009,104c-4.4101,0-8,3.59-8,8s3.5899,8,8,8c4.4099,0,8-3.59,8-8S192.4108,104,188.0009,104z"/>
	<path fill="none" d="M172.0009,64h-8h-28.2033c-0.2032,1.414-0.6052,2.754-1.2032,4h50.8128c-0.598-1.246-1-2.586-1.2032-4
		H172.0009z"/>
	<path fill="none" d="M40.0009,104c-4.4101,0-8,3.59-8,8s3.5899,8,8,8c4.4099,0,8-3.59,8-8S44.4108,104,40.0009,104z"/>
	<path fill="#FE8657" d="M224.0009,68h-13.4065c-2.2535,4.7108-7.0312,8-12.5935,8c-5.5625,0-10.34-3.2892-12.5937-8h-50.8128
		c-2.2535,4.7108-7.0312,8-12.5935,8c-5.5625,0-10.34-3.2892-12.5937-8H88.0009v48c0,2.2108-1.7893,4-4,4h80.332
		c1.176,0,2.2931-0.5196,3.0547-1.418c0.7576-0.8984,1.086-2.086,0.8904-3.246c-0.1836-1.09-0.2771-2.2148-0.2771-3.336
		c0-11.0272,8.9727-20,20-20c11.0271,0,20,8.9728,20,20c0,1.1212-0.0937,2.246-0.2773,3.336
		c-0.1956,1.16,0.1328,2.3476,0.8904,3.246c0.762,0.8984,1.8789,1.418,3.0549,1.418h12.332c2.2107,0,4-1.7892,4-4V72
		C228.0009,69.7892,226.2115,68,224.0009,68z"/>
	<path fill="#50CCD3" d="M164.0009,0h-32c-1.6017,0-3.0469,0.9532-3.6757,2.4256L117.364,28h46.6369V0z"/>
	<path fill="#50CCD3" d="M202.6376,28L191.6763,2.4256C191.0475,0.9532,189.6024,0,188.0009,0h-16v28H202.6376z"/>
	<path fill="#9D57C4" d="M122.0009,48c7.7187,0,14,6.2812,14,14c0,0.6836-0.1057,1.34-0.2033,2h28.2033h8h12.2031
		c-0.0976-0.66-0.2031-1.3164-0.2031-2c0-7.7188,6.2811-14,14-14c7.7187,0,14,6.2812,14,14c0,0.6836-0.1057,1.34-0.2033,2h8.2033
		c2.2107,0,4-1.7892,4-4V32c0-2.2108-1.7893-4-4-4h-17.3633h-30.6367V0h-8v28H117.364H96.0009c-2.2109,0-4,1.7892-4,4v28
		c0,2.2108,1.7891,4,4,4h12.2031c-0.0976-0.66-0.2031-1.3164-0.2031-2C108.0009,54.2812,114.282,48,122.0009,48z"/>
	<path fill="#FFE9E1" d="M198.0009,48c-7.7189,0-14,6.2812-14,14c0,0.6836,0.1055,1.34,0.2031,2c0.2032,1.414,0.6052,2.754,1.2032,4
		c2.2537,4.7108,7.0312,8,12.5937,8c5.5623,0,10.34-3.2892,12.5935-8c0.598-1.246,1-2.586,1.2032-4
		c0.0976-0.66,0.2033-1.3164,0.2033-2C212.0009,54.2812,205.7196,48,198.0009,48z"/>
	<path fill="#4A8F9E" d="M188.0009,96c-8.8245,0-16,7.1756-16,16s7.1755,16,16,16c8.8243,0,16-7.1756,16-16S196.8251,96,188.0009,96
		z M188.0009,120c-4.4101,0-8-3.59-8-8s3.5899-8,8-8c4.4099,0,8,3.59,8,8S192.4108,120,188.0009,120z"/>
	<path fill="#4A8F9E" d="M40.0009,96c-8.8245,0-16,7.1756-16,16s7.1755,16,16,16c8.8243,0,16-7.1756,16-16S48.8252,96,40.0009,96z
		 M40.0009,120c-4.4101,0-8-3.59-8-8s3.5899-8,8-8c4.4099,0,8,3.59,8,8S44.4108,120,40.0009,120z"/>
	<path fill="#FFE9E1" d="M122.0009,76c5.5623,0,10.34-3.2892,12.5935-8c0.598-1.246,1-2.586,1.2032-4
		c0.0976-0.66,0.2033-1.3164,0.2033-2c0-7.7188-6.2813-14-14-14c-7.7189,0-14,6.2812-14,14c0,0.6836,0.1055,1.34,0.2031,2
		c0.2032,1.414,0.6052,2.754,1.2032,4C111.6609,72.7108,116.4384,76,122.0009,76z"/>
	<path fill="#3BABB7" d="M88.0009,116V68V44c0-2.2108-1.7893-4-4-4h-40c-1.7853,0-3.3557,1.1836-3.8477,2.9024L32.9852,68h-3.004
		C15.8484,68,3.3056,79.4416,2.028,93.508l-2.0116,22.1288c-0.1016,1.1212,0.2736,2.2304,1.0312,3.0624
		C1.8056,119.5272,2.876,120,4.0009,120h12.332c1.176,0,2.2931-0.5196,3.0547-1.418c0.7576-0.8984,1.086-2.086,0.8904-3.246
		c-0.1836-1.09-0.2771-2.2148-0.2771-3.336c0-11.0272,8.9727-20,20-20c11.0271,0,20,8.9728,20,20
		c0,1.1212-0.0937,2.246-0.2773,3.336c-0.1956,1.16,0.1328,2.3476,0.8904,3.246c0.762,0.8984,1.8789,1.418,3.0549,1.418h20.332
		C86.2116,120,88.0009,118.2108,88.0009,116z M47.0164,48h32.9845v20H41.3056L47.0164,48z M40.0009,84c-15.4377,0-28,12.5624-28,28
		H8.3796l1.6173-17.7656C10.9108,84.1796,19.876,76,29.9812,76h50.0197v36h-12C68.0009,96.5624,55.4384,84,40.0009,84z"/>
	<path fill="#50CCD3" d="M80.0009,76H29.9812C19.876,76,10.9108,84.1796,9.9969,94.2344L8.3796,112h3.6213
		c0-15.4376,12.5623-28,28-28c15.4375,0,28,12.5624,28,28h12V76z"/>
	<polygon fill="#50CCD3" points="80.0009,48 47.0164,48 41.3056,68 80.0009,68 	"/>
</g>
</svg>
