<?xml version="1.0" encoding="utf-8"?>
<!-- Generator: Adobe Illustrator 19.2.0, SVG Export Plug-In . SVG Version: 6.00 Build 0)  -->
<svg version="1.1" id="chariot" xmlns="http://www.w3.org/2000/svg" xmlns:xlink="http://www.w3.org/1999/xlink" x="0px" y="0px"
	 viewBox="0 0 228 196" enable-background="new 0 0 228 196" xml:space="preserve">
<g>
	<path fill="none" d="M62.4844,148L86.16,171.6756c5.3516-6.5896,8.8284-14.75,9.6368-23.6756H62.4844z"/>
	<path fill="none" d="M85.3964,115.4296L60.828,140h34.9688C94.9512,130.664,91.174,122.172,85.3964,115.4296z"/>
	<path fill="none" d="M43.172,140l-24.5684-24.5704C12.826,122.172,9.0488,130.664,8.2032,140H43.172z"/>
	<path fill="none" d="M41.5156,148H8.2032c0.8084,8.9256,4.2852,17.086,9.6368,23.6756L41.5156,148z"/>
	<path fill="none" d="M188,142.3436v-13.9844c-3.6368,0.6172-6.996,2.0432-9.8848,4.1016L188,142.3436z"/>
	<path fill="none" d="M196,128.3592v13.9844l9.8848-9.8828C202.996,130.4024,199.6368,128.9764,196,128.3592z"/>
	<path fill="none" d="M48,187.7968V152.828l-24.5684,24.5704C30.174,183.172,38.662,186.9492,48,187.7968z"/>
	<path fill="none" d="M56,152.828v34.9688c9.338-0.8476,17.826-4.6248,24.5684-10.3984L56,152.828z"/>
	<path fill="none" d="M56,100.2032v33.3124L79.6756,109.84C73.084,104.4884,64.9256,101.0116,56,100.2032z"/>
	<path fill="none" d="M48,133.5156v-33.3124c-8.9256,0.8084-17.084,4.2852-23.6756,9.6368L48,133.5156z"/>
	<path fill="none" d="M178.1152,171.5392c2.8888,2.0584,6.248,3.4844,9.8848,4.1016v-13.9844L178.1152,171.5392z"/>
	<path fill="none" d="M152,13.0584V68h48V26.8632C192.8144,24.4532,172.3084,17.7812,152,13.0584z"/>
	<path fill="none" d="M201.6564,156l9.8848,9.8828c2.0584-2.8868,3.484-6.246,4.0976-9.8828H201.6564z"/>
	<path fill="none" d="M118,8c-7.2072,0-16.3808,1.3436-26,3.3124V68h52V11.3124C134.3808,9.3436,125.2072,8,118,8z"/>
	<path fill="none" d="M36,26.8632V68h48V13.0584C63.6896,17.7812,43.1856,24.4532,36,26.8632z"/>
	<path fill="none" d="M182.3436,148l-9.8848-9.8828c-2.0584,2.8868-3.484,6.246-4.0976,9.8828H182.3436z"/>
	<path fill="none" d="M196,161.6564v13.9844c3.6368-0.6172,6.996-2.0432,9.8848-4.1016L196,161.6564z"/>
	<path fill="none" d="M211.5412,138.1172L201.6564,148h13.9824C215.0252,144.3632,213.5996,141.004,211.5412,138.1172z"/>
	<path fill="none" d="M182.3436,156h-13.9824c0.6136,3.6368,2.0392,6.996,4.0976,9.8828L182.3436,156z"/>
	<path fill="#F8A131" d="M52,92c-28.674,0-52,23.328-52,52s23.326,52,52,52s52-23.328,52-52S80.674,92,52,92z M56,100.2032
		c8.9256,0.8084,17.084,4.2852,23.6756,9.6368L56,133.5156V100.2032z M48,133.5156L24.3244,109.84
		c6.5916-5.3516,14.75-8.8284,23.6756-9.6368V133.5156z M48,187.7968c-9.338-0.8476-17.826-4.6248-24.5684-10.3984L48,152.828
		V187.7968z M56,152.828l24.5684,24.5704C73.826,183.172,65.338,186.9492,56,187.7968V152.828z M85.3964,115.4296
		C91.174,122.172,94.9512,130.664,95.7968,140H60.828L85.3964,115.4296z M18.6036,115.4296L43.172,140H8.2032
		C9.0488,130.664,12.826,122.172,18.6036,115.4296z M8.2032,148h33.3124L17.84,171.6756C12.4884,165.086,9.0116,156.9256,8.2032,148
		z M86.16,171.6756L62.4844,148h33.3124C94.9884,156.9256,91.5116,165.086,86.16,171.6756z"/>
	<path fill="#F8A131" d="M192,120c-17.6444,0-32,14.3556-32,32s14.3556,32,32,32s32-14.3556,32-32S209.6444,120,192,120z
		 M196,128.3592c3.6368,0.6172,6.996,2.0432,9.8848,4.1016L196,142.3436V128.3592z M188,142.3436l-9.8848-9.8828
		c2.8888-2.0584,6.248-3.4844,9.8848-4.1016V142.3436z M178.1152,171.5392L188,161.6564v13.9844
		C184.3632,175.0236,181.004,173.5976,178.1152,171.5392z M196,161.6564l9.8848,9.8828c-2.8888,2.0584-6.248,3.4844-9.8848,4.1016
		V161.6564z M211.5412,138.1172c2.0584,2.8868,3.484,6.246,4.0976,9.8828h-13.9824L211.5412,138.1172z M172.4588,138.1172
		L182.3436,148h-13.9824C168.9748,144.3632,170.4004,141.004,172.4588,138.1172z M168.3612,156h13.9824l-9.8848,9.8828
		C170.4004,162.996,168.9748,159.6368,168.3612,156z M211.5412,165.8828L201.6564,156h13.9824
		C215.0252,159.6368,213.5996,162.996,211.5412,165.8828z"/>
	<path fill="#2F4556" d="M32,68h4V26.8632c7.1856-2.41,27.6896-9.082,48-13.8048V68h8V11.3124C101.6192,9.3436,110.7928,8,118,8
		c7.2072,0,16.3808,1.3436,26,3.3124V68h8V13.0584c20.3084,4.7228,40.8144,11.3948,48,13.8048V68h4c2.2088,0,4,1.7892,4,4V24
		c0-1.7032-1.076-3.2148-2.6816-3.7772C202.9512,19.3984,147.0096,0,118,0S33.0488,19.3984,30.6816,20.2228
		C29.076,20.7852,28,22.2968,28,24v48C28,69.7892,29.7912,68,32,68z"/>
	<polygon fill="#2F4556" points="220,72 220,84 208,84 208,92 220,92 228,92 228,84 228,72 	"/>
	<path fill="#618287" d="M208,72c0-2.2108-1.7912-4-4-4h-4h-48h-8H92h-8H36h-4c-2.2088,0-4,1.7892-4,4v17.3908
		c0,1.3708,0.7032,2.6484,1.8632,3.3828c1.162,0.7304,2.6172,0.8124,3.8536,0.2304C40.7032,89.6836,48.1992,88,56,88
		c28.674,0,52,23.328,52,52c0,2.2108,1.7912,4,4,4h41.33c1.8048,0,3.3868-1.2072,3.8596-2.9492
		C161.2012,126.3008,174.6932,116,190,116c4.3244,0,8.5392,0.8008,12.5272,2.3788c1.2364,0.4844,2.6272,0.336,3.7208-0.41
		c1.0956-0.746,1.752-1.9844,1.752-3.3088V92v-8V72z"/>
</g>
</svg>
