<?xml version="1.0" encoding="utf-8"?>
<!-- Generator: Adobe Illustrator 19.2.0, SVG Export Plug-In . SVG Version: 6.00 Build 0)  -->
<svg version="1.1" id="compass" xmlns="http://www.w3.org/2000/svg" xmlns:xlink="http://www.w3.org/1999/xlink" x="0px" y="0px"
	 viewBox="0 0 204 232" enable-background="new 0 0 204 232" xml:space="preserve">
<g>
	<path fill="#49A25A" d="M116.1408,29.004C118.5216,25.9492,120,22.162,120,18c0-9.9256-8.0744-18-18-18S84,8.0744,84,18
		c0,4.162,1.4784,7.9492,3.8592,11.004C92.4844,28.3576,97.1992,28,102,28S111.5156,28.3576,116.1408,29.004z"/>
	<path fill="#A9C7D8" d="M116.1408,29.004C111.5156,28.3576,106.8008,28,102,28s-9.5156,0.3576-14.1408,1.004
		C38.2892,35.912,0,78.5584,0,130c0,56.242,45.758,102,102,102s102-45.758,102-102C204,78.5584,165.7108,35.912,116.1408,29.004z
		 M28,136H12v-8h16V136z M96,40h8v16h-8V40z M104,220h-8v-16h8V220z M159.7852,73.8104l-48.084,65.0528
		c-0.1252,0.17-0.3144,0.26-0.4628,0.4064c-0.1368,0.1348-0.2208,0.3144-0.3772,0.4296l-65.0528,48.084
		c-0.7108,0.5252-1.5448,0.7832-2.3748,0.7832c-1.0312,0-2.0548-0.3964-2.83-1.172c-1.4004-1.4004-1.5664-3.6132-0.3888-5.2048
		l48.084-65.0528c0.1252-0.168,0.3144-0.26,0.4628-0.4044c0.1368-0.1368,0.2208-0.3144,0.3772-0.4316l65.0528-48.084
		c1.5936-1.1776,3.8064-1.0136,5.2048,0.3888C160.7968,70.006,160.9628,72.2188,159.7852,73.8104z M176,136v-8h16v8H176z"/>
	<rect x="96" y="40" fill="#707086" width="8" height="16"/>
	<rect x="96" y="204" fill="#707086" width="8" height="16"/>
	<rect x="176" y="128" fill="#707086" width="16" height="8"/>
	<rect x="12" y="128" fill="#707086" width="16" height="8"/>
	<path fill="#618287" d="M154.1916,68.2168l-65.0528,48.084c-0.1564,0.1172-0.2404,0.2948-0.3772,0.4316
		c0.67-0.662,1.504-1.1368,2.4572-1.2072c1.1444-0.1112,2.3028,0.334,3.1248,1.1604l16.9688,16.9688
		c0.8244,0.822,1.248,1.9648,1.1604,3.1248c-0.0724,0.9668-0.5548,1.8144-1.2344,2.4904c0.1484-0.1464,0.3376-0.2364,0.4628-0.4064
		l48.084-65.0528c1.1776-1.5916,1.0116-3.8044-0.3888-5.2048C157.998,67.2032,155.7852,67.0392,154.1916,68.2168z"/>
	<path fill="#707086" d="M111.3124,133.6544l-16.9688-16.9688c-0.822-0.8264-1.9804-1.2716-3.1248-1.1604
		c-0.9532,0.0704-1.7872,0.5452-2.4572,1.2072c-0.1484,0.1444-0.3376,0.2364-0.4628,0.4044l-48.084,65.0528
		c-1.1776,1.5916-1.0116,3.8044,0.3888,5.2048c0.7752,0.7756,1.7988,1.172,2.83,1.172c0.83,0,1.664-0.258,2.3748-0.7832
		l65.0528-48.084c0.1564-0.1152,0.2404-0.2948,0.3772-0.4296c0.6796-0.676,1.162-1.5236,1.2344-2.4904
		C112.5604,135.6192,112.1368,134.4764,111.3124,133.6544z"/>
</g>
</svg>
