<?xml version="1.0" encoding="utf-8"?>
<!-- Generator: Adobe Illustrator 19.2.0, SVG Export Plug-In . SVG Version: 6.00 Build 0)  -->
<svg version="1.1" id="directioncompass" xmlns="http://www.w3.org/2000/svg" xmlns:xlink="http://www.w3.org/1999/xlink" x="0px"
	 y="0px" viewBox="0 0 224 224" enable-background="new 0 0 224 224" xml:space="preserve">
<g>
	<path fill="#D793FD" d="M112,0C50.242,0,0,50.242,0,112s50.242,112,112,112s112-50.242,112-112S173.758,0,112,0z M112,204
		c-50.7284,0-92-41.2716-92-92s41.2716-92,92-92s92,41.2716,92,92S162.7284,204,112,204z"/>
	<path fill="#618287" d="M112,20c-50.7284,0-92,41.2716-92,92s41.2716,92,92,92s92-41.2716,92-92S162.7284,20,112,20z
		 M167.248,167.1816c-0.7812,0.7812-1.8048,1.172-2.828,1.172c-1.0236,0-2.0468-0.3908-2.8284-1.172l-24.244-24.244
		C130.4472,148.5996,121.6212,152,112,152c-22.0916,0-40-17.9084-40-40c0-9.6212,3.4004-18.4452,9.0624-25.3476L64,69.5916V84
		c0,2.2088-1.7912,4-4,4s-4-1.7912-4-4V60c0-2.2088,1.7912-4,4-4h24c2.2088,0,4,1.7912,4,4s-1.7912,4-4,4H69.7208l17.0056,17.006
		C93.6172,75.3808,102.412,72,112,72c22.0916,0,40,17.9084,40,40c0,9.588-3.3808,18.3828-9.006,25.2736l24.254,24.2516
		C168.8104,163.088,168.8104,165.6192,167.248,167.1816z"/>
	<path fill="#90A9AE" d="M109.172,86.5448c1.5624-1.5624,4.0936-1.5624,5.656,0l22.6272,22.6272
		c1.5624,1.5624,1.5624,4.0936,0,5.656l-8.4532,8.4532l13.992,13.9924C148.6192,130.3828,152,121.588,152,112
		c0-22.0916-17.9084-40-40-40c-9.588,0-18.3828,3.3808-25.2736,9.006l13.9924,13.992L109.172,86.5448z"/>
	<path fill="#90A9AE" d="M114.828,137.4552c-0.7812,0.7812-1.8044,1.1716-2.828,1.1716s-2.0468-0.3904-2.828-1.1716L86.5448,114.828
		c-1.5624-1.5624-1.5624-4.0936,0-5.656l8.5176-8.5176l-14-14.002C75.4004,93.5548,72,102.3788,72,112c0,22.0916,17.9084,40,40,40
		c9.6212,0,18.4472-3.4004,25.3476-9.0624l-14.002-14L114.828,137.4552z"/>
	<path fill="#FFDC82" d="M142.994,137.2736l-13.992-13.9924l8.4532-8.4532c1.5624-1.5624,1.5624-4.0936,0-5.656L114.828,86.5448
		c-1.5624-1.5624-4.0936-1.5624-5.656,0l-8.4532,8.4532L86.7264,81.006L69.7208,64H84c2.2088,0,4-1.7912,4-4s-1.7912-4-4-4H60
		c-2.2088,0-4,1.7912-4,4v24c0,2.2088,1.7912,4,4,4s4-1.7912,4-4V69.5916l17.0624,17.0608l14,14.002l-8.5176,8.5176
		c-1.5624,1.5624-1.5624,4.0936,0,5.656l22.6272,22.6272c0.7812,0.7812,1.8044,1.1716,2.828,1.1716s2.0468-0.3904,2.828-1.1716
		l8.5176-8.5176l14.002,14l24.244,24.244c0.7816,0.7812,1.8048,1.172,2.8284,1.172c1.0232,0,2.0468-0.3908,2.828-1.172
		c1.5624-1.5624,1.5624-4.0936,0-5.6564L142.994,137.2736z"/>
</g>
</svg>
