<?xml version="1.0" encoding="utf-8"?>
<!-- Generator: Adobe Illustrator 19.2.0, SVG Export Plug-In . SVG Version: 6.00 Build 0)  -->
<svg version="1.1" id="directioncircle" xmlns="http://www.w3.org/2000/svg" xmlns:xlink="http://www.w3.org/1999/xlink" x="0px"
	 y="0px" viewBox="0 0 228 228" enable-background="new 0 0 228 228" xml:space="preserve">
<g>
	<path fill="none" d="M114,12C57.758,12,12,57.758,12,114s45.758,102,102,102s102-45.758,102-102S170.242,12,114,12z
		 M173.4864,59.836l-60.092,127.7576c-0.5564,1.1816-1.654,2.0196-2.9432,2.2404c-0.2248,0.0372-0.4512,0.0568-0.676,0.0568
		c-1.0604,0-2.0876-0.422-2.8456-1.1896c-0.74-0.748-1.3064-1.912-1.3064-2.9648v-63.3596H42.2636
		c-1.0604,0-2.078-0.4216-2.828-1.1716c-0.922-0.92-1.414-2.3108-1.1896-3.594c0.2248-1.2832,0.9824-2.4528,2.1604-3.0076
		l127.7576-60.09c1.5352-0.7148,3.342-0.4004,4.5312,0.7912C173.8888,56.496,174.2052,58.3084,173.4864,59.836z"/>
	<path fill="#63B473" d="M114,0C51.1408,0,0,51.1408,0,114s51.1408,114,114,114s114-51.1408,114-114S176.8592,0,114,0z M114,216
		c-56.242,0-102-45.758-102-102S57.758,12,114,12s102,45.758,102,102S170.242,216,114,216z"/>
	<path fill="#FE8657" d="M168.164,54.5136l-127.7576,60.09c-1.178,0.5548-1.9356,1.7244-2.1604,3.0076
		c-0.2244,1.2832,0.2676,2.674,1.1896,3.594c0.75,0.75,1.7676,1.1716,2.828,1.1716h63.3596v63.3596
		c0,1.0528,0.5664,2.2168,1.3064,2.9648c0.758,0.7676,1.7852,1.1896,2.8456,1.1896c0.2248,0,0.4512-0.0196,0.676-0.0568
		c1.2892-0.2208,2.3868-1.0588,2.9432-2.2404l60.092-127.7576c0.7188-1.5276,0.4024-3.34-0.7912-4.5312
		C171.506,54.1132,169.6992,53.7988,168.164,54.5136z"/>
</g>
</svg>
