<?xml version="1.0" encoding="utf-8"?>
<!-- Generator: Adobe Illustrator 19.2.0, SVG Export Plug-In . SVG Version: 6.00 Build 0)  -->
<svg version="1.1" id="doubledeckbus" xmlns="http://www.w3.org/2000/svg" xmlns:xlink="http://www.w3.org/1999/xlink" x="0px"
	 y="0px" viewBox="0 0 240 180" enable-background="new 0 0 240 180" xml:space="preserve">
<g>
	<path fill="#FE8657" d="M160.0351,0H25.8243C11.5859,0,0,11.5625,0,25.7773V32c0-2.2107,1.7891-4,4-4h48h8h44h8h40h8h36.0235
		C207.0391,28,216,36.9729,216,48v16c0,2.2109-1.7893,4-4,4h-52h-8h-40h-8H60h-8H4c-2.2109,0-4-1.7891-4-4v12c0-2.2107,1.7891-4,4-4
		h48h8h44h8h40h8h36.0235C207.0391,72,216,80.9729,216,92v16c0,2.2109-1.7893,4-4,4h-52h-8h-40h-8H60h-8H4c-2.2109,0-4-1.7891-4-4
		v26.2229C0,148.4377,11.5859,160,25.8243,160h2.5348C28.1407,158.6953,28,157.3673,28,156c0-13.2343,10.7655-24,24-24
		c8.3435,0,15.6991,4.2853,20,10.7617C76.3007,136.2853,83.6563,132,92,132c13.2343,0,24,10.7657,24,24
		c0,1.3673-0.1409,2.6953-0.3593,4h48.7184c-0.2184-1.3047-0.3591-2.6327-0.3591-4c0-13.2343,10.7655-24,24-24
		c13.2343,0,24,10.7657,24,24c0,1.3673-0.1409,2.6953-0.3593,4H236c2.2107,0,4-1.7891,4-4v-32h-28v-8h28V80
		C240,35.8869,204.1287,0,160.0351,0z"/>
	<path fill="#4A8F9E" d="M92,132c-8.3437,0-15.6993,4.2853-20,10.7617C67.6991,136.2853,60.3435,132,52,132
		c-13.2345,0-24,10.7657-24,24c0,1.3673,0.1407,2.6953,0.3591,4C30.2735,171.332,40.1327,180,52,180
		c8.3435,0,15.6991-4.2851,20-10.7615C76.3007,175.7149,83.6563,180,92,180c11.8671,0,21.7263-8.668,23.6407-20
		c0.2184-1.3047,0.3593-2.6327,0.3593-4C116,142.7657,105.2343,132,92,132z"/>
	<path fill="#4A8F9E" d="M188,132c-13.2345,0-24,10.7657-24,24c0,1.3673,0.1407,2.6953,0.3591,4
		c1.9144,11.332,11.7736,20,23.6409,20c11.8671,0,21.7263-8.668,23.6407-20c0.2184-1.3047,0.3593-2.6327,0.3593-4
		C212,142.7657,201.2343,132,188,132z"/>
	<path fill="#FFDC82" d="M4,112h48h8h44h8h40h8h52c2.2107,0,4-1.7891,4-4V92c0-11.0271-8.9609-20-19.9765-20H160h-8h-40h-8H60h-8H4
		c-2.2109,0-4,1.7893-4,4v32C0,110.2109,1.7891,112,4,112z M196.0235,80C202.6287,80,208,85.3829,208,92v12h-48V80H196.0235z
		 M152,80v24h-40V80H152z M104,80v24H60V80H104z M8,80h44v24H8V80z"/>
	<rect x="60" y="80" fill="#FCC24C" width="44" height="24"/>
	<rect x="8" y="80" fill="#FCC24C" width="44" height="24"/>
	<rect x="112" y="80" fill="#FCC24C" width="40" height="24"/>
	<path fill="#FCC24C" d="M208,104V92c0-6.6171-5.3713-12-11.9765-12H160v24H208z"/>
	<rect x="212" y="116" fill="#FFDC82" width="28" height="8"/>
	<path fill="#FFDC82" d="M4,68h48h8h44h8h40h8h52c2.2107,0,4-1.7891,4-4V48c0-11.0271-8.9609-20-19.9765-20H160h-8h-40h-8H60h-8H4
		c-2.2109,0-4,1.7893-4,4v32C0,66.2109,1.7891,68,4,68z M196.0235,36C202.6287,36,208,41.3829,208,48v12h-48V36H196.0235z M152,36
		v24h-40V36H152z M104,36v24H60V36H104z M8,36h44v24H8V36z"/>
	<path fill="#FCC24C" d="M208,60V48c0-6.6171-5.3713-12-11.9765-12H160v24H208z"/>
	<rect x="112" y="36" fill="#FCC24C" width="40" height="24"/>
	<rect x="60" y="36" fill="#FCC24C" width="44" height="24"/>
	<rect x="8" y="36" fill="#FCC24C" width="44" height="24"/>
</g>
</svg>
