<?xml version="1.0" encoding="utf-8"?>
<!-- Generator: Adobe Illustrator 19.2.0, SVG Export Plug-In . SVG Version: 6.00 Build 0)  -->
<svg version="1.1" id="electricacar" xmlns="http://www.w3.org/2000/svg" xmlns:xlink="http://www.w3.org/1999/xlink" x="0px"
	 y="0px" viewBox="0 0 240 180.2454" enable-background="new 0 0 240 180.2454" xml:space="preserve">
<g>
	<path fill="#FCC24C" d="M236,128.2454h-4c0-17.6443-14.3517-32-31.992-32h-29.4337l1.0664,2.3457
		c0.5624,1.2364,0.4568,2.676-0.2776,3.8204c-0.738,1.1424-2.004,1.8339-3.3631,1.8339H72v0.1817h-8v-0.1817H36
		c-2.2109,0-4-1.7911-4-4v-4h-8c-2.2109,0-4,1.7913-4,4v28H4c-2.2109,0-4,1.7913-4,4v24c0,2.2089,1.7891,4,4,4h24.3591
		c-0.2184-1.3047-0.3591-2.6347-0.3591-4c0-13.2343,10.7655-24,24-24c13.2343,0,24,10.7657,24,24c0,1.3653-0.1409,2.6953-0.3593,4
		h88.7184c-0.2184-1.3047-0.3591-2.6347-0.3591-4c0-13.2343,10.7655-24,24-24c13.2343,0,24,10.7657,24,24
		c0,1.3653-0.1409,2.6953-0.3593,4H236c2.2107,0,4-1.7911,4-4v-24C240,130.0367,238.2107,128.2454,236,128.2454z"/>
	<path fill="#618287" d="M52,132.2454c-13.2345,0-24,10.7657-24,24c0,1.3653,0.1407,2.6953,0.3591,4
		c1.9144,11.332,11.7736,20,23.6409,20c11.8671,0,21.7263-8.668,23.6407-20c0.2184-1.3047,0.3593-2.6347,0.3593-4
		C76,143.0111,65.2343,132.2454,52,132.2454z M52,164.2454c-4.4101,0-8-3.588-8-8s3.5899-8,8-8c4.4099,0,8,3.588,8,8
		S56.4099,164.2454,52,164.2454z"/>
	<path fill="#618287" d="M188,132.2454c-13.2345,0-24,10.7657-24,24c0,1.3653,0.1407,2.6953,0.3591,4
		c1.9144,11.332,11.7736,20,23.6409,20c11.8671,0,21.7263-8.668,23.6407-20c0.2184-1.3047,0.3593-2.6347,0.3593-4
		C212,143.0111,201.2343,132.2454,188,132.2454z M188,164.2454c-4.4101,0-8-3.588-8-8s3.5899-8,8-8c4.4099,0,8,3.588,8,8
		S192.4099,164.2454,188,164.2454z"/>
	<path fill="#4F676D" d="M188,148.2454c-4.4101,0-8,3.588-8,8s3.5899,8,8,8c4.4099,0,8-3.588,8-8S192.4099,148.2454,188,148.2454z"
		/>
	<path fill="#4F676D" d="M52,148.2454c-4.4101,0-8,3.588-8,8s3.5899,8,8,8c4.4099,0,8-3.588,8-8S56.4099,148.2454,52,148.2454z"/>
	<path fill="#3BABB7" d="M36,104.2454h28v0.1817h8v-0.1817h96c1.3591,0,2.6251-0.6915,3.3631-1.8339
		c0.7344-1.1444,0.84-2.584,0.2776-3.8204l-1.0664-2.3457l-18.9336-41.6543c-0.6487-1.4297-2.0704-2.3457-3.6407-2.3457H72h-8H36
		c-2.2109,0-4,1.7913-4,4v40v4C32,102.4543,33.7891,104.2454,36,104.2454z M145.4255,60.2454l16.3636,36H72v-36H145.4255z
		 M40,60.2454h24v36H40V60.2454z"/>
	<rect x="40" y="60.2454" fill="#7BE5E4" width="24" height="36"/>
	<polygon fill="#7BE5E4" points="161.7891,96.2454 145.4255,60.2454 72,60.2454 72,96.2454 	"/>
	<path fill="#F8A131" d="M182.2891,39.7923l25.074,2.4648l-11.4532,30.008c-0.7848,2.0624,0.2501,4.3748,2.3128,5.162
		c0.4688,0.1796,0.9493,0.2656,1.4256,0.2656c1.6096-0.002,3.1288-0.9804,3.7384-2.576l13.3204-34.9024
		c0.4452-1.164,0.32-2.4708-0.336-3.5312c-0.6564-1.0608-1.7696-1.754-3.012-1.8752l-25.2692-2.4844l9.1872-27.0352
		c0.7112-2.0916-0.41-4.3632-2.5036-5.074c-2.094-0.7129-4.3636,0.412-5.0744,2.5l-10.8084,31.8104
		c-0.3907,1.1564-0.2344,2.428,0.4256,3.4552C179.9803,39.0051,181.0743,39.6731,182.2891,39.7923z"/>
</g>
</svg>
