<?xml version="1.0" encoding="utf-8"?>
<!-- Generator: Adobe Illustrator 19.2.0, SVG Export Plug-In . SVG Version: 6.00 Build 0)  -->
<svg version="1.1" id="electricscooter" xmlns="http://www.w3.org/2000/svg" xmlns:xlink="http://www.w3.org/1999/xlink" x="0px"
	 y="0px" viewBox="0 0 167.228 232.0685" enable-background="new 0 0 167.228 232.0685" xml:space="preserve">
<g>
	<path fill="#89714D" d="M72.3009,160.0685c-19.8517,0-36,16.1484-36,36s16.1483,36,36,36c19.8515,0,36-16.1484,36-36
		S92.1524,160.0685,72.3009,160.0685z M72.3009,224.0685c-15.4377,0-28-12.5624-28-28s12.5623-28,28-28c15.4375,0,28,12.5624,28,28
		S87.7384,224.0685,72.3009,224.0685z"/>
	<path fill="#BC9A67" d="M72.3009,168.0685c-15.4377,0-28,12.5624-28,28s12.5623,28,28,28c15.4375,0,28-12.5624,28-28
		S87.7384,168.0685,72.3009,168.0685z M72.3009,216.0685c-11.0273,0-20-8.9728-20-20c0-11.0272,8.9727-20,20-20
		c11.0271,0,20,8.9728,20,20C92.3009,207.0957,83.328,216.0685,72.3009,216.0685z"/>
	<path fill="#89714D" d="M72.3009,176.0685c-11.0273,0-20,8.9728-20,20c0,11.0272,8.9727,20,20,20c11.0271,0,20-8.9728,20-20
		C92.3009,185.0413,83.328,176.0685,72.3009,176.0685z"/>
	<path fill="#F8A131" d="M166.164,23.5333L151.7032,2.5881c-1.8828-2.7228-5.6212-3.4064-8.3476-1.5276
		c-2.7267,1.8828-3.4104,5.6212-1.5276,8.348l11.25,16.2928l-7.9764,6.242l1.5664,0.0744c1.2108,0.0588,2.328,0.66,3.0392,1.6368
		c0.7148,0.9764,0.9452,2.2264,0.6328,3.3944l-1.8556,6.9296c0.6952-0.2108,1.3712-0.5192,1.9805-0.992l14.4611-11.3164
		C167.426,29.7129,167.9689,26.1465,166.164,23.5333z"/>
	<path fill="#E06C3E" d="M100.7424,157.4905c-2.5784-1.9064-5.348-3.5588-8.2815-4.922
		C94.6056,153.9005,97.336,155.5257,100.7424,157.4905z"/>
	<path fill="#E06C3E" d="M149.7072,33.6545c-0.7112-0.9768-1.8284-1.578-3.0392-1.6368l-1.5664-0.0744L134.41,31.4277
		c-1.6872-0.0976-3.2148,0.8868-3.8708,2.426C96.5624,113.3421,87.508,135.1777,85.09,141.5997
		c12.738,2.9924,23.7928,10.332,31.5389,20.3828c0.1835-0.3124,0.4139-0.5976,0.508-0.9532l31.3475-117.0508l1.8556-6.9296
		C150.6524,35.8809,150.422,34.6309,149.7072,33.6545z"/>
	<path fill="#F8A131" d="M85.09,141.5997c-4.1171-0.9688-8.3828-1.5312-12.7891-1.5312c-29.5313,0-53.8009,22.9804-55.8593,52H4
		c-2.2108,0-4,1.7892-4,4s1.7892,4,4,4h16.3009c2.2107,0,4-1.7892,4-4c0-26.4688,21.5311-48,48-48
		c7.2071,0,14.0195,1.6408,20.16,4.5c2.9335,1.3632,5.7031,3.0156,8.2815,4.922c11.8356,8.75,19.5585,22.7616,19.5585,38.578
		c0,2.2108,1.7891,4,4,4c2.2107,0,4-1.7892,4-4c0-12.832-4.3829-24.6328-11.672-34.086
		C108.8828,151.9317,97.828,144.5921,85.09,141.5997z"/>
</g>
</svg>
