<?xml version="1.0" encoding="utf-8"?>
<!-- Generator: Adobe Illustrator 19.2.0, SVG Export Plug-In . SVG Version: 6.00 Build 0)  -->
<svg version="1.1" id="farmtractor" xmlns="http://www.w3.org/2000/svg" xmlns:xlink="http://www.w3.org/1999/xlink" x="0px"
	 y="0px" viewBox="0 0 224 178" enable-background="new 0 0 224 178" xml:space="preserve">
<g>
	<path fill="none" d="M195.9064,90v40.3748c0.0312-0.0036,0.0624-0.0076,0.0936-0.0156V90H195.9064z"/>
	<path fill="#456782" d="M160,54c0-2.2108-1.7912-4-4-4h-16c-2.2088,0-4,1.7892-4,4v28h24V54z"/>
	<path fill="#C6DFED" d="M20,26.5v52.668C29.744,70.9648,42.2968,66,56,66c15.2928,0,29.162,6.1756,39.2772,16.1444
		C95.5196,82.1016,95.744,82,96,82h12V36.8516L20,26.5z"/>
	<path fill="#A9C7D8" d="M20,79.168V26.5l88,10.3516V82h8V33.2928c0-2.0272-1.5176-3.7344-3.5332-3.9724L40,20.7968V6
		c0-3.3124-2.6856-6-6-6s-6,2.6876-6,6v13.3828l-11.5332-1.3556c-1.1444-0.1524-2.2716,0.2228-3.1252,0.9844
		C12.4884,19.7696,12,20.8592,12,22v64c0,0.41,0.1192,0.7852,0.2344,1.16C14.5568,84.246,17.1504,81.5624,20,79.168z"/>
	<path fill="#C1DB66" d="M176,154c0-11.836,8.6192-21.672,19.9064-23.6252V90H196v40.3592c1.3048-0.2184,2.6348-0.3592,4-0.3592
		s2.6952,0.1408,4,0.3592V86c0-2.2108-1.7912-4-4-4h-40h-24h-20h-8H96c-0.256,0-0.4804,0.1016-0.7228,0.1444
		C105.588,92.3084,112,106.414,112,122c0,15.664-6.4824,29.828-16.8828,40h82.2832C176.5096,159.492,176,156.8084,176,154z
		 M128,110.0236C128,103.3944,133.3788,98,139.992,98h16.016c6.6132,0,11.992,5.3944,11.992,12.0236v11.9528
		C168,128.6056,162.6212,134,156.008,134H152h-8h-4.008c-6.6132,0-11.992-5.3944-11.992-12.0236V110.0236z"/>
	<path fill="#4A8F9E" d="M112,122c0-15.586-6.412-29.6916-16.7228-39.8556C85.162,72.1756,71.2928,66,56,66
		c-13.7032,0-26.256,4.9648-36,13.168c-2.8496,2.3944-5.4432,5.078-7.7656,7.992C4.5976,96.7344,0,108.832,0,122
		c0,30.8788,25.1212,56,56,56c15.2148,0,29.0136-6.1172,39.1172-16C105.5176,151.828,112,137.664,112,122z M36,122
		c0-11.0272,8.9728-20,20-20s20,8.9728,20,20s-8.9728,20-20,20S36,133.0272,36,122z"/>
	<path fill="#FFDC82" d="M76,122c0-11.0272-8.9728-20-20-20s-20,8.9728-20,20s8.9728,20,20,20S76,133.0272,76,122z"/>
	<path fill="#4A8F9E" d="M204,130.3592c-1.3048-0.2184-2.6348-0.3592-4-0.3592s-2.6952,0.1408-4,0.3592
		c-0.0312,0.008-0.0624,0.012-0.0936,0.0156C184.6192,132.328,176,142.164,176,154c0,2.8084,0.5096,5.492,1.4004,8
		c3.3048,9.3048,12.174,16,22.5996,16c13.2344,0,24-10.7656,24-24C224,142.1328,215.332,132.2736,204,130.3592z"/>
	<path fill="#FE8657" d="M139.992,134H144v-8h-4.008c-2.238,0-3.992-1.7656-3.992-4.0236v-11.9528
		c0-2.2188,1.7912-4.0236,3.992-4.0236h16.016c2.238,0,3.992,1.7656,3.992,4.0236v11.9528c0,2.2188-1.7912,4.0236-3.992,4.0236H152
		v8h4.008c6.6132,0,11.992-5.3944,11.992-12.0236v-11.9528C168,103.3944,162.6212,98,156.008,98h-16.016
		C133.3788,98,128,103.3944,128,110.0236v11.9528C128,128.6056,133.3788,134,139.992,134z"/>
	<path fill="#F8A131" d="M152,118v8h4.008c2.2008,0,3.992-1.8048,3.992-4.0236v-11.9528c0-2.258-1.754-4.0236-3.992-4.0236h-16.016
		c-2.2008,0-3.992,1.8048-3.992,4.0236v11.9528c0,2.258,1.754,4.0236,3.992,4.0236H144v-8H152z"/>
	<polygon fill="#535353" points="152,118 144,118 144,126 144,134 152,134 152,126 	"/>
</g>
</svg>
