<?xml version="1.0" encoding="utf-8"?>
<!-- Generator: Adobe Illustrator 19.2.0, SVG Export Plug-In . SVG Version: 6.00 Build 0)  -->
<svg version="1.1" id="fishingboat" xmlns="http://www.w3.org/2000/svg" xmlns:xlink="http://www.w3.org/1999/xlink" x="0px"
	 y="0px" viewBox="0 0 216.0022 162" enable-background="new 0 0 216.0022 162" xml:space="preserve">
<g>
	<path fill="#FCC24C" d="M176.0012,26c0-6.9687,3.7107-14,12-14c7.7187,0,14,6.2813,14,14c0,3.3145,2.6875,6,6,6
		c3.3123,0,6-2.6855,6-6c0-14.336-11.664-26-26-26c-13.9065,0-24,10.9337-24,26v48h12V26z"/>
	<path fill="#90A9AE" d="M215.4035,75.8965C214.6732,74.7189,213.3879,74,212.0012,74h-36h-12h-10.2853
		c-1.7852,0-3.3556,1.1837-3.8476,2.9005L144.9855,94h-44.9843v32c0,6.6173,5.3827,12,12,12c6.6171,0,12-5.3827,12-12
		c0-2.2087,1.7891-4,4-4c2.2107,0,4,1.7913,4,4c0,11.0273-8.9729,20-20,20c-6.5665,0-12.3517-3.2227-16-8.1231
		c-3.6485,4.9004-9.4337,8.1231-16,8.1231c-11.0273,0-20-8.9727-20-20c0-2.2087,1.7891-4,4-4c2.2107,0,4,1.7913,4,4
		c0,6.6173,5.3827,12,12,12c6.6171,0,12-5.3827,12-12V94H71.0167l-4.8828-17.0995C65.6419,75.1837,64.0715,74,62.2863,74H4.0012
		c-1.3869,0-2.672,0.7189-3.4025,1.8965c-0.7304,1.1795-0.7968,2.6524-0.1756,3.8928l40,80
		C41.1027,161.1445,42.4855,162,44.0012,162h128c1.5155,0,2.8983-0.8555,3.5779-2.2107l40-80
		C216.2003,78.5489,216.1339,77.076,215.4035,75.8965z"/>
	<path fill="#FCC24C" d="M80.0012,138c-6.6173,0-12-5.3827-12-12c0-2.2087-1.7893-4-4-4c-2.2109,0-4,1.7913-4,4
		c0,11.0273,8.9727,20,20,20c6.5663,0,12.3515-3.2227,16-8.1231c3.6483,4.9004,9.4335,8.1231,16,8.1231c11.0271,0,20-8.9727,20-20
		c0-2.2087-1.7893-4-4-4c-2.2109,0-4,1.7913-4,4c0,6.6173-5.3829,12-12,12c-6.6173,0-12-5.3827-12-12V94h-8v32
		C92.0012,132.6173,86.6183,138,80.0012,138z"/>
</g>
</svg>
