<?xml version="1.0" encoding="utf-8"?>
<!-- Generator: Adobe Illustrator 19.2.0, SVG Export Plug-In . SVG Version: 6.00 Build 0)  -->
<svg version="1.1" id="frontviewcar" xmlns="http://www.w3.org/2000/svg" xmlns:xlink="http://www.w3.org/1999/xlink" x="0px"
	 y="0px" viewBox="0 0 219.0995 144" enable-background="new 0 0 219.0995 144" xml:space="preserve">
<g>
	<path fill="#BDB9FF" d="M109.5497,64.2929c16.7735,0,44.0507-4.5936,63.3123-8.2929H46.2372
		C65.5104,59.7033,92.784,64.2929,109.5497,64.2929z"/>
	<path fill="#52595B" d="M15.5497,123.6565V140c0,2.2109,1.7891,4,4,4h36c2.2107,0,4-1.7891,4-4v-16H19.03
		C17.8424,124,16.6864,123.8557,15.5497,123.6565z"/>
	<path fill="#52595B" d="M159.5497,124v16c0,2.2109,1.7891,4,4,4h36c2.2107,0,4-1.7891,4-4v-16.3435
		c-1.1369,0.2028-2.2929,0.3435-3.4805,0.3435H159.5497z"/>
	<path fill="#B976DD" d="M219.0577,103.8049l-2.3089-36.1172c-0.3476-5.4296-2.7892-10.1252-6.8711-13.2228
		c-3.3165-2.5116-7.3593-3.6329-11.6365-3.3868l10.3828-10.488c1.5544-1.5664,1.5388-4.1016-0.0316-5.6564
		c-1.5664-1.5508-4.0976-1.5428-5.656,0.0312l-10.5312,10.6368l1.2576,5.5076c0.2736,1.1876-0.0116,2.4336-0.7696,3.3827
		c-0.7616,0.9533-1.91,1.508-3.1288,1.508H172.862c-19.2616,3.6993-46.5388,8.2929-63.3123,8.2929
		c-16.7657,0-44.0393-4.5896-63.3125-8.2929H29.3348c-1.2188,0-2.3672-0.5547-3.1288-1.504
		c-0.758-0.9531-1.0432-2.1991-0.7696-3.3867l1.3984-6.1328l-9.918-10.0156c-1.5588-1.5664-4.086-1.578-5.66-0.0272
		c-1.5664,1.5548-1.582,4.09-0.0276,5.66L21.702,51.172c-4.586-0.4611-8.9768,0.6249-12.508,3.3085
		c-4.0664,3.094-6.496,7.7812-6.8436,13.2032v0.004l-2.3087,36.1172c-0.3437,5.3591,1.4455,10.4216,5.0351,14.246
		c2.8049,2.992,6.4492,4.8944,10.4729,5.6056C16.6864,123.8557,17.8424,124,19.03,124h40.5197h100h40.5195
		c1.1876,0,2.3436-0.1407,3.4805-0.3435c4.0271-0.7072,7.672-2.6096,10.4803-5.598
		C217.616,114.2345,219.4012,109.172,219.0577,103.8049z M181.5497,68c9.9255,0,18,8.0745,18,18c0,9.9257-8.0745,18-18,18
		c-9.9257,0-18-8.0743-18-18C163.5497,76.0745,171.624,68,181.5497,68z M37.5497,68c9.9255,0,18,8.0745,18,18
		c0,9.9257-8.0745,18-18,18c-9.9257,0-18-8.0743-18-18C19.5497,76.0745,27.624,68,37.5497,68z"/>
	<circle fill="#B976DD" cx="37.5497" cy="86" r="10"/>
	<circle fill="#B976DD" cx="181.5497" cy="86" r="10"/>
	<path fill="#FCC24C" d="M163.5497,86c0,9.9257,8.0743,18,18,18c9.9255,0,18-8.0743,18-18c0-9.9255-8.0745-18-18-18
		C171.624,68,163.5497,76.0745,163.5497,86z M181.5497,76c5.5155,0,10,4.4845,10,10c0,5.5157-4.4845,10-10,10
		c-5.5157,0-10-4.4843-10-10C171.5497,80.4845,176.034,76,181.5497,76z"/>
	<path fill="#FCC24C" d="M37.5497,104c9.9255,0,18-8.0743,18-18c0-9.9255-8.0745-18-18-18c-9.9257,0-18,8.0745-18,18
		C19.5497,95.9257,27.624,104,37.5497,104z M37.5497,76c5.5155,0,10,4.4845,10,10c0,5.5157-4.4845,10-10,10
		c-5.5157,0-10-4.4843-10-10C27.5497,80.4845,32.034,76,37.5497,76z"/>
	<path fill="#7BE5E4" d="M26.206,54.496C26.9676,55.4453,28.116,56,29.3348,56h16.9024H172.862h16.9024
		c1.2188,0,2.3672-0.5547,3.1288-1.508c0.758-0.9491,1.0432-2.1951,0.7696-3.3827l-1.2576-5.5076l-6.1368-26.9064
		C183.8817,8.2109,173.5692,0,162.7916,0H56.3076C45.534,0,35.2177,8.2109,32.8268,18.6953l-5.992,26.2812l-1.3984,6.1328
		C25.1628,52.2969,25.448,53.5429,26.206,54.496z M40.624,20.4765C42.1668,13.7149,49.3504,8,56.3076,8h106.484
		c6.9572,0,14.1368,5.7109,15.68,12.4765L184.7488,48H34.3504L40.624,20.4765z"/>
	<path fill="#3BABB7" d="M178.4716,20.4765C176.9284,13.7109,169.7488,8,162.7916,8H56.3076
		c-6.9572,0-14.1408,5.7149-15.6836,12.4765L34.3504,48h150.3984L178.4716,20.4765z M62.3777,18.828l-12,12
		C49.5964,31.6093,48.5732,32,47.5497,32c-1.0237,0-2.0469-0.3907-2.828-1.172c-1.5629-1.5623-1.5629-4.0935,0-5.656l12-12
		c1.5623-1.5627,4.0935-1.5627,5.656,0C63.9404,14.7345,63.9404,17.2657,62.3777,18.828z"/>
	<path fill="#7BE5E4" d="M56.7217,13.172l-12,12c-1.5629,1.5625-1.5629,4.0937,0,5.656C45.5028,31.6093,46.526,32,47.5497,32
		c1.0235,0,2.0467-0.3907,2.828-1.172l12-12c1.5627-1.5623,1.5627-4.0935,0-5.656C60.8152,11.6093,58.284,11.6093,56.7217,13.172z"
		/>
</g>
</svg>
