<?xml version="1.0" encoding="utf-8"?>
<!-- Generator: Adobe Illustrator 19.2.0, SVG Export Plug-In . SVG Version: 6.00 Build 0)  -->
<svg version="1.1" id="frontviewship" xmlns="http://www.w3.org/2000/svg" xmlns:xlink="http://www.w3.org/1999/xlink" x="0px"
	 y="0px" viewBox="0 0 200 216" enable-background="new 0 0 200 216" xml:space="preserve">
<g>
	<path fill="#FFDC82" d="M106,40V16c0-2.2087-1.7912-4-4-4H68V0h-8v12H50c-2.2088,0-4,1.7913-4,4v24H106z"/>
	<path fill="#49A25A" d="M74.3888,68.3381c1.0272-0.4492,2.1952-0.4492,3.2224,0L122,87.8633V44c0-2.2087-1.7912-4-4-4h-12H46H34
		c-2.2088,0-4,1.7913-4,4v43.8633L74.3888,68.3381z"/>
	<path fill="#50CCD3" d="M196,184c-2.2088,0-4,1.7913-4,4c0,11.0273-8.9728,20-20,20s-20-8.9727-20-20c0-2.2087-1.7912-4-4-4
		s-4,1.7913-4,4c0,11.0273-8.9728,20-20,20s-20-8.9727-20-20c0-2.2087-1.7912-4-4-4s-4,1.7913-4,4c0,11.0273-8.9728,20-20,20
		s-20-8.9727-20-20c0-2.2087-1.7912-4-4-4s-4,1.7913-4,4c0,11.0273-8.9728,20-20,20s-20-8.9727-20-20c0-2.2087-1.7912-4-4-4
		s-4,1.7913-4,4c0,15.4397,12.5604,28,28,28c10.1916,0,19.1016-5.4903,24-13.6523C56.8984,210.5097,65.8084,216,76,216
		s19.1016-5.4903,24-13.6523C104.8984,210.5097,113.8084,216,124,216s19.1016-5.4903,24-13.6523
		C152.8984,210.5097,161.8084,216,172,216c15.4396,0,28-12.5603,28-28C200,185.7913,198.2088,184,196,184z"/>
	<path fill="#99D59D" d="M32,137.744V176c0,2.2089,1.7912,4,4,4h80c2.2088,0,4-1.7911,4-4v-32H56v-8h64v1.744l11.8476-41.7791
		c0.5448-1.922-0.41-3.9492-2.2364-4.754L122,87.8633L77.6112,68.3381c-1.0272-0.4492-2.1952-0.4492-3.2224,0L30,87.8633
		l-7.6112,3.3476c-1.8264,0.8048-2.7812,2.832-2.2364,4.754L32,137.744z"/>
	<polygon fill="#49A25A" points="56,136 56,144 120,144 120,137.744 120,136 	"/>
</g>
</svg>
