<?xml version="1.0" encoding="utf-8"?>
<!-- Generator: Adobe Illustrator 19.2.0, SVG Export Plug-In . SVG Version: 6.00 Build 0)  -->
<svg version="1.1" id="garbagecan" xmlns="http://www.w3.org/2000/svg" xmlns:xlink="http://www.w3.org/1999/xlink" x="0px" y="0px"
	 viewBox="0 0 134.0703 208" enable-background="new 0 0 134.0703 208" xml:space="preserve">
<g>
	<path fill="#90A9AE" d="M12,12v176c0,2.2108,1.7891,4,4,4h60.4063C76.1407,190.7072,76,189.3712,76,188c0-11.0272,8.9727-20,20-20
		c2.1327,0,4.1523,0.4256,6.0819,1.0468L119.1523,12H12z"/>
	<path fill="#4A8F9E" d="M96,168c-11.0273,0-20,8.9728-20,20c0,1.3712,0.1407,2.7072,0.4063,4c1.8552,9.1172,9.9372,16,19.5937,16
		c11.0271,0,20-8.9728,20-20c0-8.8944-5.8749-16.3632-13.9181-18.9532C100.1523,168.4256,98.1327,168,96,168z"/>
	<polygon fill="#2F4556" points="116,0 16,0 0,0 0,12 12,12 119.1523,12 124,12 124,128 132,128 132,12 134.0703,12 134.0703,0 	"/>
</g>
</svg>
