<?xml version="1.0" encoding="utf-8"?>
<!-- Generator: Adobe Illustrator 19.2.0, SVG Export Plug-In . SVG Version: 6.00 Build 0)  -->
<svg version="1.1" id="gasstation" xmlns="http://www.w3.org/2000/svg" xmlns:xlink="http://www.w3.org/1999/xlink" x="0px" y="0px"
	 viewBox="0 0 196 208" enable-background="new 0 0 196 208" xml:space="preserve">
<g>
	<path fill="#4A8F9E" d="M20,84h108c2.2107,0,4,1.7913,4,4v4h12c2.2107,0,4-1.7911,4-4V4c0-2.2087-1.7893-4-4-4H4
		C1.7891,0,0,1.7913,0,4v84c0,2.2089,1.7891,4,4,4h12v-4C16,85.7913,17.7891,84,20,84z M16,20h116v52H48h-8H16V20z"/>
	<polygon fill="#B7F5F0" points="48,48 48,64 124,64 124,28 24,28 24,64 40,64 40,48 	"/>
	<polygon fill="#90A9AE" points="40,64 24,64 24,28 124,28 124,64 48,64 48,72 132,72 132,20 16,20 16,72 40,72 	"/>
	<polygon fill="#EB4548" points="48,48 40,48 40,64 40,72 48,72 48,64 	"/>
	<path fill="#4A8F9E" d="M128,184H20c-2.2109,0-4,1.7913-4,4v16c0,2.2089,1.7891,4,4,4h108c2.2107,0,4-1.7911,4-4v-16
		C132,185.7913,130.2107,184,128,184z"/>
	<path fill="#456782" d="M173.16,11.6193c-1.0117-1.9628-3.4141-2.75-5.3865-1.7304c-1.9652,1.0096-2.7384,3.4196-1.7308,5.3864
		L178.7383,40h8.996L173.16,11.6193z"/>
	<path fill="#456782" d="M180,176c0,4.412-3.5901,8-8,8c-4.4101,0-8-3.588-8-8v-56c0-8.8223-7.1757-16-16-16h-16V92v-4
		c0-2.2087-1.7893-4-4-4H20c-2.2109,0-4,1.7913-4,4v4v96c0-2.2087,1.7891-4,4-4h108c2.2107,0,4,1.7913,4,4v-76h16
		c4.4099,0,8,3.588,8,8v56c0,8.8225,7.1755,16,16,16c8.8243,0,16-7.1775,16-16V84h-8V176z"/>
	<polygon fill="#EB4548" points="196,40 187.7343,40 178.7383,40 172,40 172,84 180,84 188,84 196,84 	"/>
</g>
</svg>
