<?xml version="1.0" encoding="utf-8"?>
<!-- Generator: Adobe Illustrator 19.2.0, SVG Export Plug-In . SVG Version: 6.00 Build 0)  -->
<svg version="1.1" id="gondolamountain" xmlns="http://www.w3.org/2000/svg" xmlns:xlink="http://www.w3.org/1999/xlink" x="0px"
	 y="0px" viewBox="0 0 168.0015 217.5995" enable-background="new 0 0 168.0015 217.5995" xml:space="preserve">
<g>
	<polygon fill="none" points="86.0009,33.5644 80.0009,37.5955 80.0009,61.5995 92.0009,61.5995 92.0009,37.5955 	"/>
	<path fill="#FE8657" d="M166.9539,166.9024c-0.758-0.83-1.828-1.3029-2.9531-1.3029h-7.1017
		c-0.2068,0.2697-0.3983,0.5509-0.6212,0.8125c-3.9724,4.6348-9.7656,7.1875-16.3044,7.1875H28.028
		c-6.5351,0-12.324-2.5547-16.3008-7.1931c-0.2223-0.26-0.41-0.5392-0.6172-0.8069H4.0009c-1.1249,0-2.1953,0.4729-2.9533,1.3029
		c-0.7576,0.83-1.1328,1.9392-1.0312,3.0584L2.028,192.09c1.2776,14.0664,13.836,25.5095,27.9924,25.5095h107.9608
		c14.1564,0,26.7148-11.4431,27.9924-25.5095l2.0116-22.1292C168.0867,168.8416,167.7115,167.7324,166.9539,166.9024z
		 M54.0009,193.5995h-32v-12h32V193.5995z M146.0009,193.5995h-32v-12h32V193.5995z"/>
	<path fill="#7BE5E4" d="M28.028,173.5995h111.9456c6.5388,0,12.332-2.5527,16.3044-7.1875
		c0.2229-0.2616,0.4144-0.5428,0.6212-0.8125c3.508-4.5311,4.9492-10.3083,4.008-16.4139l-9.9063-64.3888
		c-1.9689-12.7908-14.0901-23.1973-27.0197-23.1973h-23.9803v4h-8v-4h-12v4h-8v-4H44.0204
		c-13.1484,0-25.0195,10.1897-27.0195,23.1973v0.002l-9.9065,64.3847c-0.9412,6.1037,0.5,11.8829,4.0156,16.416
		c0.2072,0.2677,0.3949,0.5469,0.6172,0.8069C15.704,171.0448,21.4929,173.5995,28.028,173.5995z M17.7976,161.1972
		c-2.4376-2.8396-3.4296-6.6756-2.7967-10.7968l9.9063-64.3868v0.0019c1.3944-9.0527,9.9688-16.416,19.1132-16.416h79.9608
		c9.1448,0,17.7188,7.3633,19.1132,16.4141l9.9065,64.3888c0.6327,4.1248-0.3557,7.9628-2.7929,10.8008
		c-2.43,2.836-6.0664,4.3963-10.2344,4.3963H28.028C23.864,165.5995,20.2312,164.0372,17.7976,161.1972z"/>
	<path fill="#50CCD3" d="M150.2079,161.2032c2.4372-2.838,3.4256-6.676,2.7929-10.8008l-9.9065-64.3888
		c-1.3944-9.0508-9.9684-16.4141-19.1132-16.4141H44.0204c-9.1444,0-17.7188,7.3633-19.1132,16.416v-0.0019l-9.9063,64.3868
		c-0.6329,4.1212,0.3591,7.9572,2.7967,10.7968c2.4336,2.84,6.0664,4.4023,10.2304,4.4023h111.9456
		C144.1416,165.5995,147.778,164.0392,150.2079,161.2032z M58.8289,84.4275l-18.1093,18.1117
		c-0.7812,0.7812-1.8048,1.1716-2.828,1.1716c-1.0236,0-2.0472-0.3904-2.8284-1.1716c-1.5623-1.5628-1.5623-4.094,0-5.6564
		l18.1097-18.1113c1.5623-1.5627,4.0935-1.5627,5.656,0C60.3916,80.334,60.3916,82.8652,58.8289,84.4275z"/>
	<rect x="22.0009" y="181.5995" fill="#FFDC82" width="32" height="12"/>
	<rect x="114.0009" y="181.5995" fill="#FFDC82" width="32" height="12"/>
	<path fill="#7BE5E4" d="M53.1729,78.7715L35.0632,96.8828c-1.5623,1.5624-1.5623,4.0936,0,5.6564
		c0.7812,0.7812,1.8048,1.1716,2.8284,1.1716c1.0232,0,2.0468-0.3904,2.828-1.1716l18.1093-18.1117
		c1.5627-1.5623,1.5627-4.0935,0-5.656C57.2664,77.2088,54.7352,77.2088,53.1729,78.7715z"/>
	<path fill="#3BABB7" d="M80.0009,65.5995v-4v-24.004l6-4.0311l6,4.0311v24.004v4h8v-4V35.4648c0-1.332-0.664-2.578-1.7697-3.3204
		l-5.0583-3.3984l32.9023-22.1052L121.614,0L86.0009,23.9275L50.3876,0l-4.4612,6.6408L78.8288,28.746l-5.0585,3.3984
		c-1.1055,0.7424-1.7695,1.9884-1.7695,3.3204v26.1347v4H80.0009z"/>
</g>
</svg>
