<?xml version="1.0" encoding="utf-8"?>
<!-- Generator: Adobe Illustrator 19.2.0, SVG Export Plug-In . SVG Version: 6.00 Build 0)  -->
<svg version="1.1" id="gondola" xmlns="http://www.w3.org/2000/svg" xmlns:xlink="http://www.w3.org/1999/xlink" x="0px" y="0px"
	 viewBox="0 0 210.1448 211.7493" enable-background="new 0 0 210.1448 211.7493" xml:space="preserve">
<g>
	<polygon fill="none" points="104.9904,25.6558 114.1192,17.7922 97.8868,19.519 	"/>
	<polygon fill="none" points="104.9824,36.2181 96.2364,43.7493 113.7012,43.7493 	"/>
	<path fill="#456782" d="M210.1232,3.5773c-0.2344-2.1992-2.2148-3.7888-4.4004-3.5544L3.5784,21.4914
		C1.5256,21.7102,0,23.4446,0,25.4642c0,0.1408,0.008,0.2812,0.0216,0.426c0.2188,2.0544,1.9532,3.578,3.9728,3.578
		c0.1424,0,0.2848-0.008,0.4276-0.0236l82.5644-8.7696l11.8752,10.258L83.9784,43.7493h12.258l8.746-7.5312l8.7188,7.5312h12.2404
		l-14.83-12.8083l15.826-13.6292c0.3204-0.2732,0.5332-0.6172,0.744-0.9568l78.8848-8.3792
		c2.0528-0.2184,3.5784-1.9528,3.5784-3.9724C210.1448,3.8625,210.1368,3.7221,210.1232,3.5773z M104.9904,25.6558l-7.1036-6.1368
		l16.2324-1.7268L104.9904,25.6558z"/>
	<path fill="#FE8657" d="M96.2364,43.7493h-12.258h-47.5c-8.8356,0-16.0252,7.1916-16.0252,16.0272v15.9728c0-2.2108,1.7912-4,4-4
		h76h8h76c2.2088,0,4,1.7892,4,4V59.7765c0-8.8356-7.1896-16.0272-16.0252-16.0272h-46.4864h-12.2404H96.2364z"/>
	<path fill="#FE8657" d="M184.4532,151.7493h-76v0.1092h-8v-0.1092h-76c-2.2088,0-4-1.7892-4-4v47.9728
		c0,8.8356,7.1896,16.0272,16.0252,16.0272H172.428c8.8356,0,16.0252-7.1916,16.0252-16.0272v-47.9728
		C188.4532,149.9601,186.662,151.7493,184.4532,151.7493z"/>
	<path fill="#50CCD3" d="M184.4532,71.7493h-76h-8h-76c-2.2088,0-4,1.7892-4,4v72c0,2.2108,1.7912,4,4,4h76v0.1092h8v-0.1092h76
		c2.2088,0,4-1.7892,4-4v-72C188.4532,73.5385,186.662,71.7493,184.4532,71.7493z M28.4532,143.7493v-64h72v64H28.4532z
		 M180.4532,143.7493h-72v-64h72V143.7493z"/>
	<path fill="#3BABB7" d="M28.4532,79.7493v64h72v-64H28.4532z M39.2812,98.5773c-0.7812,0.7812-1.8044,1.172-2.828,1.172
		c-1.0236,0-2.0468-0.3908-2.828-1.172c-1.5628-1.5624-1.5628-4.0936,0-5.656l8-8c1.5624-1.5628,4.0936-1.5628,5.656,0
		c1.5628,1.5624,1.5628,4.0936,0,5.656L39.2812,98.5773z"/>
	<path fill="#3BABB7" d="M108.4532,143.7493h72v-64h-72V143.7493z M121.6252,84.9213c1.5624-1.5628,4.0936-1.5628,5.656,0
		c1.5628,1.5624,1.5628,4.0936,0,5.656l-8,8c-0.7812,0.7812-1.8044,1.172-2.828,1.172s-2.0468-0.3908-2.828-1.172
		c-1.5628-1.5624-1.5628-4.0936,0-5.656L121.6252,84.9213z"/>
	<path fill="#535353" d="M47.2812,84.9213c-1.5624-1.5628-4.0936-1.5628-5.656,0l-8,8c-1.5628,1.5624-1.5628,4.0936,0,5.656
		c0.7812,0.7812,1.8044,1.172,2.828,1.172c1.0236,0,2.0468-0.3908,2.828-1.172l8-8C48.844,89.0149,48.844,86.4837,47.2812,84.9213z"
		/>
	<path fill="#535353" d="M113.6252,98.5773c0.7812,0.7812,1.8044,1.172,2.828,1.172s2.0468-0.3908,2.828-1.172l8-8
		c1.5628-1.5624,1.5628-4.0936,0-5.656c-1.5624-1.5628-4.0936-1.5628-5.656,0l-8,8
		C112.0624,94.4837,112.0624,97.0149,113.6252,98.5773z"/>
</g>
</svg>
