<?xml version="1.0" encoding="utf-8"?>
<!-- Generator: Adobe Illustrator 19.2.0, SVG Export Plug-In . SVG Version: 6.00 Build 0)  -->
<svg version="1.1" id="heartmap" xmlns="http://www.w3.org/2000/svg" xmlns:xlink="http://www.w3.org/1999/xlink" x="0px" y="0px"
	 viewBox="0 0 176 225.4166" enable-background="new 0 0 176 225.4166" xml:space="preserve">
<g>
	<path fill="#FFDC82" d="M56,221.4166V94.2858c0-1.9668,1.4295-3.6428,3.3751-3.9512L60,90.237L4.6251,81.4654
		c-1.1524-0.1776-2.3324,0.1524-3.2228,0.91C0.5115,83.1354,0,84.2466,0,85.4166v127.1308c0,1.9668,1.4295,3.6428,3.3751,3.9512
		l56,8.8692c0.2068,0.0332,0.4176,0.0488,0.6249,0.0488c-0.9453,0-1.8673-0.336-2.5977-0.9588
		C56.5115,223.6978,56,222.5866,56,221.4166z"/>
	<path fill="#FFDC82" d="M172.6251,90.3346l-56-8.8692c-0.2112-0.0312-0.4144,0.0372-0.6251,0.0372
		c0.9415,0.0056,1.8671,0.254,2.5975,0.8728c0.8908,0.76,1.4025,1.8712,1.4025,3.0412v127.1308
		c0,1.9668-1.4297,3.6428-3.3749,3.9512L116,216.5982l55.3751,8.7696c0.2068,0.0332,0.4176,0.0488,0.6249,0.0488
		c0.9451,0,1.8671-0.336,2.5975-0.9588c0.8908-0.76,1.4025-1.8712,1.4025-3.0412V94.2858
		C176,92.319,174.5703,90.643,172.6251,90.3346z"/>
	<path fill="#F8A131" d="M120,212.5474V85.4166c0-1.17-0.5117-2.2812-1.4025-3.0412c-0.7304-0.6188-1.656-0.8672-2.5975-0.8728
		c-0.2109,0-0.4141-0.0684-0.6249-0.0372L60,90.237l-0.6249,0.0976C57.4295,90.643,56,92.319,56,94.2858v127.1308
		c0,1.17,0.5115,2.2812,1.4023,3.0412c0.7304,0.6228,1.6524,0.9588,2.5977,0.9588c0.2071,0,0.4179-0.0156,0.6251-0.0488
		L116,216.5982l0.6251-0.0996C118.5703,216.1902,120,214.5142,120,212.5474z"/>
	<path fill="#FF6B97" d="M75.5195,65.729c1.0584,1.002,2.2264,1.8752,3.4805,2.5996c2.9179,1.6816,6.1795,2.5312,9.7147,2.5312
		c0.426,0,0.8516-0.0116,1.2853-0.0368c4.0311,0.2344,7.7303-0.6116,11-2.4964c1.2539-0.7224,2.4219-1.5956,3.4803-2.5976
		c6.2812-4.0312,11.8204-10.0076,16.0352-17.3104c4.922-8.5256,7.3984-17.8456,6.9728-26.246
		C127.0311,13.1314,123.3047,6.149,117,2.5102c-7.5625-4.3708-17.6953-2.9512-27,3.6232c-9.3085-6.5744-19.4377-7.994-27-3.6252
		C56.6951,6.149,52.9687,13.1314,52.5115,22.1726c-0.4256,8.4004,2.0508,17.7204,6.9728,26.246
		C63.6991,55.7214,69.2383,61.6978,75.5195,65.729z"/>
</g>
</svg>
