<?xml version="1.0" encoding="utf-8"?>
<!-- Generator: Adobe Illustrator 19.2.0, SVG Export Plug-In . SVG Version: 6.00 Build 0)  -->
<svg version="1.1" id="highway" xmlns="http://www.w3.org/2000/svg" xmlns:xlink="http://www.w3.org/1999/xlink" x="0px" y="0px"
	 viewBox="0 0 176.0016 196" enable-background="new 0 0 176.0016 196" xml:space="preserve">
<g>
	<path fill="#A9C7D8" d="M84.0008,4c0-2.2108-1.7893-4-4-4h-36c-1.8869,0-3.5197,1.3204-3.9141,3.168L27.9928,60h56.008V4z"/>
	<path fill="#A9C7D8" d="M0.0867,191.168c-0.2499,1.1796,0.0468,2.41,0.8048,3.3476C1.6531,195.4532,2.7935,196,4.0008,196h76
		c2.2107,0,4-1.7892,4-4V68H26.2935L0.0867,191.168z"/>
	<path fill="#C6DFED" d="M135.9147,3.168C135.5203,1.3204,133.8875,0,132.0008,0h-36c-2.2109,0-4,1.7892-4,4v56h56.008
		L135.9147,3.168z"/>
	<path fill="#C6DFED" d="M92.0008,192c0,2.2108,1.7891,4,4,4h76c1.2071,0,2.3475-0.5468,3.1091-1.4844
		c0.758-0.9376,1.0549-2.168,0.8048-3.3476L149.7079,68H92.0008V192z"/>
	<path fill="#618287" d="M176.0008,102V64c0-2.2108-1.7893-4-4-4h-23.992h-56.008h-8h-56.008H4.0008c-2.2109,0-4,1.7892-4,4v38h8V68
		h18.2927h57.7073h8h57.7071h18.2929v34H176.0008z"/>
</g>
</svg>
