<?xml version="1.0" encoding="utf-8"?>
<!-- Generator: Adobe Illustrator 19.2.0, SVG Export Plug-In . SVG Version: 6.00 Build 0)  -->
<svg version="1.1" id="icecreamtruck" xmlns="http://www.w3.org/2000/svg" xmlns:xlink="http://www.w3.org/1999/xlink" x="0px"
	 y="0px" viewBox="0 0 232 228" enable-background="new 0 0 232 228" xml:space="preserve">
<g>
	<path fill="#D8F768" d="M0,87.9728V88c0-0.004,0-0.008,0-0.008C0,87.9844,0,87.9804,0,87.9728z"/>
	<path fill="#D8F768" d="M128,204v-52c0-2.2108,1.7891-4,4-4h4V87.9728C136,99.0156,127.0271,108,116,108
		c-6.5665,0-12.3517-3.2264-16-8.1328C96.3515,104.7736,90.5663,108,84,108c-6.5665,0-12.3517-3.2264-16-8.1328
		C64.3515,104.7736,58.5663,108,52,108c-6.5625,0-12.3477-3.2264-15.996-8.1288C32.3555,104.7736,26.5663,108,20,108
		C8.9727,108,0,99.0272,0,88v116c0,2.2108,1.7891,4,4,4h12.3591C16.1407,206.6952,16,205.3672,16,204c0-13.2344,10.7655-24,24-24
		c13.2343,0,24,10.7656,24,24c0,1.3672-0.1409,2.6952-0.3593,4H132C129.7891,208,128,206.2108,128,204z M120,168H16v-52h104V168z"/>
	<path fill="#4A8F9E" d="M40,180c-13.2345,0-24,10.7656-24,24c0,1.3672,0.1407,2.6952,0.3591,4C18.2735,219.332,28.1327,228,40,228
		c11.8671,0,21.7263-8.668,23.6407-20C63.8591,206.6952,64,205.3672,64,204C64,190.7656,53.2343,180,40,180z M40,220
		c-8.8245,0-16-7.1756-16-16s7.1755-16,16-16c8.8243,0,16,7.1756,16,16S48.8243,220,40,220z"/>
	<path fill="#3BABB7" d="M152,104h30c-1.5157,0-2.8985-0.8556-3.5781-2.2108L175.5271,96H148c-2.2109,0-4,1.7892-4,4v48h8V104z"/>
	<path fill="#3BABB7" d="M185.5779,101.7892C184.8983,103.1444,183.5155,104,182,104h6v44h8v-44h8.3203
		C209.2655,110.5352,216,121.1092,216,126v22h8v-22c0-9.5744-12.1445-25.4064-14.5781-28.4804
		C208.664,96.5584,207.508,96,206.2851,96H196h-7.5273L185.5779,101.7892z"/>
	<path fill="#7BE5E4" d="M204.3203,104H196v44h20v-22C216,121.1092,209.2655,110.5352,204.3203,104z"/>
	<polygon fill="#7BE5E4" points="182,104 152,104 152,148 188,148 188,104 	"/>
	<path fill="#B976DD" d="M228,148h-4h-8h-20h-8h-36h-8h-8h-4c-2.2109,0-4,1.7892-4,4v52c0,2.2108,1.7891,4,4,4h28.3591
		c-0.2184-1.3048-0.3591-2.6328-0.3591-4c0-13.2344,10.7655-24,24-24c13.2343,0,24,10.7656,24,24c0,1.3672-0.1409,2.6952-0.3593,4
		H228c2.2107,0,4-1.7892,4-4v-52C232,149.7892,230.2107,148,228,148z M188,168h-16v-8h16V168z"/>
	<path fill="#4A8F9E" d="M184,180c-13.2345,0-24,10.7656-24,24c0,1.3672,0.1407,2.6952,0.3591,4
		c1.9144,11.332,11.7736,20,23.6409,20c11.8671,0,21.7263-8.668,23.6407-20c0.2184-1.3048,0.3593-2.6328,0.3593-4
		C208,190.7656,197.2343,180,184,180z M184,220c-8.8245,0-16-7.1756-16-16s7.1755-16,16-16c8.8243,0,16,7.1756,16,16
		S192.8243,220,184,220z"/>
	<rect x="172" y="160" fill="#535353" width="16" height="8"/>
	<path fill="#535353" d="M20,108C8.9803,108,0.0115,99.0236,0,87.992c0,0,0,0.004,0,0.008C0,99.0272,8.9727,108,20,108z"/>
	<path fill="#535353" d="M20,108c6.5663,0,12.3555-3.2264,16.004-8.1288c0-0.004-0.004-0.004-0.004-0.004
		C32.3515,104.7736,26.5663,108,20,108z"/>
	<path fill="#FE8657" d="M20,108c6.5663,0,12.3515-3.2264,16-8.1328c-2.4805-3.336-4-7.4256-4-11.8944V52c0-2.2108,1.7891-4,4-4H4
		c-2.2109,0-4,1.7892-4,4v35.9728c0,0.0076,0,0.0116,0,0.0192C0.0115,99.0236,8.9803,108,20,108z"/>
	<path fill="#63B473" d="M32,52v35.9728c0,4.4688,1.5195,8.5584,4,11.8944c0,0,0.004,0,0.004,0.004
		C39.6523,104.7736,45.4375,108,52,108c6.5663,0,12.3515-3.2264,16-8.1328c-2.4805-3.336-4-7.4256-4-11.8944V52
		c0-2.2108,1.7891-4,4-4H36C33.7891,48,32,49.7892,32,52z"/>
	<path fill="#FE8657" d="M64,52v35.9728c0,4.4688,1.5195,8.5584,4,11.8944C71.6483,104.7736,77.4335,108,84,108
		c6.5663,0,12.3515-3.2264,16-8.1328c-2.4805-3.336-4-7.4256-4-11.8944V52c0-2.2108,1.7891-4,4-4H68C65.7891,48,64,49.7892,64,52z"
		/>
	<path fill="#63B473" d="M96,52v35.9728c0,4.4688,1.5195,8.5584,4,11.8944c3.6483,4.9064,9.4335,8.1328,16,8.1328
		c11.0271,0,20-8.9844,20-20.0272V52c0-2.2108-1.7893-4-4-4h-32C97.7891,48,96,49.7892,96,52z"/>
	<path fill="#7BE5E4" d="M112,124H24v36h88V124z M38.828,134.828l-4,4C34.0467,139.6092,33.0235,140,32,140
		c-1.0237,0-2.0469-0.3908-2.828-1.172c-1.5629-1.5624-1.5629-4.0936,0-5.656l4-4C33.9531,128.3908,34.9763,128,36,128
		c1.0235,0,2.0467,0.3908,2.828,1.172C40.3907,130.7344,40.3907,133.2656,38.828,134.828z"/>
	<path fill="#3BABB7" d="M16,168h104v-52H16V168z M24,124h88v36H24V124z"/>
	<path fill="#3BABB7" d="M36,128c-1.0237,0-2.0469,0.3908-2.828,1.172l-4,4c-1.5629,1.5624-1.5629,4.0936,0,5.656
		C29.9531,139.6092,30.9763,140,32,140c1.0235,0,2.0467-0.3908,2.828-1.172l4-4c1.5627-1.5624,1.5627-4.0936,0-5.656
		C38.0467,128.3908,37.0235,128,36,128z"/>
	<path fill="#FF6B97" d="M208,26c0-14.336-11.664-26-26-26s-26,11.664-26,26c0,6.9844,2.7851,13.3244,7.2811,18h37.4376
		C205.2147,39.3244,208,32.9844,208,26z"/>
	<path fill="#E1AD99" d="M182,104c1.5155,0,2.8983-0.8556,3.5779-2.2108L188.4727,96l23.1052-46.2108
		c0.6212-1.2384,0.5548-2.7112-0.1756-3.8908C210.672,44.7188,209.3867,44,208,44h-7.2813h-37.4376H156
		c-1.3869,0-2.672,0.7188-3.4025,1.8984c-0.7304,1.1796-0.7968,2.6524-0.1756,3.8908L175.5271,96l2.8948,5.7892
		C179.1015,103.1444,180.4843,104,182,104z M170.2459,67.5508l30.7461-14.4804l-4.9805,9.9608l-20.8788,14.2892L170.2459,67.5508z
		 M188.6443,77.7656L182,91.0548l-3.2581-6.512L188.6443,77.7656z M184.496,52l-17.824,8.3944L162.4727,52H184.496z"/>
	<polygon fill="#FCD1C0" points="200.992,53.0704 170.2459,67.5508 175.1327,77.3204 196.0115,63.0312 	"/>
	<polygon fill="#FCD1C0" points="184.496,52 162.4727,52 166.672,60.3944 	"/>
	<polygon fill="#FCD1C0" points="188.6443,77.7656 178.7419,84.5428 182,91.0548 	"/>
	<path fill="#2F4556" d="M40,188c-8.8245,0-16,7.1756-16,16s7.1755,16,16,16c8.8243,0,16-7.1756,16-16S48.8243,188,40,188z"/>
	<path fill="#2F4556" d="M184,188c-8.8245,0-16,7.1756-16,16s7.1755,16,16,16c8.8243,0,16-7.1756,16-16S192.8243,188,184,188z"/>
</g>
</svg>
