<?xml version="1.0" encoding="utf-8"?>
<!-- Generator: Adobe Illustrator 19.2.0, SVG Export Plug-In . SVG Version: 6.00 Build 0)  -->
<svg version="1.1" id="kayak" xmlns="http://www.w3.org/2000/svg" xmlns:xlink="http://www.w3.org/1999/xlink" x="0px" y="0px"
	 viewBox="0 0 232 134.8908" enable-background="new 0 0 232 134.8908" xml:space="preserve">
<g>
	<path fill="#A48659" d="M198.0236,68C216.758,68,232,52.746,232,34S216.758,0,198.0236,0h-2.0996
		c-1.1136,0-2.178,0.4648-2.9356,1.2812c-0.756,0.8204-1.1388,1.914-1.0528,3.0272C191.9784,4.8672,192,5.4296,192,6
		c0,12.1288-9.8788,22-22.0236,22H110.494l33.5528,40H198.0236z"/>
	<path fill="#A48659" d="M100.0528,28H66.0236C53.8788,28,44,18.1288,44,6c0-0.5704,0.0216-1.1328,0.0644-1.6916
		c0.086-1.1132-0.2968-2.2068-1.0528-3.0272C42.254,0.4648,41.1896,0,40.076,0h-6.0996C15.242,0,0,15.254,0,34s15.242,34,33.9764,34
		h99.6292L100.0528,28z"/>
	<polygon fill="#3BABB7" points="33.9764,68 4,68 4,76 140.3164,76 133.6056,68 	"/>
	<polygon fill="#3BABB7" points="144.0468,68 150.756,76 228.0372,76 228.0372,68 198.0236,68 	"/>
	<path fill="#FFDC82" d="M110.494,28L97.5352,12.5508c-1.418-1.6952-3.9436-1.91-5.6348-0.496
		c-1.6932,1.4216-1.914,3.9452-0.494,5.6368L100.0528,28l33.5528,40l6.7108,8l13.7052,16.34l-0.7268-2.5744
		c-0.4276-1.5116,0.0724-3.1368,1.2796-4.1484c1.0136-0.8556,2.3652-1.1016,3.6132-0.758L150.756,76l-6.7092-8L110.494,28z"/>
	<path fill="#F8A131" d="M154.5744,85.6172c-1.2072,1.0116-1.7072,2.6368-1.2796,4.1484l0.7268,2.5744l11.1952,39.6364
		c0.3692,1.3088,1.3748,2.336,2.672,2.7384c0.3864,0.1172,0.7832,0.176,1.1776,0.176c0.9276,0,1.842-0.3244,2.5704-0.9376
		l27.578-23.1408c1.0412-0.8708,1.5664-2.2108,1.3984-3.5584c-0.168-1.3476-1.0076-2.5156-2.2304-3.1056l-39.5-19.0704
		c-0.2228-0.1092-0.4608-0.156-0.6952-0.2188C156.9396,84.5156,155.588,84.7616,154.5744,85.6172z"/>
</g>
</svg>
