<?xml version="1.0" encoding="utf-8"?>
<!-- Generator: Adobe Illustrator 19.2.0, SVG Export Plug-In . SVG Version: 6.00 Build 0)  -->
<svg version="1.1" id="map" xmlns="http://www.w3.org/2000/svg" xmlns:xlink="http://www.w3.org/1999/xlink" x="0px" y="0px"
	 viewBox="0 0 236 192.0004" enable-background="new 0 0 236 192.0004" xml:space="preserve">
<g>
	<path fill="#FFDC82" d="M76,188.0004v-172c0-1.9688,1.4335-3.6444,3.3751-3.9512L80,11.9496L4.6251,0.0492
		c-1.176-0.1836-2.336,0.1524-3.2228,0.91C0.5115,1.7192,0,2.8304,0,4.0004v172c0,1.9688,1.4335,3.6444,3.3751,3.9512l76,12
		c0.2108,0.0332,0.4176,0.0488,0.6249,0.0488c-0.9453,0-1.8673-0.336-2.5977-0.9588C76.5115,190.2816,76,189.1704,76,188.0004z"/>
	<path fill="#FFDC82" d="M232.6251,12.0492l-76-12c-0.2152-0.0332-0.418,0.0372-0.6291,0.0372
		c0.9491,0.002,1.8711,0.252,2.6015,0.8728C159.4883,1.7192,160,2.8304,160,4.0004v172c0,1.9688-1.4337,3.6444-3.3749,3.9512
		L156,180.0512l75.3751,11.9004c0.2108,0.0332,0.4176,0.0488,0.6249,0.0488c0.9451,0,1.8711-0.336,2.5975-0.9588
		c0.8908-0.76,1.4025-1.8712,1.4025-3.0412v-172C236,14.0316,234.5663,12.356,232.6251,12.0492z"/>
	<path fill="#F8A131" d="M160,176.0004v-172c0-1.17-0.5117-2.2812-1.4025-3.0412c-0.7304-0.6208-1.6524-0.8708-2.6015-0.8728
		c-0.2109,0-0.4101-0.0684-0.6209-0.0372L80,11.9496l-0.6249,0.0996C77.4335,12.356,76,14.0316,76,16.0004v172
		c0,1.17,0.5115,2.2812,1.4023,3.0412c0.7304,0.6228,1.6524,0.9588,2.5977,0.9588c0.2071,0,0.4139-0.0156,0.6251-0.0488
		L156,180.0512l0.6251-0.0996C158.5663,179.6448,160,177.9692,160,176.0004z"/>
</g>
</svg>
