<?xml version="1.0" encoding="utf-8"?>
<!-- Generator: Adobe Illustrator 19.2.0, SVG Export Plug-In . SVG Version: 6.00 Build 0)  -->
<svg version="1.1" id="mapmark" xmlns="http://www.w3.org/2000/svg" xmlns:xlink="http://www.w3.org/1999/xlink" x="0px" y="0px"
	 viewBox="0 0 236 192.0004" enable-background="new 0 0 236 192.0004" xml:space="preserve">
<g>
	<path fill="#FFDC82" d="M76,188.0004v-172c0-1.9688,1.4335-3.6444,3.3751-3.9512L80,11.9496L4.6251,0.0492
		c-1.168-0.1836-2.336,0.1524-3.2228,0.91C0.5115,1.7192,0,2.8304,0,4.0004v172c0,1.9688,1.4335,3.6444,3.3751,3.9512l76,12
		c0.2108,0.0332,0.4176,0.0488,0.6249,0.0488c-0.9453,0-1.8673-0.336-2.5977-0.9588C76.5115,190.2816,76,189.1704,76,188.0004z
		 M41.8123,46.688c1.5628,1.5624,1.5628,4.0936,0,5.656c-0.7812,0.7812-1.8043,1.172-2.828,1.172
		c-1.0236,0-2.0468-0.3908-2.828-1.172l-5.6136-5.6112l-5.6092,5.6112c-0.7812,0.7812-1.8048,1.172-2.828,1.172
		c-1.0236,0-2.0472-0.3908-2.8284-1.172c-1.5624-1.5624-1.5624-4.0936,0-5.656l5.6136-5.6116l-5.6136-5.6112
		c-1.5624-1.5624-1.5624-4.0936,0-5.6564c1.5629-1.5624,4.094-1.5624,5.6564,0l5.6092,5.6116l5.6136-5.6116
		c1.5624-1.5624,4.0936-1.5624,5.656,0c1.5628,1.5628,1.5628,4.094,0,5.6564l-5.6092,5.6112L41.8123,46.688z"/>
	<path fill="#FFDC82" d="M232.6251,12.0492l-76-12c-0.2152-0.0332-0.418,0.0372-0.6291,0.0372
		c0.9531,0.002,1.8711,0.252,2.6015,0.8728C159.4883,1.7192,160,2.8304,160,4.0004v172c0,1.9688-1.4337,3.6444-3.3749,3.9512
		L156,180.0512l75.3751,11.9004c0.2108,0.0332,0.4176,0.0488,0.6249,0.0488c0.9451,0,1.8711-0.336,2.5975-0.9588
		c0.8908-0.76,1.4025-1.8712,1.4025-3.0412v-172C236,14.0316,234.5663,12.356,232.6251,12.0492z M205.2655,114.0512
		c1.5625,1.5624,1.5625,4.0956,0,5.6564c-0.7812,0.7812-1.8048,1.1716-2.828,1.1716c-1.0236,0-2.0468-0.3904-2.8284-1.1716
		L194,114.094l-5.6133,5.6136c-0.7812,0.7812-1.8048,1.1716-2.8284,1.1716c-1.0232,0-2.0468-0.3904-2.828-1.1716
		c-1.5623-1.5628-1.5623-4.094,0-5.6564l5.6132-5.6132l-5.6092-5.6096c-1.5623-1.5624-1.5623-4.0956,0-5.656
		c1.5624-1.5628,4.0937-1.5628,5.6564,0L194,102.7836l5.6091-5.6112c1.5629-1.5628,4.094-1.5628,5.6564,0
		c1.5625,1.5624,1.5625,4.0936,0,5.656l-5.6092,5.6096L205.2655,114.0512z"/>
	<path fill="#F8A131" d="M160,176.0004v-172c0-1.17-0.5117-2.2812-1.4025-3.0412c-0.7304-0.6208-1.6484-0.8708-2.6015-0.8728
		c-0.2109,0-0.4061-0.0684-0.6209-0.0372L80,11.9496l-0.6249,0.0996C77.4335,12.356,76,14.0316,76,16.0004v172
		c0,1.17,0.5115,2.2812,1.4023,3.0412c0.7304,0.6228,1.6524,0.9588,2.5977,0.9588c0.2071,0,0.4139-0.0156,0.6251-0.0488
		L156,180.0512l0.6251-0.0996C158.5663,179.6448,160,177.9692,160,176.0004z M117.2655,163.1272
		c1.5625,1.5628,1.5625,4.096,0,5.6564c-0.7812,0.7812-1.8048,1.172-2.828,1.172c-1.0236,0-2.0468-0.3908-2.8284-1.172L106,163.1724
		l-5.6133,5.6112c-0.7812,0.7812-1.8048,1.172-2.8284,1.172c-1.0232,0-2.0468-0.3908-2.828-1.172
		c-1.5623-1.5624-1.5623-4.0936,0-5.6564l5.6132-5.6112l-5.6092-5.6112c-1.5623-1.5628-1.5623-4.096,0-5.6564
		c1.5624-1.5624,4.0937-1.5624,5.6564,0L106,151.8596l5.6091-5.6112c1.5629-1.5624,4.094-1.5624,5.6564,0
		c1.5625,1.5624,1.5625,4.0936,0,5.6564l-5.6092,5.6112L117.2655,163.1272z"/>
	<path fill="#9D57C4" d="M41.8123,29.8088c-1.5624-1.5624-4.0936-1.5624-5.656,0l-5.6136,5.6116l-5.6092-5.6116
		c-1.5624-1.5624-4.0935-1.5624-5.6564,0c-1.5624,1.5628-1.5624,4.094,0,5.6564l5.6136,5.6112l-5.6136,5.6116
		c-1.5624,1.5624-1.5624,4.0936,0,5.656c0.7812,0.7812,1.8048,1.172,2.8284,1.172c1.0232,0,2.0468-0.3908,2.828-1.172l5.6092-5.6112
		l5.6136,5.6112c0.7812,0.7812,1.8044,1.172,2.828,1.172c1.0237,0,2.0468-0.3908,2.828-1.172c1.5628-1.5624,1.5628-4.0936,0-5.656
		l-5.6092-5.6116l5.6092-5.6112C43.3751,33.9028,43.3751,31.3716,41.8123,29.8088z"/>
	<path fill="#9D57C4" d="M205.2655,97.1724c-1.5624-1.5628-4.0935-1.5628-5.6564,0L194,102.7836l-5.6093-5.6112
		c-1.5627-1.5628-4.094-1.5628-5.6564,0c-1.5623,1.5604-1.5623,4.0936,0,5.656l5.6092,5.6096l-5.6132,5.6132
		c-1.5623,1.5624-1.5623,4.0936,0,5.6564c0.7812,0.7812,1.8048,1.1716,2.828,1.1716c1.0236,0,2.0472-0.3904,2.8284-1.1716
		L194,114.094l5.6091,5.6136c0.7816,0.7812,1.8048,1.1716,2.8284,1.1716c1.0232,0,2.0468-0.3904,2.828-1.1716
		c1.5625-1.5608,1.5625-4.094,0-5.6564l-5.6092-5.6132l5.6092-5.6096C206.828,101.266,206.828,98.7348,205.2655,97.1724z"/>
	<path fill="#9D57C4" d="M117.2655,146.2484c-1.5624-1.5624-4.0935-1.5624-5.6564,0L106,151.8596l-5.6093-5.6112
		c-1.5627-1.5624-4.094-1.5624-5.6564,0c-1.5623,1.5604-1.5623,4.0936,0,5.6564l5.6092,5.6112l-5.6132,5.6112
		c-1.5623,1.5628-1.5623,4.094,0,5.6564c0.7812,0.7812,1.8048,1.172,2.828,1.172c1.0236,0,2.0472-0.3908,2.8284-1.172L106,163.1724
		l5.6091,5.6112c0.7816,0.7812,1.8048,1.172,2.8284,1.172c1.0232,0,2.0468-0.3908,2.828-1.172c1.5625-1.5604,1.5625-4.0936,0-5.6564
		l-5.6092-5.6112l5.6092-5.6112C118.828,150.342,118.828,147.8108,117.2655,146.2484z"/>
</g>
</svg>
