<?xml version="1.0" encoding="utf-8"?>
<!-- Generator: Adobe Illustrator 19.2.0, SVG Export Plug-In . SVG Version: 6.00 Build 0)  -->
<svg version="1.1" id="markpoint" xmlns="http://www.w3.org/2000/svg" xmlns:xlink="http://www.w3.org/1999/xlink" x="0px" y="0px"
	 viewBox="0 0 168 224" enable-background="new 0 0 168 224" xml:space="preserve">
<g>
	<path fill="#C1DB66" d="M84,24c-28.674,0-52,23.326-52,52s23.326,52,52,52s52-23.326,52-52S112.674,24,84,24z M84,108
		c-17.6444,0-32-14.3556-32-32s14.3556-32,32-32s32,14.3556,32,32S101.6444,108,84,108z"/>
	<path fill="#C1DB66" d="M84,0C37.6816,0,0,37.6816,0,84c0,45.7948,56.5236,140,84,140s84-94.2052,84-140
		C168,37.6816,130.3184,0,84,0z M84,136c-33.084,0-60-26.916-60-60s26.916-60,60-60s60,26.916,60,60S117.084,136,84,136z"/>
	<path fill="#49A25A" d="M84,16c-33.084,0-60,26.916-60,60s26.916,60,60,60s60-26.916,60-60S117.084,16,84,16z M84,128
		c-28.674,0-52-23.326-52-52s23.326-52,52-52s52,23.326,52,52S112.674,128,84,128z"/>
	<path fill="#50CCD3" d="M84,52c-13.2344,0-24,10.7656-24,24s10.7656,24,24,24s24-10.7656,24-24S97.2344,52,84,52z"/>
	<path fill="#FFFFFF" d="M84,44c-17.6444,0-32,14.3556-32,32s14.3556,32,32,32s32-14.3556,32-32S101.6444,44,84,44z M84,100
		c-13.2344,0-24-10.7656-24-24s10.7656-24,24-24s24,10.7656,24,24S97.2344,100,84,100z"/>
</g>
</svg>
