<?xml version="1.0" encoding="utf-8"?>
<!-- Generator: Adobe Illustrator 19.2.0, SVG Export Plug-In . SVG Version: 6.00 Build 0)  -->
<svg version="1.1" id="moderntrain" xmlns="http://www.w3.org/2000/svg" xmlns:xlink="http://www.w3.org/1999/xlink" x="0px"
	 y="0px" viewBox="0 0 197.0366 220.3593" enable-background="new 0 0 197.0366 220.3593" xml:space="preserve">
<g>
	<path fill="none" d="M53.2819,141.4629L35.0867,172h126.8632l-17.832-29.9255C132.3055,153.1565,116.4735,160,99.036,160
		C81.2743,160,65.1611,152.9141,53.2819,141.4629z"/>
	<path fill="none" d="M167.036,184h-136c-0.9765,0-1.8829-0.256-2.6993-0.668L18.4031,200h160.2264l-9.7264-16.3259
		C168.3131,183.8693,167.6923,184,167.036,184z"/>
	<path fill="#4F676D" d="M196.4735,214.3125l-46.6212-78.246c-1.7696,2.1328-3.7148,4.1112-5.7344,6.008L161.9499,172H35.0867
		l18.1952-30.5371c-2.004-1.9336-3.8944-3.9824-5.6444-6.1544l-47.0744,79.004c-1.1288,1.8964-0.5076,4.3515,1.3908,5.4824
		c0.6404,0.3828,1.3476,0.5644,2.0428,0.5644c1.3636,0,2.6916-0.6972,3.4416-1.9528l3.9688-6.6585
		c0.5196,0.1485,1.0584,0.252,1.6289,0.252h170c0.8671,0,1.6875-0.1931,2.4335-0.5251l4.1288,6.9316
		c0.75,1.2556,2.0784,1.9528,3.4417,1.9528c0.6951,0,1.4023-0.1816,2.0427-0.5644
		C196.9811,218.664,197.6023,216.2089,196.4735,214.3125z M18.4031,200l9.9336-16.668c0.8164,0.412,1.7228,0.668,2.6993,0.668h136
		c0.6563,0,1.2771-0.1307,1.8671-0.3259L178.6295,200H18.4031z"/>
	<path fill="#FE8657" d="M53.2819,141.4629C65.1611,152.9141,81.2743,160,99.036,160c17.4375,0,33.2695-6.8435,45.0819-17.9255
		c2.0196-1.8968,3.9648-3.8752,5.7344-6.008c9.4764-11.4276,15.1837-26.086,15.1837-42.0548V20.34
		c0-11.2151-9.1249-20.34-20.34-20.34h-91.32c-11.2149,0-20.34,9.1249-20.34,20.34v73.6717
		c0,15.6272,5.4883,29.9803,14.6015,41.2968C49.3875,137.4805,51.2779,139.5293,53.2819,141.4629z M75.036,140
		c-7.7189,0-14-6.2811-14-14c0-7.7187,6.2811-14,14-14c7.7187,0,14,6.2813,14,14C89.036,133.7189,82.7547,140,75.036,140z
		 M123.036,140c-7.7189,0-14-6.2811-14-14c0-7.7187,6.2811-14,14-14c7.7187,0,14,6.2813,14,14
		C137.036,133.7189,130.7547,140,123.036,140z M49.036,24c0-2.2087,1.7891-4,4-4h92c2.2107,0,4,1.7913,4,4v40
		c0,24.2617-19.7461,44-44.0197,44H93.0555C68.7819,108,49.036,88.2617,49.036,64V24z"/>
	<path fill="#7BE5E4" d="M93.0555,108h11.9608c24.2736,0,44.0197-19.7383,44.0197-44V24c0-2.2087-1.7893-4-4-4h-92
		c-2.2109,0-4,1.7913-4,4v40C49.036,88.2617,68.7819,108,93.0555,108z M57.036,28h84v36c0,19.8497-16.16,36-36.0197,36H93.0555
		C73.196,100,57.036,83.8497,57.036,64V28z"/>
	<path fill="#50CCD3" d="M93.0555,100h11.9608c19.8597,0,36.0197-16.1503,36.0197-36V28h-84v36
		C57.036,83.8497,73.196,100,93.0555,100z M62.208,50.828c-1.5629-1.5623-1.5629-4.0935,0-5.656l12-12
		c1.5623-1.5627,4.0935-1.5627,5.656,0c1.5627,1.5625,1.5627,4.0937,0,5.656l-12,12C67.0827,51.6093,66.0595,52,65.036,52
		C64.0123,52,62.9891,51.6093,62.208,50.828z"/>
	<path fill="#FFDC82" d="M75.036,112c-7.7189,0-14,6.2813-14,14c0,7.7189,6.2811,14,14,14c7.7187,0,14-6.2811,14-14
		C89.036,118.2813,82.7547,112,75.036,112z"/>
	<path fill="#FFDC82" d="M123.036,112c-7.7189,0-14,6.2813-14,14c0,7.7189,6.2811,14,14,14c7.7187,0,14-6.2811,14-14
		C137.036,118.2813,130.7547,112,123.036,112z"/>
	<path fill="#7BE5E4" d="M79.864,38.828c1.5627-1.5623,1.5627-4.0935,0-5.656c-1.5625-1.5627-4.0937-1.5627-5.656,0l-12,12
		c-1.5629,1.5625-1.5629,4.0937,0,5.656C62.9891,51.6093,64.0123,52,65.036,52c1.0235,0,2.0467-0.3907,2.828-1.172L79.864,38.828z"
		/>
</g>
</svg>
