<?xml version="1.0" encoding="utf-8"?>
<!-- Generator: Adobe Illustrator 19.2.0, SVG Export Plug-In . SVG Version: 6.00 Build 0)  -->
<svg version="1.1" id="monstertruck" xmlns="http://www.w3.org/2000/svg" xmlns:xlink="http://www.w3.org/1999/xlink" x="0px"
	 y="0px" viewBox="0 0 236 221.6564" enable-background="new 0 0 236 221.6564" xml:space="preserve">
<g>
	<path fill="#456782" d="M174.5351,105.6564h-8.0744l0.7424,5.5312c2.574-0.6056,5.2032-1.0468,7.8984-1.2852L174.5351,105.6564z"/>
	<path fill="#456782" d="M59.336,109.8244c2.7031,0.16,5.3747,0.4452,7.9647,0.9804l1.0156-5.1484H60.16L59.336,109.8244z"/>
	<path fill="#A48659" d="M56,109.6564c-15.3789,0-29.328,6.2384-39.4573,16.3084c-0.0427,0.0392-0.0976,0.0508-0.1404,0.094
		c-0.0432,0.0428-0.0548,0.0976-0.094,0.1404C6.2383,136.332,0,150.2776,0,165.6564s6.2383,29.3244,16.3083,39.4572
		c0.0392,0.0428,0.0508,0.0976,0.094,0.1404c0.0428,0.0432,0.0977,0.0548,0.1404,0.094C26.672,215.418,40.6211,221.6564,56,221.6564
		c15.3787,0,29.3243-6.2384,39.4571-16.3084c0.0429-0.0392,0.0976-0.0508,0.1404-0.094c0.0432-0.0428,0.0548-0.0976,0.094-0.1404
		C105.7615,194.9808,112,181.0352,112,165.6564s-6.2385-29.3244-16.3085-39.4572c-0.0392-0.0428-0.0508-0.0976-0.094-0.1404
		c-0.0428-0.0432-0.0975-0.0548-0.1404-0.094c-7.582-7.5348-17.2971-12.9256-28.1564-15.16
		c-2.59-0.5352-5.2616-0.8204-7.9647-0.9804C58.2263,109.758,57.1251,109.6564,56,109.6564z M84.2851,137.3712
		c0.7812,0.7812,1.8048,1.172,2.828,1.172c1.0236,0,2.0469-0.3908,2.8284-1.172l2.6756-2.6756
		c6.2772,7.406,10.328,16.7304,11.1796,26.9608H100c-2.2109,0-4,1.7892-4,4s1.7891,4,4,4h3.7967
		c-0.8516,10.2304-4.9024,19.5548-11.1796,26.9608l-2.6756-2.6756c-1.5628-1.5624-4.094-1.5624-5.6564,0
		c-1.5624,1.5624-1.5624,4.0936,0,5.6564l2.6756,2.6796c-7.406,6.2732-16.7304,10.324-26.9607,11.1756v-3.7968
		c0-2.2108-1.7893-4-4-4c-2.2109,0-4,1.7892-4,4v3.7968c-10.2305-0.8516-19.5549-4.9024-26.9609-11.1756l2.6756-2.6796
		c1.5624-1.5628,1.5624-4.094,0-5.6564c-1.5624-1.5624-4.0936-1.5624-5.6564,0l-2.6796,2.6756
		c-6.2732-7.406-10.324-16.7304-11.1756-26.9608H12c2.2107,0,4-1.7892,4-4s-1.7893-4-4-4H8.2031
		c0.8516-10.2304,4.9024-19.5548,11.1756-26.9608l2.6796,2.6756c0.7817,0.7812,1.8048,1.172,2.8284,1.172
		c1.0232,0,2.0468-0.3908,2.828-1.172c1.5624-1.5624,1.5624-4.0936,0-5.6564l-2.6756-2.6756
		c7.406-6.2772,16.7304-10.328,26.9609-11.1796v3.7968c0,2.2108,1.7891,4,4,4c2.2107,0,4-1.7892,4-4v-3.7968
		c10.2303,0.8516,19.5547,4.9024,26.9607,11.1796l-2.6756,2.6756C82.7227,133.2776,82.7227,135.8088,84.2851,137.3712z"/>
	<path fill="#89714D" d="M86.9607,129.0392c-7.406-6.2772-16.7304-10.328-26.9607-11.1796v3.7968c0,2.2108-1.7893,4-4,4
		c-2.2109,0-4-1.7892-4-4v-3.7968c-10.2305,0.8516-19.5549,4.9024-26.9609,11.1796l2.6756,2.6756
		c1.5624,1.5628,1.5624,4.094,0,5.6564c-0.7812,0.7812-1.8048,1.172-2.828,1.172c-1.0236,0-2.0467-0.3908-2.8284-1.172
		l-2.6796-2.6756c-6.2732,7.406-10.324,16.7304-11.1756,26.9608H12c2.2107,0,4,1.7892,4,4s-1.7893,4-4,4H8.2031
		c0.8516,10.2304,4.9024,19.5548,11.1756,26.9608l2.6796-2.6756c1.5628-1.5624,4.094-1.5624,5.6564,0
		c1.5624,1.5624,1.5624,4.0936,0,5.6564l-2.6756,2.6796c7.406,6.2732,16.7304,10.324,26.9609,11.1756v-3.7968c0-2.2108,1.7891-4,4-4
		c2.2107,0,4,1.7892,4,4v3.7968c10.2303-0.8516,19.5547-4.9024,26.9607-11.1756l-2.6756-2.6796
		c-1.5624-1.5628-1.5624-4.094,0-5.6564c1.5624-1.5624,4.0936-1.5624,5.6564,0l2.6756,2.6756
		c6.2772-7.406,10.328-16.7304,11.1796-26.9608H100c-2.2109,0-4-1.7892-4-4s1.7891-4,4-4h3.7967
		c-0.8516-10.2304-4.9024-19.5548-11.1796-26.9608l-2.6756,2.6756c-0.7815,0.7812-1.8048,1.172-2.8284,1.172
		c-1.0232,0-2.0468-0.3908-2.828-1.172c-1.5624-1.5624-1.5624-4.0936,0-5.6564L86.9607,129.0392z M56,189.6564
		c-13.2345,0-24-10.7656-24-24c0-13.2344,10.7655-24,24-24c13.2343,0,24,10.7656,24,24C80,178.8908,69.2343,189.6564,56,189.6564z"
		/>
	<path fill="#FFE9E1" d="M56,141.6564c-13.2345,0-24,10.7656-24,24c0,13.2344,10.7655,24,24,24c13.2343,0,24-10.7656,24-24
		C80,152.422,69.2343,141.6564,56,141.6564z"/>
	<path fill="#89714D" d="M224,169.6564c-2.2109,0-4-1.7892-4-4s1.7891-4,4-4h3.7967c-0.8516-10.2304-4.9024-19.5548-11.1796-26.9608
		l-2.6756,2.6756c-0.7815,0.7812-1.8048,1.172-2.8284,1.172c-1.0232,0-2.0468-0.3908-2.828-1.172
		c-1.5624-1.5624-1.5624-4.0936,0-5.6564l2.6756-2.6756c-7.406-6.2772-16.7304-10.328-26.9607-11.1796v3.7968c0,2.2108-1.7893,4-4,4
		c-2.2109,0-4-1.7892-4-4v-3.7968c-10.2305,0.8516-19.5549,4.9024-26.9609,11.1796l2.6756,2.6756
		c1.5624,1.5628,1.5624,4.094,0,5.6564c-0.7812,0.7812-1.8048,1.172-2.828,1.172c-1.0236,0-2.0467-0.3908-2.8284-1.172
		l-2.6796-2.6756c-6.2732,7.406-10.324,16.7304-11.1756,26.9608H136c2.2107,0,4,1.7892,4,4s-1.7893,4-4,4h-3.7969
		c0.8516,10.2304,4.9024,19.5548,11.1756,26.9608l2.6796-2.6756c1.5628-1.5624,4.094-1.5624,5.6564,0
		c1.5624,1.5624,1.5624,4.0936,0,5.6564l-2.6756,2.6796c7.406,6.2732,16.7304,10.324,26.9609,11.1756v-3.7968c0-2.2108,1.7891-4,4-4
		c2.2107,0,4,1.7892,4,4v3.7968c10.2303-0.8516,19.5547-4.9024,26.9607-11.1756l-2.6756-2.6796
		c-1.5624-1.5628-1.5624-4.094,0-5.6564c1.5624-1.5624,4.0936-1.5624,5.6564,0l2.6756,2.6756
		c6.2772-7.406,10.328-16.7304,11.1796-26.9608H224z M180,189.6564c-13.2345,0-24-10.7656-24-24c0-13.2344,10.7655-24,24-24
		c13.2343,0,24,10.7656,24,24C204,178.8908,193.2343,189.6564,180,189.6564z"/>
	<path fill="#FFE9E1" d="M180,141.6564c-13.2345,0-24,10.7656-24,24c0,13.2344,10.7655,24,24,24c13.2343,0,24-10.7656,24-24
		C204,152.422,193.2343,141.6564,180,141.6564z"/>
	<path fill="#A48659" d="M219.6915,205.1136C229.7615,194.9808,236,181.0352,236,165.6564s-6.2385-29.3244-16.3085-39.4572
		c-0.0392-0.0428-0.0508-0.0976-0.094-0.1404c-0.0428-0.0432-0.0975-0.0548-0.1404-0.094
		c-10.1328-10.07-24.0784-16.3084-39.4571-16.3084c-1.6525,0-3.2813,0.1056-4.8985,0.246
		c-2.6952,0.2384-5.3244,0.6796-7.8984,1.2852c-10.246,2.4104-19.4336,7.5936-26.6604,14.7772
		c-0.0427,0.0392-0.0976,0.0508-0.1404,0.094c-0.0432,0.0428-0.0548,0.0976-0.094,0.1404
		C130.2383,136.332,124,150.2776,124,165.6564s6.2383,29.3244,16.3083,39.4572c0.0392,0.0428,0.0508,0.0976,0.094,0.1404
		c0.0428,0.0432,0.0977,0.0548,0.1404,0.094c10.1293,10.07,24.0784,16.3084,39.4573,16.3084
		c15.3787,0,29.3243-6.2384,39.4571-16.3084c0.0429-0.0392,0.0976-0.0508,0.1404-0.094
		C219.6407,205.2112,219.6523,205.1564,219.6915,205.1136z M213.9415,193.9416c-1.5628-1.5624-4.094-1.5624-5.6564,0
		c-1.5624,1.5624-1.5624,4.0936,0,5.6564l2.6756,2.6796c-7.406,6.2732-16.7304,10.324-26.9607,11.1756v-3.7968
		c0-2.2108-1.7893-4-4-4c-2.2109,0-4,1.7892-4,4v3.7968c-10.2305-0.8516-19.5549-4.9024-26.9609-11.1756l2.6756-2.6796
		c1.5624-1.5628,1.5624-4.094,0-5.6564c-1.5624-1.5624-4.0936-1.5624-5.6564,0l-2.6796,2.6756
		c-6.2732-7.406-10.324-16.7304-11.1756-26.9608H136c2.2107,0,4-1.7892,4-4s-1.7893-4-4-4h-3.7969
		c0.8516-10.2304,4.9024-19.5548,11.1756-26.9608l2.6796,2.6756c0.7817,0.7812,1.8048,1.172,2.8284,1.172
		c1.0232,0,2.0468-0.3908,2.828-1.172c1.5624-1.5624,1.5624-4.0936,0-5.6564l-2.6756-2.6756
		c7.406-6.2772,16.7304-10.328,26.9609-11.1796v3.7968c0,2.2108,1.7891,4,4,4c2.2107,0,4-1.7892,4-4v-3.7968
		c10.2303,0.8516,19.5547,4.9024,26.9607,11.1796l-2.6756,2.6756c-1.5624,1.5628-1.5624,4.094,0,5.6564
		c0.7812,0.7812,1.8048,1.172,2.828,1.172c1.0236,0,2.0469-0.3908,2.8284-1.172l2.6756-2.6756
		c6.2772,7.406,10.328,16.7304,11.1796,26.9608H224c-2.2109,0-4,1.7892-4,4s1.7891,4,4,4h3.7967
		c-0.8516,10.2304-4.9024,19.5548-11.1796,26.9608L213.9415,193.9416z"/>
	<path fill="#456782" d="M188,37.6564c0-2.2108-1.7893-4-4-4h-16c-2.2109,0-4,1.7892-4,4v24h24V37.6564z"/>
	<path fill="#9AB040" d="M203.9607,105.6564c11.0508,0,20.0393-8.9728,20.0393-20v-4c0-11.0272-8.9885-20-20.0393-20H188h-24
		h-20.6485l-7.9296-6.3828l0.3708,1.1172c0.4104,1.2188,0.2033,2.5624-0.5468,3.6056c-0.7539,1.0428-1.9608,1.66-3.2459,1.66H56
		c-2.2109,0-4-1.7892-4-4v4H40.9295L36.6443,48.426c-0.5352-1.6524-2.07-2.7696-3.8043-2.7696H12.4803c-2.2108,0-4,1.7892-4,4
		s1.7892,4,4,4h17.4492l2.594,8H28c-2.2109,0-4,1.7892-4,4v20c0,11.0272,8.9883,20,20.0391,20H60.16h8.1563h98.1444h8.0744H203.9607
		z M200,77.6564h20v8h-20V77.6564z"/>
	<rect x="200" y="77.6564" fill="#FCC24C" width="20" height="8"/>
	<path fill="#7BE5E4" d="M56,61.6564h76c1.2851,0,2.492-0.6172,3.2459-1.66c0.7501-1.0432,0.9572-2.3868,0.5468-3.6056
		l-0.3708-1.1172l-7.6292-22.8828c-0.5428-1.6328-2.07-2.7344-3.7927-2.7344H56c-2.2109,0-4,1.7892-4,4v24
		C52,59.8672,53.7891,61.6564,56,61.6564z M60,37.6564h61.1171l5.332,16H60V37.6564z"/>
	<polygon fill="#4A8F9E" points="121.1171,37.6564 60,37.6564 60,53.6564 126.4491,53.6564 	"/>
	
		<rect x="187.1718" y="15.6567" transform="matrix(0.7071 -0.7071 0.7071 0.7071 42.921 142.9346)" fill="#456782" width="13.6562" height="7.9994"/>
	
		<rect x="162.0003" y="0.8283" transform="matrix(0.7071 -0.7071 0.7071 0.7071 43.2058 119.6216)" fill="#456782" width="7.9994" height="13.6562"/>
</g>
</svg>
