<?xml version="1.0" encoding="utf-8"?>
<!-- Generator: Adobe Illustrator 19.2.0, SVG Export Plug-In . SVG Version: 6.00 Build 0)  -->
<svg version="1.1" id="motorcross" xmlns="http://www.w3.org/2000/svg" xmlns:xlink="http://www.w3.org/1999/xlink" x="0px" y="0px"
	 viewBox="0 0 228 152.7124" enable-background="new 0 0 228 152.7124" xml:space="preserve">
<g>
	<path fill="#99D59D" d="M216,108.7124c0-2.1288,1.672-3.828,3.7695-3.9532c-0.7615-6.9688-3.5276-13.336-7.6992-18.5312
		c-0.754,0.6564-1.672,1.0272-2.6132,1.0272c-1.0236,0-2.0472-0.3904-2.8284-1.1716c-1.5-1.5-1.5196-3.8672-0.1444-5.4416
		c-5.1952-4.1716-11.5624-6.9376-18.5312-7.6992c-0.1251,2.0976-1.8244,3.7696-3.9531,3.7696c-2.1289,0-3.828-1.672-3.9533-3.7696
		c-6.9688,0.7616-13.336,3.5276-18.5312,7.6992c1.3752,1.5744,1.3556,3.9416-0.1444,5.4416
		c-0.7812,0.7812-1.8048,1.1716-2.8284,1.1716c-0.9412,0-1.8592-0.3708-2.6132-1.0272c-4.1716,5.1952-6.9375,11.5624-7.6992,18.5312
		c2.0977,0.1252,3.7697,1.8244,3.7697,3.9532s-1.672,3.828-3.7697,3.9532c0.7617,6.9688,3.5276,13.336,7.6992,18.5312
		c1.5705-1.3752,3.9416-1.3556,5.4416,0.1444s1.5196,3.8712,0.1444,5.4416c5.1952,4.1716,11.5624,6.9376,18.5312,7.6992
		c0.1253-2.0976,1.8244-3.7696,3.9533-3.7696c2.1287,0,3.828,1.672,3.9531,3.7696c6.9688-0.7616,13.336-3.5276,18.5312-7.6992
		c-1.3752-1.5704-1.3556-3.9416,0.1444-5.4416s3.8673-1.5196,5.4416-0.1444c4.1716-5.1952,6.9377-11.5624,7.6992-18.5312
		C217.672,112.5404,216,110.8412,216,108.7124z M184,116.7124c-4.4101,0-8-3.59-8-8s3.5899-8,8-8c4.4099,0,8,3.59,8,8
		S188.4099,116.7124,184,116.7124z"/>
	<path fill="#456782" d="M184,100.7124c-4.4101,0-8,3.59-8,8s3.5899,8,8,8c4.4099,0,8-3.59,8-8S188.4099,100.7124,184,100.7124z"/>
	<path fill="#4A8F9E" d="M75.1915,77.7164c-0.0352-0.0352-0.0432-0.082-0.0784-0.1172c-0.0352-0.0352-0.082-0.0468-0.1171-0.0784
		C67.0351,69.6108,56.0819,64.7124,44,64.7124c-12.0821,0-23.0353,4.8984-30.996,12.8084
		c-0.0353,0.0316-0.0821,0.0432-0.1173,0.0784c-0.0352,0.0352-0.0467,0.082-0.0784,0.1172C4.8983,85.6772,0,96.6304,0,108.7124
		s4.8983,23.0352,12.8083,30.996c0.0317,0.0352,0.0432,0.082,0.0784,0.1172s0.082,0.0468,0.1173,0.0784
		c7.9607,7.91,18.9139,12.8084,30.996,12.8084c12.0819,0,23.0351-4.8984,30.996-12.8084c0.0351-0.0316,0.0819-0.0432,0.1171-0.0784
		c0.0352-0.0352,0.0432-0.082,0.0784-0.1172C83.1015,131.7476,88,120.7944,88,108.7124S83.1015,85.6772,75.1915,77.7164z
		 M72.0703,131.1968c-1.5743-1.3752-3.9416-1.3556-5.4416,0.1444s-1.5196,3.8712-0.1444,5.4416
		c-5.1952,4.1716-11.5624,6.9376-18.5312,7.6992c-0.1251-2.0976-1.8244-3.7696-3.9531-3.7696c-2.1289,0-3.828,1.672-3.9533,3.7696
		c-6.9688-0.7616-13.336-3.5276-18.5312-7.6992c1.3752-1.5704,1.3556-3.9416-0.1444-5.4416s-3.8711-1.5196-5.4416-0.1444
		c-4.1716-5.1952-6.9375-11.5624-7.6992-18.5312C10.328,112.5404,12,110.8412,12,108.7124s-1.672-3.828-3.7697-3.9532
		c0.7617-6.9688,3.5276-13.336,7.6992-18.5312c0.754,0.6564,1.672,1.0272,2.6132,1.0272c1.0236,0,2.0472-0.3904,2.8284-1.1716
		c1.5-1.5,1.5196-3.8672,0.1444-5.4416c5.1952-4.1716,11.5624-6.9376,18.5312-7.6992c0.1253,2.0976,1.8244,3.7696,3.9533,3.7696
		c2.1287,0,3.828-1.672,3.9531-3.7696c6.9688,0.7616,13.336,3.5276,18.5312,7.6992c-1.3752,1.5744-1.3556,3.9416,0.1444,5.4416
		c0.7812,0.7812,1.8048,1.1716,2.8284,1.1716c0.9412,0,1.8592-0.3708,2.6132-1.0272c4.1716,5.1952,6.9377,11.5624,7.6992,18.5312
		C77.672,104.8844,76,106.5836,76,108.7124s1.672,3.828,3.7695,3.9532C79.008,119.6344,76.2419,126.0016,72.0703,131.1968z"/>
	<path fill="#99D59D" d="M76,108.7124c0-2.1288,1.672-3.828,3.7695-3.9532c-0.7615-6.9688-3.5276-13.336-7.6992-18.5312
		c-0.754,0.6564-1.672,1.0272-2.6132,1.0272c-1.0236,0-2.0472-0.3904-2.8284-1.1716c-1.5-1.5-1.5196-3.8672-0.1444-5.4416
		c-5.1952-4.1716-11.5624-6.9376-18.5312-7.6992C47.828,75.0404,46.1287,76.7124,44,76.7124c-2.1289,0-3.828-1.672-3.9533-3.7696
		c-6.9688,0.7616-13.336,3.5276-18.5312,7.6992c1.3752,1.5744,1.3556,3.9416-0.1444,5.4416
		c-0.7812,0.7812-1.8048,1.1716-2.8284,1.1716c-0.9412,0-1.8592-0.3708-2.6132-1.0272c-4.1716,5.1952-6.9375,11.5624-7.6992,18.5312
		C10.328,104.8844,12,106.5836,12,108.7124s-1.672,3.828-3.7697,3.9532c0.7617,6.9688,3.5276,13.336,7.6992,18.5312
		c1.5705-1.3752,3.9416-1.3556,5.4416,0.1444s1.5196,3.8712,0.1444,5.4416c5.1952,4.1716,11.5624,6.9376,18.5312,7.6992
		c0.1253-2.0976,1.8244-3.7696,3.9533-3.7696c2.1287,0,3.828,1.672,3.9531,3.7696c6.9688-0.7616,13.336-3.5276,18.5312-7.6992
		c-1.3752-1.5704-1.3556-3.9416,0.1444-5.4416s3.8673-1.5196,5.4416-0.1444c4.1716-5.1952,6.9377-11.5624,7.6992-18.5312
		C77.672,112.5404,76,110.8412,76,108.7124z M44,116.7124c-4.4101,0-8-3.59-8-8s3.5899-8,8-8c4.4099,0,8,3.59,8,8
		S48.4099,116.7124,44,116.7124z"/>
	<path fill="#4A8F9E" d="M215.1915,139.7084c7.91-7.9608,12.8085-18.914,12.8085-30.996s-4.8985-23.0352-12.8085-30.996
		c-0.0352-0.0352-0.0432-0.082-0.0784-0.1172c-0.0352-0.0352-0.082-0.0468-0.1171-0.0784
		c-7.9609-7.91-18.9141-12.8084-30.996-12.8084c-12.0821,0-23.0353,4.8984-30.996,12.8084
		c-0.0353,0.0316-0.0821,0.0432-0.1173,0.0784c-0.0352,0.0352-0.0467,0.082-0.0784,0.1172
		C144.8983,85.6772,140,96.6304,140,108.7124s4.8983,23.0352,12.8083,30.996c0.0317,0.0352,0.0432,0.082,0.0784,0.1172
		s0.082,0.0468,0.1173,0.0784c7.9607,7.91,18.9139,12.8084,30.996,12.8084c12.0819,0,23.0351-4.8984,30.996-12.8084
		c0.0351-0.0316,0.0819-0.0432,0.1171-0.0784S215.1563,139.7436,215.1915,139.7084z M206.6287,131.3412
		c-1.5,1.5-1.5196,3.8712-0.1444,5.4416c-5.1952,4.1716-11.5624,6.9376-18.5312,7.6992c-0.1251-2.0976-1.8244-3.7696-3.9531-3.7696
		c-2.1289,0-3.828,1.672-3.9533,3.7696c-6.9688-0.7616-13.336-3.5276-18.5312-7.6992c1.3752-1.5704,1.3556-3.9416-0.1444-5.4416
		s-3.8711-1.5196-5.4416-0.1444c-4.1716-5.1952-6.9375-11.5624-7.6992-18.5312c2.0977-0.1252,3.7697-1.8244,3.7697-3.9532
		s-1.672-3.828-3.7697-3.9532c0.7617-6.9688,3.5276-13.336,7.6992-18.5312c0.754,0.6564,1.672,1.0272,2.6132,1.0272
		c1.0236,0,2.0472-0.3904,2.8284-1.1716c1.5-1.5,1.5196-3.8672,0.1444-5.4416c5.1952-4.1716,11.5624-6.9376,18.5312-7.6992
		c0.1253,2.0976,1.8244,3.7696,3.9533,3.7696c2.1287,0,3.828-1.672,3.9531-3.7696c6.9688,0.7616,13.336,3.5276,18.5312,7.6992
		c-1.3752,1.5744-1.3556,3.9416,0.1444,5.4416c0.7812,0.7812,1.8048,1.1716,2.8284,1.1716c0.9412,0,1.8592-0.3708,2.6132-1.0272
		c4.1716,5.1952,6.9377,11.5624,7.6992,18.5312c-2.0975,0.1252-3.7695,1.8244-3.7695,3.9532s1.672,3.828,3.7695,3.9532
		c-0.7615,6.9688-3.5276,13.336-7.6992,18.5312C210.496,129.8216,208.1287,129.8412,206.6287,131.3412z"/>
	<path fill="#456782" d="M44,100.7124c-4.4101,0-8,3.59-8,8s3.5899,8,8,8c4.4099,0,8-3.59,8-8S48.4099,100.7124,44,100.7124z"/>
	<path fill="#FCC24C" d="M180.6875,53.2592c1.2068-0.3124,2.1992-1.164,2.6876-2.3124c0.484-1.1444,0.41-2.4532-0.2031-3.5352
		l-16.0941-28.3632c-1-1.7616-3.1404-2.5-5.0196-1.7188c-0.0348,0.0156-0.4492,0.1836-1.0192,0.414l1.3396,0.5392
		c2.0508,0.824,3.0468,3.1524,2.2228,5.2032c-0.6252,1.5624-2.1252,2.5116-3.7108,2.5116c-0.4964,0-1-0.09-1.4884-0.2892
		l-9.332-3.738c-12.6836,4.6716-32.3632,11.1912-43.5,11.1912c-0.262,0-0.5196-0.004-0.7696-0.0116
		c-30.3204-0.8828-87.9532-20.0392-88.5312-20.2304c-1.2228-0.418-2.5664-0.2032-3.6055,0.5468
		C12.6171,14.2204,12,15.4272,12,16.7124v17.582c0,1.9064,1.3435,3.5468,3.2107,3.922c0.8128,0.164,81.176,16.9724,81.176,70.496
		c0,2.2108,1.7888,4,4,4h28.3712c1.0856,0,2.1208-0.4452,2.8748-1.2264c0.754-0.7776,1.16-1.836,1.1212-2.922
		C132.6951,106.8256,131.8555,65.806,180.6875,53.2592z M120,72.7124H96v-8h24V72.7124z"/>
	<path fill="#4A8F9E" d="M160.8907,25.9976c1.5856,0,3.0856-0.9492,3.7108-2.5116c0.824-2.0508-0.172-4.3792-2.2228-5.2032
		l-1.3396-0.5392L117.4883,0.2944c-2.0548-0.836-4.3792,0.172-5.1992,2.2228c-0.8244,2.0508,0.1716,4.3788,2.2224,5.2032
		l35.5588,14.25l9.332,3.738C159.8907,25.9076,160.3943,25.9976,160.8907,25.9976z"/>
	<rect x="96" y="64.7124" fill="#4A8F9E" width="24" height="8"/>
</g>
</svg>
