<?xml version="1.0" encoding="utf-8"?>
<!-- Generator: Adobe Illustrator 19.2.0, SVG Export Plug-In . SVG Version: 6.00 Build 0)  -->
<svg version="1.1" id="motorcyclehelmet" xmlns="http://www.w3.org/2000/svg" xmlns:xlink="http://www.w3.org/1999/xlink" x="0px"
	 y="0px" viewBox="0 0 181.7744 200.3984" enable-background="new 0 0 181.7744 200.3984" xml:space="preserve">
<g>
	<path fill="#B976DD" d="M159.6308,26.5976C143.7148,9.4452,121.576,0,97.2948,0h-6.5896C41.8084,0,1.8496,38.9024,0.084,87.3868
		c0.2128-1.7344,1.4904-3.1796,3.2576-3.4728L90.002,69.4416c9.8868-1.6488,17.8396,0.6052,22.3828,6.3552
		c4.5428,5.75,4.9004,14.004,1.0076,23.2424L99.332,132.422c-0.6172,1.4688-2.0488,2.4336-3.6424,2.4492l-91.6468,0.988
		c-0.0136,0-0.0292,0-0.0428,0c-1.0528,0-2.0644-0.414-2.8124-1.156c-0.7032-0.6952-1.082-1.6328-1.1408-2.6132
		c0.246,21.7304,8.2208,42.6248,22.594,58.9296c0.7692,0.8748,1.8688,1.3552,3,1.3552c0.3512,0,0.7048-0.0468,1.0544-0.1404
		l145.8164-39.836c1.3596-0.3712,2.422-1.4296,2.7988-2.7892c1.6368-5.8904,2.6976-11.9528,3.1504-18.0156l3.0548-40.8008
		C183.33,66.5584,175.5568,43.7616,159.6308,26.5976z M140,120c-8.8224,0-16-7.1756-16-16s7.1776-16,16-16s16,7.1756,16,16
		S148.8224,120,140,120z"/>
	<path fill="#B976DD" d="M140,96c-4.412,0-8,3.59-8,8s3.588,8,8,8s8-3.59,8-8S144.412,96,140,96z"/>
	<path fill="#C6DFED" d="M4,135.8592c0.0136,0,0.0292,0,0.0428,0l91.6468-0.988c1.5936-0.0156,3.0252-0.9804,3.6424-2.4492
		l14.0604-33.3828c3.8928-9.2384,3.5352-17.4924-1.0076-23.2424c-4.5432-5.75-12.496-8.004-22.3828-6.3552L3.3416,83.914
		c-1.7672,0.2932-3.0448,1.7384-3.2576,3.4728C0.0644,87.5468,0,87.6952,0,87.8592v2.8672v40.34v0.7928
		c0,0.0824,0.0412,0.1524,0.0468,0.2308c0.0588,0.9804,0.4376,1.918,1.1408,2.6132C1.9356,135.4452,2.9472,135.8592,4,135.8592z
		 M8,91.246l83.3184-13.914c6.7792-1.1288,12.1736,0.1172,14.7892,3.426c2.6132,3.3084,2.582,8.8396-0.086,15.1756l-13.0432,30.9648
		L8,127.8164V91.246z"/>
	<path fill="#A9C7D8" d="M106.0216,95.9336c2.668-6.336,2.6992-11.8672,0.086-15.1756c-2.6156-3.3088-8.01-4.5548-14.7892-3.426
		L8,91.246v36.5704l84.9784-0.918L106.0216,95.9336z M84,104c-1.0236,0-2.0468-0.3908-2.828-1.172
		c-1.5628-1.5624-1.5628-4.0936,0-5.656l12-12c1.5624-1.5628,4.0936-1.5628,5.656,0c1.5628,1.5624,1.5628,4.0936,0,5.656l-12,12
		C86.0468,103.6092,85.0236,104,84,104z"/>
	<path fill="#FCC24C" d="M140,88c-8.8224,0-16,7.1756-16,16s7.1776,16,16,16s16-7.1756,16-16S148.8224,88,140,88z M140,112
		c-4.412,0-8-3.59-8-8s3.588-8,8-8s8,3.59,8,8S144.412,112,140,112z"/>
	<path fill="#C6DFED" d="M98.828,85.172c-1.5624-1.5628-4.0936-1.5628-5.656,0l-12,12c-1.5628,1.5624-1.5628,4.0936,0,5.656
		C81.9532,103.6092,82.9764,104,84,104s2.0468-0.3908,2.828-1.172l12-12C100.3908,89.2656,100.3908,86.7344,98.828,85.172z"/>
	<path fill="#B976DD" d="M166.2284,157.8204L39.078,192.5392c-2.1328,0.582-3.3884,2.7812-2.8064,4.914
		c0.4864,1.7772,2.0976,2.9452,3.8572,2.9452c0.3476,0,0.7032-0.0468,1.0548-0.1404l127.1504-34.7188
		c2.1328-0.582,3.3888-2.7812,2.8068-4.9144C170.5568,158.496,168.3496,157.242,166.2284,157.8204z"/>
</g>
</svg>
