<?xml version="1.0" encoding="utf-8"?>
<!-- Generator: Adobe Illustrator 19.2.0, SVG Export Plug-In . SVG Version: 6.00 Build 0)  -->
<svg version="1.1" id="oilcan" xmlns="http://www.w3.org/2000/svg" xmlns:xlink="http://www.w3.org/1999/xlink" x="0px" y="0px"
	 viewBox="0 0 184 220" enable-background="new 0 0 184 220" xml:space="preserve">
<g>
	<path fill="none" d="M166,112c5.5155,0,10-4.4707,10-9.9667V57.9669C176,52.4709,171.5155,48,166,48h-10v64H166z"/>
	<path fill="#49A25A" d="M166,40h-10v8h10c5.5155,0,10,4.4709,10,9.9669v44.0664c0,5.496-4.4845,9.9667-10,9.9667h-10v8h10
		c9.9255,0,18-8.0603,18-17.9667V57.9669C184,48.0605,175.9255,40,166,40z"/>
	<path fill="#63B473" d="M24,28H4c-2.2109,0-4,1.7913-4,4v184c0,2.2089,1.7891,4,4,4h20V36V28z"/>
	<path fill="#63B473" d="M156,48v-8v-8c0-2.2087-1.7893-4-4-4H56v-4H24v4h8v192h120c2.2107,0,4-1.7911,4-4v-96v-8V48z
		 M78.996,191.0313c-0.7577,0.8576-1.8517,1.3496-2.996,1.3496c-1.1445,0-2.2385-0.492-2.996-1.3496
		C70.4451,188.1389,48,162.3557,48,148c0-15.4395,12.5623-28,28-28c15.4375,0,28,12.5605,28,28
		C104,162.3557,81.5547,188.1389,78.996,191.0313z M110.996,108.4609c-0.7577,0.8576-1.8517,1.3496-2.996,1.3496
		c-1.1445,0-2.2385-0.492-2.996-1.3496c-2.9065-3.2852-17.4065-20.1836-17.4065-30.248c0-11.25,9.1524-20.4024,20.4025-20.4024
		c11.2499,0,20.4023,9.1524,20.4023,20.4024C128.4023,88.2773,113.9023,105.1757,110.996,108.4609z"/>
	<polygon fill="#49A25A" points="76,24 76,0 4,0 4,24 24,24 56,24 	"/>
	<polygon fill="#99D59D" points="32,28 24,28 24,36 24,220 32,220 	"/>
	<path fill="#D8F768" d="M76,120c-15.4377,0-28,12.5605-28,28c0,14.3557,22.4451,40.1389,25.004,43.0313
		c0.7575,0.8576,1.8515,1.3496,2.996,1.3496c1.1443,0,2.2383-0.492,2.996-1.3496C81.5547,188.1389,104,162.3557,104,148
		C104,132.5605,91.4375,120,76,120z"/>
	<path fill="#D8F768" d="M108,57.8105c-11.2501,0-20.4025,9.1524-20.4025,20.4024c0,10.0644,14.5,26.9628,17.4065,30.248
		c0.7575,0.8576,1.8515,1.3496,2.996,1.3496c1.1443,0,2.2383-0.492,2.996-1.3496c2.9063-3.2852,17.4063-20.1836,17.4063-30.248
		C128.4023,66.9629,119.2499,57.8105,108,57.8105z"/>
</g>
</svg>
