<?xml version="1.0" encoding="utf-8"?>
<!-- Generator: Adobe Illustrator 19.2.0, SVG Export Plug-In . SVG Version: 6.00 Build 0)  -->
<svg version="1.1" id="oilstation" xmlns="http://www.w3.org/2000/svg" xmlns:xlink="http://www.w3.org/1999/xlink" x="0px" y="0px"
	 viewBox="0 0 228.0001 218.5323" enable-background="new 0 0 228.0001 218.5323" xml:space="preserve">
<g>
	<path fill="#FF8AAC" d="M227.2228,148.1631c-0.754-1.0252-1.9492-1.6309-3.2228-1.6309h-64v20c0,2.2089-1.7912,4-4,4H28
		c-2.2088,0-4-1.7911-4-4v-20H4c-1.2736,0-2.4688,0.6057-3.2228,1.6309c-0.7536,1.0256-0.9744,2.3476-0.5956,3.5624l20,64
		c0.5216,1.67,2.0684,2.8067,3.8184,2.8067h180c1.75,0,3.2968-1.1367,3.8184-2.8067l20-64
		C228.1972,150.5108,227.9764,149.1888,227.2228,148.1631z M200,210.5323H28l-8-24h188L200,210.5323z"/>
	<polygon fill="#FF6B97" points="28,210.5323 200,210.5323 208,186.5323 20,186.5323 	"/>
	<path fill="#4A8F9E" d="M28,170.5323h128c2.2088,0,4-1.7911,4-4v-20v-52c0-2.2087-1.7912-4-4-4H28c-2.2088,0-4,1.7913-4,4v52v20
		C24,168.7411,25.7912,170.5323,28,170.5323z M128,114.5323c8.8224,0,16,7.1777,16,16c0,8.8225-7.1776,16-16,16
		c-8.8224,0-16-7.1775-16-16C112,121.71,119.1776,114.5323,128,114.5323z M92,114.5323c8.8224,0,16,7.1777,16,16
		c0,8.8225-7.1776,16-16,16s-16-7.1775-16-16C76,121.71,83.1776,114.5323,92,114.5323z M56,114.5323c8.8224,0,16,7.1777,16,16
		c0,8.8225-7.1776,16-16,16c-8.8224,0-16-7.1775-16-16C40,121.71,47.1776,114.5323,56,114.5323z"/>
	<path fill="#F8A131" d="M56,146.5323c8.8224,0,16-7.1775,16-16c0-8.8223-7.1776-16-16-16c-8.8224,0-16,7.1777-16,16
		C40,139.3548,47.1776,146.5323,56,146.5323z"/>
	<path fill="#F8A131" d="M92,146.5323c8.8224,0,16-7.1775,16-16c0-8.8223-7.1776-16-16-16s-16,7.1777-16,16
		C76,139.3548,83.1776,146.5323,92,146.5323z"/>
	<path fill="#F8A131" d="M128,146.5323c8.8224,0,16-7.1775,16-16c0-8.8223-7.1776-16-16-16c-8.8224,0-16,7.1777-16,16
		C112,139.3548,119.1776,146.5323,128,146.5323z"/>
	<path fill="#A9C7D8" d="M97.6972,40.8704c0.7696,0.6288,1.7208,0.9432,2.664,0.9432c1.1544,0,2.2972-0.4728,3.0664-1.414
		c1.3984-1.7108,1.248-4.1388-0.4608-5.5372c-0.0236-0.0252-2.2148-2.6756,2.4708-10.3456
		c6.9548-11.3788,0.2068-20.5256-4.334-23.7736c-1.7812-1.2752-4.254-0.8692-5.5452,0.9104
		c-1.2928,1.7752-0.8984,4.2712,0.8656,5.578c1.1736,0.8692,6.7888,5.584,2.1872,13.1132
		C90.1876,34.13,96.9044,40.222,97.6972,40.8704z"/>
	<path fill="#A9C7D8" d="M58.2752,40.8704c0.7696,0.6288,1.7208,0.9432,2.6644,0.9432c1.154,0,2.2968-0.4728,3.0664-1.414
		c1.3984-1.7108,1.248-4.1388-0.4612-5.5372c-0.0232-0.0252-2.2148-2.6756,2.4708-10.3456
		c6.9552-11.3788,0.2072-20.5256-4.334-23.7736c-1.7812-1.2752-4.254-0.8692-5.5448,0.9104
		c-1.2932,1.7752-0.8984,4.2712,0.8652,5.578c1.1736,0.8692,6.7892,5.584,2.1876,13.1132
		C50.7656,34.13,57.4824,40.222,58.2752,40.8704z"/>
</g>
</svg>
