<?xml version="1.0" encoding="utf-8"?>
<!-- Generator: Adobe Illustrator 19.2.0, SVG Export Plug-In . SVG Version: 6.00 Build 0)  -->
<svg version="1.1" id="oldtrain" xmlns="http://www.w3.org/2000/svg" xmlns:xlink="http://www.w3.org/1999/xlink" x="0px" y="0px"
	 viewBox="0 0 232.0352 182.795" enable-background="new 0 0 232.0352 182.795" xml:space="preserve">
<g>
	<polygon fill="#4F676D" points="60,62.795 68,62.795 68,38.795 32,38.795 32,62.795 40,62.795 40,82.795 60,82.795 	"/>
	<path fill="#A8A9BA" d="M220,146.795v-56h8c2.2088,0,4-1.7911,4-4v-48c0-2.2087-1.7912-4-4-4h-60c-2.2088,0-4,1.7913-4,4v44h-16v-8
		c0-2.2087-1.7912-4-4-4H76c-2.2088,0-4,1.7913-4,4v8H60H40H26.5724c-1.426,0-2.7444,0.7597-3.4592,1.992l-18.572,32
		c-0.7208,1.2425-0.7208,2.7737,0,4.016l15.0856,25.992H220z M172,42.795h52v40h-8h-44V42.795z"/>
	<polygon fill="#707086" points="224,82.795 224,42.795 172,42.795 172,82.795 216,82.795 	"/>
	<path fill="#C6DFED" d="M49.0096,36.0099c0.2188,0.0331,0.4748,0.0568,0.762,0.0568c2.572,0,7.7676-1.7952,13.3708-13.9708
		C69.7148,7.8107,81.6836,4.455,99.7128,11.8519l1.3028,0.5332c24.0372,9.8592,33.0272,13.5644,51.8204,12.0252
		c6.416-0.5196,11.5624-2.9473,17.0116-5.5196c11.2792-5.3184,24.0684-11.3456,54.7404-3.4532
		c2.1524,0.5492,4.3204-0.736,4.8708-2.8748c0.5508-2.1408-0.736-4.3204-2.8748-4.8712
		c-33.4764-8.6172-48.2656-1.6405-60.1484,3.9648c-4.9804,2.3496-9.2812,4.3792-14.246,4.7812
		c-16.8752,1.3615-24.756-1.8632-48.1388-11.4528l-1.3028-0.5352C74.7228-7.041,61.7912,5.8851,55.8732,18.7523
		c-3.4336,7.4648-5.9376,9.0427-6.4648,9.3064c-1.8656,0.09-3.4688,1.4843-3.758,3.4003
		C45.3204,33.6447,46.826,35.6819,49.0096,36.0099z"/>
	<path fill="#618287" d="M232.0352,146.795H220H19.6268H0v8h7.0468c-1.92,2.8633-3.0468,6.3009-3.0468,10c0,9.9257,8.0744,18,18,18
		s18-8.0743,18-18c0-3.6991-1.1268-7.1367-3.0468-10h11.324c1.9788,15.7597,15.4356,28,31.7228,28s29.744-12.2403,31.7228-28h4.5544
		c1.9788,15.7597,15.4356,28,31.7228,28s29.744-12.2403,31.7228-28h15.324c-1.92,2.8633-3.0468,6.3009-3.0468,10
		c0,9.9257,8.0744,18,18,18s18-8.0743,18-18c0-3.6991-1.1268-7.1367-3.0468-10h7.082V146.795z"/>
</g>
</svg>
