<?xml version="1.0" encoding="utf-8"?>
<!-- Generator: Adobe Illustrator 19.2.0, SVG Export Plug-In . SVG Version: 6.00 Build 0)  -->
<svg version="1.1" id="parkingplace" xmlns="http://www.w3.org/2000/svg" xmlns:xlink="http://www.w3.org/1999/xlink" x="0px"
	 y="0px" viewBox="0 0 240 212" enable-background="new 0 0 240 212" xml:space="preserve">
<g>
	<path fill="#50CCD3" d="M236,160h-4c0-17.6443-14.3516-32-31.9904-32h-29.4352l1.0664,2.3437
		c0.5644,1.2384,0.4588,2.68-0.2776,3.8203C170.6268,135.3085,169.3592,136,168,136H72v0.1837h-8V136H36c-2.2088,0-4-1.7891-4-4v-4
		h-8c-2.2088,0-4,1.7893-4,4v28H4c-2.2088,0-4,1.7893-4,4v24c0,2.2109,1.7912,4,4,4h24.3612C28.1408,190.6953,28,189.3673,28,188
		c0-13.2343,10.7656-24,24-24s24,10.7657,24,24c0,1.3673-0.1408,2.6953-0.3612,4h88.7224c-0.2204-1.3047-0.3612-2.6327-0.3612-4
		c0-13.2343,10.7656-24,24-24s24,10.7657,24,24c0,1.3673-0.1408,2.6953-0.3612,4H236c2.2088,0,4-1.7891,4-4v-24
		C240,161.7893,238.2088,160,236,160z"/>
	<path fill="#618287" d="M188,164c-13.2344,0-24,10.7657-24,24c0,1.3673,0.1408,2.6953,0.3612,4c1.914,11.332,11.7696,20,23.6388,20
		s21.7248-8.668,23.6388-20c0.2204-1.3047,0.3612-2.6327,0.3612-4C212,174.7657,201.2344,164,188,164z M188,196
		c-4.412,0-8-3.5899-8-8c0-4.4099,3.588-8,8-8s8,3.5901,8,8C196,192.4101,192.412,196,188,196z"/>
	<path fill="#618287" d="M52,164c-13.2344,0-24,10.7657-24,24c0,1.3673,0.1408,2.6953,0.3612,4c1.914,11.332,11.7696,20,23.6388,20
		s21.7248-8.668,23.6388-20C75.8592,190.6953,76,189.3673,76,188C76,174.7657,65.2344,164,52,164z M52,196c-4.412,0-8-3.5899-8-8
		c0-4.4099,3.588-8,8-8s8,3.5901,8,8C60,192.4101,56.412,196,52,196z"/>
	<path fill="#4F676D" d="M188,180c-4.412,0-8,3.5901-8,8c0,4.4101,3.588,8,8,8s8-3.5899,8-8C196,183.5901,192.412,180,188,180z"/>
	<path fill="#4F676D" d="M52,180c-4.412,0-8,3.5901-8,8c0,4.4101,3.588,8,8,8s8-3.5899,8-8C60,183.5901,56.412,180,52,180z"/>
	<path fill="#C6DFED" d="M36,136h28v0.1837h8V136h96c1.3592,0,2.6268-0.6915,3.3632-1.836c0.7364-1.1403,0.842-2.5819,0.2776-3.8203
		L170.5744,128l-18.9336-41.6563C150.992,84.9181,149.5684,84,148,84H72h-8H36c-2.2088,0-4,1.7893-4,4v40v4
		C32,134.2109,33.7912,136,36,136z M145.424,92l16.3632,36H72V92H145.424z M40,92h24v36H40V92z"/>
	<polygon fill="#A9C7D8" points="161.7872,128 145.424,92 72,92 72,128 	"/>
	<rect x="40" y="92" fill="#A9C7D8" width="24" height="36"/>
	<rect x="184" y="32" fill="#C1DB66" width="16" height="8"/>
	<path fill="#C1DB66" d="M192,88c24.2616,0,44-19.7383,44-44c0-24.2615-19.7384-44-44-44s-44,19.7385-44,44
		C148,68.2617,167.7384,88,192,88z M176,48V24h8h24v24h-24v16.2501h-8V48z"/>
	<path fill="#FFFFFF" d="M184,48h24V24h-24h-8v24v16.2501h8V48z M184,32h16v8h-16V32z"/>
</g>
</svg>
