<?xml version="1.0" encoding="utf-8"?>
<!-- Generator: Adobe Illustrator 19.2.0, SVG Export Plug-In . SVG Version: 6.00 Build 0)  -->
<svg version="1.1" id="pickuptruck" xmlns="http://www.w3.org/2000/svg" xmlns:xlink="http://www.w3.org/1999/xlink" x="0px"
	 y="0px" viewBox="0 0 228.0009 148" enable-background="new 0 0 228.0009 148" xml:space="preserve">
<g>
	<path fill="#BC9A67" d="M188.0009,17.7384V0h-20c-1.2385,0-2.4065,0.5744-3.164,1.5548L98.04,88h45.25L188.0009,17.7384z"/>
	<path fill="#89714D" d="M224.0009,88h-80.7109H98.04H88.0009v48c0,2.2108-1.7893,4-4,4h80.332c1.176,0,2.2931-0.5196,3.0547-1.418
		c0.7576-0.8984,1.086-2.086,0.8904-3.246c-0.1836-1.09-0.2771-2.2148-0.2771-3.336c0-11.0272,8.9727-20,20-20
		c11.0271,0,20,8.9728,20,20c0,1.1212-0.0937,2.246-0.2773,3.336c-0.1956,1.16,0.1328,2.3476,0.8904,3.246
		c0.762,0.8984,1.8789,1.418,3.0549,1.418h12.332c2.2107,0,4-1.7892,4-4V92C228.0009,89.7892,226.2115,88,224.0009,88z"/>
	<path fill="#89714D" d="M188.0009,54.2264c-4.7581,2.7736-8,7.8752-8,13.7736c0,8.8244,7.1755,16,16,16c8.8243,0,16-7.1756,16-16
		h-8c0,4.41-3.5901,8-8,8c-4.4101,0-8-3.59-8-8s3.5899-8,8-8v-8V0h-4h-4v17.7384V54.2264z"/>
	<path fill="#4A8F9E" d="M188.0009,116c-8.8245,0-16,7.1756-16,16s7.1755,16,16,16c8.8243,0,16-7.1756,16-16
		S196.8251,116,188.0009,116z"/>
	<path fill="#4A8F9E" d="M40.0009,116c-8.8245,0-16,7.1756-16,16s7.1755,16,16,16c8.8243,0,16-7.1756,16-16S48.8252,116,40.0009,116
		z"/>
	<path fill="#3BABB7" d="M88.0009,136V88V64c0-2.2108-1.7893-4-4-4h-40c-1.7853,0-3.3557,1.1836-3.8477,2.9024L32.9852,88h-3.004
		C15.8484,88,3.3056,99.4416,2.028,113.508l-2.0116,22.1288c-0.1016,1.1212,0.2736,2.2304,1.0312,3.0624
		C1.8056,139.5272,2.876,140,4.0009,140h12.332c1.176,0,2.2931-0.5196,3.0547-1.418c0.7576-0.8984,1.086-2.086,0.8904-3.246
		c-0.1836-1.09-0.2771-2.2148-0.2771-3.336c0-11.0272,8.9727-20,20-20c11.0271,0,20,8.9728,20,20
		c0,1.1212-0.0937,2.246-0.2773,3.336c-0.1956,1.16,0.1328,2.3476,0.8904,3.246c0.762,0.8984,1.8789,1.418,3.0549,1.418h20.332
		C86.2116,140,88.0009,138.2108,88.0009,136z M47.0164,68h32.9845v20H41.3056L47.0164,68z M40.0009,104c-15.4377,0-28,12.5624-28,28
		H8.3796l1.6173-17.7656C10.9108,104.1796,19.876,96,29.9812,96h50.0197v36h-12C68.0009,116.5624,55.4384,104,40.0009,104z"/>
	<path fill="#50CCD3" d="M80.0009,96H29.9812c-10.1052,0-19.0704,8.1796-19.9843,18.2344L8.3796,132h3.6213
		c0-15.4376,12.5623-28,28-28c15.4375,0,28,12.5624,28,28h12V96z"/>
	<polygon fill="#50CCD3" points="80.0009,68 47.0164,68 41.3056,88 80.0009,88 	"/>
</g>
</svg>
