<?xml version="1.0" encoding="utf-8"?>
<!-- Generator: Adobe Illustrator 19.2.0, SVG Export Plug-In . SVG Version: 6.00 Build 0)  -->
<svg version="1.1" id="pinpointremove" xmlns="http://www.w3.org/2000/svg" xmlns:xlink="http://www.w3.org/1999/xlink" x="0px"
	 y="0px" viewBox="0 0 168 224" enable-background="new 0 0 168 224" xml:space="preserve">
<g>
	<path fill="#707086" d="M85.6232,223.8341C85.078,223.9025,84.5236,224,84,224C84.5568,224,85.0996,223.9417,85.6232,223.8341z"/>
	<path fill="#707086" d="M58.7616,208H40c-4.418,0-8,3.5821-8,8c0,4.4181,3.582,8,8,8h44C77.002,224,68.1152,217.8673,58.7616,208z"
		/>
	<path fill="#FF427A" d="M168,84c0-46.3183-37.6816-84-84-84S0,37.6817,0,84c0,34.1309,31.3944,95.1289,58.7616,124
		C68.1152,217.8673,77.002,224,84,224c0.5236,0,1.078-0.0975,1.6232-0.1659C113.6328,220.3593,168,128.9221,168,84z M40,76
		c0-24.2615,19.7384-44,44-44s44,19.7385,44,44c0,24.2617-19.7384,44-44,44S40,100.2617,40,76z"/>
	<path fill="#FF427A" d="M120,76c0-19.8495-16.1504-36-36-36S48,56.1505,48,76c0,19.8497,16.1504,36,36,36S120,95.8497,120,76z
		 M56,80v-8h56v8H56z"/>
	<path fill="#FFDC82" d="M128,76c0-24.2615-19.7384-44-44-44S40,51.7385,40,76c0,24.2617,19.7384,44,44,44S128,100.2617,128,76z
		 M48,76c0-19.8495,16.1504-36,36-36s36,16.1505,36,36c0,19.8497-16.1504,36-36,36S48,95.8497,48,76z"/>
	<rect x="56" y="72" fill="#FFDC82" width="56" height="8"/>
</g>
</svg>
