<?xml version="1.0" encoding="utf-8"?>
<!-- Generator: Adobe Illustrator 19.2.0, SVG Export Plug-In . SVG Version: 6.00 Build 0)  -->
<svg version="1.1" id="pinpointmap" xmlns="http://www.w3.org/2000/svg" xmlns:xlink="http://www.w3.org/1999/xlink" x="0px"
	 y="0px" viewBox="0 0 176 236" enable-background="new 0 0 176 236" xml:space="preserve">
<g>
	<path fill="none" d="M92,36c4.4099,0,8-3.588,8-8s-3.5901-8-8-8c-4.4101,0-8,3.588-8,8S87.5899,36,92,36z"/>
	<path fill="#FFDC82" d="M56,232V104.8692c0-1.9668,1.4295-3.6428,3.3751-3.9512L60,100.8204L4.6251,92.0488
		c-1.1564-0.1776-2.3324,0.1524-3.2228,0.91C0.5115,93.7188,0,94.83,0,96v127.1308c0,1.9668,1.4295,3.6428,3.3751,3.9512l56,8.8692
		C59.5819,235.9844,59.7927,236,60,236c-0.9453,0-1.8673-0.336-2.5977-0.9588C56.5115,234.2812,56,233.17,56,232z"/>
	<path fill="#FFDC82" d="M172.6251,100.918l-56-8.8692c-0.2112-0.0312-0.4144,0.0372-0.6251,0.0372
		c0.9415,0.0056,1.8671,0.254,2.5975,0.8728C119.4883,93.7188,120,94.83,120,96v127.1308c0,1.9668-1.4297,3.6428-3.3749,3.9512
		L116,227.1816l55.3751,8.7696C171.5819,235.9844,171.7927,236,172,236c0.9451,0,1.8671-0.336,2.5975-0.9588
		C175.4883,234.2812,176,233.17,176,232V104.8692C176,102.9024,174.5703,101.2264,172.6251,100.918z"/>
	<path fill="#F8A131" d="M120,223.1308V96c0-1.17-0.5117-2.2812-1.4025-3.0412c-0.7304-0.6188-1.656-0.8672-2.5975-0.8728
		c-0.2109,0-0.4141-0.0684-0.6249-0.0372L60,100.8204l-0.6249,0.0976C57.4295,101.2264,56,102.9024,56,104.8692V232
		c0,1.17,0.5115,2.2812,1.4023,3.0412C58.1327,235.664,59.0547,236,60,236c0.2071,0,0.4179-0.0156,0.6251-0.0488L116,227.1816
		l0.6251-0.0996C118.5703,226.7736,120,225.0976,120,223.1308z"/>
	<path fill="#C1DB66" d="M89.2735,86.4336c0.7656,0.7168,1.746,1.0744,2.7265,1.0744c0.9803,0,1.9607-0.3576,2.7263-1.0744
		C98.1327,83.258,128,54.8692,128,36c0-19.8496-16.1485-36-36-36C72.1483,0,56,16.1504,56,36
		C56,54.8692,85.8671,83.258,89.2735,86.4336z M92,20c4.4099,0,8,3.588,8,8s-3.5901,8-8,8c-4.4101,0-8-3.588-8-8S87.5899,20,92,20z"
		/>
</g>
</svg>
