<?xml version="1.0" encoding="utf-8"?>
<!-- Generator: Adobe Illustrator 19.2.0, SVG Export Plug-In . SVG Version: 6.00 Build 0)  -->
<svg version="1.1" id="pinpointpath" xmlns="http://www.w3.org/2000/svg" xmlns:xlink="http://www.w3.org/1999/xlink" x="0px"
	 y="0px" viewBox="0 0 216 225.5352" enable-background="new 0 0 216 225.5352" xml:space="preserve">
<g>
	<path fill="none" d="M170,24c-7.7188,0-14,6.2812-14,14s6.2812,14,14,14c7.7188,0,14-6.2812,14-14S177.7188,24,170,24z"/>
	<path fill="none" d="M46,131.3828c-7.7188,0-14,6.2812-14,14s6.2812,14,14,14s14-6.2812,14-14S53.7188,131.3828,46,131.3828z"/>
	<path fill="#FF6B97" d="M170,0c-25.3652,0-46,20.6348-46,46c0,20.8164,28.8788,65.3848,46,65.3848S216,66.8164,216,46
		C216,20.6348,195.3652,0,170,0z M170,52c-7.7188,0-14-6.2812-14-14s6.2812-14,14-14c7.7188,0,14,6.2812,14,14S177.7188,52,170,52z"
		/>
	<path fill="#50CCD3" d="M46,107.3828c-25.3652,0-46,20.6348-46,46c0,20.8164,28.8788,65.3848,46,65.3848s46-44.5684,46-65.3848
		C92,128.0176,71.3652,107.3828,46,107.3828z M46,159.3828c-7.7188,0-14-6.2812-14-14s6.2812-14,14-14s14,6.2812,14,14
		S53.7188,159.3828,46,159.3828z"/>
	<path fill="#618287" d="M156.3612,171.7872c-1.3044-1.338-2.6892-2.6992-4.1172-4.0996c-2.2988-2.26-4.7128-4.6272-7.0604-7.1856
		c-1.494-1.6252-4.0252-1.7384-5.6524-0.2424c-1.6268,1.4944-1.7364,4.0256-0.242,5.6524c2.4668,2.6876,4.9492,5.1252,7.3496,7.4824
		c1.3848,1.3596,2.7284,2.68,3.996,3.9788c0.7832,0.8044,1.824,1.2068,2.8632,1.2068c1.008,0,2.0156-0.3788,2.7932-1.1368
		C157.8732,175.9004,157.9044,173.3672,156.3612,171.7872z"/>
	<path fill="#618287" d="M143.8224,209.1288c-3.924,2.1036-8.6468,3.84-14.0392,5.1624c-2.1444,0.5252-3.4572,2.6912-2.9316,4.8376
		c0.4472,1.8264,2.082,3.0468,3.8808,3.0468c0.3164,0,0.6368-0.0368,0.9572-0.1152c6.0428-1.4824,11.3964-3.4608,15.91-5.8808
		c1.9472-1.0428,2.6796-3.4688,1.6368-5.414C148.1932,208.8164,145.7656,208.082,143.8224,209.1288z"/>
	<path fill="#618287" d="M161.3692,183.8084c-2.1484,0.5196-3.4668,2.682-2.9492,4.8284c0.1796,0.738,0.2656,1.4492,0.2656,2.1756
		c0,2.7656-1.2968,5.7696-3.9648,9.1876c-1.3596,1.7404-1.0508,4.254,0.6912,5.6132c0.7304,0.5704,1.5976,0.8476,2.4592,0.8476
		c1.1892,0,2.3652-0.5272,3.154-1.5388c3.8088-4.8772,5.6604-9.4924,5.6604-14.1096c0-1.3496-0.164-2.7128-0.4884-4.0544
		C165.6796,184.6092,163.504,183.3008,161.3692,183.8084z"/>
	<path fill="#618287" d="M123.8244,135.6484c0.3708,3.916,1.4528,7.9884,3.2168,12.1076c0.6696,1.57,1.412,3.08,2.2108,4.5352
		c0.7264,1.326,2.0956,2.076,3.5096,2.076c0.6504,0,1.3108-0.1584,1.92-0.494c1.9376-1.0628,2.6464-3.4944,1.582-5.43
		c-0.6736-1.2284-1.2988-2.5036-1.8672-3.834c-1.4376-3.3572-2.3144-6.6268-2.6072-9.7148
		c-0.2092-2.2012-2.1584-3.8064-4.3596-3.6052C125.2284,131.498,123.6152,133.4492,123.8244,135.6484z"/>
	<path fill="#618287" d="M129.0096,123.3456c0.6096,0.332,1.2676,0.4904,1.916,0.4904c1.416,0,2.7872-0.752,3.514-2.08
		c2.652-4.8516,6.6696-8.2324,9.574-10.2148c1.8244-1.2444,2.2932-3.7344,1.0468-5.5588c-1.24-1.826-3.7344-2.2928-5.5584-1.0468
		c-3.6268,2.4764-8.666,6.7384-12.082,12.9804C126.3592,119.8536,127.0724,122.2852,129.0096,123.3456z"/>
	<path fill="#618287" d="M83.256,216.996c-9.1936-0.6384-15.508-1.6308-15.5704-1.6424c-2.1836-0.3284-4.2304,1.1404-4.578,3.322
		c-0.348,2.182,1.1384,4.2328,3.32,4.5804c0.2696,0.0408,6.6992,1.0564,16.2736,1.7204c0.0936,0.006,0.1876,0.01,0.2812,0.01
		c2.082,0,3.84-1.6132,3.9864-3.7228C87.1212,219.0584,85.4588,217.1484,83.256,216.996z"/>
	<path fill="#618287" d="M114.5704,216.7968c-4.8712,0.4728-10.1232,0.7208-15.6096,0.7384c-2.2088,0.006-3.994,1.8028-3.988,4.0116
		c0.0056,2.2052,1.7968,3.9884,4,3.9884c0.0036,0,0.0076,0,0.0116,0c5.7364-0.0176,11.2404-0.2792,16.3592-0.7772
		c2.1992-0.2132,3.8088-2.168,3.594-4.3672C118.7228,218.1896,116.7772,216.5704,114.5704,216.7968z"/>
</g>
</svg>
