<?xml version="1.0" encoding="utf-8"?>
<!-- Generator: Adobe Illustrator 19.2.0, SVG Export Plug-In . SVG Version: 6.00 Build 0)  -->
<svg version="1.1" id="pinpointmark" xmlns="http://www.w3.org/2000/svg" xmlns:xlink="http://www.w3.org/1999/xlink" x="0px"
	 y="0px" viewBox="0 0 176.2478 220.002" enable-background="new 0 0 176.2478 220.002" xml:space="preserve">
<g>
	<path fill="none" d="M88.3016,40c-8.8224,0-16,7.1776-16,16s7.1776,16,16,16s16-7.1776,16-16S97.124,40,88.3016,40z"/>
	<path fill="#B976DD" d="M88.3016,0c-37.496,0-68,30.504-68,68c0,36.504,62.418,103.8768,65.0744,106.7284
		C86.1316,175.5392,87.1924,176,88.3016,176c1.1092,0,2.17-0.4608,2.9256-1.2716C93.8836,171.8768,156.3016,104.504,156.3016,68
		C156.3016,30.504,125.7976,0,88.3016,0z M88.3016,72c-8.8224,0-16-7.1776-16-16s7.1776-16,16-16s16,7.1776,16,16
		S97.124,72,88.3016,72z"/>
	<path fill="#FD5A5A" d="M73.6804,171.5372l-68.246-26.1836c-2.0684-0.7968-4.3788,0.238-5.168,2.3008
		c-0.7908,2.0624,0.2384,4.3768,2.3008,5.168l68.246,26.1836c0.4728,0.1816,0.9572,0.2676,1.4336,0.2676
		c1.6076,0,3.1252-0.9788,3.7344-2.5684C76.7724,174.6424,75.7432,172.328,73.6804,171.5372z"/>
	<path fill="#FD5A5A" d="M70.8132,186.082l-68.246,26.1836c-2.0624,0.7912-3.0916,3.1056-2.3008,5.168
		c0.6112,1.59,2.1268,2.5684,3.7344,2.5684c0.4764,0,0.9608-0.086,1.4336-0.2676l68.246-26.1836
		c2.0628-0.7912,3.092-3.1056,2.3008-5.168C75.1884,186.3224,72.8816,185.2892,70.8132,186.082z"/>
	<path fill="#FD5A5A" d="M100.2664,176.7052c0.6112,1.5896,2.1268,2.5684,3.7344,2.5684c0.4764,0,0.9608-0.086,1.4336-0.2676
		l68.246-26.1836c2.0628-0.7912,3.092-3.1056,2.3008-5.168c-0.7928-2.0628-3.1036-3.0976-5.168-2.3008l-68.246,26.1836
		C100.5048,172.328,99.4756,174.6424,100.2664,176.7052z"/>
	<path fill="#FD5A5A" d="M173.6804,212.2656l-68.246-26.1836c-2.0704-0.7928-4.3768,0.2404-5.168,2.3008
		c-0.7908,2.0624,0.2384,4.3768,2.3008,5.168l68.246,26.1836c0.4728,0.1816,0.9572,0.2676,1.4336,0.2676
		c1.6076,0,3.1252-0.9784,3.7344-2.5684C176.7724,215.3712,175.7432,213.0568,173.6804,212.2656z"/>
</g>
</svg>
