<?xml version="1.0" encoding="utf-8"?>
<!-- Generator: Adobe Illustrator 19.2.0, SVG Export Plug-In . SVG Version: 6.00 Build 0)  -->
<svg version="1.1" id="pointmark" xmlns="http://www.w3.org/2000/svg" xmlns:xlink="http://www.w3.org/1999/xlink" x="0px" y="0px"
	 viewBox="0 0 104 220" enable-background="new 0 0 104 220" xml:space="preserve">
<g>
	<path fill="#EB4548" d="M56,180.0664V200h-8v-19.9336C23.5292,180.7384,0,187.5468,0,200c0,13.1308,26.16,20,52,20s52-6.8692,52-20
		C104,187.5468,80.4708,180.7384,56,180.0664z"/>
	<path fill="#99D59D" d="M54,24c14.336,0,26,11.664,26,26c0,2.2088,1.7912,4,4,4s4-1.7912,4-4c0-18.748-15.252-34-34-34
		c-2.2088,0-4,1.7912-4,4S51.7912,24,54,24z"/>
	<path fill="#49A25A" d="M48,200h8v-19.9336v-80.168C82.6388,98.836,104,76.8944,104,50c0-27.5704-22.4296-50-50-50S4,22.4296,4,50
		c0,25.5352,19.254,46.6248,44,49.6056v80.4608V200z M54,16c18.748,0,34,15.252,34,34c0,2.2088-1.7912,4-4,4s-4-1.7912-4-4
		c0-14.336-11.664-26-26-26c-2.2088,0-4-1.7912-4-4S51.7912,16,54,16z"/>
</g>
</svg>
