<?xml version="1.0" encoding="utf-8"?>
<!-- Generator: Adobe Illustrator 19.2.0, SVG Export Plug-In . SVG Version: 6.00 Build 0)  -->
<svg version="1.1" id="policecar" xmlns="http://www.w3.org/2000/svg" xmlns:xlink="http://www.w3.org/1999/xlink" x="0px" y="0px"
	 viewBox="0 0 231.9998 168" enable-background="new 0 0 231.9998 168" xml:space="preserve">
<g>
	<path fill="#3BABB7" d="M231.9998,116c0-17.6443-14.3476-32-31.9844-32h-28.824l-40.9084-26.9491
		c-0.6544-0.4296-1.418-0.66-2.2012-0.66h-16.082h-32H56.037c-1.0664,0-2.086,0.4256-2.838,1.1796L26.943,84H16.445
		c-1.8748,0-3.498,1.3009-3.904,3.1329l-12.4456,56c-0.2636,1.1836,0.0256,2.422,0.7832,3.3711
		C1.6386,147.4493,2.787,148,3.9999,148H20.361c-0.2204-1.3047-0.3612-2.6327-0.3612-4c0-13.2343,10.7656-24,24-24s24,10.7657,24,24
		c0,1.3673-0.1408,2.6953-0.3612,4h88.7224c-0.2204-1.3047-0.3612-2.6327-0.3612-4c0-13.2343,10.7656-24,24-24
		c13.2344,0,24,10.7657,24,24c0,1.2853-0.1308,2.5393-0.326,3.7697C219.5914,145.9257,231.9998,132.3869,231.9998,116z
		 M57.701,64.3909h69.1816l29.668,19.5428L38.8474,83.3713L57.701,64.3909z M34.5914,105.3125L29.199,120.84
		c-0.5428,1.5625-1.992,2.6289-3.6464,2.6837L11.359,123.996C11.3142,124,11.2694,124,11.2246,124
		c-2.1488,0-3.924-1.7031-3.9964-3.8671c-0.074-2.2072,1.6564-4.0584,3.8652-4.1289l11.4492-0.3827L25.1894,108H13.8806
		c-2.2088,0-4-1.7891-4-4c0-2.2107,1.7912-4,4-4h16.9316c1.2952,0,2.51,0.6249,3.26,1.6797
		C34.8222,102.7385,35.0154,104.0901,34.5914,105.3125z M147.9998,108h-12c-2.2088,0-4-1.7891-4-4c0-2.2107,1.7912-4,4-4h12
		c2.2088,0,4,1.7893,4,4C151.9998,106.2109,150.2086,108,147.9998,108z M202.7246,102.0861
		c0.902-2.0196,3.2616-2.9296,5.2812-2.0236l19.242,8.5704c2.0176,0.8984,2.926,3.2616,2.0272,5.2812
		c-0.664,1.4884-2.1248,2.3712-3.656,2.3712c-0.5448,0-1.0956-0.1096-1.6252-0.3476l-19.242-8.5704
		C202.7342,106.4689,201.8259,104.1057,202.7246,102.0861z"/>
	<path fill="#FCC24C" d="M111.9998,44.0393c0-8.844-7.1776-16.0393-16-16.0393s-16,7.1953-16,16.0393v12.3516h32V44.0393z"/>
	<path fill="#4A8F9E" d="M179.9998,120c-13.2344,0-24,10.7657-24,24c0,1.3673,0.1408,2.6953,0.3612,4
		c1.914,11.332,11.7696,20,23.6388,20c11.9492,0,21.8576-8.7851,23.674-20.2303c0.1952-1.2304,0.326-2.4844,0.326-3.7697
		C203.9998,130.7657,193.2342,120,179.9998,120z M179.9998,152c-4.412,0-8-3.5899-8-8c0-4.4099,3.588-8,8-8s8,3.5901,8,8
		C187.9998,148.4101,184.4118,152,179.9998,152z"/>
	<path fill="#4A8F9E" d="M43.9999,120c-13.2344,0-24,10.7657-24,24c0,1.3673,0.1408,2.6953,0.3612,4
		c1.914,11.332,11.7696,20,23.6388,20s21.7248-8.668,23.6388-20c0.2204-1.3047,0.3612-2.6327,0.3612-4
		C67.9998,130.7657,57.2342,120,43.9999,120z M43.9999,152c-4.412,0-8-3.5899-8-8c0-4.4099,3.588-8,8-8s8,3.5901,8,8
		C51.9999,148.4101,48.4118,152,43.9999,152z"/>
	<path fill="#535353" d="M179.9998,136c-4.412,0-8,3.5901-8,8c0,4.4101,3.588,8,8,8s8-3.5899,8-8
		C187.9998,139.5901,184.4118,136,179.9998,136z"/>
	<path fill="#535353" d="M43.9999,136c-4.412,0-8,3.5901-8,8c0,4.4101,3.588,8,8,8s8-3.5899,8-8
		C51.9999,139.5901,48.4118,136,43.9999,136z"/>
	<path fill="#FCC24C" d="M225.619,116.2853c1.5312,0,2.992-0.8828,3.656-2.3712c0.8988-2.0196-0.0096-4.3828-2.0272-5.2812
		l-19.242-8.5704c-2.0196-0.906-4.3792,0.004-5.2812,2.0236c-0.8988,2.0196,0.0096,4.3828,2.0272,5.2812l19.242,8.5704
		C224.5234,116.1757,225.0742,116.2853,225.619,116.2853z"/>
	<path fill="#FCC24C" d="M30.8122,100H13.8806c-2.2088,0-4,1.7893-4,4c0,2.2109,1.7912,4,4,4h11.3088l-2.6468,7.6213
		l-11.4492,0.3827c-2.2088,0.0705-3.9392,1.9217-3.8652,4.1289C7.3006,122.2969,9.0759,124,11.2246,124
		c0.0448,0,0.0896,0,0.1344-0.004l14.1936-0.4723c1.6544-0.0548,3.1036-1.1212,3.6464-2.6837l5.3924-15.5275
		c0.424-1.2224,0.2308-2.574-0.5192-3.6328C33.3222,100.6249,32.1074,100,30.8122,100z"/>
	<path fill="#FE8657" d="M147.9998,100h-12c-2.2088,0-4,1.7893-4,4c0,2.2109,1.7912,4,4,4h12c2.2088,0,4-1.7891,4-4
		C151.9998,101.7893,150.2086,100,147.9998,100z"/>
	<path fill="#C1DB66" d="M81.1719,26.828C81.953,27.6093,82.9762,28,83.9998,28c1.0236,0,2.0468-0.3907,2.828-1.172
		c1.5628-1.5623,1.5628-4.0935,0-5.656L76.6306,10.9729c-1.5624-1.5628-4.0936-1.5628-5.656,0c-1.5628,1.5624-1.5628,4.0936,0,5.656
		L81.1719,26.828z"/>
	<path fill="#C1DB66" d="M107.9998,28c1.0236,0,2.0468-0.3907,2.828-1.172l10.1972-10.1991c1.5628-1.5624,1.5628-4.0936,0-5.656
		c-1.5624-1.5628-4.0936-1.5628-5.656,0L105.1719,21.172c-1.5628,1.5625-1.5628,4.0937,0,5.656
		C105.953,27.6093,106.9762,28,107.9998,28z"/>
	<path fill="#C1DB66" d="M95.9998,20c2.2088,0,4-1.7891,4-4V4c0-2.2107-1.7912-4-4-4c-2.2088,0-4,1.7893-4,4v12
		C91.9998,18.2109,93.791,20,95.9998,20z"/>
	<polygon fill="#7BE5E4" points="126.8826,64.3909 57.701,64.3909 38.8474,83.3713 156.5506,83.9337 	"/>
</g>
</svg>
