<?xml version="1.0" encoding="utf-8"?>
<!-- Generator: Adobe Illustrator 19.2.0, SVG Export Plug-In . SVG Version: 6.00 Build 0)  -->
<svg version="1.1" id="recyclecar" xmlns="http://www.w3.org/2000/svg" xmlns:xlink="http://www.w3.org/1999/xlink" x="0px" y="0px"
	 viewBox="0 0 228.0009 124" enable-background="new 0 0 228.0009 124" xml:space="preserve">
<g>
	<path fill="#C1DB66" d="M224.0009,0h-140c-2.2109,0-4,1.7892-4,4v32h4c2.2107,0,4,1.7892,4,4v72c0,2.2108-1.7893,4-4,4h80.332
		c1.176,0,2.2931-0.5196,3.0547-1.418c0.7576-0.8984,1.086-2.086,0.8904-3.246c-0.1836-1.09-0.2771-2.2148-0.2771-3.336
		c0-11.0272,8.9727-20,20-20c11.0271,0,20,8.9728,20,20c0,1.1212-0.0937,2.246-0.2773,3.336
		c-0.1956,1.16,0.1328,2.3476,0.8904,3.246c0.762,0.8984,1.8789,1.418,3.0549,1.418h12.332c2.2107,0,4-1.7892,4-4V4
		C228.0009,1.7892,226.2115,0,224.0009,0z M155.0009,78.91c-5.0237,2.8984-10.5197,4.2776-15.9453,4.2816
		c-11.0704,0-21.8476-5.7424-27.7696-15.9964l-2-3.4648l6.9296-4l2,3.4648c6.6173,11.4572,21.3204,15.4064,32.7853,8.7852
		c11.4607-6.6132,15.4023-21.324,8.7851-32.7852c-6.34-10.9724-20.078-15.0272-31.2931-9.5468l6.2539,1.676l-2.0704,7.7264
		L117.2235,34.91c-2.1328-0.57-3.3984-2.7656-2.8284-4.8984l4.1408-15.4532l7.7264,2.0704l-1.6092,6.012
		c15.0197-7.5548,33.5508-2.18,42.0624,12.5544C175.5359,50.4804,170.282,70.09,155.0009,78.91z"/>
	<path fill="#FFEAB5" d="M124.6532,22.6408l1.6092-6.012l-7.7264-2.0704l-4.1408,15.4532c-0.57,2.1328,0.6956,4.3284,2.8284,4.8984
		l15.4528,4.1408l2.0704-7.7264l-6.2539-1.676c11.2151-5.4804,24.9531-1.4256,31.2931,9.5468
		c6.6172,11.4612,2.6756,26.172-8.7851,32.7852c-11.4649,6.6212-26.168,2.672-32.7853-8.7852l-2-3.4648l-6.9296,4l2,3.4648
		c5.922,10.254,16.6992,15.9964,27.7696,15.9964c5.4256-0.004,10.9216-1.3832,15.9453-4.2816
		c15.2811-8.82,20.5351-28.4296,11.7147-43.7148C158.2039,20.4608,139.6729,15.086,124.6532,22.6408z"/>
	<path fill="#4A8F9E" d="M188.0009,92c-8.8245,0-16,7.1756-16,16s7.1755,16,16,16c8.8243,0,16-7.1756,16-16S196.8251,92,188.0009,92
		z"/>
	<path fill="#4A8F9E" d="M40.0009,92c-8.8245,0-16,7.1756-16,16s7.1755,16,16,16c8.8243,0,16-7.1756,16-16S48.8252,92,40.0009,92z"
		/>
	<path fill="#3BABB7" d="M88.0009,112V40c0-2.2108-1.7893-4-4-4h-4h-36c-1.7853,0-3.3557,1.1836-3.8477,2.9024L32.9852,64h-3.004
		C15.8484,64,3.3056,75.4416,2.028,89.508l-2.0116,22.1288c-0.1016,1.1212,0.2736,2.2304,1.0312,3.0624
		C1.8056,115.5272,2.876,116,4.0009,116h12.332c1.176,0,2.2931-0.5196,3.0547-1.418c0.7576-0.8984,1.086-2.086,0.8904-3.246
		c-0.1836-1.09-0.2771-2.2148-0.2771-3.336c0-11.0272,8.9727-20,20-20c11.0271,0,20,8.9728,20,20
		c0,1.1212-0.0937,2.246-0.2773,3.336c-0.1956,1.16,0.1328,2.3476,0.8904,3.246c0.762,0.8984,1.8789,1.418,3.0549,1.418h20.332
		C86.2115,116,88.0009,114.2108,88.0009,112z M47.0164,44h32.9845v20H41.3056L47.0164,44z M40.0009,80c-15.4377,0-28,12.5624-28,28
		H8.3796l1.6173-17.7656C10.9108,80.1796,19.876,72,29.9812,72h50.0197v36h-12C68.0009,92.5624,55.4384,80,40.0009,80z"/>
	<path fill="#50CCD3" d="M80.0009,72H29.9812C19.876,72,10.9108,80.1796,9.9969,90.2344L8.3796,108h3.6213
		c0-15.4376,12.5623-28,28-28c15.4375,0,28,12.5624,28,28h12V72z"/>
	<polygon fill="#50CCD3" points="80.0009,44 47.0164,44 41.3056,64 80.0009,64 	"/>
</g>
</svg>
