<?xml version="1.0" encoding="utf-8"?>
<!-- Generator: Adobe Illustrator 19.2.0, SVG Export Plug-In . SVG Version: 6.00 Build 0)  -->
<svg version="1.1" id="sailboat" xmlns="http://www.w3.org/2000/svg" xmlns:xlink="http://www.w3.org/1999/xlink" x="0px" y="0px"
	 viewBox="0 0 228.0008 208" enable-background="new 0 0 228.0008 208" xml:space="preserve">
<g>
	<rect x="64.0005" y="124" fill="#4F676D" width="24" height="16"/>
	<path fill="#4F676D" d="M117.7585,12.6877c1.1032-0.7444,2.492-0.8908,3.7284-0.4024l2.5136,1.006V0h-8v16
		C116.0005,14.672,116.6589,13.4317,117.7585,12.6877z"/>
	<path fill="#4F676D" d="M124.0005,50.7089l-2.5136,1.006C121.0065,51.9065,120.5025,52,120.0005,52
		c-0.7892,0-1.5704-0.2323-2.242-0.6875c-1.0996-0.744-1.758-1.9845-1.758-3.3125v92h8V50.7089z"/>
	<path fill="#4A8F9E" d="M227.1685,125.5585c-0.758-0.9825-1.9276-1.5585-3.168-1.5585h-62.3536
		c-1.3692,0-2.6424,0.7013-3.3768,1.8557L149.2897,140h-25.2892h-8h-28h-24h-60c-1.756,0-3.3048,1.1445-3.8224,2.8205
		c-0.5176,1.6776,0.1192,3.496,1.5684,4.4844l56.6036,38.5936C76.2269,198.0861,108.3657,208,129.9965,208h74.004
		c1.8164,0,3.4064-1.2247,3.8692-2.9823l20-76C228.1841,127.8185,227.9261,126.5413,227.1685,125.5585z M96.0005,176
		c-4.412,0-8-3.588-8-8s3.588-8,8-8c4.412,0,8,3.588,8,8S100.4125,176,96.0005,176z M132.0005,176c-4.412,0-8-3.588-8-8s3.588-8,8-8
		s8,3.588,8,8S136.4125,176,132.0005,176z M168.0005,176c-4.412,0-8-3.588-8-8s3.588-8,8-8s8,3.588,8,8S172.4125,176,168.0005,176z"
		/>
	<path fill="#C1DB66" d="M108.0005,124c0,0-8-9.5819-8-46c0-36.4179,8-46,8-46h-60c0,0-8,15.5705-8,46c0,30.4297,8,46,8,46h16h24
		H108.0005z"/>
	<path fill="#FF6B97" d="M117.7585,51.3125c0.6716,0.4552,1.4528,0.6875,2.242,0.6875c0.502,0,1.006-0.0935,1.4864-0.2851
		l2.5136-1.006l37.4864-14.994c1.5176-0.6092,2.5136-2.08,2.5136-3.7149c0-1.6347-0.996-3.1055-2.5136-3.7147l-37.4864-14.994
		l-2.5136-1.006c-1.2364-0.4884-2.6252-0.342-3.7284,0.4024c-1.0996,0.744-1.758,1.9843-1.758,3.3123v32
		C116.0005,49.328,116.6589,50.5685,117.7585,51.3125z"/>
	<circle fill="#FCC24C" cx="96.0005" cy="168" r="8"/>
	<circle fill="#FCC24C" cx="132.0005" cy="168" r="8"/>
	<circle fill="#FCC24C" cx="168.0005" cy="168" r="8"/>
</g>
</svg>
