<?xml version="1.0" encoding="utf-8"?>
<!-- Generator: Adobe Illustrator 19.2.0, SVG Export Plug-In . SVG Version: 6.00 Build 0)  -->
<svg version="1.1" id="scooter" xmlns="http://www.w3.org/2000/svg" xmlns:xlink="http://www.w3.org/1999/xlink" x="0px" y="0px"
	 viewBox="0 0 200 224" enable-background="new 0 0 200 224" xml:space="preserve">
<g>
	<path fill="#618287" d="M68.5899,25.9648L52,14.0584V8c0-2.2108-1.7893-4-4-4H4C1.7891,4,0,5.7892,0,8v16c0,2.2108,1.7891,4,4,4h44
		c2.2107,0,4-1.7892,4-4v-0.0935l13.0935,9.3983c0.9336-0.758,1.9145-1.4456,2.9456-2.0664
		C68.0819,29.4416,68.2615,27.6796,68.5899,25.9648z"/>
	<path fill="#63B473" d="M52,104v-3.2968l-2.7073,46.6952c-0.4296,7.3712,2.0316,14.4648,6.7464,19.4608
		c4.2224,4.4768,9.8864,6.9416,15.9452,6.9416H76V139.996C76,126.7656,86.7655,116,100,116c13.2343,0,24,10.7656,24,23.996v33.8048
		h3.992c6.0783,0,11.7499-2.4648,15.9727-6.9416c4.7148-4.996,7.172-12.0896,6.7424-19.4608L148,100.7032V104H52z"/>
	<path fill="#63B473" d="M132,32c0,17.6444-14.3557,32-32,32c-17.6445,0-32-14.3556-32-32c0-0.258,0.0311-0.504,0.0391-0.7616
		c-1.0311,0.6208-2.012,1.3084-2.9456,2.0664c-5.9608,4.8476-9.902,12.3476-10.3708,20.4336L52.2735,96h95.4528l-2.4492-42.2616
		c-0.4688-8.0628-4.3476-15.594-10.332-20.4612c-0.9491-0.7692-1.9371-1.4844-2.988-2.1132C131.9647,31.4452,132,31.7188,132,32z"/>
	<polygon fill="#49A25A" points="52,96 52,100.7032 52,104 148,104 148,100.7032 148,96 147.7263,96 52.2735,96 	"/>
	<path fill="#FCC24C" d="M68,32c0,17.6444,14.3555,32,32,32c17.6443,0,32-14.3556,32-32c0-0.2812-0.0353-0.5548-0.0429-0.836
		c-0.0472-1.7696-0.2228-3.5075-0.5472-5.1992C128.5779,11.1993,115.5819,0,100,0C84.4179,0,71.4219,11.1993,68.5899,25.9648
		c-0.3284,1.7148-0.508,3.4768-0.5508,5.2736C68.0311,31.496,68,31.742,68,32z M124,32c0,13.2344-10.7657,24-24,24
		c-9.2697,0-17.3125-5.2928-21.3085-13.004l29.3788-33.5704C117.34,12.75,124,21.6017,124,32z M98.6251,8.0704l-22.5316,25.75
		C76.0467,33.2188,76,32.6132,76,32C76,19.2304,86.0311,8.7893,98.6251,8.0704z"/>
	<path fill="#FFDC82" d="M78.6915,42.996C82.6875,50.7072,90.7303,56,100,56c13.2343,0,24-10.7656,24-24
		c0-10.3983-6.66-19.25-15.9297-22.5744L78.6915,42.996z"/>
	<path fill="#FFDC82" d="M76,32c0,0.6132,0.0467,1.2188,0.0935,1.8204l22.5316-25.75C86.0311,8.7893,76,19.2304,76,32z"/>
	<path fill="#4F676D" d="M100,116c-13.2345,0-24,10.7656-24,23.996v33.8048v26.2032C76,213.2344,86.7655,224,100,224
		c13.2343,0,24-10.7656,24-23.996v-26.2032V139.996C124,126.7656,113.2343,116,100,116z M100,220c-4.4181,0-8-3.5584-8-8.0156
		v-83.9688C92,123.586,95.5507,120,100,120c4.4179,0,8,3.5584,8,8.0156v83.9688C108,216.41,104.4491,220,100,220z"/>
	<path fill="#618287" d="M108,128.0156c0-4.4572-3.5821-8.0156-8-8.0156c-4.4493,0-8,3.586-8,8.0156v83.9688
		c0,4.4572,3.5819,8.0156,8,8.0156c4.4491,0,8-3.59,8-8.0156V128.0156z"/>
	<path fill="#618287" d="M196,4h-44c-2.2109,0-4,1.7892-4,4v6.0584l-16.5901,11.9064c0.3244,1.6916,0.5,3.4296,0.5472,5.1992
		c1.0509,0.6288,2.0389,1.344,2.988,2.1132L148,23.9065V24c0,2.2108,1.7891,4,4,4h44c2.2107,0,4-1.7892,4-4V8
		C200,5.7892,198.2107,4,196,4z"/>
</g>
</svg>
