<?xml version="1.0" encoding="utf-8"?>
<!-- Generator: Adobe Illustrator 19.2.0, SVG Export Plug-In . SVG Version: 6.00 Build 0)  -->
<svg version="1.1" id="searchmap" xmlns="http://www.w3.org/2000/svg" xmlns:xlink="http://www.w3.org/1999/xlink" x="0px" y="0px"
	 viewBox="0 0 176 232" enable-background="new 0 0 176 232" xml:space="preserve">
<g>
	<path fill="none" d="M76,56c13.2343,0,24-10.7656,24-24S89.2343,8,76,8C62.7655,8,52,18.7656,52,32S62.7655,56,76,56z"/>
	<path fill="#FFDC82" d="M56,228V100.8692c0-1.9668,1.4295-3.6428,3.3751-3.9512L60,96.8204L4.6251,88.0488
		c-1.1488-0.1776-2.3324,0.1524-3.2228,0.91C0.5115,89.7188,0,90.83,0,92v127.1308c0,1.9668,1.4295,3.6428,3.3751,3.9512l56,8.8692
		C59.5819,231.9844,59.7927,232,60,232c-0.9453,0-1.8673-0.336-2.5977-0.9588C56.5115,230.2812,56,229.17,56,228z"/>
	<path fill="#FFDC82" d="M172.6251,96.918l-56-8.8692c-0.2112-0.0312-0.4144,0.0372-0.6291,0.0372
		c0.9455,0.0056,1.8751,0.254,2.6015,0.8728C119.4883,89.7188,120,90.83,120,92v127.1308c0,1.9668-1.4297,3.6428-3.3749,3.9512
		L116,223.1816l55.3751,8.7696C171.5819,231.9844,171.7927,232,172,232c0.9451,0,1.8671-0.336,2.5975-0.9588
		C175.4883,230.2812,176,229.17,176,228V100.8692C176,98.9024,174.5703,97.2264,172.6251,96.918z"/>
	<path fill="#F8A131" d="M120,219.1308V92c0-1.17-0.5117-2.2812-1.4025-3.0412c-0.7264-0.6188-1.656-0.8672-2.6015-0.8728
		c-0.2069,0-0.4101-0.0684-0.6209-0.0372L60,96.8204l-0.6249,0.0976C57.4295,97.2264,56,98.9024,56,100.8692V228
		c0,1.17,0.5115,2.2812,1.4023,3.0412C58.1327,231.664,59.0547,232,60,232c0.2071,0,0.4179-0.0156,0.6251-0.0488L116,223.1816
		l0.6251-0.0996C118.5703,222.7736,120,221.0976,120,219.1308z"/>
	<path fill="#6FB9B3" d="M76,64c7.3827,0,14.172-2.5372,19.5899-6.754L120,81.6564L125.6563,76l-24.4104-24.41
		C105.4607,46.17,108,39.3828,108,32c0-17.6444-14.3557-32-32-32C58.3555,0,44,14.3556,44,32S58.3555,64,76,64z M76,8
		c13.2343,0,24,10.7656,24,24S89.2343,56,76,56c-13.2345,0-24-10.7656-24-24S62.7655,8,76,8z"/>
</g>
</svg>
