<?xml version="1.0" encoding="utf-8"?>
<!-- Generator: Adobe Illustrator 19.2.0, SVG Export Plug-In . SVG Version: 6.00 Build 0)  -->
<svg version="1.1" id="sideviewship" xmlns="http://www.w3.org/2000/svg" xmlns:xlink="http://www.w3.org/1999/xlink" x="0px"
	 y="0px" viewBox="0 0 224 196" enable-background="new 0 0 224 196" xml:space="preserve">
<g>
	<rect x="116" y="76" fill="#B976DD" width="32" height="16"/>
	<path fill="#D793FD" d="M116,76h32v16h8V76h16h16v16h8V68h-24V44h-56v24h-8v24h8V76z M124,52h40v16h-8h-8h-24V52z"/>
	<polygon fill="#B976DD" points="172,76 156,76 156,92 188,92 188,76 	"/>
	<polygon fill="#B976DD" points="156,68 164,68 164,52 124,52 124,68 148,68 	"/>
	<path fill="#50CCD3" d="M208,164c-2.2088,0-4,1.7913-4,4c0,11.0273-8.9728,20-20,20s-20-8.9727-20-20c0-2.2087-1.7912-4-4-4
		s-4,1.7913-4,4c0,11.0273-8.9728,20-20,20s-20-8.9727-20-20c0-2.2087-1.7912-4-4-4s-4,1.7913-4,4c0,11.0273-8.9728,20-20,20
		s-20-8.9727-20-20c0-2.2087-1.7912-4-4-4s-4,1.7913-4,4c0,11.0273-8.9728,20-20,20s-20-8.9727-20-20c0-2.2087-1.7912-4-4-4
		s-4,1.7913-4,4c0,15.4397,12.5604,28,28,28c10.1916,0,19.1016-5.4903,24-13.6523C68.8984,190.5097,77.8084,196,88,196
		s19.1016-5.4903,24-13.6523C116.8984,190.5097,125.8084,196,136,196s19.1016-5.4903,24-13.6523
		C164.8984,190.5097,173.8084,196,184,196c15.4396,0,28-12.5603,28-28C212,165.7913,210.2088,164,208,164z"/>
	<rect x="36" fill="#FFDC82" width="8" height="40"/>
	<path fill="#49A25A" d="M60,40H44h-8H20v52h40V40z M48,76H32v-8h16V76z M32,64v-8h16v8H32z"/>
	<path fill="#99D59D" d="M17.3964,156h189.2072c1.498,0,2.8712-0.8379,3.5564-2.1699C219.2148,136.2229,224,116.2265,224,96
		c0-2.2087-1.7912-4-4-4h-24h-8h-32h-8h-32h-8H60H20H4c-2.2088,0-4,1.7913-4,4c0,20.2265,4.7852,40.2229,13.84,57.8301
		C14.5252,155.1621,15.8984,156,17.3964,156z"/>
	<rect x="32" y="56" fill="#FFDC82" width="16" height="8"/>
	<rect x="32" y="68" fill="#FFDC82" width="16" height="8"/>
</g>
</svg>
