<?xml version="1.0" encoding="utf-8"?>
<!-- Generator: Adobe Illustrator 19.2.0, SVG Export Plug-In . SVG Version: 6.00 Build 0)  -->
<svg version="1.1" id="siren" xmlns="http://www.w3.org/2000/svg" xmlns:xlink="http://www.w3.org/1999/xlink" x="0px" y="0px"
	 viewBox="0 0 232 216.1328" enable-background="new 0 0 232 216.1328" xml:space="preserve">
<g>
	<path fill="#FCC24C" d="M168,130.1328c0-27.5704-22.4432-50-50.0312-50h-3.9376c-27.588,0-50.0312,22.4296-50.0312,50v42h104
		V130.1328z M92,132.1328c0,2.2108-1.7912,4-4,4s-4-1.7892-4-4c0-17.6444,14.3556-32,32-32c2.2088,0,4,1.7892,4,4s-1.7912,4-4,4
		C102.7656,108.1328,92,118.8984,92,132.1328z M118,144.1328c-5.5236,0-10-4.4764-10-10c0-5.5236,4.4764-10,10-10s10,4.4764,10,10
		C128,139.6564,123.5236,144.1328,118,144.1328z"/>
	<circle fill="#FFDC82" cx="118" cy="134.1328" r="10"/>
	<path fill="#FFDC82" d="M120,104.1328c0-2.2108-1.7912-4-4-4c-17.6444,0-32,14.3556-32,32c0,2.2108,1.7912,4,4,4s4-1.7892,4-4
		c0-13.2344,10.7656-24,24-24C118.2088,108.1328,120,106.3436,120,104.1328z"/>
	<path fill="#4A8F9E" d="M176,172.1328h-8H64h-8c-2.2088,0-4,1.7892-4,4v36c0,2.2108,1.7912,4,4,4h120c2.2088,0,4-1.7892,4-4v-36
		C180,173.922,178.2088,172.1328,176,172.1328z"/>
	<path fill="#FFDC82" d="M116,68.1328c2.2088,0,4-1.7892,4-4V4c0-2.2108-1.7912-4-4-4s-4,1.7892-4,4v60.1328
		C112,66.3436,113.7912,68.1328,116,68.1328z"/>
	<path fill="#FFDC82" d="M170.5448,88.1328c1.0236,0,2.0468-0.3908,2.8284-1.172L198.828,61.504
		c1.5628-1.5628,1.5628-4.094,0-5.6564c-1.5624-1.5624-4.0936-1.5624-5.656,0l-25.4552,25.4572
		c-1.5624,1.5624-1.5624,4.0936,0,5.656C168.498,87.742,169.5216,88.1328,170.5448,88.1328z"/>
	<path fill="#FFDC82" d="M57.172,86.9608c0.7812,0.7812,1.8044,1.172,2.828,1.172s2.0468-0.3908,2.828-1.172
		c1.5628-1.5624,1.5628-4.0936,0-5.656L37.3732,55.8476c-1.5628-1.5624-4.094-1.5624-5.6564,0s-1.5624,4.0936,0,5.6564
		L57.172,86.9608z"/>
	<path fill="#FFDC82" d="M228,120.1328h-44c-2.2088,0-4,1.7892-4,4s1.7912,4,4,4h44c2.2088,0,4-1.7892,4-4
		S230.2088,120.1328,228,120.1328z"/>
	<path fill="#FFDC82" d="M48,120.1328H4c-2.2088,0-4,1.7892-4,4s1.7912,4,4,4h44c2.2088,0,4-1.7892,4-4
		S50.2088,120.1328,48,120.1328z"/>
</g>
</svg>
