<?xml version="1.0" encoding="utf-8"?>
<!-- Generator: Adobe Illustrator 19.2.0, SVG Export Plug-In . SVG Version: 6.00 Build 0)  -->
<svg version="1.1" id="speedometer" xmlns="http://www.w3.org/2000/svg" xmlns:xlink="http://www.w3.org/1999/xlink" x="0px"
	 y="0px" viewBox="0 0 224 160.7344" enable-background="new 0 0 224 160.7344" xml:space="preserve">
<g>
	<path fill="#FE8657" d="M224,112C224,50.242,173.7579,0,112,0C50.2419,0,0,50.242,0,112c0,15.6444,12.5743,28.5448,36.3671,37.3048
		c16.0704,5.918,36.582,9.656,58.914,10.918C93.4255,159.8711,92,158.3204,92,156.3671c0-11.0271,8.9727-20,20-20
		c11.0271,0,20,8.9729,20,20c0,1.992-1.4805,3.5705-3.3869,3.8769C177.2071,157.414,224,142.0588,224,112z M129.5859,34.2071
		c0.5861-2.1291,2.8164-3.3651,4.9221-2.7891c1.3591,0.3748,2.6991,0.7851,4.0231,1.2264c2.0976,0.6976,3.2304,2.9632,2.5352,5.0587
		c-0.5583,1.6757-2.1212,2.7385-3.7968,2.7385c-0.418,0-0.844-0.0665-1.2615-0.2072c-1.1997-0.3984-2.4065-0.7656-3.6329-1.1056
		C130.2459,38.5412,128.996,36.338,129.5859,34.2071z M36.3243,105.3164c-0.1876,2.078-1.9336,3.6387-3.9808,3.6387
		c-0.1208,0-0.242-0.0059-0.3672-0.0155c-2.1992-0.2012-3.82-2.1468-3.6208-4.346c0.1288-1.402,0.2928-2.7948,0.488-4.1756
		c0.3128-2.1856,2.34-3.6916,4.5276-3.3944c2.1836,0.3104,3.7068,2.3355,3.3944,4.5232
		C36.5859,102.7948,36.4375,104.0508,36.3243,105.3164z M41.7615,83.2772c-0.4804,1.168-0.9372,2.3516-1.3632,3.5488
		c-0.586,1.6368-2.1248,2.6584-3.7696,2.6584c-0.4452,0-0.8984-0.076-1.3436-0.2344c-2.082-0.742-3.164-3.0312-2.426-5.1112
		c0.4729-1.3224,0.9769-2.6272,1.512-3.916c0.8436-2.0472,3.1872-3,5.2224-2.17C41.6367,78.8964,42.6055,81.2364,41.7615,83.2772z
		 M51.1523,66.826c-0.758,1.012-1.4923,2.0451-2.2032,3.096c-0.7736,1.1464-2.0352,1.7656-3.3204,1.7656
		c-0.7696,0-1.5468-0.2208-2.2304-0.6836c-1.832-1.2324-2.3164-3.7188-1.082-5.5508c0.7812-1.164,1.5936-2.3028,2.4296-3.42
		c1.3204-1.7656,3.8284-2.1348,5.6016-0.8048C52.1131,62.5508,52.4763,65.0588,51.1523,66.826z M64.3083,53.1896
		c-0.988,0.7968-1.9528,1.6172-2.8984,2.4608c-0.7656,0.6816-1.7148,1.0156-2.664,1.0156c-1.0976,0-2.1952-0.4512-2.9844-1.338
		c-1.4724-1.6484-1.328-4.1756,0.3204-5.6464c1.0468-0.9336,2.1132-1.8396,3.2032-2.7188c1.7264-1.3904,4.242-1.1132,5.6248,0.6016
		C66.2967,49.2852,66.0271,51.8028,64.3083,53.1896z M80.4295,43.2148c-1.156,0.5292-2.3008,1.088-3.4255,1.67
		c-0.5861,0.3048-1.2189,0.4492-1.836,0.4492c-1.4493,0-2.8437-0.7872-3.5549-2.16c-1.0156-1.9612-0.25-4.3752,1.7112-5.3909
		c1.242-0.6443,2.496-1.2575,3.7692-1.8415c2.0316-0.92,4.3868-0.0332,5.3048,1.9704C83.3203,39.92,82.4375,42.2948,80.4295,43.2148
		z M98.5,37.5604c-1.2461,0.2227-2.4845,0.4768-3.7109,0.764c-0.3048,0.072-0.6136,0.1052-0.914,0.1052
		c-1.8168,0-3.4572-1.244-3.8908-3.0876c-0.504-2.1504,0.832-4.3029,2.9844-4.8069c1.3593-0.3183,2.7304-0.5995,4.1172-0.8495
		c2.1836-0.3908,4.2541,1.0584,4.6444,3.2304C102.1211,35.09,100.6755,37.17,98.5,37.5604z M109.7107,32.2968
		c0.0472-2.2048,1.8948-3.9532,4.086-3.912c1.4064,0.0312,2.8048,0.0956,4.1916,0.1932c2.2032,0.1564,3.8632,2.0684,3.7068,4.2736
		c-0.1484,2.1072-1.9024,3.7168-3.9844,3.7168c-0.0936,0-0.1912-0.004-0.2852-0.0096c-1.2615-0.09-2.5272-0.1468-3.8004-0.174
		C111.4139,36.336,109.664,34.506,109.7107,32.2968z M151.6991,61.8908l-28,68c-0.6368,1.5448-2.1288,2.4784-3.6991,2.4784
		c-0.508,0-1.0237-0.0976-1.5237-0.3028c-2.0428-0.8416-3.0156-3.1796-2.1756-5.2228l28-68
		c0.8436-2.0428,3.1756-3.0136,5.2228-2.1756C151.5663,57.5096,152.5391,59.8476,151.6991,61.8908z M158.6131,47.2228
		c-0.7616,1.1856-2.0508,1.832-3.3632,1.832c-0.7419,0-1.492-0.2072-2.164-0.6388c-1.0588-0.6816-2.1328-1.34-3.2344-1.9689
		c-1.918-1.0955-2.582-3.5407-1.4844-5.4567c1.0976-1.916,3.5352-2.586,5.4609-1.4844c1.2187,0.6992,2.4179,1.4276,3.5939,2.1872
		C159.2771,42.8908,159.8123,45.3671,158.6131,47.2228z M173.2811,60.7736c-0.7731,0.7204-1.75,1.076-2.7304,1.076
		c-1.0704,0-2.1368-0.4256-2.922-1.2696c-0.8708-0.9296-1.7576-1.838-2.668-2.7244c-1.582-1.5432-1.6132-4.0744-0.07-5.6565
		c1.5468-1.58,4.078-1.6111,5.656-0.0703c0.996,0.9728,1.9768,1.9708,2.926,2.9903
		C174.9803,56.7344,174.8943,59.2656,173.2811,60.7736z M182.2303,78.0236c-1.414,0-2.7852-0.752-3.5156-2.082
		c-0.6056-1.1116-1.246-2.2092-1.91-3.2892c-1.1564-1.8828-0.5664-4.3456,1.3164-5.502c1.8749-1.1544,4.3436-0.5684,5.504,1.3144
		c0.734,1.1972,1.4372,2.4084,2.1132,3.6408c1.0584,1.9372,0.3436,4.3672-1.594,5.4276
		C183.5351,77.8652,182.8787,78.0236,182.2303,78.0236z M185.6563,93.5624c-0.3088-1.2304-0.6563-2.4492-1.0276-3.658
		c-0.6484-2.1116,0.5393-4.3496,2.6484-4.998c2.1096-0.6468,4.3516,0.5407,5,2.6504c0.4104,1.334,0.7892,2.6816,1.1368,4.0408
		c0.5432,2.1408-0.7539,4.3164-2.8944,4.8596c-0.332,0.084-0.664,0.1228-0.9884,0.1228
		C187.7459,96.58,186.1171,95.3751,185.6563,93.5624z M192,116.3671c-2.2109,0-4-1.7911-4-4c0-1.2735-0.0313-2.5391-0.0937-3.7987
		c-0.1096-2.2053,1.5897-4.084,3.7968-4.1933c2.1092-0.176,4.082,1.5877,4.1952,3.7949c0.0704,1.3924,0.1017,2.7908,0.1017,4.1971
		C196,114.576,194.2107,116.3671,192,116.3671z"/>
	<path fill="#FE8657" d="M124,156.3671c0-6.6171-5.3829-12-12-12c-6.6173,0-12,5.3829-12,12c0,2.0605-1.5781,3.6973-3.5821,3.916
		c5.1212,0.2697,10.3008,0.4513,15.5821,0.4513c5.2071,0,10.4491-0.1444,15.6755-0.4316
		C125.6251,160.1288,124,158.4608,124,156.3671z"/>
	<path fill="#FCC24C" d="M185.7383,72.1056c-0.676-1.2324-1.3792-2.4436-2.1132-3.6408c-1.1604-1.8828-3.6291-2.4688-5.504-1.3144
		c-1.8828,1.1564-2.4728,3.6192-1.3164,5.502c0.664,1.08,1.3044,2.1776,1.91,3.2892c0.7304,1.33,2.1016,2.082,3.5156,2.082
		c0.6484,0,1.3048-0.1584,1.914-0.4904C186.0819,76.4728,186.7967,74.0428,185.7383,72.1056z"/>
	<path fill="#FCC24C" d="M97.0859,29.6856c-1.3868,0.25-2.7579,0.5312-4.1172,0.8495c-2.1524,0.504-3.4884,2.6565-2.9844,4.8069
		c0.4336,1.8436,2.074,3.0876,3.8908,3.0876c0.3004,0,0.6092-0.0332,0.914-0.1052c1.2264-0.2872,2.4648-0.5413,3.7109-0.764
		c2.1755-0.3904,3.6211-2.4704,3.2303-4.6444C101.34,30.744,99.2695,29.2948,97.0859,29.6856z"/>
	<path fill="#FCC24C" d="M117.7107,36.5684c2.082,0,3.836-1.6096,3.9844-3.7168c0.1564-2.2052-1.5036-4.1172-3.7068-4.2736
		c-1.3868-0.0976-2.7852-0.162-4.1916-0.1932c-2.1912-0.0412-4.0388,1.7072-4.086,3.912c-0.0467,2.2092,1.7032,4.0392,3.9144,4.088
		c1.2732,0.0272,2.5389,0.084,3.8004,0.174C117.5195,36.5644,117.6171,36.5684,117.7107,36.5684z"/>
	<path fill="#FCC24C" d="M77.0935,35.9416c-1.2732,0.584-2.5272,1.1972-3.7692,1.8415c-1.9612,1.0157-2.7268,3.4297-1.7112,5.3909
		c0.7112,1.3728,2.1056,2.16,3.5549,2.16c0.6171,0,1.2499-0.1444,1.836-0.4492c1.1247-0.582,2.2695-1.1408,3.4255-1.67
		c2.008-0.92,2.8908-3.2948,1.9688-5.3028C81.4803,35.9084,79.1251,35.0216,77.0935,35.9416z"/>
	<path fill="#FCC24C" d="M157.4219,41.6932c-1.176-0.7596-2.3752-1.488-3.5939-2.1872c-1.9257-1.1016-4.3633-0.4316-5.4609,1.4844
		c-1.0976,1.916-0.4336,4.3612,1.4844,5.4567c1.1016,0.6289,2.1756,1.2873,3.2344,1.9689c0.672,0.4316,1.4221,0.6388,2.164,0.6388
		c1.3124,0,2.6016-0.6464,3.3632-1.832C159.8123,45.3671,159.2771,42.8908,157.4219,41.6932z"/>
	<path fill="#FCC24C" d="M191.7031,104.3751c-2.2071,0.1093-3.9064,1.988-3.7968,4.1933c0.0624,1.2596,0.0937,2.5252,0.0937,3.7987
		c0,2.2089,1.7891,4,4,4c2.2107,0,4-1.7911,4-4c0-1.4063-0.0313-2.8047-0.1017-4.1971
		C195.7851,105.9628,193.8123,104.1991,191.7031,104.3751z"/>
	<path fill="#FCC24C" d="M170.5467,52.1288c-1.578-1.5408-4.1092-1.5097-5.656,0.0703c-1.5432,1.5821-1.512,4.1133,0.07,5.6565
		c0.9104,0.8864,1.7972,1.7948,2.668,2.7244c0.7852,0.844,1.8516,1.2696,2.922,1.2696c0.9804,0,1.9573-0.3556,2.7304-1.076
		c1.6132-1.508,1.6992-4.0392,0.1916-5.6545C172.5235,54.0996,171.5427,53.1016,170.5467,52.1288z"/>
	<path fill="#FCC24C" d="M44.7459,62.0332c-0.836,1.1172-1.6484,2.256-2.4296,3.42c-1.2344,1.832-0.75,4.3184,1.082,5.5508
		c0.6836,0.4628,1.4608,0.6836,2.2304,0.6836c1.2852,0,2.5468-0.6192,3.3204-1.7656c0.7109-1.0509,1.4452-2.084,2.2032-3.096
		c1.324-1.7672,0.9608-4.2752-0.8048-5.5976C48.5743,59.8984,46.0663,60.2676,44.7459,62.0332z"/>
	<path fill="#FCC24C" d="M190.5195,96.4572c2.1405-0.5432,3.4376-2.7188,2.8944-4.8596c-0.3476-1.3592-0.7264-2.7068-1.1368-4.0408
		c-0.6484-2.1097-2.8904-3.2972-5-2.6504c-2.1091,0.6484-3.2968,2.8864-2.6484,4.998c0.3713,1.2088,0.7188,2.4276,1.0276,3.658
		c0.4608,1.8127,2.0896,3.0176,3.8748,3.0176C189.8555,96.58,190.1875,96.5412,190.5195,96.4572z"/>
	<path fill="#FCC24C" d="M59.2851,46.9628c-1.09,0.8792-2.1564,1.7852-3.2032,2.7188c-1.6484,1.4708-1.7928,3.998-0.3204,5.6464
		c0.7892,0.8868,1.8868,1.338,2.9844,1.338c0.9492,0,1.8984-0.334,2.664-1.0156c0.9456-0.8436,1.9104-1.664,2.8984-2.4608
		c1.7188-1.3868,1.9884-3.9044,0.6016-5.6252C63.5271,45.8496,61.0115,45.5724,59.2851,46.9628z"/>
	<path fill="#FCC24C" d="M33.3711,97.0236c-2.1876-0.2972-4.2148,1.2088-4.5276,3.3944c-0.1952,1.3808-0.3592,2.7736-0.488,4.1756
		c-0.1992,2.1992,1.4216,4.1448,3.6208,4.346c0.1252,0.0096,0.2464,0.0155,0.3672,0.0155c2.0472,0,3.7932-1.5607,3.9808-3.6387
		c0.1132-1.2656,0.2616-2.5216,0.4412-3.7696C37.0779,99.3591,35.5547,97.334,33.3711,97.0236z"/>
	<path fill="#FCC24C" d="M39.5935,78.0528c-2.0352-0.83-4.3788,0.1228-5.2224,2.17c-0.5351,1.2888-1.0391,2.5936-1.512,3.916
		c-0.738,2.08,0.344,4.3692,2.426,5.1112c0.4452,0.1584,0.8984,0.2344,1.3436,0.2344c1.6448,0,3.1836-1.0216,3.7696-2.6584
		c0.426-1.1972,0.8828-2.3808,1.3632-3.5488C42.6055,81.2364,41.6367,78.8964,39.5935,78.0528z"/>
	<path fill="#FCC24C" d="M132.3751,39.1288c1.2264,0.34,2.4332,0.7072,3.6329,1.1056c0.4175,0.1407,0.8435,0.2072,1.2615,0.2072
		c1.6756,0,3.2385-1.0628,3.7968-2.7385c0.6952-2.0955-0.4376-4.3611-2.5352-5.0587c-1.324-0.4413-2.664-0.8516-4.0231-1.2264
		c-2.1057-0.576-4.336,0.66-4.9221,2.7891C128.996,36.338,130.2459,38.5412,132.3751,39.1288z"/>
	<path fill="#FFDC82" d="M132,156.3671c0-11.0271-8.9729-20-20-20c-11.0273,0-20,8.9729-20,20c0,1.9533,1.4255,3.504,3.2811,3.8557
		c0.2424,0.0448,0.4648,0.1443,0.7189,0.1443c0.1483,0,0.2735-0.0683,0.4179-0.084c2.004-0.2187,3.5821-1.8555,3.5821-3.916
		c0-6.6171,5.3827-12,12-12c6.6171,0,12,5.3829,12,12c0,2.0937,1.6251,3.7617,3.6755,3.9357
		c0.1136,0.0096,0.2112,0.0643,0.3245,0.0643c0.2187,0,0.4063-0.0899,0.6131-0.1231C130.5195,159.9376,132,158.3591,132,156.3671z"
		/>
	<path fill="#FFDC82" d="M149.5235,56.668c-2.0472-0.838-4.3792,0.1328-5.2228,2.1756l-28,68
		c-0.84,2.0432,0.1328,4.3812,2.1756,5.2228c0.5,0.2052,1.0157,0.3028,1.5237,0.3028c1.5703,0,3.0623-0.9336,3.6991-2.4784l28-68
		C152.5391,59.8476,151.5663,57.5096,149.5235,56.668z"/>
</g>
</svg>
