<?xml version="1.0" encoding="utf-8"?>
<!-- Generator: Adobe Illustrator 19.2.0, SVG Export Plug-In . SVG Version: 6.00 Build 0)  -->
<svg version="1.1" id="speedster" xmlns="http://www.w3.org/2000/svg" xmlns:xlink="http://www.w3.org/1999/xlink" x="0px" y="0px"
	 viewBox="0 0 232 120.875" enable-background="new 0 0 232 120.875" xml:space="preserve">
<g>
	<path fill="none" d="M195.8515,86.4178c-0.59,0.3128-1.2228,0.4572-1.8475,0.4572c-1.4417,0-2.836-0.7812-3.5469-2.1484
		l-11.8828-22.7304C172.172,66.7342,168,74.3166,168,82.875c0,14.336,11.664,26,26,26s26-11.664,26-26s-11.664-26-26-26
		c-2.9221,0-5.7265,0.508-8.3477,1.4024l11.8904,22.746C198.5663,82.9806,197.8123,85.3946,195.8515,86.4178z"/>
	<path fill="none" d="M38,56.875c-14.336,0-26,11.664-26,26s11.664,26,26,26s26-11.664,26-26S52.336,56.875,38,56.875z"/>
	<path fill="#C1DB66" d="M169.5271,36.0626c1.9532-1.0312,4.3752-0.2696,5.3948,1.6912l2.0821,3.9804
		c4.9255-2.0388,9.7655-3.8476,13.9647-5.3944c12.8436-4.7264,19.2892-7.0976,19.2228-12.4256
		c-0.0664-4.9612-7.34-10.3516-17.3595-14.75c0.672,0.5,1.2383,1.164,1.4923,2.0312c0.6248,2.1172-0.586,4.3436-2.7032,4.9688
		l-21.9571,6.4844c-0.3789,0.1132-0.7577,0.164-1.1329,0.164c-1.7304,0-3.3204-1.1252-3.836-2.8672
		c-0.6248-2.1172,0.586-4.344,2.7032-4.9688l21.9572-6.4844c0.5272-0.1564,1.0624-0.1992,1.574-0.1444
		c-8.9568-3.6916-19.7615-6.5664-29.586-7.676c-23.5896-2.6444-37.8632,3.004-51.664,8.4768
		c-12.4216,4.9296-24.1212,9.5856-42.6016,7.918C25.508,13.3554,4.0975,34.5742,3.1991,35.4766
		c-1.2656,1.2852-1.5116,3.2576-0.6056,4.8204c0.9025,1.5508,2.7465,2.3124,4.4844,1.8552
		c0.332-0.0936,33.2736-8.6288,55.5821,5.254c21.7151,13.5196,20.5547,46.8632,20.5391,47.1992
		c-0.0468,1.09,0.3556,2.1524,1.1092,2.9416c0.754,0.7852,1.7972,1.2344,2.8868,1.2344h47.09c1.9452,0,3.6056-1.3984,3.9412-3.3128
		c0.0664-0.3864,6.9612-38.4804,29.4924-49.5856c0.6444-0.3164,1.3048-0.598,1.9568-0.9064l-1.8395-3.5196
		C166.8123,39.4998,167.5663,37.0858,169.5271,36.0626z"/>
	<path fill="#F8A131" d="M167.3983,14.9766c-2.1172,0.6248-3.328,2.8516-2.7032,4.9688c0.5156,1.742,2.1056,2.8672,3.836,2.8672
		c0.3752,0,0.754-0.0508,1.1329-0.164l21.9571-6.4844c2.1172-0.6252,3.328-2.8516,2.7032-4.9688
		c-0.254-0.8672-0.8203-1.5312-1.4923-2.0312c-0.5625-0.418-1.1913-0.7384-1.9025-0.8164c-0.5116-0.0548-1.0468-0.012-1.574,0.1444
		L167.3983,14.9766z"/>
	<path fill="#A48659" d="M38,44.875c-20.9533,0-38,17.0468-38,38s17.0467,38,38,38c20.9531,0,38-17.0468,38-38
		S58.9531,44.875,38,44.875z M38,108.875c-14.336,0-26-11.664-26-26s11.664-26,26-26s26,11.664,26,26S52.336,108.875,38,108.875z"/>
	<path fill="#A48659" d="M194,44.875c-4.9297,0-9.6249,0.9728-13.9493,2.6876l5.6016,10.7148
		c2.6212-0.8944,5.4256-1.4024,8.3477-1.4024c14.336,0,26,11.664,26,26s-11.664,26-26,26s-26-11.664-26-26
		c0-8.5584,4.172-16.1408,10.5743-20.8788l-5.6136-10.7384C162.7459,58.0782,156,69.6994,156,82.875c0,20.9532,17.0467,38,38,38
		c20.9531,0,38-17.0468,38-38S214.9531,44.875,194,44.875z"/>
	<path fill="#9AB040" d="M190.4571,84.7266c0.7109,1.3672,2.1052,2.1484,3.5469,2.1484c0.6247,0,1.2575-0.1444,1.8475-0.4572
		c1.9608-1.0232,2.7148-3.4372,1.6912-5.3944l-11.8904-22.746l-5.6016-10.7148l-3.0467-5.8284l-2.0821-3.9804
		c-1.0196-1.9608-3.4416-2.7224-5.3948-1.6912c-1.9608,1.0232-2.7148,3.4372-1.6911,5.3944l1.8395,3.5196l3.2852,6.2812
		l5.6136,10.7384L190.4571,84.7266z"/>
</g>
</svg>
