<?xml version="1.0" encoding="utf-8"?>
<!-- Generator: Adobe Illustrator 19.2.0, SVG Export Plug-In . SVG Version: 6.00 Build 0)  -->
<svg version="1.1" id="starmap" xmlns="http://www.w3.org/2000/svg" xmlns:xlink="http://www.w3.org/1999/xlink" x="0px" y="0px"
	 viewBox="0 0 176 232" enable-background="new 0 0 176 232" xml:space="preserve">
<g>
	<path fill="#FFDC82" d="M56,228V100.8692c0-1.9668,1.4295-3.6428,3.3751-3.9512L60,96.8204L4.6251,88.0488
		c-1.1488-0.1776-2.3324,0.1524-3.2228,0.91C0.5115,89.7188,0,90.83,0,92v127.1308c0,1.9668,1.4295,3.6428,3.3751,3.9512l56,8.8692
		C59.5819,231.9844,59.7927,232,60,232c-0.9453,0-1.8673-0.336-2.5977-0.9588C56.5115,230.2812,56,229.17,56,228z"/>
	<path fill="#FFDC82" d="M172.6251,96.918l-56-8.8692c-0.2112-0.0312-0.4144,0.0372-0.6251,0.0372
		c0.9415,0.0056,1.8711,0.254,2.5975,0.8728C119.4883,89.7188,120,90.83,120,92v127.1308c0,1.9668-1.4297,3.6428-3.3749,3.9512
		L116,223.1816l55.3751,8.7696C171.5819,231.9844,171.7927,232,172,232c0.9451,0,1.8671-0.336,2.5975-0.9588
		C175.4883,230.2812,176,229.17,176,228V100.8692C176,98.9024,174.5703,97.2264,172.6251,96.918z"/>
	<path fill="#F8A131" d="M120,219.1308V92c0-1.17-0.5117-2.2812-1.4025-3.0412c-0.7264-0.6188-1.656-0.8672-2.5975-0.8728
		c-0.2109,0-0.4141-0.0684-0.6249-0.0372L60,96.8204l-0.6249,0.0976C57.4295,97.2264,56,98.9024,56,100.8692V228
		c0,1.17,0.5115,2.2812,1.4023,3.0412C58.1327,231.664,59.0547,232,60,232c0.2071,0,0.4179-0.0156,0.6251-0.0488L116,223.1816
		l0.6251-0.0996C118.5703,222.7736,120,221.0976,120,219.1308z"/>
	<path fill="#FFDC82" d="M68.6835,51.578l-4.1368,24.1076c-0.2576,1.5,0.3596,3.0176,1.59,3.912
		c1.242,0.8944,2.8673,1.0136,4.2148,0.3048L92,68.5196l21.6483,11.3828c0.586,0.3064,1.2268,0.4588,1.8632,0.4588
		c0.8285,0,1.6565-0.2576,2.3516-0.7636c1.2304-0.8944,1.8476-2.412,1.59-3.912l-4.1368-24.1076l17.5197-17.074
		c1.0895-1.0644,1.4803-2.6544,1.0115-4.1016c-0.4724-1.4472-1.7224-2.504-3.2304-2.7228l-24.2072-3.5156L95.5859,2.2304
		C94.9139,0.8652,93.5235,0,92,0c-1.5237,0-2.9141,0.8652-3.5861,2.2304L77.5859,24.164l-24.2032,3.5156
		c-1.5076,0.2188-2.7576,1.2756-3.2304,2.7228c-0.4688,1.4492-0.078,3.0372,1.0117,4.1016L68.6835,51.578z"/>
</g>
</svg>
