<?xml version="1.0" encoding="utf-8"?>
<!-- Generator: Adobe Illustrator 19.2.0, SVG Export Plug-In . SVG Version: 6.00 Build 0)  -->
<svg version="1.1" id="stoplights" xmlns="http://www.w3.org/2000/svg" xmlns:xlink="http://www.w3.org/1999/xlink" x="0px" y="0px"
	 viewBox="0 0 92 228" enable-background="new 0 0 92 228" xml:space="preserve">
<g>
	<path fill="#DBEEF7" d="M76.9803,80C86.4647,71.3341,92,58.9629,92,46C92,20.6349,71.3631,0,46,0C20.6367,0,0,20.6349,0,46
		c0,12.9629,5.5351,25.3341,15.0195,34C5.5351,88.6661,0,101.0373,0,114c0,12.9629,5.5351,25.3341,15.0195,34
		C5.5351,156.6661,0,169.0373,0,182c0,25.3653,20.6367,46,46,46c25.3631,0,46-20.6347,46-46c0-12.9627-5.5353-25.3339-15.0197-34
		C86.4647,139.3341,92,126.9629,92,114C92,101.0373,86.4647,88.6661,76.9803,80z M46,212c-16.5429,0-30-13.4571-30-30
		c0-16.5427,13.4571-30,30-30c16.5427,0,30,13.4573,30,30C76,198.5429,62.5427,212,46,212z M46,144c-16.5429,0-30-13.4571-30-30
		c0-16.5427,13.4571-30,30-30c16.5427,0,30,13.4573,30,30C76,130.5429,62.5427,144,46,144z M46,76c-16.5429,0-30-13.4571-30-30
		c0-16.5427,13.4571-30,30-30c16.5427,0,30,13.4573,30,30C76,62.5429,62.5427,76,46,76z"/>
	<path fill="#EB4548" d="M46,16c-16.5429,0-30,13.4573-30,30c0,16.5429,13.4571,30,30,30c16.5427,0,30-13.4571,30-30
		C76,29.4573,62.5427,16,46,16z"/>
	<path fill="#F8A131" d="M46,84c-16.5429,0-30,13.4573-30,30c0,16.5429,13.4571,30,30,30c16.5427,0,30-13.4571,30-30
		C76,97.4573,62.5427,84,46,84z"/>
	<path fill="#9AB040" d="M46,152c-16.5429,0-30,13.4573-30,30c0,16.5429,13.4571,30,30,30c16.5427,0,30-13.4571,30-30
		C76,165.4573,62.5427,152,46,152z"/>
</g>
</svg>
