<?xml version="1.0" encoding="utf-8"?>
<!-- Generator: Adobe Illustrator 19.2.0, SVG Export Plug-In . SVG Version: 6.00 Build 0)  -->
<svg version="1.1" id="submarine" xmlns="http://www.w3.org/2000/svg" xmlns:xlink="http://www.w3.org/1999/xlink" x="0px" y="0px"
	 viewBox="0 0 220 196" enable-background="new 0 0 220 196" xml:space="preserve">
<g>
	<path fill="#49A25A" d="M175.996,84H156v-4c0,2.2108-1.7893,4-4,4h-48c-2.2109,0-4-1.7892-4-4V60c0-2.2108,1.7891-4,4-4h48
		c2.2107,0,4,1.7892,4,4V44c0-2.2108-1.7893-4-4-4h-48v8h-8v-8H84c-2.2109,0-4,1.7892-4,4v40H36
		c-1.6369,0-3.1057,0.996-3.7149,2.5156l-16,40c-0.3788,0.9532-0.3788,2.0156,0,2.9688l16,40C32.8943,171.004,34.3631,172,36,172
		h139.996C200.2615,172,220,152.2616,220,128S200.2615,84,175.996,84z M52,136c-8.8245,0-16-7.1756-16-16s7.1755-16,16-16
		c8.8243,0,16,7.1756,16,16S60.8243,136,52,136z M96,136c-8.8245,0-16-7.1756-16-16s7.1755-16,16-16c8.8243,0,16,7.1756,16,16
		S104.8243,136,96,136z M140,136c-8.8245,0-16-7.1756-16-16s7.1755-16,16-16c8.8243,0,16,7.1756,16,16S148.8243,136,140,136z
		 M184,136c-8.8245,0-16-7.1756-16-16s7.1755-16,16-16c8.8243,0,16,7.1756,16,16S192.8243,136,184,136z"/>
	<path fill="#52595B" d="M4,60c-2.2109,0-4,1.7892-4,4v56c0,2.2108,1.7891,4,4,4c2.2107,0,4-1.7892,4-4V64C8,61.7892,6.2107,60,4,60
		z"/>
	<path fill="#52595B" d="M4,132c-2.2109,0-4,1.7892-4,4v56c0,2.2108,1.7891,4,4,4c2.2107,0,4-1.7892,4-4v-56
		C8,133.7892,6.2107,132,4,132z"/>
	<path fill="#FCC24C" d="M184,104c-8.8245,0-16,7.1756-16,16s7.1755,16,16,16c8.8243,0,16-7.1756,16-16S192.8243,104,184,104z"/>
	<path fill="#FCC24C" d="M140,104c-8.8245,0-16,7.1756-16,16s7.1755,16,16,16c8.8243,0,16-7.1756,16-16S148.8243,104,140,104z"/>
	<path fill="#FCC24C" d="M96,104c-8.8245,0-16,7.1756-16,16s7.1755,16,16,16c8.8243,0,16-7.1756,16-16S104.8243,104,96,104z"/>
	<path fill="#FCC24C" d="M52,104c-8.8245,0-16,7.1756-16,16s7.1755,16,16,16c8.8243,0,16-7.1756,16-16S60.8243,104,52,104z"/>
	<path fill="#50CCD3" d="M152,56h-48c-2.2109,0-4,1.7892-4,4v20c0,2.2108,1.7891,4,4,4h48c2.2107,0,4-1.7892,4-4V60
		C156,57.7892,154.2107,56,152,56z"/>
	<polygon fill="#52595B" points="104,48 104,40 104,0 96,0 96,40 96,48 	"/>
</g>
</svg>
