<?xml version="1.0" encoding="utf-8"?>
<!-- Generator: Adobe Illustrator 19.2.0, SVG Export Plug-In . SVG Version: 6.00 Build 0)  -->
<svg version="1.1" id="tank" xmlns="http://www.w3.org/2000/svg" xmlns:xlink="http://www.w3.org/1999/xlink" x="0px" y="0px"
	 viewBox="0 0 228 132" enable-background="new 0 0 228 132" xml:space="preserve">
<g>
	<polygon fill="#63B473" points="200,32 200,40 208,40 208,28 208,16 208,0 200,0 200,12 140,12 140,32 	"/>
	<path fill="#49A25A" d="M140,56V32V12V4c0-2.2108-1.7912-4-4-4H63.9884C46.3496,0,32,14.3556,32,32v24.5236
		C33.9648,56.2072,35.9628,56,38.0136,56H140z"/>
	<path fill="#89714D" d="M189.9864,56H140H38.0136c-2.0508,0-4.0488,0.2072-6.0136,0.5236C13.8944,59.418,0,75.0976,0,94
		c0,20.9532,17.0528,38,38.0136,38h151.9728C210.9472,132,228,114.9532,228,94S210.9472,56,189.9864,56z M189.9864,124H38.0136
		C21.4648,124,8,110.5428,8,94s13.4648-30,30.0136-30H136h53.9864C206.5352,64,220,77.4572,220,94S206.5352,124,189.9864,124z"/>
	<path fill="#C1DB66" d="M189.9864,64H136H38.0136C21.4648,64,8,77.4572,8,94s13.4648,30,30.0136,30h151.9728
		C206.5352,124,220,110.5428,220,94S206.5352,64,189.9864,64z M38,120c-14.336,0-26-11.664-26-26s11.664-26,26-26s26,11.664,26,26
		S52.336,120,38,120z M90,116c-12.1308,0-22-9.8712-22-22s9.8692-22,22-22s22,9.8712,22,22S102.1308,116,90,116z M138,116
		c-12.1308,0-22-9.8712-22-22s9.8692-22,22-22s22,9.8712,22,22S150.1308,116,138,116z M190,120c-14.336,0-26-11.664-26-26
		s11.664-26,26-26s26,11.664,26,26S204.336,120,190,120z"/>
	<path fill="#49A25A" d="M190,68c-14.336,0-26,11.664-26,26s11.664,26,26,26s26-11.664,26-26S204.336,68,190,68z"/>
	<path fill="#49A25A" d="M138,72c-12.1308,0-22,9.8712-22,22s9.8692,22,22,22s22-9.8712,22-22S150.1308,72,138,72z"/>
	<path fill="#49A25A" d="M90,72c-12.1308,0-22,9.8712-22,22s9.8692,22,22,22s22-9.8712,22-22S102.1308,72,90,72z"/>
	<path fill="#49A25A" d="M38,68c-14.336,0-26,11.664-26,26s11.664,26,26,26s26-11.664,26-26S52.336,68,38,68z"/>
</g>
</svg>
