<?xml version="1.0" encoding="utf-8"?>
<!-- Generator: Adobe Illustrator 19.2.0, SVG Export Plug-In . SVG Version: 6.00 Build 0)  -->
<svg version="1.1" id="taxicar" xmlns="http://www.w3.org/2000/svg" xmlns:xlink="http://www.w3.org/1999/xlink" x="0px" y="0px"
	 viewBox="0 0 219.0995 168" enable-background="new 0 0 219.0995 168" xml:space="preserve">
<g>
	<path fill="#52595B" d="M23.5497,164c0,2.2109,1.7891,4,4,4h24c2.2107,0,4-1.7891,4-4v-20h-32V164z"/>
	<path fill="#52595B" d="M163.5497,164c0,2.2109,1.7891,4,4,4h24c2.2107,0,4-1.7891,4-4v-20h-32V164z"/>
	<path fill="#3BABB7" d="M216.7488,87.6877c-0.586-9.172-7.4412-16.836-16.1288-19.012l8.004-8.0856
		c1.5544-1.5664,1.5388-4.1016-0.0316-5.6564c-1.5664-1.5508-4.0976-1.5428-5.656,0.0312l-10.5312,10.6368l1.2576,5.5076
		c0.2736,1.1876-0.0116,2.4336-0.7696,3.3827c-0.7616,0.9533-1.91,1.508-3.1288,1.508H29.3348c-1.2188,0-2.3672-0.5547-3.1288-1.504
		c-0.758-0.9531-1.0432-2.1991-0.7696-3.3867l1.3984-6.1328l-9.918-10.0156c-1.5588-1.5664-4.086-1.578-5.66-0.0272
		c-1.5664,1.5548-1.582,4.09-0.0276,5.66l7.832,7.9063C10.0964,70.4689,2.956,78.3085,2.3504,87.6837v0.004l-2.3087,36.1172
		c-0.3437,5.3591,1.4455,10.4216,5.0351,14.246C8.6748,141.8869,13.6316,144,19.03,144h4.5197h32h108h32h4.5195
		c5.406,0,10.3632-2.1091,13.9608-5.9415c3.586-3.824,5.3712-8.8865,5.0277-14.2536L216.7488,87.6877z M37.5497,124
		c-9.9257,0-18-8.0743-18-18c0-9.9255,8.0743-18,18-18c9.9255,0,18,8.0745,18,18C55.5497,115.9257,47.4752,124,37.5497,124z
		 M135.5497,124h-52v-8h52V124z M135.5497,112h-52v-8h52V112z M181.5497,124c-9.9257,0-18-8.0743-18-18c0-9.9255,8.0743-18,18-18
		c9.9255,0,18,8.0745,18,18C199.5497,115.9257,191.4752,124,181.5497,124z"/>
	<path fill="#7BE5E4" d="M25.4364,71.1093c-0.2736,1.1876,0.0116,2.4336,0.7696,3.3867C26.9676,75.4453,28.116,76,29.3348,76
		h160.4296c1.2188,0,2.3672-0.5547,3.1288-1.508c0.758-0.9491,1.0432-2.1951,0.7696-3.3827l-1.2576-5.5076l-6.1368-26.9064
		C183.8817,28.2109,173.5692,20,162.7916,20H56.3076c-10.7736,0-21.0899,8.2109-23.4808,18.6953l-5.992,26.2812L25.4364,71.1093z
		 M40.624,40.4765C42.1668,33.7149,49.3504,28,56.3076,28h106.484c6.9572,0,14.1368,5.7109,15.68,12.4765L184.7488,68H34.3504
		L40.624,40.4765z"/>
	<path fill="#3BABB7" d="M178.4716,40.4765C176.9284,33.7109,169.7488,28,162.7916,28H56.3076
		c-6.9572,0-14.1408,5.7149-15.6836,12.4765L34.3504,68h150.3984L178.4716,40.4765z M62.3777,38.828l-12,12
		C49.5964,51.6093,48.5732,52,47.5497,52c-1.0237,0-2.0469-0.3907-2.828-1.172c-1.5629-1.5623-1.5629-4.0935,0-5.656l12-12
		c1.5623-1.5627,4.0935-1.5627,5.656,0C63.9404,34.7345,63.9404,37.2657,62.3777,38.828z"/>
	<path fill="#FCC24C" d="M181.5497,88c-9.9257,0-18,8.0745-18,18c0,9.9257,8.0743,18,18,18c9.9255,0,18-8.0743,18-18
		C199.5497,96.0745,191.4752,88,181.5497,88z"/>
	<path fill="#FCC24C" d="M37.5497,88c-9.9257,0-18,8.0745-18,18c0,9.9257,8.0743,18,18,18c9.9255,0,18-8.0743,18-18
		C55.5497,96.0745,47.4752,88,37.5497,88z"/>
	<rect x="83.5497" y="104" fill="#7BE5E4" width="52" height="8"/>
	<rect x="83.5497" y="116" fill="#7BE5E4" width="52" height="8"/>
	<path fill="#7BE5E4" d="M56.7217,33.172l-12,12c-1.5629,1.5625-1.5629,4.0937,0,5.656C45.5028,51.6093,46.526,52,47.5497,52
		c1.0235,0,2.0467-0.3907,2.828-1.172l12-12c1.5627-1.5623,1.5627-4.0935,0-5.656C60.8152,31.6093,58.284,31.6093,56.7217,33.172z"
		/>
	<polygon fill="#3BABB7" points="91.5497,8 83.5497,8 67.5497,8 67.5497,16 91.5497,16 	"/>
	<polygon fill="#FE8657" points="99.5497,8 107.5497,8 107.5497,0 83.5497,0 83.5497,8 91.5497,8 	"/>
	<polygon fill="#3BABB7" points="99.5497,16 119.5497,16 119.5497,8 111.5497,8 107.5497,8 99.5497,8 	"/>
	<polygon fill="#FE8657" points="127.5497,8 135.5497,8 135.5497,0 111.5497,0 111.5497,8 119.5497,8 	"/>
	<polygon fill="#3BABB7" points="127.5497,16 151.5497,16 151.5497,8 135.5497,8 127.5497,8 	"/>
</g>
</svg>
