<?xml version="1.0" encoding="utf-8"?>
<!-- Generator: Adobe Illustrator 19.2.0, SVG Export Plug-In . SVG Version: 6.00 Build 0)  -->
<svg version="1.1" id="taxicarsign" xmlns="http://www.w3.org/2000/svg" xmlns:xlink="http://www.w3.org/1999/xlink" x="0px"
	 y="0px" viewBox="0 0 235.9995 104" enable-background="new 0 0 235.9995 104" xml:space="preserve">
<g>
	<rect x="91.9998" y="56" fill="#FCC24C" width="28" height="16"/>
	<rect x="91.9998" y="28" fill="#FCC24C" width="28" height="20"/>
	<polygon fill="#FCC24C" points="151.123,72 169.6326,72 160.3786,58.9709 	"/>
	<path fill="#FCC24C" d="M223.9686,3.504C223.7186,1.5021,222.0173,0,219.9998,0h-204c-2.0176,0-3.7188,1.5021-3.9688,3.504l-12,96
		c-0.1424,1.1385,0.2108,2.2833,0.9708,3.1425C1.7594,103.508,2.8534,104,3.9998,104h228c1.1464,0,2.2404-0.492,2.998-1.3535
		c0.76-0.8592,1.1132-2.004,0.9708-3.1425L223.9686,3.504z M3.9998,100l12-28h32V28h-16c-2.2088,0-4-1.7911-4-4
		c0-2.2087,1.7912-4,4-4h40c2.2088,0,4,1.7913,4,4c0,2.2089-1.7912,4-4,4h-16v44h28V56v-8V24c0-2.2087,1.7912-4,4-4h36
		c2.2088,0,4,1.7913,4,4v24v8v16h13.3084l14.1624-19.9375l-18.176-25.5896c-1.2792-1.8009-0.8552-4.2988,0.9456-5.5784
		c1.8044-1.2772,4.2968-0.8552,5.578,0.9455l16.5604,23.3125L176.9374,21.84c1.2812-1.8007,3.7752-2.2227,5.578-0.9455
		c1.8008,1.2796,2.2248,3.7775,0.9452,5.5784L165.285,52.0625L179.447,72h16.5528V24c0-2.2087,1.7912-4,4-4s4,1.7913,4,4v48h16
		l12,28H3.9998z"/>
	<path fill="#F8A131" d="M203.9998,72v8.1425c0,2.2092-1.7912,4-4,4s-4-1.7908-4-4V72H179.447l4.0136,5.6505
		c1.2796,1.8008,0.8556,4.2988-0.9452,5.578c-0.7032,0.498-1.5116,0.7384-2.3124,0.7384c-1.252,0-2.4844-0.586-3.2656-1.6836
		L169.6326,72H151.123l-7.3048,10.2833c-0.7812,1.0976-2.0136,1.6836-3.2656,1.6836c-0.8008,0-1.6096-0.2404-2.3124-0.7384
		c-1.8008-1.2792-2.2248-3.7772-0.9456-5.578L141.3082,72h-13.3084v8c0,2.2089-1.7912,4-4,4s-4-1.7911-4-4v-8h-28v8
		c0,2.2089-1.7912,4-4,4s-4-1.7911-4-4v-8h-28v8.1425c0,2.2092-1.7912,4-4,4c-2.2088,0-4-1.7908-4-4V72h-32l-12,28h228l-12-28
		H203.9998z"/>
	<path fill="#E06C3E" d="M51.9998,84.1425c2.2088,0,4-1.7908,4-4V72V28h16c2.2088,0,4-1.7911,4-4c0-2.2087-1.7912-4-4-4h-40
		c-2.2088,0-4,1.7913-4,4c0,2.2089,1.7912,4,4,4h16v44v8.1425C47.9998,82.3517,49.791,84.1425,51.9998,84.1425z"/>
	<path fill="#E06C3E" d="M87.9998,84c2.2088,0,4-1.7911,4-4v-8V56h28v16v8c0,2.2089,1.7912,4,4,4s4-1.7911,4-4v-8V56v-8V24
		c0-2.2087-1.7912-4-4-4h-36c-2.2088,0-4,1.7913-4,4v24v8v16v8C83.9998,82.2089,85.791,84,87.9998,84z M91.9998,28h28v20h-28V28z"/>
	<path fill="#E06C3E" d="M199.9998,84.1425c2.2088,0,4-1.7908,4-4V72V24c0-2.2087-1.7912-4-4-4s-4,1.7913-4,4v48v8.1425
		C195.9998,82.3517,197.791,84.1425,199.9998,84.1425z"/>
	<path fill="#E06C3E" d="M138.2402,83.2285c0.7028,0.498,1.5116,0.7384,2.3124,0.7384c1.252,0,2.4844-0.586,3.2656-1.6836
		L151.123,72l9.2556-13.0291L169.6326,72l7.3048,10.2833c0.7812,1.0976,2.0136,1.6836,3.2656,1.6836
		c0.8008,0,1.6092-0.2404,2.3124-0.7384c1.8008-1.2792,2.2248-3.7772,0.9452-5.578L179.447,72l-14.162-19.9375l18.1756-25.5896
		c1.2796-1.8009,0.8556-4.2988-0.9452-5.5784c-1.8028-1.2772-4.2968-0.8552-5.578,0.9455l-16.5588,23.3125L143.8182,21.84
		c-1.2812-1.8007-3.7736-2.2227-5.578-0.9455c-1.8008,1.2796-2.2248,3.7775-0.9456,5.5784l18.176,25.5896L141.3082,72
		l-4.0136,5.6505C136.0154,79.4513,136.4394,81.9493,138.2402,83.2285z"/>
</g>
</svg>
