<?xml version="1.0" encoding="utf-8"?>
<!-- Generator: Adobe Illustrator 19.2.0, SVG Export Plug-In . SVG Version: 6.00 Build 0)  -->
<svg version="1.1" id="tir" xmlns="http://www.w3.org/2000/svg" xmlns:xlink="http://www.w3.org/1999/xlink" x="0px" y="0px"
	 viewBox="0 0 228.0007 124" enable-background="new 0 0 228.0007 124" xml:space="preserve">
<g>
	<path fill="#C1DB66" d="M224.0007,0h-140c-2.2088,0-4,1.7892-4,4v32h4c2.2088,0,4,1.7892,4,4v68v4c0,2.2108-1.7912,4-4,4h80.332
		c1.1776,0,2.2948-0.5196,3.0548-1.418c0.7596-0.8984,1.086-2.086,0.8904-3.246c-0.1836-1.09-0.2772-2.2148-0.2772-3.336
		c0-11.0272,8.9728-20,20-20c11.0272,0,20,8.9728,20,20c0,1.1212-0.0936,2.246-0.2772,3.336
		c-0.1956,1.16,0.1308,2.3476,0.8904,3.246c0.76,0.8984,1.8772,1.418,3.0548,1.418h12.332c2.2088,0,4-1.7892,4-4V4
		C228.0007,1.7892,226.2095,0,224.0007,0z"/>
	<path fill="#4A8F9E" d="M188.0007,92c-8.8224,0-16,7.1756-16,16s7.1776,16,16,16c8.8224,0,16-7.1756,16-16S196.8232,92,188.0007,92
		z"/>
	<path fill="#4A8F9E" d="M40.0008,92c-8.8224,0-16,7.1756-16,16s7.1776,16,16,16s16-7.1756,16-16S48.8232,92,40.0008,92z"/>
	<path fill="#3BABB7" d="M88.0008,112v-4V40c0-2.2108-1.7912-4-4-4h-4h-36c-1.7852,0-3.3556,1.1836-3.8456,2.9024L32.9832,64h-3
		C15.8484,64,3.3076,75.4416,2.028,89.508l-2.0116,22.1288c-0.1016,1.1212,0.2736,2.2304,1.0312,3.0624
		c0.758,0.828,1.83,1.3008,2.9532,1.3008h12.332c1.1776,0,2.2948-0.5196,3.0548-1.418c0.7596-0.8984,1.086-2.086,0.8904-3.246
		c-0.1836-1.09-0.2772-2.2148-0.2772-3.336c0-11.0272,8.9728-20,20-20s20,8.9728,20,20c0,1.1212-0.0936,2.246-0.2772,3.336
		c-0.1956,1.16,0.1308,2.3476,0.8904,3.246c0.76,0.8984,1.8772,1.418,3.0548,1.418h20.332C86.2096,116,88.0008,114.2108,88.0008,112
		z M47.0184,44h32.9824v20H41.3036L47.0184,44z M40.0008,80c-15.4396,0-28,12.5624-28,28H8.3816l1.6152-17.7656
		C10.9092,80.1796,19.876,72,29.9832,72h50.0176v36h-12C68.0008,92.5624,55.4404,80,40.0008,80z"/>
	<path fill="#50CCD3" d="M80.0008,72H29.9832c-10.1072,0-19.074,8.1796-19.9864,18.2344L8.3816,108h3.6192
		c0-15.4376,12.5604-28,28-28s28,12.5624,28,28h12V72z"/>
	<polygon fill="#50CCD3" points="80.0008,44 47.0184,44 41.3036,64 80.0008,64 	"/>
</g>
</svg>
