<?xml version="1.0" encoding="utf-8"?>
<!-- Generator: Adobe Illustrator 19.2.0, SVG Export Plug-In . SVG Version: 6.00 Build 0)  -->
<svg version="1.1" id="trackpathmap" xmlns="http://www.w3.org/2000/svg" xmlns:xlink="http://www.w3.org/1999/xlink" x="0px"
	 y="0px" viewBox="0 0 232 180" enable-background="new 0 0 232 180" xml:space="preserve">
<g>
	<path fill="#4A8F9E" d="M228,0H4C1.7891,0,0,1.7912,0,4v172c0,2.2088,1.7891,4,4,4h224c2.2107,0,4-1.7912,4-4V4
		C232,1.7912,230.2107,0,228,0z M224,172H8V8h216V172z"/>
	<path fill="#90A9AE" d="M8,172h216V8H8V172z M175.4415,132.3848c-1.5628-1.5624-1.5628-4.0936,0-5.6564
		c1.5625-1.5624,4.0936-1.5624,5.656,0l6.4804,6.4824l6.4844-6.4824c1.5628-1.5624,4.094-1.5624,5.6564,0
		c1.5624,1.5628,1.5624,4.094,0,5.6564l-6.4844,6.4824l6.4844,6.4824c1.5624,1.5624,1.5624,4.0936,0,5.6564
		c-0.7812,0.7812-1.8048,1.1716-2.828,1.1716c-1.0236,0-2.0472-0.3904-2.8284-1.1716l-6.4844-6.4824l-6.4804,6.4824
		c-0.7812,0.7812-1.8048,1.1716-2.828,1.1716c-1.0236,0-2.0468-0.3904-2.828-1.1716c-1.5628-1.5628-1.5628-4.094,0-5.6564
		l6.484-6.4824L175.4415,132.3848z M77.5859,83.3224c8.5584,0,11.8788-4.75,17.4844-13.8536
		c6.9608-11.3088,15.6248-25.3848,42.0116-29.5704c22.4376-3.5644,31.2892,3.8944,34.7656,10.7716
		c6.3788,12.6172-1.3632,31.5664-12.5352,42.5956c-7.2188,7.1328-16.0976,10.5568-23.9296,13.576
		c-11.9412,4.6036-21.3712,8.2384-24.6368,22.3556c-0.8592,3.7032,0.2776,5.336,1.2032,6.2424
		c7.3592,7.1736,36.7032,2.9704,53.4844-1.3672c2.1408-0.5432,4.3204,0.7324,4.8712,2.8708
		c0.5544,2.1388-0.7304,4.3224-2.8712,4.8752c-3.1092,0.8048-21.7772,5.4412-38.2655,5.4412
		c-9.4025,0-18.0977-1.5056-22.8009-6.0916c-2.4608-2.3984-5.0468-6.7324-3.418-13.7756
		c4.2264-18.25,17.1016-23.2148,29.5549-28.0156c7.4491-2.8728,15.156-5.8436,21.1875-11.8024
		c8.9725-8.8576,15.5388-24.3496,11.0156-33.2932c-4.1212-8.158-16.6096-8.0332-26.3751-6.4804
		c-22.7501,3.6092-30.0273,15.4316-36.4493,25.8612c-5.3436,8.6816-10.8712,17.6604-24.2968,17.6604
		c-22.7148,0-31.672-20.6624-33.2344-31.588c-0.3124-2.1876,1.2068-4.2128,3.3944-4.5256c2.1916-0.33,4.2148,1.2072,4.5276,3.3928
		C52.4219,59.6036,56.172,83.3224,77.5859,83.3224z M31.4415,32.3848c-1.5628-1.5624-1.5628-4.0936,0-5.6564
		c1.5625-1.5624,4.0936-1.5624,5.656,0l6.4804,6.4824l6.4844-6.4824c1.5628-1.5624,4.094-1.5624,5.6564,0
		c1.5624,1.5628,1.5624,4.094,0,5.6564l-6.4844,6.4824l6.4844,6.4824c1.5624,1.5624,1.5624,4.0936,0,5.6564
		c-0.7812,0.7812-1.8048,1.1716-2.828,1.1716c-1.0236,0-2.0472-0.3904-2.8284-1.1716l-6.4844-6.4824l-6.4804,6.4824
		c-0.7812,0.7812-1.8048,1.1716-2.828,1.1716c-1.0236,0-2.0468-0.3904-2.828-1.1716c-1.5628-1.5628-1.5628-4.094,0-5.6564
		l6.484-6.4824L31.4415,32.3848z"/>
	<path fill="#DBEEF7" d="M31.4415,51.006c0.7812,0.7812,1.8044,1.1716,2.828,1.1716c1.0232,0,2.0468-0.3904,2.828-1.1716
		l6.4804-6.4824l6.4844,6.4824c0.7812,0.7812,1.8048,1.1716,2.8284,1.1716c1.0232,0,2.0468-0.3904,2.828-1.1716
		c1.5624-1.5628,1.5624-4.094,0-5.6564l-6.4844-6.4824l6.4844-6.4824c1.5624-1.5624,1.5624-4.0936,0-5.6564
		c-1.5624-1.5624-4.0936-1.5624-5.6564,0l-6.4844,6.4824l-6.4804-6.4824c-1.5624-1.5624-4.0935-1.5624-5.656,0
		c-1.5628,1.5628-1.5628,4.094,0,5.6564l6.484,6.4824l-6.484,6.4824C29.8787,46.912,29.8787,49.4432,31.4415,51.006z"/>
	<path fill="#DBEEF7" d="M175.4415,151.006c0.7812,0.7812,1.8044,1.1716,2.828,1.1716c1.0232,0,2.0468-0.3904,2.828-1.1716
		l6.4804-6.4824l6.4844,6.4824c0.7812,0.7812,1.8048,1.1716,2.8284,1.1716c1.0232,0,2.0468-0.3904,2.828-1.1716
		c1.5624-1.5628,1.5624-4.094,0-5.6564l-6.4844-6.4824l6.4844-6.4824c1.5624-1.5624,1.5624-4.0936,0-5.6564
		c-1.5624-1.5624-4.0936-1.5624-5.6564,0l-6.4844,6.4824l-6.4804-6.4824c-1.5624-1.5624-4.0935-1.5624-5.656,0
		c-1.5628,1.5628-1.5628,4.094,0,5.6564l6.484,6.4824l-6.484,6.4824C173.8787,146.912,173.8787,149.4432,175.4415,151.006z"/>
	<path fill="#DBEEF7" d="M47.7459,55.2088c-2.1876,0.3128-3.7068,2.338-3.3944,4.5256c1.5624,10.9256,10.5196,31.588,33.2344,31.588
		c13.4256,0,18.9532-8.9788,24.2968-17.6604c6.422-10.4296,13.6992-22.252,36.4493-25.8612
		c9.7655-1.5528,22.2539-1.6776,26.3751,6.4804c4.5232,8.9436-2.0431,24.4356-11.0156,33.2932
		c-6.0315,5.9588-13.7384,8.9296-21.1875,11.8024c-12.4533,4.8008-25.3285,9.7656-29.5549,28.0156
		c-1.6288,7.0432,0.9572,11.3772,3.418,13.7756c4.7032,4.586,13.3984,6.0916,22.8009,6.0916
		c16.4883,0,35.1563-4.6364,38.2655-5.4412c2.1408-0.5528,3.4256-2.7364,2.8712-4.8752c-0.5508-2.1384-2.7304-3.414-4.8712-2.8708
		c-16.7812,4.3376-46.1252,8.5408-53.4844,1.3672c-0.9256-0.9064-2.0624-2.5392-1.2032-6.2424
		c3.2656-14.1172,12.6956-17.752,24.6368-22.3556c7.832-3.0192,16.7108-6.4432,23.9296-13.576
		c11.172-11.0292,18.914-29.9784,12.5352-42.5956c-3.4764-6.8772-12.328-14.336-34.7656-10.7716
		C110.6951,44.084,102.0311,58.16,95.0703,69.4688c-5.6056,9.1036-8.926,13.8536-17.4844,13.8536
		c-21.4139,0-25.164-23.7188-25.3124-24.7208C51.9607,56.416,49.9375,54.8788,47.7459,55.2088z"/>
</g>
</svg>
