<?xml version="1.0" encoding="utf-8"?>
<!-- Generator: Adobe Illustrator 19.2.0, SVG Export Plug-In . SVG Version: 6.00 Build 0)  -->
<svg version="1.1" id="tractor" xmlns="http://www.w3.org/2000/svg" xmlns:xlink="http://www.w3.org/1999/xlink" x="0px" y="0px"
	 viewBox="0 0 232 164" enable-background="new 0 0 232 164" xml:space="preserve">
<g>
	<polygon fill="none" points="68,48 114.4491,48 101.1171,8 68,8 	"/>
	<rect x="48" y="8" fill="none" width="12" height="40"/>
	<path fill="none" d="M198.0235,104H196H33.9763C19.6523,104,8,115.664,8,130s11.6523,26,25.9763,26h164.0472
		C212.3475,156,224,144.336,224,130S212.3475,104,198.0235,104z M70,152c-7.4377,0-14.0157-3.7228-18-9.3908
		C48.0155,148.2772,41.4375,152,34,152c-12.1289,0-22-9.8712-22-22s9.8711-22,22-22c7.4375,0,14.0155,3.7228,18,9.3908
		C55.9843,111.7228,62.5623,108,70,108c12.1287,0,22,9.8712,22,22S82.1287,152,70,152z M198,152c-7.4377,0-14.0157-3.7228-18-9.3908
		c-3.9845,5.668-10.5625,9.3908-18,9.3908c-12.1289,0-22-9.8712-22-22s9.8711-22,22-22c7.4375,0,14.0155,3.7228,18,9.3908
		c3.9843-5.668,10.5623-9.3908,18-9.3908c12.1287,0,22,9.8712,22,22S210.1287,152,198,152z"/>
	<rect x="152" y="19.7148" fill="#535353" width="8" height="28.2852"/>
	<path fill="#89714D" d="M70,108c-7.4377,0-14.0157,3.7228-18,9.3908C48.0155,111.7228,41.4375,108,34,108
		c-12.1289,0-22,9.8712-22,22s9.8711,22,22,22c7.4375,0,14.0155-3.7228,18-9.3908C55.9843,148.2772,62.5623,152,70,152
		c12.1287,0,22-9.8712,22-22S82.1287,108,70,108z"/>
	<path fill="#89714D" d="M198,108c-7.4377,0-14.0157,3.7228-18,9.3908c-3.9845-5.668-10.5625-9.3908-18-9.3908
		c-12.1289,0-22,9.8712-22,22s9.8711,22,22,22c7.4375,0,14.0155-3.7228,18-9.3908c3.9843,5.668,10.5623,9.3908,18,9.3908
		c12.1287,0,22-9.8712,22-22S210.1287,108,198,108z"/>
	<path fill="#FE7D71" d="M198.0235,96c0.668,0,1.32,0.0624,1.9765,0.1016V76c0-15.4376-12.5625-28-28.008-28H160h-8h-29.1173
		l0.91,2.7344c0.4104,1.2188,0.2033,2.5624-0.5468,3.6056C122.492,55.3828,121.2851,56,120,56H64H44c-2.2109,0-4-1.7892-4-4v-4H24
		c-2.2109,0-4,1.7892-4,4v47.0468C24.2695,97.1056,28.992,96,33.9763,96H198.0235z M92,64h20v8H92V64z"/>
	<path fill="#4A8F9E" d="M44,56h20h56c1.2851,0,2.492-0.6172,3.2459-1.66c0.7501-1.0432,0.9572-2.3868,0.5468-3.6056L122.8827,48
		l-15.09-45.2656C107.2499,1.1016,105.7227,0,104,0H64H44c-2.2109,0-4,1.7892-4,4v44v4C40,54.2108,41.7891,56,44,56z M114.4491,48
		H68V8h33.1171L114.4491,48z M48,8h12v40H48V8z"/>
	<path fill="#A48659" d="M200,96.1016C199.3435,96.0624,198.6915,96,198.0235,96H33.9763C28.992,96,24.2695,97.1056,20,99.0468
		C8.2263,104.3908,0,116.242,0,130c0,18.746,15.2419,34,33.9763,34h164.0472C216.7579,164,232,148.746,232,130
		C232,111.922,217.8123,97.1328,200,96.1016z M198.0235,156H33.9763C19.6523,156,8,144.336,8,130s11.6523-26,25.9763-26H196h2.0235
		C212.3475,104,224,115.664,224,130S212.3475,156,198.0235,156z"/>
	<rect x="92" y="64" fill="#D8F768" width="20" height="8"/>
</g>
</svg>
