<?xml version="1.0" encoding="utf-8"?>
<!-- Generator: Adobe Illustrator 19.2.0, SVG Export Plug-In . SVG Version: 6.00 Build 0)  -->
<svg version="1.1" id="trainvintage" xmlns="http://www.w3.org/2000/svg" xmlns:xlink="http://www.w3.org/1999/xlink" x="0px"
	 y="0px" viewBox="0 0 168.0002 216" enable-background="new 0 0 168.0002 216" xml:space="preserve">
<g>
	<path fill="#4A8F9E" d="M68.0001,36c0-2.2108,1.7912-4,4-4h24c2.2088,0,4,1.7892,4,4v22.2304c7.328,2.0352,14.08,5.422,20,9.8828V8
		h-72v60.1132c5.92-4.4608,12.672-7.8476,20-9.8828V36z"/>
	<path fill="#456782" d="M40.0001,75.3436c2.4452-2.6404,5.1192-5.0584,8-7.2304V8h72v60.1132c2.8808,2.172,5.5548,4.59,8,7.2304V8
		h16V0h-20h-80h-24v8h20V75.3436z"/>
	<path fill="#4F676D" d="M96.0001,32h-24c-2.2088,0-4,1.7892-4,4v22.2304c5.1036-1.414,10.4532-2.2304,16-2.2304
		c5.5468,0,10.8964,0.8164,16,2.2304V36C100.0001,33.7892,98.2089,32,96.0001,32z"/>
	<path fill="#9D57C4" d="M120.0001,68.1132c-5.92-4.4608-12.672-7.8476-20-9.8828C94.8965,56.8164,89.5469,56,84.0001,56
		c-5.5468,0-10.8964,0.8164-16,2.2304c-7.328,2.0352-14.08,5.422-20,9.8828c-2.8808,2.172-5.5548,4.59-8,7.2304
		c-9.8964,10.7032-16,24.9648-16,40.6564c0,33.086,26.916,60,60,60s60-26.914,60-60c0-15.6916-6.1036-29.9532-16-40.6564
		C125.5549,72.7032,122.8809,70.2852,120.0001,68.1132z M84.0001,144c-15.4396,0-28-12.5624-28-28s12.5604-28,28-28
		s28,12.5624,28,28S99.4397,144,84.0001,144z"/>
	<path fill="#A8A9BA" d="M99.4337,180.0392c-2.1856,0.3124-3.7052,2.3396-3.3924,4.5272L99.3889,208H68.6113l3.3476-23.4336
		c0.3128-2.1876-1.2068-4.2148-3.3924-4.5272c-2.2012-0.3128-4.2128,1.2068-4.5252,3.3944l-4,28
		c-0.1644,1.1484,0.1776,2.3124,0.9372,3.1876c0.76,0.8748,1.8616,1.3788,3.0216,1.3788h40c1.16,0,2.2616-0.504,3.0216-1.3788
		c0.7596-0.8752,1.1016-2.0392,0.9372-3.1876l-4-28C103.6465,181.246,101.6329,179.742,99.4337,180.0392z"/>
	<path fill="#B976DD" d="M84.0001,88c-15.4396,0-28,12.5624-28,28s12.5604,28,28,28s28-12.5624,28-28S99.4397,88,84.0001,88z
		 M84.0001,136c-11.0272,0-20-8.9728-20-20s8.9728-20,20-20s20,8.9728,20,20S95.0273,136,84.0001,136z"/>
	<path fill="#FCC24C" d="M84.0001,96c-11.0272,0-20,8.9728-20,20s8.9728,20,20,20s20-8.9728,20-20S95.0273,96,84.0001,96z"/>
	<path fill="#A8A9BA" d="M167.2345,209.6484l-32-44c-1.3008-1.7892-3.8008-2.1876-5.588-0.8828
		c-1.7852,1.2968-2.1816,3.8008-0.8808,5.586L156.1445,208h-36.6132l-3.5624-28.496c-0.2756-2.1916-2.2948-3.7344-4.4648-3.4728
		c-2.1916,0.2736-3.746,2.2736-3.4728,4.4648l4,32c0.25,2,1.9512,3.504,3.9688,3.504h48c1.504,0,2.8808-0.8436,3.5644-2.1836
		C168.2481,212.4728,168.1193,210.8632,167.2345,209.6484z"/>
	<path fill="#A8A9BA" d="M56.4961,176.0312c-2.1756-0.2616-4.1932,1.2812-4.4648,3.4728L48.4689,208H11.8557l27.3788-37.6484
		c1.3008-1.7852,0.9044-4.2892-0.8808-5.586c-1.7872-1.2928-4.2892-0.9024-5.588,0.8828l-32,44
		c-0.8848,1.2148-1.0136,2.8244-0.33,4.168C1.1193,215.1564,2.4961,216,4.0001,216h48c2.0176,0,3.7188-1.504,3.9688-3.504l4-32
		C60.2421,178.3048,58.6877,176.3048,56.4961,176.0312z"/>
</g>
</svg>
