<?xml version="1.0" encoding="utf-8"?>
<!-- Generator: Adobe Illustrator 19.2.0, SVG Export Plug-In . SVG Version: 6.00 Build 0)  -->
<svg version="1.1" id="trailercar" xmlns="http://www.w3.org/2000/svg" xmlns:xlink="http://www.w3.org/1999/xlink" x="0px" y="0px"
	 viewBox="0 0 224.0002 124" enable-background="new 0 0 224.0002 124" xml:space="preserve">
<g>
	<rect x="48" y="40" fill="#F8A131" width="56" height="20"/>
	<rect x="20" y="40" fill="#F8A131" width="20" height="20"/>
	<path fill="#F8A131" d="M216,40V4c0-1.0743-0.4316-2.1035-1.1992-2.8555c-0.7656-0.752-1.758-1.1464-2.8788-1.1445l-78.7168,1.5353
		c-0.6604,0.0136-1.3068,0.1896-1.8828,0.5136L113.6288,12H4c-2.2088,0-4,1.7913-4,4v88c0,2.2089,1.7912,4,4,4h28.4044
		C32.1408,106.7073,32,105.3693,32,104c0-11.0271,8.9728-20,20-20c11.0272,0,20,8.9729,20,20c0,1.3693-0.1408,2.7073-0.4044,4H120
		c2.2088,0,4-1.7911,4-4V44h88C214.2088,44,216,42.2089,216,40z M108,64H48h-8H16V36h24h8h60V64z"/>
	<path fill="#C1DB66" d="M223.4064,101.9045l-32-52C190.6776,48.7209,189.3888,48,188,48h-56c-2.2088,0-4,1.7913-4,4v52
		c0,2.2089,1.7912,4,4,4h24.4044c-0.2636-1.2927-0.4044-2.6307-0.4044-4c0-11.0271,8.9728-20,20-20c11.0272,0,20,8.9729,20,20
		c0,1.3693-0.1408,2.7073-0.4044,4H220c1.4492,0,2.7852-0.7831,3.492-2.0487C224.1992,104.6857,224.166,103.1389,223.4064,101.9045z
		 M148,80h-8V60h8V80z"/>
	<path fill="#4A8F9E" d="M52,84c-11.0272,0-20,8.9729-20,20c0,1.3693,0.1408,2.7073,0.4044,4c1.8592,9.1173,9.9372,16,19.5956,16
		c9.6584,0,17.7364-6.8827,19.5956-16C71.8592,106.7073,72,105.3693,72,104C72,92.9729,63.0272,84,52,84z"/>
	<path fill="#4A8F9E" d="M176,84c-11.0272,0-20,8.9729-20,20c0,1.3693,0.1408,2.7073,0.4044,4c1.8572,9.1173,9.9372,16,19.5956,16
		c9.6584,0,17.7364-6.8827,19.5956-16c0.2636-1.2927,0.4044-2.6307,0.4044-4C196,92.9729,187.0272,84,176,84z"/>
	<polygon fill="#7BE5E4" points="48,40 104,40 104,60 48,60 48,64 108,64 108,36 48,36 	"/>
	<polygon fill="#7BE5E4" points="20,60 20,40 40,40 40,36 16,36 16,64 40,64 40,60 	"/>
	<polygon fill="#50CCD3" points="48,40 48,36 40,36 40,40 40,60 40,64 48,64 48,60 	"/>
	<rect x="140" y="60" fill="#DBEEF7" width="8" height="20"/>
</g>
</svg>
