<?xml version="1.0" encoding="utf-8"?>
<!-- Generator: Adobe Illustrator 19.2.0, SVG Export Plug-In . SVG Version: 6.00 Build 0)  -->
<svg version="1.1" id="train" xmlns="http://www.w3.org/2000/svg" xmlns:xlink="http://www.w3.org/1999/xlink" x="0px" y="0px"
	 viewBox="0 0 182.7161 238.6389" enable-background="new 0 0 182.7161 238.6389" xml:space="preserve">
<g>
	<path fill="#4F676D" d="M1.3874,228.8049c-2.1212,2.5488-1.7696,6.332,0.7772,8.4492c1.1212,0.9316,2.4804,1.3848,3.832,1.3848
		c1.7228,0,3.4336-0.7384,4.6172-2.166l26.7148-32.1584c0.082-0.0996,0.1369-0.2108,0.2112-0.3145H21.9926L1.3874,228.8049z"/>
	<path fill="#4F676D" d="M181.3286,228.8049l-20.6172-24.8204c-0.0272,0-0.0508,0.0155-0.0779,0.0155h-15.4573
		c0.0744,0.1037,0.1293,0.2149,0.2112,0.3145l26.7148,32.1584c1.1836,1.4276,2.8944,2.166,4.6172,2.166
		c1.3516,0,2.7108-0.4532,3.832-1.3848C183.0982,235.1369,183.4498,231.3537,181.3286,228.8049z"/>
	<path fill="#90A9AE" d="M160.7114,203.9845c2.172-0.0428,3.9221-1.8028,3.9221-3.9845V76.1093
		c0-15.5-12.5901-28.1093-28.0665-28.1093h-11.9335V34.0373c0-18.7676-15.2541-34.0373-34-34.0373c-18.7461,0-34,15.2697-34,34.0373
		V48H44.6998c-15.4764,0-28.0663,12.6093-28.0663,28.1093V200c0,2.2089,1.7891,4,4,4h1.3591h15.5472h107.6364h15.4573
		C160.6606,204,160.6842,203.9845,160.7114,203.9845z M90.6335,16c9.9255,0,18,8.0745,18,18c0,9.9257-8.0745,18-18,18
		c-9.9257,0-18-8.0743-18-18C72.6335,24.0745,80.7078,16,90.6335,16z M32.6335,76c0-2.2087,1.7891-4,4-4h108c2.2107,0,4,1.7913,4,4
		v52c0,2.2089-1.7893,4-4,4h-108c-2.2109,0-4-1.7911-4-4V76z M60.6335,175.9765c0,6.6292-5.3829,12.0235-12,12.0235
		c-6.6173,0-12-5.3943-12-12.0235v-11.9528c0-6.6292,5.3827-12.0237,12-12.0237c6.6171,0,12,5.3945,12,12.0237V175.9765z
		 M132.6335,188c-6.6173,0-12-5.3943-12-12.0235v-11.9528c0-6.6292,5.3827-12.0237,12-12.0237c6.6171,0,12,5.3945,12,12.0237
		v11.9528C144.6335,182.6057,139.2506,188,132.6335,188z"/>
	<path fill="#FFDC82" d="M90.6335,52c9.9255,0,18-8.0743,18-18c0-9.9255-8.0745-18-18-18c-9.9257,0-18,8.0745-18,18
		C72.6335,43.9257,80.7078,52,90.6335,52z"/>
	<path fill="#50CCD3" d="M36.6335,132h108c2.2107,0,4-1.7911,4-4V76c0-2.2087-1.7893-4-4-4h-108c-2.2109,0-4,1.7913-4,4v52
		C32.6335,130.2089,34.4226,132,36.6335,132z M40.6335,80h100v44h-100V80z"/>
	<path fill="#7BE5E4" d="M140.6335,80h-100v44h100V80z M63.4615,90.828l-12,12c-0.7813,0.7813-1.8045,1.172-2.828,1.172
		c-1.0237,0-2.0469-0.3907-2.828-1.172c-1.5629-1.5623-1.5629-4.0935,0-5.656l12-12c1.5623-1.5627,4.0935-1.5627,5.656,0
		C65.0242,86.7345,65.0242,89.2657,63.4615,90.828z"/>
	<path fill="#FFDC82" d="M48.6335,152c-6.6173,0-12,5.3945-12,12.0237v11.9528c0,6.6292,5.3827,12.0235,12,12.0235
		c6.6171,0,12-5.3943,12-12.0235v-11.9528C60.6335,157.3945,55.2506,152,48.6335,152z"/>
	<path fill="#FFDC82" d="M144.6335,164.0237c0-6.6292-5.3829-12.0237-12-12.0237c-6.6173,0-12,5.3945-12,12.0237v11.9528
		c0,6.6292,5.3827,12.0235,12,12.0235c6.6171,0,12-5.3943,12-12.0235V164.0237z"/>
	<path fill="#535353" d="M57.8055,85.172l-12,12c-1.5629,1.5625-1.5629,4.0937,0,5.656c0.7811,0.7813,1.8043,1.172,2.828,1.172
		c1.0235,0,2.0467-0.3907,2.828-1.172l12-12c1.5627-1.5623,1.5627-4.0935,0-5.656C61.899,83.6093,59.3678,83.6093,57.8055,85.172z"
		/>
</g>
</svg>
