<?xml version="1.0" encoding="utf-8"?>
<!-- Generator: Adobe Illustrator 19.2.0, SVG Export Plug-In . SVG Version: 6.00 Build 0)  -->
<svg version="1.1" id="transportship" xmlns="http://www.w3.org/2000/svg" xmlns:xlink="http://www.w3.org/1999/xlink" x="0px"
	 y="0px" viewBox="0 0 236.0016 188" enable-background="new 0 0 236.0016 188" xml:space="preserve">
<g>
	<path fill="#3BABB7" d="M104.0008,4c0-2.2087-1.7912-4-4-4h-44c-2.2088,0-4,1.7913-4,4v44h52V4z M88.0008,24h-20v-8h20V24z"/>
	<path fill="#50CCD3" d="M208.0008,52c0-2.2087-1.7912-4-4-4h-100h-52h-20c-2.2088,0-4,1.7913-4,4v32h180V52z M116.126,72H44.0008
		v-8h72.1252V72z M192.126,72h-72.1252v-8h72.1252V72z"/>
	<path fill="#90A9AE" d="M224.0008,88c0-2.2087-1.7912-4-4-4h-12h-180h-12c-2.2088,0-4,1.7913-4,4v48h212V88z M188.0008,100v8h-16
		v-8H188.0008z M164.0008,100v8h-16v-8H164.0008z M140.0008,100v8h-16v-8H140.0008z M116.0008,100v8h-16v-8H116.0008z M92.0008,100
		v8h-16v-8H92.0008z M68.0008,100v8h-16v-8H68.0008z M28.0008,100h16v8h-16V100z M56.0008,128h-16v-8h16V128z M80.0008,128h-16v-8
		h16V128z M104.0008,128h-16v-8h16V128z M128.0008,128h-16v-8h16V128z M152.0008,128h-16v-8h16V128z M176.0008,128h-16v-8h16V128z
		 M200.0008,128h-16v-8h16V128z"/>
	<rect x="68.0008" y="16" fill="#FFDC82" width="20" height="8"/>
	<path fill="#4F676D" d="M235.782,138.6933C235.2236,137.08,233.706,136,232.0008,136h-8h-212h-8
		c-1.7052,0-3.2228,1.08-3.7812,2.6933c-0.5568,1.6116-0.0312,3.3984,1.3104,4.4512l56,44C58.2352,187.6993,59.1044,188,60.0008,188
		h116c0.8964,0,1.7656-0.3007,2.4708-0.8555l56-44C235.8132,142.0917,236.3388,140.3049,235.782,138.6933z"/>
	<rect x="28.0008" y="100" fill="#FFDC82" width="16" height="8"/>
	<rect x="76.0008" y="100" fill="#FFDC82" width="16" height="8"/>
	<rect x="124.0008" y="100" fill="#FFDC82" width="16" height="8"/>
	<rect x="52.0008" y="100" fill="#FFDC82" width="16" height="8"/>
	<rect x="100.0008" y="100" fill="#FFDC82" width="16" height="8"/>
	<rect x="148.0008" y="100" fill="#FFDC82" width="16" height="8"/>
	<rect x="172.0008" y="100" fill="#FFDC82" width="16" height="8"/>
	<rect x="40.0008" y="120" fill="#FFDC82" width="16" height="8"/>
	<rect x="88.0008" y="120" fill="#FFDC82" width="16" height="8"/>
	<rect x="136.0008" y="120" fill="#FFDC82" width="16" height="8"/>
	<rect x="64.0008" y="120" fill="#FFDC82" width="16" height="8"/>
	<rect x="112.0008" y="120" fill="#FFDC82" width="16" height="8"/>
	<rect x="160.0008" y="120" fill="#FFDC82" width="16" height="8"/>
	<rect x="184.0008" y="120" fill="#FFDC82" width="16" height="8"/>
	<rect x="44.0008" y="64" fill="#FFDC82" width="72.1252" height="8"/>
	<rect x="120.0008" y="64" fill="#FFDC82" width="72.1252" height="8"/>
</g>
</svg>
