<?xml version="1.0" encoding="utf-8"?>
<!-- Generator: Adobe Illustrator 19.2.0, SVG Export Plug-In . SVG Version: 6.00 Build 0)  -->
<svg version="1.1" id="transportcar" xmlns="http://www.w3.org/2000/svg" xmlns:xlink="http://www.w3.org/1999/xlink" x="0px"
	 y="0px" viewBox="0 0 228.0009 156" enable-background="new 0 0 228.0009 156" xml:space="preserve">
<g>
	<path fill="#3BABB7" d="M224.0009,96h-12V80.008c0-3.0664-0.9101-5.9024-2.4141-8.34c1.4181-0.6132,2.4141-2.0236,2.4141-3.668
		V48.008c0-3.0664-0.9101-5.9024-2.4141-8.34c1.4181-0.6132,2.4141-2.0236,2.4141-3.668V16.008
		c0-8.8284-7.1953-16.008-16.0353-16.008h-59.9296c-8.84,0-16.0351,7.1796-16.0351,16.008V36c0,1.6444,0.996,3.0508,2.4139,3.668
		c-1.504,2.4336-2.4139,5.2736-2.4139,8.34V68c0,1.6444,0.996,3.0508,2.4139,3.668c-1.504,2.4336-2.4139,5.2736-2.4139,8.34V96h-32
		V72c0-2.2108-1.7893-4-4-4h-40c-1.7853,0-3.3557,1.1836-3.8477,2.9024L32.9852,96h-3.004C15.8484,96,3.3056,107.4416,2.028,121.508
		l-2.0116,22.1288c-0.1016,1.1212,0.2736,2.2304,1.0312,3.0624C1.8056,147.5272,2.876,148,4.0009,148h12.332
		c1.176,0,2.2931-0.5196,3.0547-1.418c0.7576-0.8984,1.086-2.086,0.8904-3.246c-0.1836-1.09-0.2771-2.2148-0.2771-3.336
		c0-11.0272,8.9727-20,20-20c11.0271,0,20,8.9728,20,20c0,1.1212-0.0937,2.246-0.2773,3.336
		c-0.1956,1.16,0.1328,2.3476,0.8904,3.246c0.762,0.8984,1.8789,1.418,3.0549,1.418h20.332h80.332
		c1.176,0,2.2931-0.5196,3.0547-1.418c0.7576-0.8984,1.086-2.086,0.8904-3.246c-0.1836-1.09-0.2771-2.2148-0.2771-3.336
		c0-11.0272,8.9727-20,20-20c11.0271,0,20,8.9728,20,20c0,1.1212-0.0937,2.246-0.2773,3.336
		c-0.1956,1.16,0.1328,2.3476,0.8904,3.246c0.762,0.8984,1.8789,1.418,3.0549,1.418h12.332c2.2107,0,4-1.7892,4-4v-44
		C228.0009,97.7892,226.2115,96,224.0009,96z M128.0009,64V48.008c0-4.4144,3.6055-8.008,8.0351-8.008h59.9296
		c4.4296,0,8.0353,3.5936,8.0353,8.008V64h-8.0353h-59.9296H128.0009z M128.0009,16.008c0-4.4144,3.6055-8.008,8.0351-8.008h59.9296
		c4.4296,0,8.0353,3.5936,8.0353,8.008V32h-8.0353h-59.9296h-8.0351V16.008z M128.0009,80.008c0-4.4144,3.6055-8.008,8.0351-8.008
		h59.9296c4.4296,0,8.0353,3.5936,8.0353,8.008V96h-76V80.008z M47.0164,76h32.9845v20H41.3056L47.0164,76z M40.0009,112
		c-15.4377,0-28,12.5624-28,28H8.3796l1.6173-17.7656C10.9108,112.1796,19.876,104,29.9812,104h50.0197v36h-12
		C68.0009,124.5624,55.4384,112,40.0009,112z"/>
	<path fill="#7BE5E4" d="M204.0009,80.008c0-4.4144-3.6057-8.008-8.0353-8.008h-59.9296c-4.4296,0-8.0351,3.5936-8.0351,8.008V96h76
		V80.008z"/>
	<path fill="#7BE5E4" d="M204.0009,64V48.008c0-4.4144-3.6057-8.008-8.0353-8.008h-59.9296c-4.4296,0-8.0351,3.5936-8.0351,8.008V64
		h8.0351h59.9296H204.0009z"/>
	<path fill="#7BE5E4" d="M195.9655,32h8.0353V16.008c0-4.4144-3.6057-8.008-8.0353-8.008h-59.9296
		c-4.4296,0-8.0351,3.5936-8.0351,8.008V32h8.0351H195.9655z"/>
	<path fill="#4A8F9E" d="M188.0009,124c-8.8245,0-16,7.1756-16,16s7.1755,16,16,16c8.8243,0,16-7.1756,16-16
		S196.8251,124,188.0009,124z"/>
	<path fill="#4A8F9E" d="M40.0009,124c-8.8245,0-16,7.1756-16,16s7.1755,16,16,16c8.8243,0,16-7.1756,16-16S48.8252,124,40.0009,124
		z"/>
	<path fill="#50CCD3" d="M80.0009,104H29.9812c-10.1052,0-19.0704,8.1796-19.9843,18.2344L8.3796,140h3.6213
		c0-15.4376,12.5623-28,28-28c15.4375,0,28,12.5624,28,28h12V104z"/>
	<polygon fill="#50CCD3" points="80.0009,76 47.0164,76 41.3056,96 80.0009,96 	"/>
</g>
</svg>
