<?xml version="1.0" encoding="utf-8"?>
<!-- Generator: Adobe Illustrator 19.2.0, SVG Export Plug-In . SVG Version: 6.00 Build 0)  -->
<svg version="1.1" id="transportvehicle" xmlns="http://www.w3.org/2000/svg" xmlns:xlink="http://www.w3.org/1999/xlink" x="0px"
	 y="0px" viewBox="0 0 220 160" enable-background="new 0 0 220 160" xml:space="preserve">
<g>
	<path fill="#FE8657" d="M219.328,85.7813l-32-48C186.5859,36.668,185.336,36,184,36h-39.9885v4H144v8h0.0115v8H144v36
		c0,2.2089-1.7893,4-4,4H32v40c0,2.2089,1.7891,4,4,4h20.3591C56.1407,138.6953,56,137.3653,56,136c0-13.2343,10.7655-24,24-24
		c13.2343,0,24,10.7657,24,24c0,1.3653-0.1409,2.6953-0.3593,4h40.7184c-0.2184-1.3047-0.3591-2.6347-0.3591-4
		c0-13.2343,10.7655-24,24-24c13.2343,0,24,10.7657,24,24c0,1.3653-0.1409,2.6953-0.3593,4H216c2.2107,0,4-1.7911,4-4V88
		C220,87.2109,219.7655,86.4377,219.328,85.7813z M194.4763,96H160c-2.2109,0-4-1.7911-4-4V57.5237c0-2.2092,1.7891-4,4-4
		c2.2107,0,4,1.7908,4,4V88h30.4763c2.2112,0,4,1.7913,4,4C198.4763,94.2089,196.6875,96,194.4763,96z"/>
	<path fill="#90A9AE" d="M80,112c-13.2345,0-24,10.7657-24,24c0,1.3653,0.1407,2.6953,0.3591,4C58.2735,151.332,68.1327,160,80,160
		c11.8671,0,21.7263-8.668,23.6407-20c0.2184-1.3047,0.3593-2.6347,0.3593-4C104,122.7657,93.2343,112,80,112z M80,152
		c-8.8245,0-16-7.1775-16-16c0-8.8223,7.1755-16,16-16c8.8243,0,16,7.1777,16,16C96,144.8225,88.8243,152,80,152z"/>
	<path fill="#90A9AE" d="M168,112c-13.2345,0-24,10.7657-24,24c0,1.3653,0.1407,2.6953,0.3591,4
		c1.9144,11.332,11.7736,20,23.6409,20c11.8671,0,21.7263-8.668,23.6407-20c0.2184-1.3047,0.3593-2.6347,0.3593-4
		C192,122.7657,181.2343,112,168,112z M168,152c-8.8245,0-16-7.1775-16-16c0-8.8223,7.1755-16,16-16c8.8243,0,16,7.1777,16,16
		C184,144.8225,176.8243,152,168,152z"/>
	<path fill="#4F676D" d="M80,120c-8.8245,0-16,7.1777-16,16c0,8.8225,7.1755,16,16,16c8.8243,0,16-7.1775,16-16
		C96,127.1777,88.8243,120,80,120z"/>
	<path fill="#4F676D" d="M168,120c-8.8245,0-16,7.1777-16,16c0,8.8225,7.1755,16,16,16c8.8243,0,16-7.1775,16-16
		C184,127.1777,176.8243,120,168,120z"/>
	<path fill="#A48659" d="M144,4c0-2.2087-1.7893-4-4-4H4C1.7891,0,0,1.7913,0,4v12h144V4z"/>
	<rect y="24" fill="#A48659" width="144" height="8"/>
	<path fill="#A48659" d="M144,92V56H0v36c0,2.2089,1.7891,4,4,4h28h108C142.2107,96,144,94.2089,144,92z"/>
	<rect y="40" fill="#A48659" width="144" height="8"/>
	<path fill="#DBEEF7" d="M194.4763,88H164V57.5237c0-2.2092-1.7893-4-4-4c-2.2109,0-4,1.7908-4,4V92c0,2.2089,1.7891,4,4,4h34.4763
		c2.2112,0,4-1.7911,4-4C198.4763,89.7913,196.6875,88,194.4763,88z"/>
	<polygon fill="#FCD1C0" points="144.0115,24 144.0115,16 144,16 0,16 0,24 144,24 	"/>
	<polygon fill="#FCD1C0" points="144,40 144.0115,40 144.0115,36 144.0115,32 144,32 0,32 0,40 	"/>
	<polygon fill="#FCD1C0" points="144,56 144.0115,56 144.0115,48 144,48 0,48 0,56 	"/>
</g>
</svg>
