<?xml version="1.0" encoding="utf-8"?>
<!-- Generator: Adobe Illustrator 19.2.0, SVG Export Plug-In . SVG Version: 6.00 Build 0)  -->
<svg version="1.1" id="transportcartag" xmlns="http://www.w3.org/2000/svg" xmlns:xlink="http://www.w3.org/1999/xlink" x="0px"
	 y="0px" viewBox="0 0 228.0007 124" enable-background="new 0 0 228.0007 124" xml:space="preserve">
<g>
	<path fill="#C1DB66" d="M224.0007,0h-40c2.2088,0,4,1.7892,4,4v60c0,1.6836-1.0548,3.1876-2.6388,3.7616
		C184.9167,67.922,184.4579,68,184.0007,68c-1.164,0-2.2968-0.508-3.0724-1.4376L164.0007,46.25l-16.9276,20.3124
		c-1.0764,1.2932-2.8576,1.7696-4.4336,1.1992c-1.584-0.574-2.6388-2.078-2.6388-3.7616V4c0-2.2108,1.7912-4,4-4h-60
		c-2.2088,0-4,1.7892-4,4v32h4c2.2088,0,4,1.7892,4,4v72c0,2.2108-1.7912,4-4,4h80.332c1.1776,0,2.2948-0.5196,3.0548-1.418
		c0.7596-0.8984,1.086-2.086,0.8904-3.246c-0.1836-1.09-0.2772-2.2148-0.2772-3.336c0-11.0272,8.9728-20,20-20
		c11.0272,0,20,8.9728,20,20c0,1.1212-0.0936,2.246-0.2772,3.336c-0.1956,1.16,0.1308,2.3476,0.8904,3.246
		c0.76,0.8984,1.8772,1.418,3.0548,1.418h12.332c2.2088,0,4-1.7892,4-4V4C228.0007,1.7892,226.2095,0,224.0007,0z"/>
	<path fill="#9AB040" d="M140.0007,4v60c0,1.6836,1.0548,3.1876,2.6388,3.7616c1.576,0.5704,3.3572,0.094,4.4336-1.1992
		L164.0007,46.25l16.9276,20.3124C181.7039,67.492,182.8367,68,184.0007,68c0.4572,0,0.916-0.078,1.3612-0.2384
		c1.584-0.574,2.6388-2.078,2.6388-3.7616V4c0-2.2108-1.7912-4-4-4h-40C141.7919,0,140.0007,1.7892,140.0007,4z"/>
	<path fill="#4A8F9E" d="M188.0007,92c-8.8224,0-16,7.1756-16,16s7.1776,16,16,16c8.8224,0,16-7.1756,16-16S196.8232,92,188.0007,92
		z"/>
	<path fill="#4A8F9E" d="M40.0008,92c-8.8224,0-16,7.1756-16,16s7.1776,16,16,16s16-7.1756,16-16S48.8232,92,40.0008,92z"/>
	<path fill="#3BABB7" d="M88.0008,112V40c0-2.2108-1.7912-4-4-4h-4h-36c-1.7852,0-3.3556,1.1836-3.8456,2.9024L32.9832,64h-3
		C15.8484,64,3.3076,75.4416,2.028,89.508l-2.0116,22.1288c-0.1016,1.1212,0.2736,2.2304,1.0312,3.0624
		c0.758,0.828,1.83,1.3008,2.9532,1.3008h12.332c1.1776,0,2.2948-0.5196,3.0548-1.418c0.7596-0.8984,1.086-2.086,0.8904-3.246
		c-0.1836-1.09-0.2772-2.2148-0.2772-3.336c0-11.0272,8.9728-20,20-20s20,8.9728,20,20c0,1.1212-0.0936,2.246-0.2772,3.336
		c-0.1956,1.16,0.1308,2.3476,0.8904,3.246c0.76,0.8984,1.8772,1.418,3.0548,1.418h20.332C86.2096,116,88.0008,114.2108,88.0008,112
		z M47.0184,44h32.9824v20H41.3036L47.0184,44z M40.0008,80c-15.4396,0-28,12.5624-28,28H8.3816l1.6152-17.7656
		C10.9092,80.1796,19.876,72,29.9832,72h50.0176v36h-12C68.0008,92.5624,55.4404,80,40.0008,80z"/>
	<path fill="#50CCD3" d="M80.0008,72H29.9832c-10.1072,0-19.074,8.1796-19.9864,18.2344L8.3816,108h3.6192
		c0-15.4376,12.5604-28,28-28s28,12.5624,28,28h12V72z"/>
	<polygon fill="#50CCD3" points="80.0008,44 47.0184,44 41.3036,64 80.0008,64 	"/>
</g>
</svg>
