<?xml version="1.0" encoding="utf-8"?>
<!-- Generator: Adobe Illustrator 19.2.0, SVG Export Plug-In . SVG Version: 6.00 Build 0)  -->
<svg version="1.1" id="truck" xmlns="http://www.w3.org/2000/svg" xmlns:xlink="http://www.w3.org/1999/xlink" x="0px" y="0px"
	 viewBox="0 0 224 220.2852" enable-background="new 0 0 224 220.2852" xml:space="preserve">
<g>
	<path fill="#4A8F9E" d="M24,216.2852c0,2.2108,1.7912,4,4,4h36c2.2088,0,4-1.7892,4-4v-12H24V216.2852z"/>
	<path fill="#4A8F9E" d="M156,216.2852c0,2.2108,1.7912,4,4,4h36c2.2088,0,4-1.7892,4-4v-12h-44V216.2852z"/>
	<path fill="#456782" d="M20,48.2852c-2.2088,0-4,1.7892-4,4v36c0,2.2108,1.7912,4,4,4h20v-44H20z"/>
	<path fill="#456782" d="M204,92.2852c2.2088,0,4-1.7892,4-4v-36c0-2.2108-1.7912-4-4-4h-20v44H204z"/>
	<path fill="#456782" d="M211.992,164.2852H208v4c0,2.2108-1.7912,4-4,4h-56H76H20c-2.2088,0-4-1.7892-4-4v-4h-3.992
		C5.3868,164.2852,0,169.664,0,176.2772v16.016c0,6.6132,5.3868,11.992,12.008,11.992H24h44h88h44h11.992
		c6.6212,0,12.008-5.3788,12.008-11.992v-16.016C224,169.664,218.6132,164.2852,211.992,164.2852z"/>
	<path fill="#FE8657" d="M20,172.2852h56c-2.2088,0-4-1.7892-4-4v-52c0-2.2108,1.7912-4,4-4h72c2.2088,0,4,1.7892,4,4v52
		c0,2.2108-1.7912,4-4,4h56c2.2088,0,4-1.7892,4-4v-4v-20c0-14.082-10.4356-25.7696-24-27.7148V92.2852v-44v-20
		c0-2.2108-1.7912-4-4-4H48V0h-8v28.2852v8v12v44v24.2812c-13.5488,1.9296-24,13.6252-24,27.7188v20v4
		C16,170.496,17.7912,172.2852,20,172.2852z M188,136.2852c2.2088,0,4,1.7892,4,4v16c0,2.2108-1.7912,4-4,4h-24
		c-2.2088,0-4-1.7892-4-4v-16c0-2.2108,1.7912-4,4-4H188z M56,48.2852c0-2.2108,1.7912-4,4-4h104c2.2088,0,4,1.7892,4,4v48
		c0,2.2108-1.7912,4-4,4H60c-2.2088,0-4-1.7892-4-4V48.2852z M32,140.2852c0-2.2108,1.7912-4,4-4h24c2.2088,0,4,1.7892,4,4v16
		c0,2.2108-1.7912,4-4,4H36c-2.2088,0-4-1.7892-4-4V140.2852z"/>
	<path fill="#C4DDEC" d="M152,168.2852v-52c0-2.2108-1.7912-4-4-4H76c-2.2088,0-4,1.7892-4,4v52c0,2.2108,1.7912,4,4,4h72
		C150.2088,172.2852,152,170.496,152,168.2852z M92,128.2852h40v8H92V128.2852z M92,144.2852h40v8H92V144.2852z"/>
	<rect x="92" y="128.2852" fill="#A9C7D8" width="40" height="8"/>
	<rect x="92" y="144.2852" fill="#A9C7D8" width="40" height="8"/>
	<path fill="#FCC24C" d="M36,160.2852h24c2.2088,0,4-1.7892,4-4v-16c0-2.2108-1.7912-4-4-4H36c-2.2088,0-4,1.7892-4,4v16
		C32,158.496,33.7912,160.2852,36,160.2852z"/>
	<path fill="#FCC24C" d="M160,140.2852v16c0,2.2108,1.7912,4,4,4h24c2.2088,0,4-1.7892,4-4v-16c0-2.2108-1.7912-4-4-4h-24
		C161.7912,136.2852,160,138.0744,160,140.2852z"/>
	<path fill="#50CCD3" d="M60,100.2852h104c2.2088,0,4-1.7892,4-4v-48c0-2.2108-1.7912-4-4-4H60c-2.2088,0-4,1.7892-4,4v48
		C56,98.496,57.7912,100.2852,60,100.2852z M64,52.2852h96v40H64V52.2852z"/>
	<rect x="64" y="52.2852" fill="#3BABB7" width="96" height="40"/>
</g>
</svg>
