<?xml version="1.0" encoding="utf-8"?>
<!-- Generator: Adobe Illustrator 19.2.0, SVG Export Plug-In . SVG Version: 6.00 Build 0)  -->
<svg version="1.1" id="watertanktruck" xmlns="http://www.w3.org/2000/svg" xmlns:xlink="http://www.w3.org/1999/xlink" x="0px"
	 y="0px" viewBox="0 0 232 196" enable-background="new 0 0 232 196" xml:space="preserve">
<g>
	<path fill="#FD5A5A" d="M64,16V4c0-2.2108-1.7912-4-4-4H28c-2.2088,0-4,1.7893-4,4v12.3164C25.3028,16.1288,26.6252,16,27.9804,16
		H64z"/>
	<path fill="#FD5A5A" d="M116,16.3164V4c0-2.2108-1.7912-4-4-4H80c-2.2088,0-4,1.7893-4,4v12h36.0196
		C113.3752,16,114.6972,16.1288,116,16.3164z"/>
	<path fill="#C1DB66" d="M132,172v-52V68c0-2.2108,1.7912-4,4-4h4V44c0-14.082-10.4552-25.7384-24-27.6836
		C114.6972,16.1288,113.3752,16,112.0196,16H76H64H27.9804c-1.3552,0-2.6776,0.1288-3.9804,0.3164C10.4552,18.2616,0,29.918,0,44v4
		h28.492v8H0v12h28.492v8H0v12h28.492v8H0v12h28.492v8H0v56c0,2.2108,1.7912,4,4,4h12.3612C16.1408,174.6952,16,173.3672,16,172
		c0-13.2344,10.7656-24,24-24s24,10.7656,24,24c0,1.3672-0.1408,2.6952-0.3612,4H136C133.7912,176,132,174.2108,132,172z"/>
	<path fill="#4A8F9E" d="M40,148c-13.2344,0-24,10.7656-24,24c0,1.3672,0.1408,2.6952,0.3612,4c1.914,11.332,11.7696,20,23.6388,20
		s21.7248-8.668,23.6388-20C63.8592,174.6952,64,173.3672,64,172C64,158.7656,53.2344,148,40,148z"/>
	<path fill="#3BABB7" d="M132,68v52c0-2.2108,1.7912-4,4-4h4V72h62.2264C208.3008,78.836,216,89.3984,216,94v22h8V94
		c0-9.7384-14.2128-25.6288-17.0604-28.7148C206.1816,64.4648,205.1172,64,204,64h-8h-8h-48h-4C133.7912,64,132,65.7892,132,68z"/>
	<path fill="#50CCD3" d="M202.2264,72H140v44h76V94C216,89.3984,208.3008,78.836,202.2264,72z"/>
	<path fill="#A8A9BA" d="M228,116h-4h-8h-76h-4c-2.2088,0-4,1.7892-4,4v52c0,2.2108,1.7912,4,4,4h24.3612
		c-0.2204-1.3048-0.3612-2.6328-0.3612-4c0-13.2344,10.7656-24,24-24c13.2344,0,24,10.7656,24,24c0,1.3672-0.1408,2.6952-0.3612,4
		H228c2.2088,0,4-1.7892,4-4v-52C232,117.7892,230.2088,116,228,116z M188,136h-16v-8h16V136z"/>
	<path fill="#4A8F9E" d="M184,148c-13.2344,0-24,10.7656-24,24c0,1.3672,0.1408,2.6952,0.3612,4c1.914,11.332,11.7696,20,23.6388,20
		c11.8692,0,21.7248-8.668,23.6388-20c0.2204-1.3048,0.3612-2.6328,0.3612-4C208,158.7656,197.2344,148,184,148z"/>
	<rect y="48" fill="#D8F768" width="28.492" height="8"/>
	<rect y="88" fill="#D8F768" width="28.492" height="8"/>
	<rect y="68" fill="#D8F768" width="28.492" height="8"/>
	<rect y="108" fill="#D8F768" width="28.492" height="8"/>
	<rect x="172" y="128" fill="#535353" width="16" height="8"/>
</g>
</svg>
