<?xml version="1.0" encoding="utf-8"?>
<!-- Generator: Adobe Illustrator 19.2.0, SVG Export Plug-In . SVG Version: 6.00 Build 0)  -->
<svg version="1.1" id="_x32_dchair" xmlns="http://www.w3.org/2000/svg" xmlns:xlink="http://www.w3.org/1999/xlink" x="0px"
	 y="0px" viewBox="0 0 170.0013 222.0012" enable-background="new 0 0 170.0013 222.0012" xml:space="preserve">
<g>
	<polygon fill="none" points="44.7181,140.0012 144.8744,140.0012 148.6653,116.0012 38.8901,116.0012 	"/>
	<path fill="#BC9A67" d="M150.0013,152.0012h-5.2033l9.2636,64.8476c0.4668,3.2812,3.514,5.5432,6.7872,5.092
		c3.2812-0.4688,5.5608-3.508,5.092-6.7872l-9.8732-69.1096l-0.1408,0.8928C155.468,149.8528,152.9544,152.0012,150.0013,152.0012z"
		/>
	<path fill="#BC9A67" d="M34.1713,147.4172l-0.2932-1.2088l-11.7908,68.7792c-0.5608,3.2656,1.6348,6.3672,4.9004,6.9276
		c0.3436,0.0588,0.6836,0.086,1.0216,0.086c2.8672,0,5.404-2.0624,5.906-4.9864l11.1444-65.0136h-5.0584
		C37.2337,152.0012,34.8237,150.1068,34.1713,147.4172z"/>
	<path fill="#89714D" d="M11.8313,4.5852c-0.7812-3.2188-4.0076-5.1972-7.246-4.414c-3.2208,0.7812-5.1972,4.0252-4.414,7.246
		l23.4568,96.584h12.348L11.8313,4.5852z"/>
	<path fill="#89714D" d="M156.9368,102.0756c-2.0724-0.3324-4.0744,0.4608-5.3908,1.9256h8.8908
		C159.55,103.0148,158.3508,102.298,156.9368,102.0756z"/>
	<path fill="#89714D" d="M148.6653,116.0012l-3.7909,24H44.7181l-5.828-24H26.5425l7.3356,30.2072l0.2932,1.2088
		c0.6524,2.6896,3.0624,4.584,5.83,4.584h5.0584h99.7383h5.2033c2.9531,0,5.4667-2.1484,5.9255-5.0644l0.1408-0.8928l4.744-30.0428
		H148.6653z"/>
	<path fill="#BC9A67" d="M148.6653,116.0012h12.1463h3.1897c3.3143,0,6-2.6856,6-6s-2.6857-6-6-6h-3.5645h-8.8908H35.9761h-12.348
		h-3.6268c-3.3144,0-6,2.6856-6,6s2.6856,6,6,6h6.5412h12.3476H148.6653z"/>
</g>
</svg>
