<?xml version="1.0" encoding="utf-8"?>
<!-- Generator: Adobe Illustrator 19.2.0, SVG Export Plug-In . SVG Version: 6.00 Build 0)  -->
<svg version="1.1" id="armchair2" xmlns="http://www.w3.org/2000/svg" xmlns:xlink="http://www.w3.org/1999/xlink" x="0px" y="0px"
	 viewBox="0 0 224 208" enable-background="new 0 0 224 208" xml:space="preserve">
<g>
	<path fill="#FD5A5A" d="M30.9375,91.5724C46.8867,96.3536,58.0235,111.332,58.0235,128c0,2.2088,1.7888,4,4,4h99.9528
		c2.2112,0,4-1.7912,4-4c0-16.668,11.1368-31.6464,27.086-36.4276c1.6252-0.4884,2.7657-1.9476,2.8476-3.6428
		C195.9727,86.6268,196,85.3164,196,84c0-46.3184-37.6837-84-84-84C65.6835,0,28,37.6816,28,84
		c0,1.3164,0.0271,2.6268,0.0899,3.9296C28.172,89.6248,29.3123,91.084,30.9375,91.5724z"/>
	<polygon fill="#4F676D" points="36,188 36,208 56,208 58.8555,188 40,188 	"/>
	<polygon fill="#4F676D" points="165.1443,188 168,208 188,208 188,188 184,188 	"/>
	<path fill="#FE7D71" d="M200,100c-13.2541,0-24,10.744-24,24v16H48v-16c0-13.256-10.7461-24-24-24c-13.2541,0-24,10.744-24,24
		c0,11.8908,8.6483,21.7636,20,23.668V188h16h4h18.8555h106.2888H184h4h16v-40.332c11.3515-1.9044,20-11.7772,20-23.668
		C224,110.744,213.2539,100,200,100z"/>
</g>
</svg>
