<?xml version="1.0" encoding="utf-8"?>
<!-- Generator: Adobe Illustrator 19.2.0, SVG Export Plug-In . SVG Version: 6.00 Build 0)  -->
<svg version="1.1" id="armchair" xmlns="http://www.w3.org/2000/svg" xmlns:xlink="http://www.w3.org/1999/xlink" x="0px" y="0px"
	 viewBox="0 0 192 180" enable-background="new 0 0 192 180" xml:space="preserve">
<g>
	<path fill="#E1AD99" d="M44,88v36h104V88c0-2.2088,1.7891-4,4-4h4.3983l7.0704-74.2384c0.2108-2.1952-0.5392-4.3516-2.1016-6.074
		C159.2343,1.3436,155.8163,0,151.992,0H40.008c-3.8325,0-7.2501,1.34-9.3713,3.674c-1.5664,1.7204-2.3164,3.8828-2.1056,6.0876
		L35.6015,84H40C42.2107,84,44,85.7912,44,88z"/>
	<path fill="#A48659" d="M170,84h-13.6017H152c-2.2109,0-4,1.7912-4,4v36h4c2.2107,0,4,1.7912,4,4v28c0,2.2088-1.7893,4-4,4h36
		c2.2107,0,4-1.7912,4-4v-50C192,93.8692,182.1287,84,170,84z"/>
	<path fill="#A48659" d="M36,156v-28c0-2.2088,1.7891-4,4-4h4V88c0-2.2088-1.7893-4-4-4h-4.3985H22C9.8711,84,0,93.8692,0,106v50
		c0,2.2088,1.7891,4,4,4h36C37.7891,160,36,158.2088,36,156z"/>
	<rect x="44" y="160" fill="#4F676D" width="20" height="20"/>
	<rect x="128" y="160" fill="#4F676D" width="20" height="20"/>
	<path fill="#89714D" d="M156,156v-28c0-2.2088-1.7893-4-4-4h-4H44h-4c-2.2109,0-4,1.7912-4,4v28c0,2.2088,1.7891,4,4,4h4h20h64h20
		h4C154.2107,160,156,158.2088,156,156z"/>
</g>
</svg>
