<?xml version="1.0" encoding="utf-8"?>
<!-- Generator: Adobe Illustrator 19.2.0, SVG Export Plug-In . SVG Version: 6.00 Build 0)  -->
<svg version="1.1" id="babybed" xmlns="http://www.w3.org/2000/svg" xmlns:xlink="http://www.w3.org/1999/xlink" x="0px" y="0px"
	 viewBox="0 0 200 215.8204" enable-background="new 0 0 200 215.8204" xml:space="preserve">
<g>
	<polygon fill="#FFDC82" points="8,175.8204 8,191.8204 16,191.8204 24,191.8204 176,191.8204 184,191.8204 192,191.8204 
		192,175.8204 	"/>
	<polygon fill="#FFDC82" points="32,167.8204 32,99.8204 8,99.8204 8,115.8204 8,167.8204 	"/>
	<polygon fill="#FFDC82" points="168,167.8204 192,167.8204 192,115.8204 192,99.8204 168,99.8204 	"/>
	<rect x="40" y="99.8204" fill="#FFDC82" width="24" height="68"/>
	<rect x="104" y="99.8204" fill="#FFDC82" width="24" height="68"/>
	<rect x="72" y="99.8204" fill="#FFDC82" width="24" height="68"/>
	<rect x="136" y="99.8204" fill="#FFDC82" width="24" height="68"/>
	<path fill="#89714D" d="M192,75.8204v16H8v-16H0v20v20v52v8v20c0,2.2108,1.7912,4,4,4h12v16h8v-16h152v16h8v-16h12
		c2.2087,0,4-1.7892,4-4v-20v-8v-52v-20v-20H192z M192,115.8204v52h-24v-68h24V115.8204z M184,191.8204h-8H24h-8H8v-16h184v16H184z
		 M8,99.8204h24v68H8v-52V99.8204z M136,167.8204v-68h24v68H136z M40,167.8204v-68h24v68H40z M72,99.8204h24v68H72V99.8204z
		 M104,99.8204h24v68h-24V99.8204z"/>
	<path fill="#FCC24C" d="M36.0936,55.6876L34.6524,64.09c-0.256,1.5,0.3612,3.0156,1.5916,3.91
		c1.2344,0.8984,2.8732,1.0156,4.2132,0.3048L48,64.34l7.5428,3.9648c0.586,0.3084,1.2248,0.4608,1.8616,0.4608
		c0.828,0,1.654-0.2576,2.3516-0.7656c1.2304-0.8944,1.8476-2.41,1.5916-3.91l-1.4412-8.4024l6.1032-5.9492
		c1.09-1.0624,1.4824-2.6524,1.012-4.1016c-0.4708-1.4452-1.7228-2.5-3.2304-2.7188l-8.432-1.2264l-3.7732-7.6408
		c-1.3476-2.7344-5.8244-2.7344-7.172,0l-3.7732,7.6408l-8.432,1.2264c-1.5076,0.2188-2.7596,1.2736-3.2304,2.7188
		c-0.4704,1.4492-0.078,3.0392,1.012,4.1016L36.0936,55.6876z"/>
	<path fill="#FCC24C" d="M76.0936,23.6876L74.6524,32.09c-0.256,1.5,0.3612,3.0156,1.5916,3.91
		c1.2344,0.8984,2.8732,1.0196,4.2132,0.3048L88,32.34l7.5428,3.9648c0.586,0.3084,1.2248,0.4608,1.8616,0.4608
		c0.828,0,1.654-0.2576,2.3516-0.7656c1.2304-0.8944,1.8476-2.41,1.5916-3.91l-1.4412-8.4024l6.1032-5.9492
		c1.09-1.0624,1.4824-2.6524,1.012-4.1016c-0.4708-1.4452-1.7228-2.5-3.2304-2.7188l-8.432-1.2264L91.586,2.0508
		c-1.3476-2.7344-5.8244-2.7344-7.172,0l-3.7732,7.6408l-8.432,1.2264c-1.5076,0.2188-2.7596,1.2736-3.2304,2.7188
		c-0.4704,1.4492-0.078,3.0392,1.012,4.1016L76.0936,23.6876z"/>
</g>
</svg>
