<?xml version="1.0" encoding="utf-8"?>
<!-- Generator: Adobe Illustrator 19.2.0, SVG Export Plug-In . SVG Version: 6.00 Build 0)  -->
<svg version="1.1" id="babychair" xmlns="http://www.w3.org/2000/svg" xmlns:xlink="http://www.w3.org/1999/xlink" x="0px" y="0px"
	 viewBox="0 0 152 204" enable-background="new 0 0 152 204" xml:space="preserve">
<g>
	<polygon fill="none" points="105.4647,96 46.5351,96 76,135.0429 	"/>
	<polygon fill="#4A8F9E" points="76,135.0429 46.5351,96 31.5019,96 68.4843,145 33.0115,192 9.6035,192 9.6035,204 42,204 
		42,200.008 76,154.9573 109.6035,199.4845 109.6035,204 142,204 142,192 118.9883,192 83.5155,145 120.4979,96 105.4647,96 	"/>
	<path fill="#B976DD" d="M112,32v7.996c11.0351-0.0115,20-8.9567,20-19.996c0-11.0235-8.9649-20-20.0237-20H40.0235
		C28.9763,0,20,8.9533,20,20c0,11.0157,8.9531,19.9845,20,19.996V32H112z"/>
	<polygon fill="#BDB9FF" points="140,108 140,96 140,88 140,56 152,56 152,48 140,48 132,48 112,48 112,39.996 112,32 40,32 
		40,39.996 40,48 20,48 12,48 0,48 0,56 12,56 12,88 12,96 12,108 20,108 20,96 31.5019,96 46.5351,96 105.4647,96 120.4979,96 
		132,96 132,108 	"/>
</g>
</svg>
