<?xml version="1.0" encoding="utf-8"?>
<!-- Generator: Adobe Illustrator 19.2.0, SVG Export Plug-In . SVG Version: 6.00 Build 0)  -->
<svg version="1.1" id="backdoor" xmlns="http://www.w3.org/2000/svg" xmlns:xlink="http://www.w3.org/1999/xlink" x="0px" y="0px"
	 viewBox="0 0 180 204" enable-background="new 0 0 180 204" xml:space="preserve">
<g>
	<polygon fill="#89714D" points="36,12 148,12 148,196 160,196 160,0 24,0 24,196 36,196 	"/>
	<path fill="#B79664" d="M36,12v184h20v-72h72v72h20V12H36z M128,116H56c-2.2109,0-4-1.7912-4-4V32c0-2.2088,1.7891-4,4-4h72
		c2.2107,0,4,1.7912,4,4v80C132,114.2088,130.2107,116,128,116z"/>
	<rect x="56" y="124" fill="#C6DFED" width="72" height="72"/>
	<polygon fill="#4F676D" points="160,196 148,196 128,196 56,196 36,196 24,196 0,196 0,204 24,204 36,204 56,204 128,204 148,204 
		160,204 180,204 180,196 	"/>
	<rect x="96" y="76" fill="#7BE5E4" width="28" height="32"/>
	<rect x="96" y="36" fill="#7BE5E4" width="28" height="32"/>
	<rect x="60" y="76" fill="#7BE5E4" width="28" height="32"/>
	<rect x="60" y="36" fill="#7BE5E4" width="28" height="32"/>
	<path fill="#E06C3E" d="M128,28H56c-2.2109,0-4,1.7912-4,4v80c0,2.2088,1.7891,4,4,4h72c2.2107,0,4-1.7912,4-4V32
		C132,29.7912,130.2107,28,128,28z M124,68H96V36h28V68z M60,76h28v32H60V76z M60,68V36h28v32H60z M96,108V76h28v32H96z"/>
</g>
</svg>
