<?xml version="1.0" encoding="utf-8"?>
<!-- Generator: Adobe Illustrator 19.2.0, SVG Export Plug-In . SVG Version: 6.00 Build 0)  -->
<svg version="1.1" id="barchair" xmlns="http://www.w3.org/2000/svg" xmlns:xlink="http://www.w3.org/1999/xlink" x="0px" y="0px"
	 viewBox="0 0 124.0009 202" enable-background="new 0 0 124.0009 202" xml:space="preserve">
<g>
	<polygon fill="none" points="16.8541,160 107.1469,160 88.4809,20 35.5201,20 	"/>
	<path fill="#A48659" d="M123.9477,195.2072l-3.8848-29.1328c0-0.0256,0.008-0.0492,0.008-0.0744
		c0-0.5312-0.092-1.0392-0.2208-1.5312L100.5785,19.9432c-0.1872,0.01-0.3672,0.0568-0.5584,0.0568H88.4809l18.666,140H16.8541
		l18.666-140H23.9789c-0.1912,0-0.3692-0.0468-0.5564-0.0568L0.0533,195.2072c-0.4376,3.2848,1.8692,6.3024,5.1544,6.74
		C5.4769,201.9824,5.7446,202,6.0086,202c2.9607,0,5.5367-2.1916,5.9391-5.2072L15.2526,172h93.496l3.3047,24.7928
		c0.4024,3.0156,2.9784,5.2072,5.9393,5.2072c0.264,0,0.5315-0.0176,0.8007-0.0528
		C122.0785,201.5096,124.3853,198.492,123.9477,195.2072z"/>
	<path fill="#FE8657" d="M35.5201,20h52.9608h11.5392c0.1912,0,0.3712-0.0468,0.5584-0.0568
		c5.2404-0.2968,9.4221-4.6208,9.4221-9.9432c0-5.5136-4.4765-10-9.9805-10H23.9789c-5.502,0-9.9783,4.4864-9.9783,10
		c0,5.3224,4.1835,9.6484,9.4219,9.9432C23.6097,19.9532,23.7877,20,23.9789,20H35.5201z"/>
</g>
</svg>
