<?xml version="1.0" encoding="utf-8"?>
<!-- Generator: Adobe Illustrator 19.2.0, SVG Export Plug-In . SVG Version: 6.00 Build 0)  -->
<svg version="1.1" id="bath" xmlns="http://www.w3.org/2000/svg" xmlns:xlink="http://www.w3.org/1999/xlink" x="0px" y="0px"
	 viewBox="0 0 212 204" enable-background="new 0 0 212 204" xml:space="preserve">
<g>
	<path fill="#BDB9FF" d="M16,80h180c1.7655,0,3.3243,1.16,3.832,2.8516L200,83.41V4c0-2.2108-1.7913-4-4-4H16
		c-2.2089,0-4,1.7892-4,4v79.41l0.168-0.5584C12.6755,81.16,14.2343,80,16,80z M74.828,21.172c1.5627,1.5624,1.5627,4.0936,0,5.656
		l-28,28C46.0467,55.6092,45.0235,56,44,56c-1.0237,0-2.0469-0.3908-2.828-1.172c-1.5629-1.5624-1.5629-4.0936,0-5.656l28-28
		C70.7343,19.6092,73.2655,19.6092,74.828,21.172z M29.172,37.172l18.1111-18.1096c1.5624-1.5624,4.0936-1.5624,5.6564,0
		c1.5624,1.5624,1.5624,4.094,0,5.6564L34.828,42.828C34.0467,43.6092,33.0235,44,32,44c-1.0237,0-2.0469-0.3908-2.828-1.172
		C27.6091,41.2656,27.6091,38.7344,29.172,37.172z"/>
	<path fill="#4A8F9E" d="M211.8575,123.2968c-0.0255-0.1484,0.0192-0.2968-0.0255-0.4452L200,83.41l-0.168-0.5584
		C199.3243,81.16,197.7655,80,196,80H16c-1.7657,0-3.3245,1.16-3.832,2.8516L12,83.41L0.168,122.8516
		c-0.0429,0.1484,0,0.2968-0.0257,0.4452C0.0975,123.5352,0,123.75,0,124v16v8v52c0,2.2108,1.7911,4,4,4h68h68h68
		c2.2087,0,4-1.7892,4-4v-76C212,123.75,211.9023,123.5352,211.8575,123.2968z M144,128h60v12h-60V128z M144,108
		c0,13.4572-16.6917,24-38,24c-21.3085,0-38-10.5428-38-24s16.6915-24,38-24C127.3083,84,144,94.5428,144,108z M8,128h60v12H8V128z
		 M8,148h60v48H8V148z M76,148h60v48H76V148z M144,196v-48h60v48H144z"/>
	<rect x="8" y="128" fill="#50CCD3" width="60" height="12"/>
	<path fill="#50CCD3" d="M68,148H8v48h60V148z M60,172h-8v-12h8V172z"/>
	<path fill="#50CCD3" d="M144,148v48h60v-48H144z M160,172h-8v-12h8V172z"/>
	<rect x="144" y="128" fill="#50CCD3" width="60" height="12"/>
	<rect x="76" y="148" fill="#50CCD3" width="60" height="48"/>
	<rect x="52" y="160" fill="#4A8F9E" width="8" height="12"/>
	<rect x="152" y="160" fill="#4A8F9E" width="8" height="12"/>
	<path fill="#FCC24C" d="M68,108c0,13.4572,16.6915,24,38,24c21.3083,0,38-10.5428,38-24s-16.6917-24-38-24
		C84.6915,84,68,94.5428,68,108z"/>
	<path fill="#B7F5F0" d="M32,44c1.0235,0,2.0467-0.3908,2.828-1.172l18.1115-18.1092c1.5624-1.5624,1.5624-4.094,0-5.6564
		c-1.5628-1.5624-4.094-1.5624-5.6564,0L29.172,37.172c-1.5629,1.5624-1.5629,4.0936,0,5.656C29.9531,43.6092,30.9763,44,32,44z"/>
	<path fill="#B7F5F0" d="M41.172,54.828C41.9531,55.6092,42.9763,56,44,56c1.0235,0,2.0467-0.3908,2.828-1.172l28-28
		c1.5627-1.5624,1.5627-4.0936,0-5.656c-1.5625-1.5628-4.0937-1.5628-5.656,0l-28,28C39.6091,50.7344,39.6091,53.2656,41.172,54.828
		z"/>
</g>
</svg>
