<?xml version="1.0" encoding="utf-8"?>
<!-- Generator: Adobe Illustrator 19.2.0, SVG Export Plug-In . SVG Version: 6.00 Build 0)  -->
<svg version="1.1" id="bench" xmlns="http://www.w3.org/2000/svg" xmlns:xlink="http://www.w3.org/1999/xlink" x="0px" y="0px"
	 viewBox="0 0 231.9985 142" enable-background="new 0 0 231.9985 142" xml:space="preserve">
<g>
	<path fill="#FE8657" d="M213.9796,20.3984c0.676-5.4064-0.832-10.5156-4.25-14.3868C206.3076,2.1348,201.4172,0,195.96,0H36.0384
		c-5.4532,0-10.34,2.1348-13.762,6.0136c-3.4216,3.8752-4.9336,8.9824-4.2576,14.3848L23.468,64h185.0624L213.9796,20.3984z
		 M187.9993,48h-144v-8h144V48z M187.9993,28h-144v-8h144V28z"/>
	<rect x="43.9993" y="20" fill="#FFDC82" width="144" height="8"/>
	<rect x="43.9993" y="40" fill="#FFDC82" width="144" height="8"/>
	<rect x="11.9993" y="96" fill="#89714D" width="12" height="46"/>
	<rect x="207.9993" y="96" fill="#89714D" width="12" height="46"/>
	<rect x="35.9993" y="96" fill="#89714D" width="8" height="20"/>
	<rect x="187.9993" y="96" fill="#89714D" width="8" height="20"/>
	<path fill="#E06C3E" d="M231.4876,90.0448l-13.4416-24C217.3393,64.7832,216.0073,64,214.5576,64h-6.0272H23.468h-6.0272
		c-1.4495,0-2.7815,0.7832-3.4884,2.0448l-13.4416,24c-0.6952,1.2384-0.6795,2.752,0.0392,3.9788C1.2648,95.248,2.5812,96,3.9993,96
		h8h12h12h8h144h8h12h12h8c1.4179,0,2.7343-0.752,3.4491-1.9764C232.1673,92.7968,232.1828,91.2832,231.4876,90.0448z"/>
</g>
</svg>
