<?xml version="1.0" encoding="utf-8"?>
<!-- Generator: Adobe Illustrator 19.2.0, SVG Export Plug-In . SVG Version: 6.00 Build 0)  -->
<svg version="1.1" id="bonsai" xmlns="http://www.w3.org/2000/svg" xmlns:xlink="http://www.w3.org/1999/xlink" x="0px" y="0px"
	 viewBox="0 0 232 210" enable-background="new 0 0 232 210" xml:space="preserve">
<g>
	<path fill="#49A25A" d="M224,184v-26H73.3611l-1.742,3.7032C70.9375,163.1524,69.4979,164,67.9979,164
		c-0.5724,0-1.1504-0.1212-1.7012-0.3788c-1.998-0.9416-2.8572-3.3244-1.916-5.3244L64.5195,158H8v26
		c0,6.9844,2.7791,13.3244,7.2751,18H216.744C221.2323,197.328,224,190.992,224,184z"/>
	<path fill="#A48659" d="M66.2967,163.6212C66.8475,163.8788,67.4255,164,67.9979,164c1.5,0,2.9396-0.8476,3.6212-2.2968
		L73.3611,158l14.258-30.2968c0.6308-1.34,0.4689-2.918-0.42-4.1016L76.1895,108.918c6.3768-1.9376,20.498-6.3868,30.6776-10.7384
		c-0.3124-1.25-0.576-2.3904-0.7791-3.3396c-0.3049-1.426,0.1871-2.9024,1.2851-3.8556c1.0976-0.9572,2.6269-1.246,3.994-0.7424
		l6.254,2.2736c5.906-2.6564,21.662-2,31.8144-0.5548c1.0508,0.1564,2.1172-0.1248,2.9648-0.7616l12.5448-9.41
		c-0.656-0.18-1.2792-0.4688-1.7731-0.9612c-0.4125-0.41-2.2697-2.5036-2.2541-6.0156l-12.0059,9.004
		c-7.4101-0.9492-29.1817-3.1172-37.3125,2.9844c-6.0448,4.5312-31.1056,12.5236-40.5216,15.3008l-1.0176-1.3556
		c0.338-4.5352,2.5312-19.9844,16.7248-22.824c11.3869-2.2776,25.7949-10.8828,38.506-18.4728C134.2751,54.082,144.4587,48,148,48
		h30c2.2087,0,4-1.7892,4-4s-1.7913-4-4-4h-30c-4.7597,0-11.6525,3.6248-21.9609,9.6992c0.1716-5.8908,0.988-16.8084,3.5388-21.91
		c0.0548-0.1096,0.1816-0.2268,0.2501-0.336c-0.7245,0.3904-1.5273,0.6404-2.3965,0.5076c0.2756,0.4648,0.4628,0.9924,0.5312,1.5628
		c0.2636,2.1836-1.2812,4.1716-3.4667,4.4452c-0.8261,0.1056-1.7577,0.164-2.7657,0.164c-0.7012,0-1.4628-0.0584-2.2263-0.1212
		C118.0603,42.0508,118,50.664,118,52c0,0.7812,0.2811,1.4648,0.6659,2.082c-11.5116,6.8556-24.0976,14.1252-33.4512,15.996
		C66.8515,73.75,62,92.5664,62,102c0,0.8672,0.2811,1.7072,0.8007,2.3984l16.5548,22.0744l-1.4044,2.9844l-35.7208-18.8048
		c-0.4668,1.3748-1.086,2.6444-1.912,3.746C39.5331,115.4492,38.332,116,37.1151,116c-0.834,0-1.6756-0.2616-2.3964-0.8008
		c-0.2227-0.168-0.422-0.3516-0.5996-0.5548c-0.0548,0.0628-0.1111,0.1252-0.172,0.1836c-1.5624,1.5628-4.0936,1.5628-5.656,0
		c-0.1644-0.164-1.8324-1.8904-3.4104-4.828H24c-2.2089,0-4,1.7892-4,4s1.7911,4,4,4h15.0115l35.5312,18.6992L64.5195,158
		l-0.1388,0.2968C63.4395,160.2968,64.2987,162.6796,66.2967,163.6212z"/>
	<path fill="#A48659" d="M132,24c0,0.4804-0.1445,0.914-0.3029,1.34c4.2636-3.7736,13.2012-7.6252,19.4532-9.508
		c2.1152-0.6368,3.3144-2.8672,2.6796-4.9844c-0.6348-2.1132-2.8672-3.3008-4.9784-2.6796
		c-2.6896,0.8084-13.4728,4.2656-20.6992,9.7188c0.8028,1.504,1.3456,2.2304,1.5917,2.5116C131.08,21.0468,132,22.418,132,24z"/>
	<path fill="#9AB040" d="M107.3731,90.9844c-1.098,0.9532-1.59,2.4296-1.2851,3.8556c0.2031,0.9492,0.4667,2.0896,0.7791,3.3396
		c1.91,7.6484,5.8868,19.7892,12.3084,22.1916c0.846,0.3164,1.7052,0.4724,2.5608,0.4724c1.6132,0,3.2108-0.5544,4.664-1.6444
		C135.8907,112.082,136,102.41,136,102c0-1.6836-1.0529-3.1836-2.6329-3.758l-15.746-5.7264l-6.254-2.2736
		C110,89.7384,108.4707,90.0272,107.3731,90.9844z"/>
	<path fill="#9AB040" d="M163.172,80.828c0.4939,0.4924,1.1171,0.7812,1.7731,0.9612C165.2911,81.8868,165.6347,82,166,82
		c0.164,0,0.3299-0.0116,0.496-0.0312l32-4c1.756-0.2188,3.1583-1.5664,3.4491-3.3124l2-12
		c0.1876-1.1212-0.1112-2.2656-0.822-3.1564c-3.5351-4.418-14.1976-10.2968-29.2424-0.8908
		c-8,4.9964-12.3456,10.0824-12.918,15.1136c-0.0427,0.3828-0.0427,0.7344-0.0448,1.0896
		C160.9023,78.3244,162.7595,80.418,163.172,80.828z"/>
	<path fill="#9AB040" d="M33.9471,114.828c0.0609-0.0584,0.1172-0.1208,0.172-0.1836c0.1776,0.2032,0.3769,0.3868,0.5996,0.5548
		C35.4395,115.7384,36.2811,116,37.1151,116c1.2169,0,2.418-0.5508,3.2032-1.6016c0.826-1.1016,1.4452-2.3712,1.912-3.746
		c3.4532-10.168-2.0663-26.4804-3.3516-30.0196c-0.3496-0.9608-1.0544-1.754-1.9704-2.2108
		c-0.5432-0.2696-2.5236-1.0784-5.094-0.008c-3.422,1.414-6.1992,5.4452-8.49,12.3204C20.5411,99.086,22.6211,105.7928,24.8807,110
		c1.578,2.9376,3.246,4.664,3.4104,4.828C29.8535,116.3908,32.3847,116.3908,33.9471,114.828z"/>
	<path fill="#9AB040" d="M124.496,33.9688c2.1855-0.2736,3.7303-2.2616,3.4667-4.4452c-0.0684-0.5704-0.2556-1.098-0.5312-1.5628
		c0.8692,0.1328,1.672-0.1172,2.3965-0.5076c0.8535-0.4648,1.5235-1.1836,1.8691-2.1132C131.8555,24.914,132,24.4804,132,24
		c0-1.582-0.92-2.9532-2.256-3.6016c-0.2461-0.2812-0.7889-1.0076-1.5917-2.5116c-0.6443-1.2112-1.4552-2.914-2.4376-5.3712
		C120.7655,0.1408,104.6815,0,104,0c-1.5625,0-3.1213,0.828-4.168,2.2148c-2.2577,2.996-2.1581,8.2032,0.3223,16.8828
		c3.0916,10.828,12.3044,14.328,19.3497,14.914c0.7635,0.0628,1.5251,0.1212,2.2263,0.1212
		C122.7383,34.1328,123.6699,34.0744,124.496,33.9688z"/>
	<polygon fill="#4F676D" points="216.744,202 15.2751,202 0,202 0,210 34,210 198,210 232,210 232,202 	"/>
</g>
</svg>
