<?xml version="1.0" encoding="utf-8"?>
<!-- Generator: Adobe Illustrator 19.2.0, SVG Export Plug-In . SVG Version: 6.00 Build 0)  -->
<svg version="1.1" id="bookdelivery" xmlns="http://www.w3.org/2000/svg" xmlns:xlink="http://www.w3.org/1999/xlink" x="0px"
	 y="0px" viewBox="0 0 220.0007 196" enable-background="new 0 0 220.0007 196" xml:space="preserve">
<g>
	<path fill="#FCD1C0" d="M16.0005,196h188v-76h-188V196z M152.0005,136h32c2.2107,0,4,1.7892,4,4
		c0,9.6564-6.8829,17.7384-16,19.5936V168h4v8h-16v-8h4v-8.4064c-9.1173-1.8552-16-9.9372-16-19.5936
		C148.0005,137.7892,149.7896,136,152.0005,136z"/>
	<path fill="#FCD1C0" d="M168.0005,152c5.2147,0,9.664-3.3436,11.3163-8H156.684C158.3365,148.6564,162.7856,152,168.0005,152z"/>
	<path fill="#FFE9E1" d="M211.2932,70.2736C210.5588,71.332,209.344,72,208.0005,72h-44h-80h-72
		c-1.3437,0-2.5585-0.668-3.2929-1.7264L0.0708,115.246c-0.2228,1.172,0.086,2.3828,0.8476,3.3008
		C1.676,119.4688,2.8088,120,4.0005,120h12h188h12c1.1915,0,2.3243-0.5312,3.0819-1.4532c0.7616-0.918,1.0704-2.1288,0.8476-3.3008
		L211.2932,70.2736z"/>
	<path fill="#FE8657" d="M156.0005,4c0-2.2108-1.7893-4-4-4h-68c-2.2109,0-4,1.7892-4,4v16h76V4z"/>
	<path fill="#E1AD99" d="M172.0005,48h-4v8v12c0,2.2108-1.7893,4-4,4h44c1.3435,0,2.5583-0.668,3.2927-1.7264
		c0.2464-0.3556,0.4376-0.754,0.5588-1.1876c0.4845-1.7268-0.2344-3.5624-1.7616-4.496l-34.0899-20.8712V44
		C176.0005,46.2108,174.2112,48,172.0005,48z"/>
	<path fill="#E1AD99" d="M12.0005,72h72c-2.2109,0-4-1.7892-4-4v-8h-4c-2.2109,0-4-1.7892-4-4V44v-4H51.1996
		c-0.7384,0-1.4608,0.2032-2.09,0.59l-39.1992,24c-1.5272,0.9336-2.2459,2.7692-1.7616,4.496
		c0.1212,0.4336,0.3124,0.832,0.5588,1.1876C9.442,71.332,10.6568,72,12.0005,72z"/>
	<path fill="#FCC24D" d="M76.0005,40h88c2.2107,0,4,1.7892,4,4v4h4c2.2107,0,4-1.7892,4-4v-0.2812V24c0-2.2108-1.7893-4-4-4h-16h-76
		h-4c-2.2109,0-4,1.7892-4,4v16v4C72.0005,41.7892,73.7896,40,76.0005,40z"/>
	<path fill="#FE8657" d="M164.0005,159.5936V168h-4v8h16v-8h-4v-8.4064c9.1171-1.8552,16-9.9372,16-19.5936c0-2.2108-1.7893-4-4-4
		h-32c-2.2109,0-4,1.7892-4,4C148.0005,149.6564,154.8832,157.7384,164.0005,159.5936z M179.3168,144
		c-1.6523,4.6564-6.1016,8-11.3163,8c-5.2149,0-9.664-3.3436-11.3165-8H179.3168z"/>
	<path fill="#618287" d="M84.0005,52h80c2.2107,0,4,1.7892,4,4v-8v-4c0-2.2108-1.7893-4-4-4h-88c-2.2109,0-4,1.7892-4,4v12
		c0,2.2108,1.7891,4,4,4h4v-4C80.0005,53.7892,81.7896,52,84.0005,52z"/>
	<path fill="#FE8657" d="M168.0005,68V56c0-2.2108-1.7893-4-4-4h-80c-2.2109,0-4,1.7892-4,4v4v8c0,2.2108,1.7891,4,4,4h80
		C166.2112,72,168.0005,70.2108,168.0005,68z"/>
</g>
</svg>
