<?xml version="1.0" encoding="utf-8"?>
<!-- Generator: Adobe Illustrator 19.2.0, SVG Export Plug-In . SVG Version: 6.00 Build 0)  -->
<svg version="1.1" id="books" xmlns="http://www.w3.org/2000/svg" xmlns:xlink="http://www.w3.org/1999/xlink" x="0px" y="0px"
	 viewBox="0 0 232 206" enable-background="new 0 0 232 206" xml:space="preserve">
<g>
	<path fill="#456782" d="M33.9843,176c-0.7384,0-1.4572-0.0623-2.1796-0.1091l-9.3204,21.746
		c-1.3048,3.0468,0.1056,6.574,3.1524,7.8788C26.4063,205.8437,27.2071,206,27.996,206c2.3283,0,4.5431-1.3631,5.5195-3.6367
		L44.8123,176H36H33.9843z"/>
	<path fill="#456782" d="M188,176h-0.8125l11.2968,26.3633c0.9764,2.2776,3.1912,3.6367,5.5197,3.6367
		c0.7887,0,1.5895-0.1563,2.3591-0.4843c3.0468-1.3048,4.4572-4.832,3.1524-7.8788l-9.3204-21.746
		c-0.7224,0.0468-1.4412,0.1091-2.1796,0.1091H188z"/>
	<path fill="#456782" d="M36,128h12c0-2.2107,1.7891-4,4-4h16h20c2.2107,0,4,1.7893,4,4v40h32v-12v-16c0-2.2107,1.7891-4,4-4h60
		c2.2107,0,4,1.7893,4,4v16v12h6.0155C212.3435,168,224,156.336,224,142s-11.6565-26-25.9845-26H33.9843
		C19.6563,116,8,127.664,8,142c0,13.668,10.5975,24.8789,24,25.8985V132C32,129.7893,33.7891,128,36,128z"/>
	<path fill="#4A8F9E" d="M232,142c0-18.7383-15.2149-34-33.9845-34H33.9843C15.2227,108,0,123.2229,0,142
		c0,18.004,14.0547,32.7581,31.8047,33.8909C32.5271,175.9377,33.2459,176,33.9843,176H36c-2.2109,0-4-1.7891-4-4v-4.1015
		C18.5975,166.8789,8,155.668,8,142c0-14.336,11.6563-26,25.9843-26h164.0312C212.3435,116,224,127.664,224,142
		s-11.6565,26-25.9845,26H192v4c0,2.2109-1.7893,4-4,4h10.0155c0.7384,0,1.4572-0.0623,2.1796-0.1091
		C217.9375,174.7617,232,160.0429,232,142z"/>
	<path fill="#4A8F9E" d="M124,172v-4H92v4c0,2.2109-1.7893,4-4,4h40C125.7891,176,124,174.2109,124,172z"/>
	<path fill="#50CCD3" d="M48,172v-44H36c-2.2109,0-4,1.7893-4,4v35.8985V172c0,2.2109,1.7891,4,4,4h8.8123H52
		C49.7891,176,48,174.2109,48,172z"/>
	<path fill="#FE7D71" d="M64,172v-44c0-2.2107,1.7891-4,4-4H52c-2.2109,0-4,1.7893-4,4v44c0,2.2109,1.7891,4,4,4h16
		C65.7891,176,64,174.2109,64,172z"/>
	<path fill="#63B473" d="M92,172v-4v-40c0-2.2107-1.7893-4-4-4H68c-2.2109,0-4,1.7893-4,4v44c0,2.2109,1.7891,4,4,4h20
		C90.2107,176,92,174.2109,92,172z"/>
	<path fill="#D793FD" d="M192,172v-4v-12c0,2.2109-1.7893,4-4,4h-60c-2.2109,0-4-1.7891-4-4v12v4c0,2.2109,1.7891,4,4,4h59.1875H188
		C190.2107,176,192,174.2109,192,172z"/>
	<path fill="#C6DFED" d="M188,136h-60c-2.2109,0-4,1.7893-4,4v16c0,2.2109,1.7891,4,4,4h60c2.2107,0,4-1.7891,4-4v-16
		C192,137.7893,190.2107,136,188,136z"/>
	<path fill="#49A25A" d="M64,32c1.3827,0,2.7187,0.2929,4,0.7853V8h-8v24.7853C61.2811,32.2929,62.6171,32,64,32z"/>
	<path fill="#49A25A" d="M112,32.7853C113.2811,32.2929,114.6171,32,116,32c1.3827,0,2.7187,0.2929,4,0.7853V8h-8V32.7853z"/>
	<path fill="#B976DD" d="M60,32.7853C53.1015,35.4533,48,44.8205,48,56c0,13.2541,7.164,24,16,24s16-10.7459,16-24
		c0-11.1795-5.1017-20.5467-12-23.2147C66.7187,32.2929,65.3827,32,64,32C62.6171,32,61.2811,32.2929,60,32.7853z"/>
	<path fill="#B976DD" d="M112,32.7853c-6.8985,2.668-12,12.0352-12,23.2147c0,13.2541,7.164,24,16,24s16-10.7459,16-24
		c0-11.1795-5.1017-20.5467-12-23.2147C118.7187,32.2929,117.3827,32,116,32C114.6171,32,113.2811,32.2929,112,32.7853z"/>
	<polygon fill="#535353" points="112,8 120,8 132,8 132,0 48,0 48,8 60,8 68,8 	"/>
</g>
</svg>
