<?xml version="1.0" encoding="utf-8"?>
<!-- Generator: Adobe Illustrator 19.2.0, SVG Export Plug-In . SVG Version: 6.00 Build 0)  -->
<svg version="1.1" id="cactus" xmlns="http://www.w3.org/2000/svg" xmlns:xlink="http://www.w3.org/1999/xlink" x="0px" y="0px"
	 viewBox="0 0 156.0552 218" enable-background="new 0 0 156.0552 218" xml:space="preserve">
<g>
	<path fill="#9AB040" d="M84.0296,93.4884l4.1816,2.0896C88.7856,95.8632,89.3968,96,89.9965,96
		c1.4687,0,2.8807-0.8084,3.5819-2.2108c0.9884-1.9768,0.1876-4.3792-1.7888-5.3672l-7.3224-3.6604l0.6484-12.9764
		c0.1232-0.0352,0.25-0.0236,0.3712-0.0704l10-4c2.0508-0.8204,3.0488-3.1484,2.2284-5.1992
		c-0.8224-2.0508-3.1444-3.0468-5.2012-2.2304l-6.9628,2.7852L86.4048,46h3.5957c2.2087,0,4-1.7892,4-4s-1.7913-4-4-4h-3.336
		c-0.252-5.8828-2.1973-11.4064-5.6057-16.0584l4.7308-2.3636c1.9764-0.988,2.7772-3.3904,1.7888-5.3672
		c-0.988-1.9724-3.3884-2.7692-5.3672-1.7888l-7.0544,3.5272C70.098,12.1056,63.9205,10,57.3128,10h-1.3123V4c0-2.2108-1.7913-4-4-4
		c-2.2089,0-4,1.7892-4,4v6.758c-5.6017,1.2576-10.6741,4.078-14.6777,8.2888c-0.7208,0.758-1.3888,1.5468-2.0176,2.3672
		l-7.8184-3.1288c-2.0644-0.8244-4.3808,0.1756-5.2012,2.2304c-0.8204,2.0508,0.1776,4.3788,2.2284,5.1992l6.84,2.7344
		c-1.5175,3.8752-2.2324,8.086-2.0135,12.4416L25.596,46h-5.5955c-2.2089,0-4,1.7892-4,4s1.7911,4,4,4h5.996l0.5783,11.5704
		L19.6,70.8008c-1.7675,1.324-2.1248,3.832-0.7988,5.5976C19.5864,77.4492,20.7876,78,22.0045,78
		c0.8339,0,1.6755-0.2616,2.3963-0.8008l2.6564-1.992L27.8948,92h-7.8943c-2.2089,0-4,1.7892-4,4s1.7911,4,4,4h8.2947l3.502,70
		h48.4064L84.0296,93.4884z"/>
	<path fill="#FF6B97" d="M111.9224,174.7852c0.2364-1.176-0.0684-2.3944-0.8284-3.3204c-0.7596-0.9256-1.8944-1.4648-3.0935-1.4648
		H80.2036H31.7972H4.0005c-1.1993,0-2.3341,0.5392-3.0937,1.4648c-0.76,0.926-1.0648,2.1444-0.8284,3.3204L7.1216,210h97.7576
		L111.9224,174.7852z"/>
	<polygon fill="#4A8F9E" points="104.8792,210 7.1216,210 0.0005,210 0.0005,218 12.0005,218 100.0005,218 156.0552,218 
		156.0552,210 	"/>
</g>
</svg>
