<?xml version="1.0" encoding="utf-8"?>
<!-- Generator: Adobe Illustrator 19.2.0, SVG Export Plug-In . SVG Version: 6.00 Build 0)  -->
<svg version="1.1" id="classicoven" xmlns="http://www.w3.org/2000/svg" xmlns:xlink="http://www.w3.org/1999/xlink" x="0px"
	 y="0px" viewBox="0 0 140 220" enable-background="new 0 0 140 220" xml:space="preserve">
<g>
	<path fill="none" d="M12,22.8869V9.1133C9.6211,10.5,8,13.0549,8,16C8,18.9453,9.6211,21.5,12,22.8869z"/>
	<path fill="none" d="M76,22.8869C78.3787,21.5,80,18.9453,80,16c0-2.9451-1.6213-5.5-4-6.8867V22.8869z"/>
	<rect x="20" y="208" fill="#618287" width="8" height="12"/>
	<rect x="116" y="208" fill="#618287" width="8" height="12"/>
	<path fill="#A9C7D8" d="M127.992,48H16.008C9.3867,48,4,53.3869,4,60.0117v135.9768C4,202.6133,9.3867,208,16.008,208H20h8h88h8
		h3.992c6.6211,0,12.008-5.3867,12.008-12.0115V60.0117C140,53.3869,134.6131,48,127.992,48z M114,68c5.5235,0,10,4.4765,10,10
		c0,5.5237-4.4765,10-10,10c-5.5237,0-10-4.4763-10-10C104,72.4765,108.4763,68,114,68z M86,68c5.5235,0,10,4.4765,10,10
		c0,5.5237-4.4765,10-10,10c-5.5237,0-10-4.4763-10-10C76,72.4765,80.4763,68,86,68z M58,68c5.5235,0,10,4.4765,10,10
		c0,5.5237-4.4765,10-10,10c-5.5237,0-10-4.4763-10-10C48,72.4765,52.4763,68,58,68z M30,68c5.5235,0,10,4.4765,10,10
		c0,5.5237-4.4765,10-10,10c-5.5237,0-10-4.4763-10-10C20,72.4765,24.4763,68,30,68z M124.0819,108H116v80H28v-80h-8v-8h8h88h8.0819
		V108z"/>
	<rect x="36" y="108" fill="#F8A131" width="72" height="72"/>
	<path fill="#FD5A5A" d="M28,100h-8v8h8v80h88v-80h8.0819v-8H116H28z M108,180H36v-72h72V180z"/>
	<circle fill="#F8A131" cx="30" cy="78" r="10"/>
	<circle fill="#F8A131" cx="58" cy="78" r="10"/>
	<circle fill="#F8A131" cx="86" cy="78" r="10"/>
	<circle fill="#F8A131" cx="114" cy="78" r="10"/>
	<path fill="#618287" d="M12,31.4337v0.578C12,38.6213,17.3943,44,24.0235,44h39.9528C70.6055,44,76,38.6213,76,32.0117v-0.578
		c6.8827-1.7892,12-8,12-15.4337c0-8.8243-7.1757-16-16-16H16C7.1755,0,0,7.1757,0,16C0,23.4337,5.1171,29.6445,12,31.4337z M80,16
		c0,2.9453-1.6213,5.5-4,6.8869V9.1133C78.3787,10.5,80,13.0549,80,16z M12,9.1133v13.7736C9.6211,21.5,8,18.9453,8,16
		C8,13.0549,9.6211,10.5,12,9.1133z"/>
</g>
</svg>
