<?xml version="1.0" encoding="utf-8"?>
<!-- Generator: Adobe Illustrator 19.2.0, SVG Export Plug-In . SVG Version: 6.00 Build 0)  -->
<svg version="1.1" id="clock" xmlns="http://www.w3.org/2000/svg" xmlns:xlink="http://www.w3.org/1999/xlink" x="0px" y="0px"
	 viewBox="0 0 104 228" enable-background="new 0 0 104 228" xml:space="preserve">
<g>
	<path fill="#BC9A67" d="M52,0C23.328,0,0,23.332,0,52.008V84v116v24c0,2.2109,1.7891,4,4,4h96c2.2107,0,4-1.7891,4-4v-24V84V52.008
		C104,23.332,80.672,0,52,0z M8,92h40h8h40v100H8V92z M96,220H8v-20h88V220z M8,84V52.008C8,27.7421,27.7383,8,52,8
		c24.2615,0,44,19.7421,44,44.008V84H8z"/>
	<path fill="#89714D" d="M52,8C27.7383,8,8,27.7421,8,52.008V84h88V52.008C96,27.7421,76.2615,8,52,8z M52,80
		c-17.672,0-32-14.328-32-32s14.328-32,32-32s32,14.328,32,32S69.672,80,52,80z"/>
	<path fill="#89714D" d="M96,92H56v60.5665c6.8907,1.7852,12,7.9884,12,15.4335c0,8.836-7.164,16-16,16s-16-7.164-16-16
		c0-7.4451,5.1091-13.6483,12-15.4335V92H8v100h88V92z"/>
	<rect x="8" y="200" fill="#89714D" width="88" height="20"/>
	<path fill="#50CCD3" d="M52,24c-13.2345,0-24,10.7657-24,24c0,13.2345,10.7655,24,24,24c13.2343,0,24-10.7655,24-24
		C76,34.7657,65.2343,24,52,24z M54.828,50.828l-10,10C44.0467,61.6093,43.0235,62,42,62c-1.0237,0-2.0469-0.3907-2.828-1.172
		c-1.5629-1.5623-1.5629-4.0935,0-5.656l8.0859-8.0859l-4.9336-11.5116c-0.8712-2.0276,0.07-4.3792,2.1012-5.25
		c2.012-0.8828,4.3828,0.0624,5.25,2.1012l6,14C56.3203,47.9257,55.9843,49.672,54.828,50.828z"/>
	<path fill="#3BABB7" d="M52,16c-17.672,0-32,14.328-32,32s14.328,32,32,32s32-14.328,32-32S69.672,16,52,16z M52,72
		c-13.2345,0-24-10.7655-24-24c0-13.2343,10.7655-24,24-24c13.2343,0,24,10.7657,24,24C76,61.2345,65.2343,72,52,72z"/>
	<path fill="#FFDC82" d="M52,152c1.3907,0,2.7147,0.2345,4,0.5665V92h-8v60.5665C49.2851,152.2345,50.6091,152,52,152z"/>
	<path fill="#D793FD" d="M48,152.5665c-6.8909,1.7852-12,7.9884-12,15.4335c0,8.836,7.164,16,16,16s16-7.164,16-16
		c0-7.4451-5.1093-13.6483-12-15.4335C54.7147,152.2345,53.3907,152,52,152C50.6091,152,49.2851,152.2345,48,152.5665z"/>
	<path fill="#9D57C4" d="M49.6755,32.4257c-0.8672-2.0388-3.238-2.984-5.25-2.1012c-2.0312,0.8708-2.9724,3.2224-2.1012,5.25
		l4.9336,11.5116L39.172,55.172c-1.5629,1.5625-1.5629,4.0937,0,5.656C39.9531,61.6093,40.9763,62,42,62
		c1.0235,0,2.0467-0.3907,2.828-1.172l10-10c1.1563-1.156,1.4923-2.9023,0.8475-4.4023L49.6755,32.4257z"/>
</g>
</svg>
