<?xml version="1.0" encoding="utf-8"?>
<!-- Generator: Adobe Illustrator 19.2.0, SVG Export Plug-In . SVG Version: 6.00 Build 0)  -->
<svg version="1.1" id="closedgarage" xmlns="http://www.w3.org/2000/svg" xmlns:xlink="http://www.w3.org/1999/xlink" x="0px"
	 y="0px" viewBox="0 0 232.0001 207.9999" enable-background="new 0 0 232.0001 207.9999" xml:space="preserve">
<g>
	<rect x="44.0001" y="191.9999" fill="none" width="144" height="8"/>
	<rect x="4.0001" y="199.9999" fill="#456782" width="12" height="8"/>
	<rect x="216.0001" y="199.9999" fill="#456782" width="12" height="8"/>
	<rect x="44.0001" y="199.9999" fill="#456782" width="144" height="8"/>
	<rect x="44.0001" y="71.9999" fill="#E2B09D" width="144" height="16"/>
	<rect x="44.0001" y="87.9999" fill="#FCD1C0" width="144" height="24"/>
	<rect x="44.0001" y="111.9999" fill="#E2B09D" width="144" height="24"/>
	<rect x="44.0001" y="135.9999" fill="#FCD1C0" width="144" height="24"/>
	<rect x="44.0001" y="159.9999" fill="#E2B09D" width="144" height="32"/>
	<polygon fill="#89714D" points="188.0001,71.9999 188.0001,87.9999 188.0001,111.9999 188.0001,135.9999 188.0001,159.9999 
		188.0001,191.9999 188.0001,199.9999 188.0001,207.9999 216.0001,207.9999 216.0001,199.9999 216.0001,71.9999 	"/>
	<polygon fill="#89714D" points="44.0001,191.9999 44.0001,159.9999 44.0001,135.9999 44.0001,111.9999 44.0001,87.9999 
		44.0001,71.9999 16.0001,71.9999 16.0001,199.9999 16.0001,207.9999 44.0001,207.9999 44.0001,199.9999 	"/>
	<path fill="#E06C3E" d="M229.9844,64.5271l-112-64c-1.2304-0.7028-2.7384-0.7028-3.9688,0l-112,64
		c-1.574,0.8984-2.3475,2.7464-1.8808,4.5c0.4648,1.754,2.0508,2.9728,3.8653,2.9728h12h28h144h28h12
		c1.8143,0,3.4003-1.2188,3.8651-2.9728C232.3321,67.2735,231.5584,65.4255,229.9844,64.5271z"/>
</g>
</svg>
