<?xml version="1.0" encoding="utf-8"?>
<!-- Generator: Adobe Illustrator 19.2.0, SVG Export Plug-In . SVG Version: 6.00 Build 0)  -->
<svg version="1.1" id="closet" xmlns="http://www.w3.org/2000/svg" xmlns:xlink="http://www.w3.org/1999/xlink" x="0px" y="0px"
	 viewBox="0 0 176 192" enable-background="new 0 0 176 192" xml:space="preserve">
<g>
	<path fill="#FCD1C0" d="M88,0H0v104h88V0z M68,68c-6.6173,0-12-5.3828-12-12s5.3827-12,12-12c6.6171,0,12,5.3828,12,12
		S74.6171,68,68,68z"/>
	<path fill="#FFE9E1" d="M92,0h-4v104h88V0H92z M108,68c-6.6173,0-12-5.3828-12-12s5.3827-12,12-12c6.6171,0,12,5.3828,12,12
		S114.6171,68,108,68z"/>
	<path fill="#E1AD99" d="M88,104H0v8v32h176v-32v-8H88z M88,140c-6.6173,0-12-5.3828-12-12s5.3827-12,12-12
		c6.6171,0,12,5.3828,12,12S94.6171,140,88,140z"/>
	<path fill="#FCD1C0" d="M0,152v40h176v-40v-8H0V152z M88,180c-6.6173,0-12-5.3828-12-12s5.3827-12,12-12c6.6171,0,12,5.3828,12,12
		S94.6171,180,88,180z"/>
	<path fill="#FE8657" d="M68,44c-6.6173,0-12,5.3828-12,12s5.3827,12,12,12c6.6171,0,12-5.3828,12-12S74.6171,44,68,44z"/>
	<path fill="#FE8657" d="M108,44c-6.6173,0-12,5.3828-12,12s5.3827,12,12,12c6.6171,0,12-5.3828,12-12S114.6171,44,108,44z"/>
	<path fill="#FE8657" d="M88,116c-6.6173,0-12,5.3828-12,12s5.3827,12,12,12c6.6171,0,12-5.3828,12-12S94.6171,116,88,116z"/>
	<path fill="#FE8657" d="M88,156c-6.6173,0-12,5.3828-12,12s5.3827,12,12,12c6.6171,0,12-5.3828,12-12S94.6171,156,88,156z"/>
</g>
</svg>
