<?xml version="1.0" encoding="utf-8"?>
<!-- Generator: Adobe Illustrator 19.2.0, SVG Export Plug-In . SVG Version: 6.00 Build 0)  -->
<svg version="1.1" id="closet2" xmlns="http://www.w3.org/2000/svg" xmlns:xlink="http://www.w3.org/1999/xlink" x="0px" y="0px"
	 viewBox="0 0 148 180" enable-background="new 0 0 148 180" xml:space="preserve">
<g>
	<path fill="#BC9A67" d="M4,40h140c1.9607,0,3.5155,1.4376,3.8591,3.2968c-0.0271-0.1484,0.016-0.2988-0.0271-0.4452l-12-40
		C135.3243,1.1584,133.7655,0,132,0H16c-1.7657,0-3.3245,1.1584-3.832,2.8516l-12,40c-0.0429,0.1464,0,0.2968-0.0273,0.4472
		C0.4843,41.4376,2.0391,40,4,40z"/>
	<path fill="#89714D" d="M147.8591,43.2968C147.5155,41.4376,145.9607,40,144,40H4c-1.9609,0-3.5157,1.4376-3.8593,3.2988
		C0.0975,43.5352,0,43.75,0,44v44c0-2.2088,1.7891-4,4-4h140c2.2107,0,4,1.7912,4,4V44C148,43.75,147.9023,43.5352,147.8591,43.2968
		z M84,60H60v-8h24V60z"/>
	<path fill="#A48659" d="M144,84H4c-2.2109,0-4,1.7912-4,4v44c0-2.2088,1.7891-4,4-4h140c2.2107,0,4,1.7912,4,4V88
		C148,85.7912,146.2107,84,144,84z M84,104H60v-8h24V104z"/>
	<path fill="#89714D" d="M144,128H4c-2.2109,0-4,1.7912-4,4v44c0,2.2088,1.7891,4,4,4h140c2.2107,0,4-1.7912,4-4v-44
		C148,129.7912,146.2107,128,144,128z M84,148H60v-8h24V148z"/>
	<rect x="60" y="52" fill="#FFE9E1" width="24" height="8"/>
	<rect x="60" y="96" fill="#FFE9E1" width="24" height="8"/>
	<rect x="60" y="140" fill="#FFE9E1" width="24" height="8"/>
</g>
</svg>
