<?xml version="1.0" encoding="utf-8"?>
<!-- Generator: Adobe Illustrator 19.2.0, SVG Export Plug-In . SVG Version: 6.00 Build 0)  -->
<svg version="1.1" id="coffeetable" xmlns="http://www.w3.org/2000/svg" xmlns:xlink="http://www.w3.org/1999/xlink" x="0px"
	 y="0px" viewBox="0 0 196 188" enable-background="new 0 0 196 188" xml:space="preserve">
<g>
	<path fill="#456782" d="M112,168c0,2.2108-1.7893,4-4,4H88c-2.2109,0-4-1.7892-4-4v-15.0508C69.9255,154.918,56,160.2736,56,170
		c0,11.8164,21.1287,18,42,18c20.8711,0,42-6.1836,42-18c0-8.2656-10.4609-14.6092-28-17.0468V168z"/>
	<path fill="#4A8F9E" d="M84,103.59v49.3592V168c0,2.2108,1.7891,4,4,4h20c2.2107,0,4-1.7892,4-4v-15.0468V103.59
		c-4.5781,0.246-9.2265,0.41-14,0.41C93.2263,104,88.5779,103.836,84,103.59z"/>
	<path fill="#FCC24C" d="M98,76C45.7383,76,5.508,61.7032,0.5271,42.1248C0.2187,42.6916,0,43.3084,0,44v24
		c0,0.6248,0.1563,1.2148,0.4295,1.7384C4.5703,87.5312,39.1251,101.2032,84,103.59c4.5779,0.246,9.2263,0.41,14,0.41
		c4.7735,0,9.4219-0.164,14-0.41c44.7735-2.3792,79.2811-15.9964,83.5427-33.7344C195.836,69.3008,196,68.668,196,68V44
		c0-0.6916-0.2189-1.3084-0.5273-1.8752C190.492,61.7032,150.2615,76,98,76z"/>
	<path fill="#F8A131" d="M98,76c52.2615,0,92.492-14.2968,97.4727-33.8752C195.8163,40.7736,196,39.3984,196,38
		c0-21.664-42.1289-38-98-38C42.1287,0,0,16.336,0,38c0,1.3984,0.1835,2.7736,0.5271,4.1248C5.508,61.7032,45.7383,76,98,76z
		 M83.4139,23.914c1.1524,1.8868,0.5588,4.3476-1.328,5.5l-36,22C45.4335,51.8124,44.7147,52,44.004,52
		c-1.3477,0-2.664-0.6796-3.4181-1.914c-1.1524-1.8868-0.5588-4.3476,1.328-5.5l36-22
		C79.8047,21.4336,82.2655,22.0272,83.4139,23.914z M35.9415,30.5704l20-12c1.8985-1.1408,4.3512-0.5196,5.488,1.3712
		c1.1368,1.8944,0.5236,4.3512-1.3712,5.488l-20,12C39.4139,37.8164,38.7031,38,38.004,38c-1.3597,0-2.6837-0.6916-3.4337-1.9416
		C33.4335,34.164,34.0467,31.7072,35.9415,30.5704z"/>
	<path fill="#FFDC82" d="M38.004,38c0.6991,0,1.4099-0.1836,2.0543-0.5704l20-12c1.8948-1.1368,2.508-3.5936,1.3712-5.488
		c-1.1368-1.8908-3.5895-2.512-5.488-1.3712l-20,12c-1.8948,1.1368-2.508,3.5936-1.3712,5.488C35.3203,37.3084,36.6443,38,38.004,38
		z"/>
	<path fill="#FFDC82" d="M41.9139,44.586c-1.8868,1.1524-2.4804,3.6132-1.328,5.5C41.34,51.3204,42.6563,52,44.004,52
		c0.7107,0,1.4295-0.1876,2.0819-0.586l36-22c1.8868-1.1524,2.4804-3.6132,1.328-5.5c-1.1484-1.8868-3.6092-2.4804-5.5-1.328
		L41.9139,44.586z"/>
</g>
</svg>
