<?xml version="1.0" encoding="utf-8"?>
<!-- Generator: Adobe Illustrator 19.2.0, SVG Export Plug-In . SVG Version: 6.00 Build 0)  -->
<svg version="1.1" id="couch" xmlns="http://www.w3.org/2000/svg" xmlns:xlink="http://www.w3.org/1999/xlink" x="0px" y="0px"
	 viewBox="0 0 232 120" enable-background="new 0 0 232 120" xml:space="preserve">
<g>
	<path fill="#63B473" d="M92,12v52c0,1.41-0.2893,2.742-0.7385,4h49.4768C140.2891,66.742,140,65.41,140,64V12
		c0-3.5292,1.5623-6.6756,4-8.8732C141.8671,1.2052,139.0703,0,135.9763,0H96.0235C92.9295,0,90.1327,1.2052,88,3.1268
		C90.4375,5.3244,92,8.4708,92,12z"/>
	<path fill="#49A25A" d="M36,48v20h55.2615C91.7107,66.742,92,65.41,92,64V12c0-3.5292-1.5625-6.6756-4-8.8732
		C85.8671,1.2052,83.0703,0,79.9763,0H40.0235C33.3943,0,28,5.3828,28,12v32h4C34.2087,44,36,45.7912,36,48z"/>
	<path fill="#49A25A" d="M140,12v52c0,1.41,0.2891,2.742,0.7383,4H196V48c0-2.2088,1.7911-4,4-4h4V12c0-6.6172-5.3945-12-12.0237-12
		h-39.9528c-3.094,0-5.8908,1.2052-8.0235,3.1268C141.5623,5.3244,140,8.4708,140,12z"/>
	<path fill="#50CCD3" d="M28,100V72c0-2.2088,1.7911-4,4-4h4V48c0-2.2088-1.7913-4-4-4h-4H4c-2.2089,0-4,1.7912-4,4v52
		c0,2.2088,1.7911,4,4,4h28C29.7911,104,28,102.2088,28,100z"/>
	<polygon fill="#4F676D" points="44,120 60,120 68,104 44,104 	"/>
	<polygon fill="#4F676D" points="172,120 188,120 188,104 164,104 	"/>
	<path fill="#50CCD3" d="M228,44h-24h-4c-2.2089,0-4,1.7912-4,4v20h4c2.2087,0,4,1.7912,4,4v28c0,2.2088-1.7913,4-4,4h28
		c2.2087,0,4-1.7912,4-4V48C232,45.7912,230.2087,44,228,44z"/>
	<path fill="#3BABB7" d="M204,100V72c0-2.2088-1.7913-4-4-4h-4h-55.2617H91.2615H36h-4c-2.2089,0-4,1.7912-4,4v28
		c0,2.2088,1.7911,4,4,4h12h24h96h24h12C202.2087,104,204,102.2088,204,100z"/>
</g>
</svg>
