<?xml version="1.0" encoding="utf-8"?>
<!-- Generator: Adobe Illustrator 19.2.0, SVG Export Plug-In . SVG Version: 6.00 Build 0)  -->
<svg version="1.1" id="deliverybox" xmlns="http://www.w3.org/2000/svg" xmlns:xlink="http://www.w3.org/1999/xlink" x="0px"
	 y="0px" viewBox="0 0 208 176" enable-background="new 0 0 208 176" xml:space="preserve">
<g>
	<path fill="#E1AD99" d="M8,159.9764C8,168.8516,15.1795,176,24.0391,176h159.9216C192.8243,176,200,168.828,200,159.9764V80H8
		V159.9764z M116,96h52.1795v8H116V96z M116,108h52.1795v8H116V108z"/>
	<path fill="#FCD1C0" d="M207.9803,27.8984c0.008,0.3908-0.0156,0.7812-0.1248,1.168C207.3751,30.8008,205.7967,32,204,32H4
		c-1.7969,0-3.3749-1.1992-3.8557-2.9336c-0.1092-0.3868-0.1328-0.7812-0.1248-1.168C0.0195,27.9336,0,27.9648,0,28v48
		c0,2.2108,1.7891,4,4,4h4h192h4c2.2107,0,4-1.7892,4-4V28C208,27.9648,207.9803,27.9336,207.9803,27.8984z"/>
	<path fill="#FCD1C0" d="M207.5507,26.242c0.0392,0.0824,0.1093,0.1524,0.1444,0.2384
		C207.6563,26.3908,207.5935,26.3244,207.5507,26.242z"/>
	<path fill="#FCD1C0" d="M0.3047,26.4804c0.0353-0.086,0.1016-0.156,0.1444-0.2384C0.4063,26.328,0.3435,26.3944,0.3047,26.4804z"/>
	<path fill="#FCD1C0" d="M1.0859,25.2968c0.1172-0.1248,0.2616-0.2224,0.3944-0.336C1.3435,25.0744,1.2031,25.168,1.0859,25.2968z"
		/>
	<path fill="#FCD1C0" d="M206.5195,24.9608c0.1328,0.1136,0.2772,0.2112,0.3944,0.336
		C206.7967,25.168,206.6563,25.0744,206.5195,24.9608z"/>
	<path fill="#FFE9E1" d="M4,32h200c1.7967,0,3.3751-1.1992,3.8555-2.9336c0.1092-0.3868,0.1328-0.7772,0.1248-1.168
		c-0.0116-0.4884-0.1016-0.9688-0.2852-1.418c-0.0351-0.086-0.1052-0.156-0.1444-0.2384c-0.168-0.3436-0.3712-0.66-0.6368-0.9452
		c-0.1172-0.1248-0.2616-0.2224-0.3944-0.336c-0.1564-0.1288-0.2852-0.2852-0.4612-0.3904l-40-24C165.4375,0.1952,164.7263,0,164,0
		H44c-0.7265,0-1.4377,0.1952-2.0585,0.5704l-40,24c-0.18,0.1052-0.3048,0.2616-0.4612,0.3904
		c-0.1328,0.1136-0.2772,0.2112-0.3944,0.336c-0.2656,0.2852-0.4688,0.6056-0.6368,0.9452
		c-0.0428,0.0824-0.1091,0.1524-0.1444,0.2384c-0.1836,0.4492-0.2736,0.926-0.2852,1.418c-0.008,0.3868,0.0156,0.7812,0.1248,1.168
		C0.6251,30.8008,2.2031,32,4,32z"/>
	<rect x="116" y="96" fill="#FFDC82" width="52.1795" height="8"/>
	<rect x="116" y="108" fill="#FFDC82" width="52.1795" height="8"/>
</g>
</svg>
