<?xml version="1.0" encoding="utf-8"?>
<!-- Generator: Adobe Illustrator 19.2.0, SVG Export Plug-In . SVG Version: 6.00 Build 0)  -->
<svg version="1.1" id="desk3" xmlns="http://www.w3.org/2000/svg" xmlns:xlink="http://www.w3.org/1999/xlink" x="0px" y="0px"
	 viewBox="0 0 232 128" enable-background="new 0 0 232 128" xml:space="preserve">
<g>
	<path fill="#BC9A67" d="M72,60H16V20H8v44v39.9668C8,110.6016,13.3731,116,19.9763,116H20h8h32h8h0.0235
		C74.6267,116,80,110.6016,80,103.9668V64V20h-8V60z M72,103.9668C72,106.1916,70.2167,108,68.0235,108H68h-8H28h-8h-0.0237
		C17.7831,108,16,106.1916,16,103.9668V68h56V103.9668z"/>
	<path fill="#BC9A67" d="M216,60h-56V20h-8v44v39.9668C152,110.6016,157.3731,116,163.9763,116H164h8h32h8h0.0235
		C218.6267,116,224,110.6016,224,103.9668V64V20h-8V60z M216,103.9668c0,2.2248-1.7833,4.0332-3.9765,4.0332H212h-8h-32h-8h-0.0237
		c-2.1932,0-3.9763-1.8084-3.9763-4.0332V68h56V103.9668z"/>
	<rect x="20" y="116" fill="#A48659" width="8" height="12"/>
	<rect x="164" y="116" fill="#A48659" width="8" height="12"/>
	<rect x="60" y="116" fill="#A48659" width="8" height="12"/>
	<rect x="204" y="116" fill="#A48659" width="8" height="12"/>
	<rect x="16" y="20" fill="#89714D" width="56" height="40"/>
	<rect x="160" y="20" fill="#89714D" width="56" height="40"/>
	<path fill="#89714D" d="M16,103.9668C16,106.1916,17.7831,108,19.9763,108H20h8h32h8h0.0235C70.2167,108,72,106.1916,72,103.9668
		V68H16V103.9668z"/>
	<path fill="#89714D" d="M160,103.9668c0,2.2248,1.7831,4.0332,3.9763,4.0332H164h8h32h8h0.0235
		c2.1932,0,3.9765-1.8084,3.9765-4.0332V68h-56V103.9668z"/>
	<path fill="#A48659" d="M224.0135,0H7.9863C3.5507,0,0,3.5916,0,8.0196v3.9608C0,16.424,3.576,20,7.9863,20H8h8h56h8h72h8h56h8
		h0.0135C228.4491,20,232,16.4084,232,11.9804V8.0196C232,3.576,228.424,0,224.0135,0z"/>
</g>
</svg>
