<?xml version="1.0" encoding="utf-8"?>
<!-- Generator: Adobe Illustrator 19.2.0, SVG Export Plug-In . SVG Version: 6.00 Build 0)  -->
<svg version="1.1" id="deskchair" xmlns="http://www.w3.org/2000/svg" xmlns:xlink="http://www.w3.org/1999/xlink" x="0px" y="0px"
	 viewBox="0 0 172 228" enable-background="new 0 0 172 228" xml:space="preserve">
<g>
	<path fill="#A9C7D8" d="M100,120.3944V108H72v12.3944C78.8983,120.0352,84.2735,120,86,120
		C87.7263,120,93.1015,120.0352,100,120.3944z"/>
	<path fill="#A9C7D8" d="M72,194.758c4.5743-0.4984,9.3203-0.758,14-0.758c4.6795,0,9.4255,0.2596,14,0.758V164H72V194.758z"/>
	<path fill="#618287" d="M132,108c1.1171,0,2.1835-0.4668,2.9375-1.2872c0.7576-0.8204,1.1404-1.92,1.0508-3.0312l-8-100
		C127.8203,1.6016,126.0859,0,124,0H48c-2.0861,0-3.8205,1.6016-3.9885,3.6816l-8,100c-0.0896,1.1112,0.2932,2.2108,1.0508,3.0312
		C37.8163,107.5332,38.8827,108,40,108h32h28H132z M68,24h36v8H68V24z M68,48h36v8H68V48z M68,76h36v8H68V76z"/>
	<path fill="#456782" d="M142.9647,142.6036c-1.4412-1.678-1.246-4.2032,0.4336-5.6408l4.0548-3.4764
		c-4.0352-9.3108-30.4104-12.2012-47.4531-13.092C93.1015,120.0352,87.7263,120,86,120c-1.7265,0-7.1017,0.0352-14,0.3944
		c-17.0821,0.8928-43.5393,3.7952-47.4765,13.1604l4.0192,3.4472c1.68,1.4376,1.8752,3.9628,0.4336,5.6404
		c-0.7888,0.922-1.91,1.3968-3.0348,1.3968c-0.676,0-1.3324-0.2308-1.9415-0.5764V160c0,2.2088,1.7891,4,4,4h44h28h44
		c2.2107,0,4-1.7912,4-4v-16.6112c-0.6249,0.3692-1.3009,0.6112-2,0.6112C144.8751,144,143.7539,143.5252,142.9647,142.6036z"/>
	<path fill="#618287" d="M28.9763,142.6424c1.4416-1.6776,1.2464-4.2028-0.4336-5.6404l-4.0192-3.4472l-8.582-7.3556v-30.16
		c0-0.014-0.008-0.0256-0.008-0.0392H24v-8H0v8h7.9491c0,0.0136-0.0076,0.0252-0.0076,0.0392v32
		c0,1.168,0.5116,2.2772,1.3985,3.0368l14,12c0.1991,0.172,0.4371,0.26,0.66,0.3868c0.6091,0.3456,1.2655,0.5764,1.9415,0.5764
		C27.0663,144.0392,28.1875,143.5644,28.9763,142.6424z"/>
	<path fill="#618287" d="M148,88v8h8v30.16l-8.5469,7.3264l-4.0548,3.4764c-1.6796,1.4376-1.8748,3.9628-0.4336,5.6408
		C143.7539,143.5252,144.8751,144,146,144c0.6991,0,1.3751-0.242,2-0.6112c0.1991-0.1192,0.4179-0.1936,0.6015-0.3516l14-12
		C163.4883,130.2772,164,129.168,164,128V96h8v-8H148z"/>
	<path fill="#618287" d="M72,194.758c-8.4453,0.9216-16.2697,2.6992-21.8049,5.4256C50.7891,200.0916,51.3827,200,52,200
		c3.8435,0,7.2343,1.8496,9.4295,4.668c4.414-1.1152,10.1016-2.0448,17.0705-2.4472C80.672,200.832,83.2343,200,86,200
		c2.7655,0,5.328,0.832,7.5,2.2208c6.9687,0.4024,12.6563,1.332,17.0703,2.4472c2.1952-2.8184,5.586-4.668,9.4297-4.668
		c0.6171,0,1.2107,0.0916,1.8047,0.1836c-5.5352-2.7264-13.3596-4.504-21.8047-5.4256C95.4255,194.2596,90.6795,194,86,194
		C81.3203,194,76.5743,194.2596,72,194.758z"/>
	<path fill="#456782" d="M52,200c-0.6173,0-1.2109,0.0916-1.8049,0.1836C44.4375,201.0604,40,206,40,212c0,6.6172,5.3827,12,12,12
		c6.6171,0,12-5.3828,12-12c0-2.7736-0.9845-5.2968-2.5705-7.332C59.2343,201.8496,55.8435,200,52,200z"/>
	<path fill="#456782" d="M78.5,202.2208c-3.8945,2.488-6.5,6.826-6.5,11.7792c0,7.7188,6.2811,14,14,14c7.7187,0,14-6.2812,14-14
		c0-4.9532-2.6057-9.2912-6.5-11.7792C91.328,200.832,88.7655,200,86,200C83.2343,200,80.672,200.832,78.5,202.2208z"/>
	<path fill="#456782" d="M110.5703,204.668C108.9843,206.7032,108,209.2264,108,212c0,6.6172,5.3827,12,12,12
		c6.6171,0,12-5.3828,12-12c0-6-4.4377-10.9396-10.1953-11.8164C121.2107,200.0916,120.6171,200,120,200
		C116.1563,200,112.7655,201.8496,110.5703,204.668z"/>
	<rect x="68" y="24" fill="#FFDC82" width="36" height="8"/>
	<rect x="68" y="48" fill="#FFDC82" width="36" height="8"/>
	<rect x="68" y="76" fill="#FFDC82" width="36" height="8"/>
</g>
</svg>
