<?xml version="1.0" encoding="utf-8"?>
<!-- Generator: Adobe Illustrator 19.2.0, SVG Export Plug-In . SVG Version: 6.00 Build 0)  -->
<svg version="1.1" id="deskoffice" xmlns="http://www.w3.org/2000/svg" xmlns:xlink="http://www.w3.org/1999/xlink" x="0px" y="0px"
	 viewBox="0 0 204.0663 189.9979" enable-background="new 0 0 204.0663 189.9979" xml:space="preserve">
<g>
	<path fill="#49A25A" d="M185.492,35.3612C181.9843,13.744,156.8555,0.9552,155.7891,0.42
		c-1.9728-0.9804-4.3712-0.1876-5.3636,1.7852c-0.988,1.9724-0.1912,4.3788,1.7816,5.3672c0.0156,0.0076,0.156,0.082,0.3672,0.1952
		l-11.2032,11.2032l-3.0276,3.0271L144,27.6544l3.0271-3.0276l12.4844-12.4844c6.8556,4.9064,16.3128,13.504,18.086,24.5275
		c1.4804,9.1837-2.6992,18.7733-12.4255,28.5c-0.2465,0.2461-0.3829,0.5429-0.5509,0.828h10.6092
		C183.6835,55.8848,187.1523,45.6036,185.492,35.3612z"/>
	<path fill="#2F4556" d="M204.0663,65.9979H204h-8h-20.7697h-10.6092H92H76H24H4c-2.2109,0-4,1.7893-4,4v88v16v16h8v-12h16h68
		c2.2107,0,4-1.7891,4-4v-100h100v116h8v-116h0.0663V65.9979z M80,137.9979h-8v-28h8V137.9979z"/>
	<rect x="72" y="109.9979" fill="#7BE5E4" width="8" height="28"/>
	<path fill="#FE7D71" d="M138.3435,21.9979l3.0276-3.0271c-9.3711-6.668-22.422-5.8636-30.8284,2.5428l33.9416,33.9416
		c8.4064-8.4064,9.2108-21.4573,2.5428-30.8284L144,27.6544L138.3435,21.9979z"/>
</g>
</svg>
