<?xml version="1.0" encoding="utf-8"?>
<!-- Generator: Adobe Illustrator 19.2.0, SVG Export Plug-In . SVG Version: 6.00 Build 0)  -->
<svg version="1.1" id="dishesmachine" xmlns="http://www.w3.org/2000/svg" xmlns:xlink="http://www.w3.org/1999/xlink" x="0px"
	 y="0px" viewBox="0 0 184 200" enable-background="new 0 0 184 200" xml:space="preserve">
<g>
	<path fill="#3BABB7" d="M171.9803,0H12.0195C5.3907,0,0,5.3869,0,12.004v175.992C0,194.6133,5.3907,200,12.0195,200h159.9608
		C178.6091,200,184,194.6133,184,187.996V12.004C184,5.3869,178.6091,0,171.9803,0z M164,188H20v-8h144V188z M92,52
		c26.4687,0,48,21.5313,48,48c0,26.4689-21.5313,48-48,48c-26.4689,0-48-21.5311-48-48C44,73.5313,65.5311,52,92,52z M44,36v-8h12v8
		H44z M124,36v-8h12v8H124z M164,20H20v-8h144V20z"/>
	<rect x="20" y="12" fill="#7BE5E4" width="144" height="8"/>
	<rect x="20" y="180" fill="#7BE5E4" width="144" height="8"/>
	<rect x="124" y="28" fill="#D8F768" width="12" height="8"/>
	<rect x="44" y="28" fill="#D8F768" width="12" height="8"/>
	<path fill="#4F676D" d="M92,148c26.4687,0,48-21.5311,48-48c0-26.4687-21.5313-48-48-48c-26.4689,0-48,21.5313-48,48
		C44,126.4689,65.5311,148,92,148z M96,104v-8h8h16v8h-16v4h-8V104z"/>
	<polygon fill="#B976DD" points="104,104 120,104 120,96 104,96 96,96 96,104 96,108 104,108 	"/>
</g>
</svg>
