<?xml version="1.0" encoding="utf-8"?>
<!-- Generator: Adobe Illustrator 19.2.0, SVG Export Plug-In . SVG Version: 6.00 Build 0)  -->
<svg version="1.1" id="doublebed" xmlns="http://www.w3.org/2000/svg" xmlns:xlink="http://www.w3.org/1999/xlink" x="0px" y="0px"
	 viewBox="0 0 232 144" enable-background="new 0 0 232 144" xml:space="preserve">
<g>
	<path fill="#4A8F9E" d="M232,79.9845C232,71.1877,224.8203,64,215.9627,64H212v8h-28h-60h-16H48H20v-8h-3.9629
		C7.1971,64,0,71.1565,0,79.9845V112h8v-6v-2h216v2v6h8V79.9845z"/>
	<rect x="8" y="124" fill="#4F676D" width="12" height="20"/>
	<rect x="212" y="124" fill="#4F676D" width="12" height="20"/>
	<polygon fill="#9AB040" points="224,104 8,104 8,106 8,112 8,124 20,124 212,124 224,124 224,112 224,106 	"/>
	<path fill="#E1AD99" d="M48,72V44c0,0,20-8,30-8s30,8,30,8v28h16V44c0,0,20-8,30-8s30,8,30,8v28h28v-8V36
		c0-19.8867-16.1193-36-36.0021-36H56.0019C36.1211,0,20,16.1173,20,36v28v8H48z"/>
	<path fill="#FD5A5A" d="M108,44c0,0-20-8-30-8s-30,8-30,8v28h60V44z"/>
	<path fill="#FD5A5A" d="M184,44c0,0-20-8-30-8s-30,8-30,8v28h60V44z"/>
</g>
</svg>
