<?xml version="1.0" encoding="utf-8"?>
<!-- Generator: Adobe Illustrator 19.2.0, SVG Export Plug-In . SVG Version: 6.00 Build 0)  -->
<svg version="1.1" id="doublecouch" xmlns="http://www.w3.org/2000/svg" xmlns:xlink="http://www.w3.org/1999/xlink" x="0px"
	 y="0px" viewBox="0 0 216 120" enable-background="new 0 0 216 120" xml:space="preserve">
<g>
	<path fill="#FF8AAC" d="M39.9903,68h60.0192C102.2107,68,104,66.2052,104,64V12c0-2.2052-1.7893-4-3.9905-4H39.9903
		C37.7891,8,36,9.7948,36,12v36v16C36,66.2052,37.7891,68,39.9903,68z M61.172,34.828c-1.5629-1.5624-1.5629-4.0936,0-5.656
		c1.5623-1.5628,4.0935-1.5628,5.656,0L70,32.3436l3.172-3.1716c1.5623-1.5628,4.0935-1.5628,5.656,0
		c1.5627,1.5624,1.5627,4.0936,0,5.656L75.6563,38l3.1717,3.172c1.5627,1.5624,1.5627,4.0936,0,5.656
		C78.0467,47.6092,77.0235,48,76,48c-1.0237,0-2.0469-0.3908-2.828-1.172L70,43.6564l-3.172,3.1716
		C66.0467,47.6092,65.0235,48,64,48c-1.0237,0-2.0469-0.3908-2.828-1.172c-1.5629-1.5624-1.5629-4.0936,0-5.656L64.3435,38
		L61.172,34.828z"/>
	<path fill="#FF8AAC" d="M176.0095,8h-60.0192C113.7891,8,112,9.7948,112,12v52c0,2.2052,1.7891,4,3.9903,4h60.0192
		C178.2107,68,180,66.2052,180,64V48V12C180,9.7948,178.2107,8,176.0095,8z M154.828,41.172c1.5627,1.5624,1.5627,4.0936,0,5.656
		C154.0467,47.6092,153.0235,48,152,48c-1.0237,0-2.0469-0.3908-2.828-1.172L146,43.6564l-3.172,3.1716
		C142.0467,47.6092,141.0235,48,140,48c-1.0237,0-2.0469-0.3908-2.828-1.172c-1.5629-1.5624-1.5629-4.0936,0-5.656L140.3435,38
		l-3.1715-3.172c-1.5629-1.5624-1.5629-4.0936,0-5.656c1.5623-1.5628,4.0935-1.5628,5.656,0L146,32.3436l3.172-3.1716
		c1.5623-1.5628,4.0935-1.5628,5.656,0c1.5627,1.5624,1.5627,4.0936,0,5.656L151.6563,38L154.828,41.172z"/>
	<path fill="#FF6B97" d="M28,100V72c0-2.2088,1.7911-4,4-4h4v-4V48c0-2.2088-1.7913-4-4-4h-4H4c-2.2089,0-4,1.7912-4,4v52
		c0,2.2088,1.7911,4,4,4h28C29.7911,104,28,102.2088,28,100z"/>
	<polygon fill="#4F676D" points="36,120 52,120 60,104 36,104 	"/>
	<polygon fill="#4F676D" points="164,120 180,120 180,104 156,104 	"/>
	<path fill="#FF6B97" d="M212,44h-24h-4c-2.2089,0-4,1.7912-4,4v16v4h4c2.2087,0,4,1.7912,4,4v28c0,2.2088-1.7913,4-4,4h28
		c2.2087,0,4-1.7912,4-4V48C216,45.7912,214.2087,44,212,44z"/>
	<path fill="#FF427A" d="M188,100V72c0-2.2088-1.7913-4-4-4h-4v-4c0,2.2052-1.7893,4-3.9905,4h-60.0192
		C113.7891,68,112,66.2052,112,64V12c0-2.2052,1.7891-4,3.9903-4h60.0192C178.2107,8,180,9.7948,180,12v36c0-2.2088,1.7911-4,4-4h4
		V12c0-6.6172-5.3789-12-11.9905-12h-60.0192c-3.0804,0-5.8652,1.2012-7.9903,3.1192C105.8751,1.2012,103.0899,0,100.0095,0H39.9903
		C33.3787,0,28,5.3828,28,12v32h4c2.2087,0,4,1.7912,4,4V12c0-2.2052,1.7891-4,3.9903-4h60.0192C102.2107,8,104,9.7948,104,12v52
		c0,2.2052-1.7893,4-3.9905,4H39.9903C37.7891,68,36,66.2052,36,64v4h-4c-2.2089,0-4,1.7912-4,4v28c0,2.2088,1.7911,4,4,4h4h24h96
		h24h4C186.2087,104,188,102.2088,188,100z"/>
	<path fill="#FFE9E1" d="M61.172,46.828C61.9531,47.6092,62.9763,48,64,48c1.0235,0,2.0467-0.3908,2.828-1.172L70,43.6564
		l3.172,3.1716C73.9531,47.6092,74.9763,48,76,48c1.0235,0,2.0467-0.3908,2.828-1.172c1.5627-1.5624,1.5627-4.0936,0-5.656
		L75.6563,38l3.1717-3.172c1.5627-1.5624,1.5627-4.0936,0-5.656c-1.5625-1.5628-4.0937-1.5628-5.656,0L70,32.3436l-3.172-3.1716
		c-1.5625-1.5628-4.0937-1.5628-5.656,0c-1.5629,1.5624-1.5629,4.0936,0,5.656L64.3435,38l-3.1715,3.172
		C59.6091,42.7344,59.6091,45.2656,61.172,46.828z"/>
	<path fill="#FFE9E1" d="M154.828,29.172c-1.5625-1.5628-4.0937-1.5628-5.656,0L146,32.3436l-3.172-3.1716
		c-1.5625-1.5628-4.0937-1.5628-5.656,0c-1.5629,1.5624-1.5629,4.0936,0,5.656L140.3435,38l-3.1715,3.172
		c-1.5629,1.5624-1.5629,4.0936,0,5.656C137.9531,47.6092,138.9763,48,140,48c1.0235,0,2.0467-0.3908,2.828-1.172L146,43.6564
		l3.172,3.1716C149.9531,47.6092,150.9763,48,152,48c1.0235,0,2.0467-0.3908,2.828-1.172c1.5627-1.5624,1.5627-4.0936,0-5.656
		L151.6563,38l3.1717-3.172C156.3907,33.2656,156.3907,30.7344,154.828,29.172z"/>
</g>
</svg>
