<?xml version="1.0" encoding="utf-8"?>
<!-- Generator: Adobe Illustrator 19.2.0, SVG Export Plug-In . SVG Version: 6.00 Build 0)  -->
<svg version="1.1" id="doubledoor" xmlns="http://www.w3.org/2000/svg" xmlns:xlink="http://www.w3.org/1999/xlink" x="0px" y="0px"
	 viewBox="0 0 200.0411 216" enable-background="new 0 0 200.0411 216" xml:space="preserve">
<g>
	<path fill="#89714D" d="M180,0H20v208h160V0z M104,204h-8H32V12h64h8h64v192H104z"/>
	<path fill="#BC9A67" d="M32,12v192h64V12H32z M92,120.332h-8V88h8V120.332z"/>
	<path fill="#A48659" d="M104,12h-8v192h8h64V12H104z M116,120.332h-8V88h8V120.332z"/>
	<polygon fill="#4F676D" points="180,208 20,208 0,208 0,216 20,216 180,216 200.0411,216 200.0411,208 	"/>
	<rect x="108" y="88" fill="#DBEEF7" width="8" height="32.332"/>
	<rect x="84" y="88" fill="#DBEEF7" width="8" height="32.332"/>
</g>
</svg>
