<?xml version="1.0" encoding="utf-8"?>
<!-- Generator: Adobe Illustrator 19.2.0, SVG Export Plug-In . SVG Version: 6.00 Build 0)  -->
<svg version="1.1" id="drawer" xmlns="http://www.w3.org/2000/svg" xmlns:xlink="http://www.w3.org/1999/xlink" x="0px" y="0px"
	 viewBox="0 0 163.9968 180" enable-background="new 0 0 163.9968 180" xml:space="preserve">
<g>
	<path fill="#89714D" d="M11.9985,176c0,2.2088,1.7891,4,4,4h132c2.2107,0,4-1.7912,4-4v-8h-140V176z"/>
	<path fill="#BC9A67" d="M11.9985,40h140c1.9607,0,3.5155,1.4376,3.8591,3.2968c-0.0271-0.1484,0.016-0.2988-0.0271-0.4452l-12-40
		C143.3228,1.1584,141.764,0,139.9985,0h-116c-1.7657,0-3.3245,1.1584-3.832,2.8516l-12,40c-0.0429,0.1464,0,0.2968-0.0273,0.4472
		C8.4828,41.4376,10.0376,40,11.9985,40z"/>
	<polygon fill="#4F676D" points="146.0648,92 17.932,92 9.3616,112 154.6352,112 	"/>
	<path fill="#89714D" d="M151.9985,92c2.2107,0,4-1.7912,4-4V44c0-0.25-0.0977-0.4648-0.1409-0.7032
		C155.514,41.4376,153.9592,40,151.9985,40h-140c-1.9609,0-3.5157,1.4376-3.8593,3.2988C8.096,43.5352,7.9985,43.75,7.9985,44v44
		c0,2.2088,1.7891,4,4,4h5.9335h128.1328H151.9985z M91.9985,60h-24v-8h24V60z"/>
	<path fill="#A48659" d="M162.9436,113.2912c-0.7576-0.8224-1.828-1.2912-2.9451-1.2912h-5.3633H9.3616H3.9985
		c-1.1173,0-2.1877,0.4688-2.9453,1.2912c-0.754,0.824-1.1328,1.9256-1.0392,3.0408l4,48C4.186,166.4064,5.9164,168,7.9985,168h4
		h140h4c2.0819,0,3.8123-1.5936,3.9843-3.668l4-48C164.0764,115.2168,163.6976,114.1152,162.9436,113.2912z M91.9985,136h-24v-8h24
		V136z"/>
	<rect x="67.9985" y="52" fill="#FFE9E1" width="24" height="8"/>
	<rect x="67.9985" y="128" fill="#FFE9E1" width="24" height="8"/>
</g>
</svg>
