<?xml version="1.0" encoding="utf-8"?>
<!-- Generator: Adobe Illustrator 19.2.0, SVG Export Plug-In . SVG Version: 6.00 Build 0)  -->
<svg version="1.1" id="entrance" xmlns="http://www.w3.org/2000/svg" xmlns:xlink="http://www.w3.org/1999/xlink" x="0px" y="0px"
	 viewBox="0 0 232 220" enable-background="new 0 0 232 220" xml:space="preserve">
<g>
	<polygon fill="#BC9A67" points="28,12 136,12 136,212 148,212 148,12 204,12 204,212 216,212 216,0 16,0 16,212 28,212 	"/>
	<path fill="#BC9A67" d="M152,16v196h48V16H152z M161.172,37.172l10.1991-10.1972c1.5624-1.5628,4.0936-1.5628,5.656,0
		c1.5628,1.5624,1.5628,4.0956,0,5.656L166.828,42.828C166.0467,43.6092,165.0235,44,164,44c-1.0237,0-2.0469-0.3908-2.828-1.172
		C159.6091,41.2656,159.6091,38.7324,161.172,37.172z M189.0271,44.6308l-20.2968,20.2968c-0.7812,0.7812-1.8048,1.172-2.828,1.172
		c-1.0236,0-2.0468-0.3908-2.828-1.172c-1.5628-1.5624-1.5628-4.0936,0-5.656l20.2968-20.2968c1.5624-1.5628,4.0936-1.5628,5.656,0
		C190.5899,40.5372,190.5899,43.0684,189.0271,44.6308z"/>
	<path fill="#E0AC98" d="M28,12v200h108V12H28z M116,172.3204V64h8v108.3204H116z"/>
	<polygon fill="#DBEEF7" points="148,12 148,212 152,212 152,16 200,16 200,212 204,212 204,12 	"/>
	<polygon fill="#4F676D" points="216,212 204,212 200,212 152,212 148,212 136,212 28,212 16,212 0,212 0,220 16,220 28,220 
		136,220 144,220 208,220 216,220 232,220 232,212 	"/>
	<rect x="116" y="64" fill="#DBEEF7" width="8" height="108.3204"/>
	<path fill="#7BE5E4" d="M166.828,42.828l10.1991-10.1972c1.5628-1.5604,1.5628-4.0936,0-5.656
		c-1.5624-1.5628-4.0936-1.5628-5.656,0L161.172,37.172c-1.5629,1.5604-1.5629,4.0936,0,5.656C161.9531,43.6092,162.9763,44,164,44
		C165.0235,44,166.0467,43.6092,166.828,42.828z"/>
	<path fill="#7BE5E4" d="M183.3711,38.9748l-20.2968,20.2968c-1.5628,1.5624-1.5628,4.0936,0,5.656
		c0.7812,0.7812,1.8044,1.172,2.828,1.172c1.0232,0,2.0468-0.3908,2.828-1.172l20.2968-20.2968c1.5628-1.5624,1.5628-4.0936,0-5.656
		C187.4647,37.412,184.9335,37.412,183.3711,38.9748z"/>
</g>
</svg>
