<?xml version="1.0" encoding="utf-8"?>
<!-- Generator: Adobe Illustrator 19.2.0, SVG Export Plug-In . SVG Version: 6.00 Build 0)  -->
<svg version="1.1" id="entrancearrow" xmlns="http://www.w3.org/2000/svg" xmlns:xlink="http://www.w3.org/1999/xlink" x="0px"
	 y="0px" viewBox="0 0 212.9725 204" enable-background="new 0 0 212.9725 204" xml:space="preserve">
<g>
	<polygon fill="#FFDC82" points="80,26 135.3827,8 32,8 32,196 120,196 80,188 	"/>
	<path fill="#A48659" d="M80,26v162l40,8h32h8V0l-24.6173,8L80,26z M104,120H92v-8h12V120z"/>
	<rect x="92" y="112" fill="#535353" width="12" height="8"/>
	<polygon fill="#89714D" points="152,196 120,196 32,196 32,8 135.3827,8 160,0 24,0 24,196 0,196 0,204 24,204 160,204 180,204 
		180,196 160,196 	"/>
	<path fill="#9AB040" d="M211.8007,89.172L194.828,72.2012c-1.5-1.5-4.156-1.5-5.656,0L172.2031,89.172
		c-1.5624,1.5624-1.5624,4.0936,0,5.656c1.5624,1.5628,4.0936,1.5628,5.656,0L188,84.6856V144h8V84.6856l10.1443,10.1424
		c0.7812,0.7812,1.8048,1.172,2.8284,1.172c1.0233,0,2.0468-0.3908,2.828-1.172C213.3631,93.2656,213.3631,90.7344,211.8007,89.172z
		"/>
</g>
</svg>
