<?xml version="1.0" encoding="utf-8"?>
<!-- Generator: Adobe Illustrator 19.2.0, SVG Export Plug-In . SVG Version: 6.00 Build 0)  -->
<svg version="1.1" id="exitarrow" xmlns="http://www.w3.org/2000/svg" xmlns:xlink="http://www.w3.org/1999/xlink" x="0px" y="0px"
	 viewBox="0 0 212.9725 228" enable-background="new 0 0 212.9725 228" xml:space="preserve">
<g>
	<rect x="32" y="20" fill="#FFDC82" width="36" height="188"/>
	<polygon fill="#89714D" points="32,208 32,20 68,20 68,12 24,12 24,208 0,208 0,216 24,216 68,216 68,208 	"/>
	<rect x="160" y="208" fill="#89714D" width="28" height="8"/>
	<path fill="#A48659" d="M160,16L68,0v12v8v188v8v12l92-12v-8V16z M92,116H80v-8h12V116z"/>
	<rect x="80" y="108" fill="#535353" width="12" height="8"/>
	<path fill="#FD5A5A" d="M211.8007,137.172c-1.5624-1.5628-4.0936-1.5628-5.6564,0L196,147.3144V87.4688h-8v59.8456
		l-10.1409-10.1424c-1.5624-1.5628-4.0936-1.5628-5.656,0c-1.5624,1.5624-1.5624,4.0936,0,5.656l16.9689,16.9708
		c0.7499,0.75,1.7655,1.172,2.828,1.172c1.0623,0,2.0779-0.422,2.828-1.172l16.9727-16.9708
		C213.3631,141.2656,213.3631,138.7344,211.8007,137.172z"/>
</g>
</svg>
