<?xml version="1.0" encoding="utf-8"?>
<!-- Generator: Adobe Illustrator 19.2.0, SVG Export Plug-In . SVG Version: 6.00 Build 0)  -->
<svg version="1.1" id="fireplace" xmlns="http://www.w3.org/2000/svg" xmlns:xlink="http://www.w3.org/1999/xlink" x="0px" y="0px"
	 viewBox="0 0 220 212" enable-background="new 0 0 220 212" xml:space="preserve">
<g>
	<path fill="none" d="M44,116v88h32v-8h-8c-2.2089,0-4-1.7892-4-4v-16c0-2.2108,1.7911-4,4-4h4v-8c0-2.2108,1.7911-4,4-4h48
		c2.2087,0,4,1.7892,4,4v8h8c2.2087,0,4,1.7892,4,4v12c2.2087,0,4,1.7892,4,4v12h32v-88H44z"/>
	<polygon fill="#89714D" points="44,116 176,116 176,108 204,108 204,92 176,92 44,92 16,92 16,108 44,108 	"/>
	<polygon fill="#BC9A67" points="44,116 44,108 16,108 16,116 16,204 44,204 	"/>
	<polygon fill="#BC9A67" points="176,116 176,204 204,204 204,116 204,108 176,108 	"/>
	<path fill="#89714D" d="M204,204h-28h-32v4c0,2.2108-1.7913,4-4,4h36h28h16v-8H204z"/>
	<path fill="#89714D" d="M76,208v-4H44H16H0v8h16h28h36C77.7911,212,76,210.2108,76,208z"/>
	<path fill="#BC9A67" d="M144,208v-4v-12c0-2.2108-1.7913-4-4-4v4c0,2.2108-1.7913,4-4,4h-20H76v8v4c0,2.2108,1.7911,4,4,4h60
		C142.2087,212,144,210.2108,144,208z"/>
	<path fill="#BC9A67" d="M76,180h36v-4c0-2.2108,1.7911-4,4-4h12v-8c0-2.2108-1.7913-4-4-4H76c-2.2089,0-4,1.7892-4,4v8v4
		C72,178.2108,73.7911,180,76,180z"/>
	<path fill="#89714D" d="M136,172h-8h-12c-2.2089,0-4,1.7892-4,4v4H76c-2.2089,0-4-1.7892-4-4v-4h-4c-2.2089,0-4,1.7892-4,4v16
		c0,2.2108,1.7911,4,4,4h8h40h20c2.2087,0,4-1.7892,4-4v-4v-12C140,173.7892,138.2087,172,136,172z"/>
	<rect x="92" fill="#E06C3E" width="36" height="36"/>
	<polygon fill="#BC9A67" points="176,92 204,92 212.0411,92 212.0411,84 204,84 172.996,84 154.9763,36 128,36 92,36 65.0235,36 
		47.004,84 16,84 8,84 8,92 16,92 44,92 	"/>
</g>
</svg>
