<?xml version="1.0" encoding="utf-8"?>
<!-- Generator: Adobe Illustrator 19.2.0, SVG Export Plug-In . SVG Version: 6.00 Build 0)  -->
<svg version="1.1" id="fireplace2" xmlns="http://www.w3.org/2000/svg" xmlns:xlink="http://www.w3.org/1999/xlink" x="0px" y="0px"
	 viewBox="0 0 220 212" enable-background="new 0 0 220 212" xml:space="preserve">
<g>
	<path fill="none" d="M44,116v88h32v-8.008c0-0.5504,0.0567-1.0896,0.1619-1.6092c0.5332-2.6016,2.3284-4.742,4.7132-5.754
		C81.828,188.2228,82.8767,188,83.9763,188h8.6056c-8.0739-9.5624-19.5252-27.8908-12.3748-49.2696
		c0.3436-1.0272,1.0916-1.8748,2.072-2.3396c0.9788-0.4728,2.1076-0.516,3.1252-0.1368c3.248,1.2188,5.8708,2.6052,7.988,4.0704
		c1.1192-4.2384,3.432-8.8048,7.7797-13.1524c1.0427-1.0432,2.576-1.422,3.9763-1.004
		c12.5744,3.7736,17.5197,10.754,19.4592,15.4608c1.2245-1.7656,2.5896-3.7304,4.1092-5.914
		c0.834-1.2032,2.2404-1.8516,3.7168-1.6912c1.4552,0.16,2.7072,1.1012,3.2656,2.4528c0.1348,0.3284,11.922,29.84-5.8496,51.5236
		h2.174l0,0c1.652,0,3.1872,0.504,4.4588,1.3672c2.1232,1.4412,3.5177,3.8748,3.5177,6.6248V204h36v-88H44z"/>
	<polygon fill="#89714D" points="44,116 176,116 176,108 204,108 204,92 176,92 44,92 16,92 16,108 44,108 	"/>
	<polygon fill="#BC9A67" points="44,116 44,108 16,108 16,116 16,204 44,204 	"/>
	<polygon fill="#BC9A67" points="176,116 176,204 204,204 204,116 204,108 176,108 	"/>
	<path fill="#F8A131" d="M130.5467,147.1288c-2.2032,3.2032-4.2168,6.1524-5.6227,8.25c-0.4653,1.1484-1.0665,2.2032-1.8009,3.1212
		c-2.7911,3.492-5.416,1.9688-6.1544,1.414c-2.1272-1.586-2.9024-2.164,0.6796-7.9336c0.506-1.5116,0.7128-3.7616-0.09-6.3396
		c-1.4703-4.7188-5.82-8.5784-12.3572-11.0196c-3.9864,4.8552-4.836,9.8788-4.7032,13.656c2.1604,4.4964,1.4824,8.2188,1.424,8.508
		c-0.344,1.7188-1.7656,3.0116-3.508,3.1912c-1.7304,0.1876-3.4004-0.7888-4.0896-2.402c-0.1156-0.266-1.2228-2.93-1.6643-6.9064
		c-1.0565-1.59-2.8789-3.3984-6.0077-5.0976c-4.1132,20.8084,12.506,38.246,16.9004,42.4296h14.9864
		C133.8339,175.4296,132.7615,157.3008,130.5467,147.1288z"/>
	<path fill="#E06C3E" d="M135.6991,136.4764c-0.5584-1.3516-1.8104-2.2928-3.2656-2.4528c-1.4764-0.1604-2.8828,0.488-3.7168,1.6912
		c-1.5196,2.1836-2.8847,4.1484-4.1092,5.914c-1.9395-4.7068-6.8848-11.6872-19.4592-15.4608
		c-1.4003-0.418-2.9336-0.0392-3.9763,1.004c-4.3477,4.3476-6.6605,8.914-7.7797,13.1524c-2.1172-1.4652-4.74-2.8516-7.988-4.0704
		c-1.0176-0.3792-2.1464-0.336-3.1252,0.1368c-0.9804,0.4648-1.7284,1.3124-2.072,2.3396
		C73.0567,160.1092,84.508,178.4376,92.5819,188h10.9708c-4.3944-4.1836-21.0136-21.6212-16.9004-42.4296
		c3.1288,1.6992,4.9512,3.5076,6.0077,5.0976c0.4415,3.9764,1.5487,6.6404,1.6643,6.9064c0.6892,1.6132,2.3592,2.5896,4.0896,2.402
		c1.7424-0.1796,3.164-1.4724,3.508-3.1912c0.0584-0.2892,0.7364-4.0116-1.424-8.508c-0.1328-3.7772,0.7168-8.8008,4.7032-13.656
		c6.5372,2.4412,10.8869,6.3008,12.3572,11.0196c0.8028,2.578,0.596,4.828,0.09,6.3396c-3.582,5.7696-2.8068,6.3476-0.6796,7.9336
		c0.7384,0.5548,3.3633,2.078,6.1544-1.414c0.7344-0.918,1.3356-1.9728,1.8009-3.1212c1.4059-2.0976,3.4195-5.0468,5.6227-8.25
		c2.2148,10.172,3.2872,28.3008-12.0076,40.8712h11.3104C147.6211,166.3164,135.8339,136.8048,135.6991,136.4764z"/>
	<rect x="92" fill="#E06C3E" width="36" height="36"/>
	<polygon fill="#BC9A67" points="176,92 204,92 212.0411,92 212.0411,84 204,84 172.996,84 154.9763,36 128,36 92,36 65.0235,36 
		47.004,84 16,84 8,84 8,92 16,92 44,92 	"/>
	<path fill="#89714D" d="M204,204h-28h-36v-8.008c0-2.75-1.3945-5.1836-3.5177-6.6248c-1.2716-0.8632-2.8068-1.3672-4.4588-1.3672
		l0,0h-2.174h-11.3104h-14.9864H92.5819h-8.6056c-1.0996,0-2.1483,0.2228-3.1012,0.6288c-2.3848,1.012-4.18,3.1524-4.7132,5.754
		C76.0567,194.9024,76,195.4416,76,195.992V204H44H16H0v8h16h28h39.9763h48.0472l0,0H176h28h16v-8H204z M78.336,209.6524
		C76.8923,208.2072,76,206.2072,76,204.008l0,0C76,206.2072,76.8923,208.2072,78.336,209.6524
		c0.7223,0.7264,1.5819,1.3124,2.5351,1.7188C79.9179,210.9648,79.0583,210.3788,78.336,209.6524z M84,204.008L83.9763,196H132
		l0.0235,8L84,204.008z M135.1251,211.3712c0.9528-0.4024,1.8144-0.9884,2.5349-1.7112
		C136.9395,210.3828,136.0779,210.9688,135.1251,211.3712z M140,204.008c0,1.656-0.504,3.1952-1.3633,4.4684
		C139.496,207.2032,140,205.664,140,204.008L140,204.008z"/>
	<polygon fill="#A48659" points="132,196 83.9763,196 84,204.008 132.0235,204 	"/>
	<path fill="#A48659" d="M80.8711,211.3712c-0.9532-0.4064-1.8128-0.9924-2.5351-1.7188
		C79.0583,210.3788,79.9179,210.9648,80.8711,211.3712z"/>
	<path fill="#A48659" d="M140,204.008L140,204.008c0,1.656-0.504,3.1952-1.3633,4.4684C139.496,207.2032,140,205.664,140,204.008z"
		/>
	<path fill="#A48659" d="M76,204.008c0,2.1992,0.8923,4.1992,2.336,5.6444C76.8923,208.2072,76,206.2072,76,204.008L76,204.008z"/>
	<path fill="#A48659" d="M135.1251,211.3712c0.9528-0.4024,1.8144-0.9884,2.5349-1.7112
		C136.9395,210.3828,136.0779,210.9688,135.1251,211.3712z"/>
</g>
</svg>
