<?xml version="1.0" encoding="utf-8"?>
<!-- Generator: Adobe Illustrator 19.2.0, SVG Export Plug-In . SVG Version: 6.00 Build 0)  -->
<svg version="1.1" id="flowers" xmlns="http://www.w3.org/2000/svg" xmlns:xlink="http://www.w3.org/1999/xlink" x="0px" y="0px"
	 viewBox="0 0 140.6594 229.1347" enable-background="new 0 0 140.6594 229.1347" xml:space="preserve">
<g>
	<path fill="#C1DB66" d="M90.176,81.9043c2.1368,6.324,3.6836,12.4648,4.7968,18.0076c12.9416,1.0628,22.01-7.7028,27.3636-15.3748
		c8.9668-12.8476,12.3496-29.8908,9.2772-35.9804c-0.6876-1.3596-1.3536-1.3752-1.7948-1.3868
		c-0.0784-0.004-0.1564-0.004-0.2344-0.004c-10.9592,0-28.9376,20.4376-37.762,33.422
		C91.4008,81.2091,90.8108,81.6111,90.176,81.9043z"/>
	<path fill="#C1DB66" d="M89.7016,39.5447c-0.1624-0.1796-0.584-0.664-2.3576-0.2576c-4.1248,0.914-6.8712,2.668-8.3944,5.3592
		c-2.756,4.8672-0.6992,11.4064-0.678,11.4688c0.1096,0.332,0.0996,0.664,0.1232,0.996c3.0432,4.668,5.6036,9.5472,7.7696,14.4532
		C90.3616,57.9199,92.676,42.8847,89.7016,39.5447z"/>
	<path fill="#49A25A" d="M96.3812,107.9863c0.2264,0.004,0.4552,0.0392,0.6796,0.0392c12.0588,0,23.244-6.6056,31.834-18.9104
		c10.1131-14.4884,14.6287-34.7108,9.8595-44.16c-1.8304-3.6288-4.9259-5.6836-8.7207-5.7852
		c-10.9944-0.3712-23.6192,11.1132-32.7148,21.4296c2.0976-10.1056,2.9492-21.2188-1.6408-26.3748
		c-1.6896-1.8948-4.8084-3.9104-10.0684-2.75c-6.3728,1.418-10.9548,4.5232-13.6212,9.2304
		c-1.0312,1.8204-1.6288,3.7148-1.996,5.5704c-2.24-2.4376-4.6384-4.7696-7.254-6.926c-0.3084-0.254-0.664-0.3944-1.0156-0.5428
		l-0.7088,0.8748l2.0704,10.8984c22.002,22.9804,25.9568,60.1956,26.6404,70.5548h8.0332
		C97.6076,118.4159,97.2424,113.8027,96.3812,107.9863z M78.2716,56.1151c-0.0212-0.0624-2.078-6.6016,0.678-11.4688
		c1.5232-2.6912,4.2696-4.4452,8.3944-5.3592c1.7736-0.4064,2.1952,0.078,2.3576,0.2576c2.9744,3.34,0.66,18.3752-3.5372,32.0196
		c-2.166-4.906-4.7264-9.7852-7.7696-14.4532C78.3712,56.7791,78.3812,56.4471,78.2716,56.1151z M129.5844,47.1659
		c0.078,0,0.156,0,0.2344,0.004c0.4412,0.0116,1.1072,0.0272,1.7948,1.3868c3.0724,6.0896-0.3104,23.1328-9.2772,35.9804
		c-5.3536,7.672-14.422,16.4376-27.3636,15.3748c-1.1132-5.5428-2.66-11.6836-4.7968-18.0076
		c0.6348-0.2932,1.2248-0.6952,1.6464-1.3164C100.6468,67.6035,118.6252,47.1659,129.5844,47.1659z"/>
	<path fill="#4A8F9E" d="M61.7228,38.8067l7.764-9.5704c0.7536-0.9296,1.0508-2.1484,0.8104-3.3204
		c-0.2404-1.1756-0.9924-2.1796-2.0508-2.7384L56.35,16.9003L53.4632,3.7635c-0.256-1.168-1.0236-2.16-2.09-2.7032
		c-1.0684-0.5468-2.32-0.5856-3.418-0.1012l-12.324,5.3828L23.5608,0.4083c-1.074-0.5276-2.33-0.5432-3.42-0.0508
		c-1.0896,0.492-1.9004,1.4528-2.2108,2.6092l-3.4708,12.9924l-12.164,5.738c-1.084,0.512-1.8808,1.4804-2.174,2.6408
		c-0.2928,1.16-0.0488,2.3904,0.6624,3.3552l7.994,10.8164l-3.1016,13.09c-0.2752,1.164-0.0156,2.3908,0.7112,3.3436
		c0.7244,0.9532,1.8396,1.5316,3.0348,1.5744l13.4416,0.492l8.2988,10.586c0.7404,0.9416,1.8612,1.504,3.0588,1.5312
		c0.0292,0,0.0604,0,0.0896,0c1.164,0,2.2736-0.5076,3.0332-1.3944l8.7676-10.1992l13.4492,0.1096
		c1.1524-0.1368,2.336-0.5196,3.1036-1.4376s1.082-2.1328,0.8592-3.3088l-0.4392-2.3164L61.014,39.6815L61.7228,38.8067z
		 M33.0296,45.1347c-5.5136,0-10-4.4844-10-10s4.4864-10,10-10s10,4.4844,10,10S38.5432,45.1347,33.0296,45.1347z"/>
	<polygon fill="#707086" points="89.7248,121.1347 59.0296,121.1347 70.5492,229.1347 119.51,229.1347 131.0296,121.1347 
		97.758,121.1347 	"/>
	<path fill="#FFDC82" d="M33.0296,25.1347c-5.5136,0-10,4.4844-10,10s4.4864,10,10,10s10-4.4844,10-10
		S38.5432,25.1347,33.0296,25.1347z"/>
</g>
</svg>
