<?xml version="1.0" encoding="utf-8"?>
<!-- Generator: Adobe Illustrator 19.2.0, SVG Export Plug-In . SVG Version: 6.00 Build 0)  -->
<svg version="1.1" id="flower" xmlns="http://www.w3.org/2000/svg" xmlns:xlink="http://www.w3.org/1999/xlink" x="0px" y="0px"
	 viewBox="0 0 224.0005 208" enable-background="new 0 0 224.0005 208" xml:space="preserve">
<g>
	<polygon fill="#FE8657" points="24,8 144,8 144,196 152,196 152,0 16,0 16,196 24,196 	"/>
	<path fill="#FE8657" d="M32,16v180h104V16H32z M44,116v-8h28v8H44z"/>
	<polygon fill="#FFDC82" points="28,204 24,204 24,208 144,208 144,204 140,204 	"/>
	<polygon fill="#FFDC82" points="24,8 24,196 32,196 32,16 136,16 136,196 144,196 144,8 	"/>
	<rect x="44" y="108" fill="#DBEEF7" width="28" height="8"/>
	<polygon fill="#535353" points="220,204 220,196 208.8435,196 208,204 	"/>
	<polygon fill="#535353" points="152,196 144,196 136,196 32,196 24,196 16,196 0,196 0,204 16,204 24,204 28,204 140,204 144,204 
		152,204 168,204 167.1563,196 	"/>
	<path fill="#FD5A5A" d="M185.996,134.002c-0.5469,0-1.1053-0.1152-1.6369-0.3536c-2.0156-0.908-2.914-3.2752-2.0076-5.2892
		l0.16-0.3592H160l7.1563,68L168,204h40l0.8435-8L216,128h-24.7149l-1.6368,3.6408
		C188.9803,133.1232,187.5235,134.002,185.996,134.002z"/>
	<path fill="#63B473" d="M208.6015,93.0372l14-12c1.6796-1.4376,1.8748-3.9628,0.4336-5.6408
		c-1.4336-1.6736-3.9608-1.8652-5.6368-0.4336l-12.074,10.3496c-2.7696-3.752-8.598-13.2872-11.3792-29.9708
		c-0.086-0.5056-0.1208-0.9392-0.1952-1.4332L210.828,36.828c1.5627-1.5624,1.5627-4.0936,0-5.656
		c-1.5625-1.5628-4.0937-1.5628-5.656,0l-12.4845,12.4844c-0.4296-10.1152,1.238-16.3792,2.3476-20.5412
		C195.5935,21.0136,196,19.494,196,18c0-4.1952-5.3869-9.4004-16.0157-15.4728c-1.914-1.0936-4.3592-0.4316-5.4572,1.4884
		c-1.0976,1.916-0.4296,4.3592,1.4884,5.4572c5.4296,3.1072,10.8088,7.1248,11.9452,8.8904c-0.1092,0.6328-0.406,1.754-0.656,2.6896
		c-1.5468,5.7928-4.422,16.574-1.25,35.6056c0.8204,4.916,1.8904,9.2576,3.074,13.0996l-17.2344-9.2796
		c-1.9372-1.0488-4.3708-0.32-5.418,1.6252c-1.0468,1.9452-0.3163,4.3712,1.6292,5.418l25.5665,13.7656
		c2.1483,4.3868,4.2263,7.5176,5.6483,9.3632L182.5115,128l-0.16,0.3592c-0.9064,2.014-0.008,4.3812,2.0076,5.2892
		c0.5316,0.2384,1.09,0.3536,1.6369,0.3536c1.5275,0,2.9843-0.8788,3.6523-2.3612L191.2851,128l15.3516-34.1112
		C207.336,93.7736,208.0235,93.5332,208.6015,93.0372z"/>
</g>
</svg>
