<?xml version="1.0" encoding="utf-8"?>
<!-- Generator: Adobe Illustrator 19.2.0, SVG Export Plug-In . SVG Version: 6.00 Build 0)  -->
<svg version="1.1" id="frame2" xmlns="http://www.w3.org/2000/svg" xmlns:xlink="http://www.w3.org/1999/xlink" x="0px" y="0px"
	 viewBox="0 0 232.0018 147.9425" enable-background="new 0 0 232.0018 147.9425" xml:space="preserve">
<g>
	<polygon fill="none" points="100.001,31.9425 135.1845,31.9425 116.2393,10.2921 	"/>
	<path fill="#A9C7D8" d="M116.2393,10.2921l18.9452,21.6504h10.6328L119.0125,1.3077c-0.0976-0.1112-0.2344-0.162-0.3435-0.2596
		c-0.1017-0.094-0.1565-0.2188-0.2697-0.3048c-0.1056-0.078-0.2303-0.0956-0.34-0.162c-0.238-0.1448-0.4724-0.256-0.7303-0.3476
		c-0.2421-0.088-0.4725-0.1544-0.7265-0.1916c-0.254-0.0412-0.496-0.0488-0.754-0.0372c-0.254,0.008-0.496,0.0352-0.742,0.094
		c-0.25,0.0564-0.4804,0.1424-0.7188,0.25c-0.246,0.1072-0.4648,0.2344-0.6876,0.3944c-0.1056,0.074-0.2304,0.1016-0.332,0.1896
		c-0.1092,0.0956-0.1564,0.2244-0.254,0.33c-0.0976,0.1036-0.2264,0.162-0.3124,0.2792L90.001,31.9425h10L116.2393,10.2921z"/>
	<path fill="#BC9A67" d="M145.8173,31.9425h-10.6328H100.001h-10h-90v116h4.004c-1.2189,0-2.4181-0.5528-3.2033-1.5996
		c-1.328-1.7676-0.9687-4.2756,0.8008-5.5996l30.3985-22.7988v-56.004L1.6025,39.1417c-1.7695-1.3244-2.1288-3.832-0.8008-5.5996
		c1.3244-1.7616,3.836-2.1248,5.5976-0.7988L37.333,55.9425h157.336l30.9335-23.1992c1.7616-1.33,4.2736-0.9648,5.5976,0.7988
		c1.328,1.7676,0.9689,4.2752-0.8008,5.5996L200.001,61.9405v56.004l30.3983,22.7988c1.7697,1.324,2.1288,3.832,0.8008,5.5996
		c-0.7852,1.0468-1.9844,1.5996-3.2031,1.5996h4.004v-116H145.8173z"/>
	<path fill="#BC9A67" d="M194.669,123.9425H37.333L6.3993,147.1417c-0.7188,0.5412-1.5583,0.8008-2.3943,0.8008h223.992
		c-0.836,0-1.6757-0.2596-2.3945-0.8008L194.669,123.9425z"/>
	<path fill="#FF8AAC" d="M40.001,115.9425h152v-52h-152V115.9425z M45.9385,77.8173c2.5352-3.8496,7.504-5.1248,14.7772-3.8084
		c12.1328,2.2052,17.9648,11.2284,22.2268,17.8144c2.1208,3.2872,4.32,6.6856,6.0625,6.9884
		c1.0231,0.172,2.6211-0.5568,4.5663-2.0448c15.7617-12.0432,27.7852-21.8264,27.9024-21.924
		c1.0036-0.8184,2.332-1.0976,3.5896-0.754c1.246,0.344,2.25,1.2696,2.6956,2.4864c1.8356,5.0236,8.7656,19.3692,16.2421,19.3692
		c8.1915,0,10.008-14.2968,10.0235-14.4416c0.16-1.416,1.0584-2.6424,2.3632-3.2188c1.2968-0.58,2.8084-0.414,3.9648,0.426l22,16
		c1.7892,1.2988,2.1836,3.8008,0.8828,5.588c-1.2968,1.7832-3.8008,2.1836-5.586,0.8808l-17.0232-12.3788
		c-2.25,7.2848-7.258,15.1444-16.6251,15.1444c-10.7149,0-18.1369-12.2636-21.6093-19.5664
		c-4.8712,3.9024-13.6172,10.8416-23.9612,18.744c-3.2615,2.4904-6.2575,3.7168-9.1092,3.7168
		c-0.5664,0-1.1288-0.0488-1.6876-0.1464c-5.1912-0.9024-8.2108-5.576-11.41-10.5252c-3.8516-5.9532-8.2147-12.7012-16.9376-14.2872
		c-4.5704-0.83-6.3476-0.1484-6.66,0.33c-1.094,1.66,1.1952,8.2304,4.7069,13.5196c1.2187,1.8376,0.7187,4.3204-1.1173,5.5428
		c-1.8436,1.2188-4.3204,0.7268-5.5427-1.1092C49.0401,97.7141,41.1377,85.1261,45.9385,77.8173z"/>
	<path fill="#89714D" d="M230.3993,140.7433l-30.3983-22.7988v-56.004l30.3983-22.7988c1.7697-1.3244,2.1288-3.832,0.8008-5.5996
		c-1.324-1.7636-3.836-2.1288-5.5976-0.7988L194.669,55.9425H37.333L6.3993,32.7433c-1.7616-1.326-4.2732-0.9628-5.5976,0.7988
		c-1.328,1.7676-0.9687,4.2752,0.8008,5.5996L32.001,61.9405v56.004L1.6025,140.7433c-1.7695,1.324-2.1288,3.832-0.8008,5.5996
		c0.7852,1.0468,1.9844,1.5996,3.2033,1.5996c0.836,0,1.6755-0.2596,2.3943-0.8008l30.9337-23.1992h157.336l30.9335,23.1992
		c0.7188,0.5412,1.5585,0.8008,2.3945,0.8008c1.2187,0,2.4179-0.5528,3.2031-1.5996
		C232.5281,144.5753,232.169,142.0673,230.3993,140.7433z M192.001,115.9425h-152v-52h152V115.9425z"/>
	<path fill="#49A25A" d="M56.2157,101.2725c1.836-1.2224,2.336-3.7052,1.1173-5.5428c-3.5117-5.2892-5.8009-11.8596-4.7069-13.5196
		c0.3124-0.4784,2.0896-1.16,6.66-0.33c8.7229,1.586,13.086,8.334,16.9376,14.2872c3.1992,4.9492,6.2188,9.6228,11.41,10.5252
		c0.5588,0.0976,1.1212,0.1464,1.6876,0.1464c2.8517,0,5.8477-1.2264,9.1092-3.7168c10.344-7.9024,19.09-14.8416,23.9612-18.744
		c3.4724,7.3028,10.8944,19.5664,21.6093,19.5664c9.3671,0,14.3751-7.8596,16.6251-15.1444l17.0232,12.3788
		c1.7852,1.3028,4.2892,0.9024,5.586-0.8808c1.3008-1.7872,0.9064-4.2892-0.8828-5.588l-22-16
		c-1.1564-0.84-2.668-1.006-3.9648-0.426c-1.3048,0.5764-2.2032,1.8028-2.3632,3.2188c-0.0155,0.1448-1.832,14.4416-10.0235,14.4416
		c-7.4765,0-14.4065-14.3456-16.2421-19.3692c-0.4456-1.2168-1.4496-2.1424-2.6956-2.4864c-1.2576-0.3436-2.586-0.0644-3.5896,0.754
		c-0.1172,0.0976-12.1407,9.8808-27.9024,21.924c-1.9452,1.488-3.5432,2.2168-4.5663,2.0448
		c-1.7425-0.3028-3.9417-3.7012-6.0625-6.9884c-4.262-6.586-10.094-15.6092-22.2268-17.8144
		c-7.2732-1.3164-12.242-0.0412-14.7772,3.8084c-4.8008,7.3088,3.1016,19.8968,4.7345,22.346
		C51.8953,101.9993,54.3721,102.4913,56.2157,101.2725z"/>
</g>
</svg>
