<?xml version="1.0" encoding="utf-8"?>
<!-- Generator: Adobe Illustrator 19.2.0, SVG Export Plug-In . SVG Version: 6.00 Build 0)  -->
<svg version="1.1" id="frame" xmlns="http://www.w3.org/2000/svg" xmlns:xlink="http://www.w3.org/1999/xlink" x="0px" y="0px"
	 viewBox="0 0 148 224" enable-background="new 0 0 148 224" xml:space="preserve">
<g>
	<path fill="none" d="M74,28c-0.1485,0-0.2853-0.0392-0.4297-0.0428L46.5195,52h54.9608L74.4295,27.9572
		C74.2851,27.9608,74.1483,28,74,28z"/>
	<path fill="#A9C7D8" d="M73.5703,27.9572c-3.2072-0.1016-6.1172-1.2972-8.4296-3.2092L34.4803,52h12.0392L73.5703,27.9572z"/>
	<path fill="#A9C7D8" d="M101.4803,52h12.0392L82.8591,24.748c-2.3124,1.912-5.2224,3.1076-8.4296,3.2092L101.4803,52z"/>
	<path fill="#BC9A67" d="M120,85.6564v104.6872l26.828,26.8284c0.7811,0.7812,1.172,1.8044,1.172,2.828V56
		c0,1.0236-0.3909,2.0468-1.172,2.828L120,85.6564z"/>
	<path fill="#BC9A67" d="M0,220v4h4c-1.0237,0-2.0469-0.3908-2.828-1.172C0.3907,222.0468,0,221.0236,0,220z"/>
	<path fill="#BC9A67" d="M28,190.3436V85.6564L1.172,58.828C0.3907,58.0468,0,57.0236,0,56v164c0-1.0236,0.3907-2.0468,1.172-2.828
		L28,190.3436z"/>
	<path fill="#BC9A67" d="M144,52c1.0235,0,2.0467,0.3908,2.828,1.172C147.6091,53.9532,148,54.9764,148,56v-4H144z"/>
	<path fill="#BC9A67" d="M144,224h4v-4c0,1.0236-0.3909,2.0468-1.172,2.828C146.0467,223.6092,145.0235,224,144,224z"/>
	<path fill="#BC9A67" d="M114.3435,196H33.6563L6.828,222.828C6.0467,223.6092,5.0235,224,4,224h140
		c-1.0237,0-2.0469-0.3908-2.828-1.172L114.3435,196z"/>
	<path fill="#BC9A67" d="M33.6563,80h80.6872l26.8285-26.828C141.9531,52.3908,142.9763,52,144,52h-30.4805h-12.0392H46.5195
		H34.4803H4c1.0235,0,2.0467,0.3908,2.828,1.172L33.6563,80z"/>
	<path fill="#BC9A67" d="M4,52H0v4c0-1.0236,0.3907-2.0468,1.172-2.828C1.9531,52.3908,2.9763,52,4,52z"/>
	<path fill="#89714D" d="M74,28c0.1483,0,0.2851-0.0392,0.4295-0.0428c3.2072-0.1016,6.1172-1.2972,8.4296-3.2092
		C85.9727,22.1776,88,18.34,88,14c0-7.7188-6.2813-14-14-14c-7.7189,0-14,6.2812-14,14c0,4.34,2.0271,8.1776,5.1407,10.748
		c2.3124,1.912,5.2224,3.1076,8.4296,3.2092C73.7147,27.9608,73.8515,28,74,28z"/>
	<path fill="#B7F5F0" d="M36,133.5236l27.4571-22.6116c0.8904-0.7344,2.0469-1.0508,3.1872-0.8592
		c1.1368,0.1856,2.1368,0.8516,2.7464,1.828l27.6208,44.1876L112,144.078V88H36V133.5236z"/>
	<path fill="#B7F5F0" d="M112,154.3244l-13.5,10.7988C97.7851,165.6952,96.9023,166,96,166c-0.2229,0-0.4493-0.0196-0.672-0.0568
		c-1.1249-0.1912-2.1133-0.8552-2.7189-1.824l-27.5856-44.1328L36,143.8868V188h76V154.3244z"/>
	<path fill="#89714D" d="M144,52c-1.0237,0-2.0469,0.3908-2.828,1.172L114.3435,80H33.6563L6.828,53.172
		C6.0467,52.3908,5.0235,52,4,52c-1.0237,0-2.0469,0.3908-2.828,1.172C0.3907,53.9532,0,54.9764,0,56s0.3907,2.0468,1.172,2.828
		L28,85.6564v104.6872L1.172,217.172C0.3907,217.9532,0,218.9764,0,220s0.3907,2.0468,1.172,2.828C1.9531,223.6092,2.9763,224,4,224
		c1.0235,0,2.0467-0.3908,2.828-1.172L33.6563,196h80.6872l26.8285,26.828c0.7811,0.7812,1.8043,1.172,2.828,1.172
		c1.0235,0,2.0467-0.3908,2.828-1.172c0.7811-0.7812,1.172-1.8044,1.172-2.828s-0.3909-2.0468-1.172-2.828L120,190.3436V85.6564
		l26.828-26.8284C147.6091,58.0468,148,57.0236,148,56s-0.3909-2.0468-1.172-2.828C146.0467,52.3908,145.0235,52,144,52z
		 M112,144.078l-14.9885,11.9904l-27.6208-44.1876c-0.6096-0.9764-1.6096-1.6424-2.7464-1.828
		c-1.1403-0.1916-2.2968,0.1248-3.1872,0.8592L36,133.5236V88h76V144.078z M36,143.8868l29.0235-23.9004l27.5856,44.1328
		c0.6056,0.9688,1.594,1.6328,2.7189,1.824C95.5507,165.9804,95.7771,166,96,166c0.9023,0,1.7851-0.3048,2.5-0.8768l13.5-10.7988
		V188H36V143.8868z"/>
</g>
</svg>
