<?xml version="1.0" encoding="utf-8"?>
<!-- Generator: Adobe Illustrator 19.2.0, SVG Export Plug-In . SVG Version: 6.00 Build 0)  -->
<svg version="1.1" id="fullbox" xmlns="http://www.w3.org/2000/svg" xmlns:xlink="http://www.w3.org/1999/xlink" x="0px" y="0px"
	 viewBox="0 0 156 208" enable-background="new 0 0 156 208" xml:space="preserve">
<g>
	<path fill="#456782" d="M152,36H4c-2.0861,0-3.7421-1.6132-3.9297-3.6524c0.0076,0.1056-0.0312,0.2072-0.0156,0.3088L8,80.328V80
		c0-2.2108,1.7891-4,4-4h20V56h19.9883l0.0232-0.3164c0.0468-0.586,0.2228-1.1564,0.5156-1.668
		c0.3868-0.672,9.8164-16.3828,46.168-9.9532c13.8596,2.4456,20.8908,6.496,22.1329,12.746c0.5507,2.7816-0.2697,5.34-1.5897,7.5196
		c5.9724,1.2304,10.6756,5.8088,12.1952,11.672H144c2.2107,0,4,1.7892,4,4v0.328l7.9451-47.6716
		c0.0156-0.1016-0.0232-0.2032-0.0156-0.3048C155.7419,34.3868,154.0859,36,152,36z"/>
	<path fill="#BC9A67" d="M64,56l-5.7149,20H68V64.008C68,57.3748,73.3867,52,80,52c6.6287,0,12,5.3556,12,12.008V76h8.5663
		c1.7852-6.8908,7.9884-12,15.4337-12c1.1091,0,2.1915,0.1132,3.2383,0.328c1.32-2.1796,2.1404-4.738,1.5897-7.5196
		c-1.2421-6.25-8.2733-10.3004-22.1329-12.746c-36.3516-6.4296-45.7812,9.2812-46.168,9.9532
		c-0.2928,0.5116-0.4688,1.082-0.5156,1.668L51.9883,56H64z"/>
	<polygon fill="#FCC24D" points="58.2851,76 64,56 51.9883,56 32,56 32,76 	"/>
	<path fill="#C1DB66" d="M80,52c-6.6133,0-12,5.3748-12,12.008V76h24V64.008C92,57.3556,86.6287,52,80,52z"/>
	<path fill="#8F89F5" d="M100.5663,76h30.8672c-1.5196-5.8632-6.2228-10.4416-12.1952-11.672C118.1915,64.1132,117.1091,64,116,64
		C108.5547,64,102.3515,69.1092,100.5663,76z"/>
	<path fill="#FF6B97" d="M156,16.0392C156,7.1952,148.828,0,140.0155,0H15.9843C7.172,0,0,7.1952,0,16.0392V32
		c0,0.1248,0.0583,0.2264,0.0703,0.3476C0.2579,34.3868,1.9139,36,4,36h148c2.0859,0,3.7419-1.6132,3.9295-3.6484
		C155.9415,32.2264,156,32.1248,156,32V16.0392z"/>
	<path fill="#FF427A" d="M144,76h-12.5665h-30.8672H92H68h-9.7149H32H12c-2.2109,0-4,1.7892-4,4v0.328V204c0,2.2108,1.7891,4,4,4
		h132c2.2107,0,4-1.7892,4-4V80.328V80C148,77.7892,146.2107,76,144,76z M104.1795,192H52v-8h52.1795V192z M104.1795,180H52v-8
		h52.1795V180z"/>
	<rect x="52" y="172" fill="#FF8AAC" width="52.1795" height="8"/>
	<rect x="52" y="184" fill="#FF8AAC" width="52.1795" height="8"/>
</g>
</svg>
