<?xml version="1.0" encoding="utf-8"?>
<!-- Generator: Adobe Illustrator 19.2.0, SVG Export Plug-In . SVG Version: 6.00 Build 0)  -->
<svg version="1.1" id="futurechair" xmlns="http://www.w3.org/2000/svg" xmlns:xlink="http://www.w3.org/1999/xlink" x="0px"
	 y="0px" viewBox="0 0 216 192.0001" enable-background="new 0 0 216 192.0001" xml:space="preserve">
<g>
	<path fill="#9AB040" d="M97.336,166.0549c-5.5901,1.242-11.3789,1.9452-17.336,1.9452c-5.9573,0-11.7461-0.7032-17.336-1.9452
		c-5.4885,4.3476-9.3009,10.6992-10.3437,17.9452h55.3592C106.6367,176.7541,102.8243,170.4025,97.336,166.0549z"/>
	<path fill="#C1DB66" d="M97.336,166.0549C133.1327,158.1057,160,126.1565,160,88.0001c0-44.1132-35.8869-80-80-80
		c-44.1133,0-80,35.8868-80,80c0,38.1564,26.8671,70.1056,62.664,78.0548c5.5899,1.242,11.3787,1.9452,17.336,1.9452
		C85.9571,168.0001,91.7459,167.2969,97.336,166.0549z M8,76.0001c0-35.2892,28.7107-64,64-64c35.2891,0,64,28.7108,64,64
		s-28.7109,64-64,64C36.7107,140.0001,8,111.2893,8,76.0001z"/>
	<path fill="#456782" d="M136,76.0001c0-35.2892-28.7109-64-64-64c-35.2893,0-64,28.7108-64,64s28.7107,64,64,64
		C107.2891,140.0001,136,111.2893,136,76.0001z"/>
	<path fill="#4A8F9E" d="M194,192.0001h22v-8h-10.4493C202.3943,189.0117,198.5391,192.0001,194,192.0001z"/>
	<path fill="#4A8F9E" d="M182.4491,184.0001h-74.7696H52.3203H28v8h28h48h90C189.4607,192.0001,185.6055,189.0117,182.4491,184.0001
		z"/>
	<path fill="#FE8657" d="M205.5507,184.0001c6.8908-10.9416,10.4493-31.5548,10.4493-52c0-27.0468-6.2385-54.3164-18.1757-59.164
		c0.6404,2.1056-0.5392,4.336-2.6488,4.9884c-0.3904,0.1208-0.7888,0.1756-1.1755,0.1756c-0.3829,0-0.7581-0.0744-1.1173-0.1796
		c-0.2892,0.0704-0.5664,0.1796-0.8787,0.1796c-0.004,0-0.004,0-0.004,0c-2.2073,0-3.996-1.7892-4-3.996v-0.008
		c-10.5157,7.1016-16,32.6484-16,58.004c0,20.4452,3.5547,41.0584,10.4491,52c3.1564,5.0116,7.0116,8,11.5509,8
		C198.5391,192.0001,202.3943,189.0117,205.5507,184.0001z"/>
	<path fill="#49A25A" d="M192,78.0001c0,0,0,0,0.004,0c0.3123,0,0.5895-0.1092,0.8787-0.1796
		c0.3592,0.1052,0.7344,0.1796,1.1173,0.1796c0.3867,0,0.7851-0.0548,1.1755-0.1756c2.1096-0.6524,3.2892-2.8828,2.6488-4.9884
		c0-0.004,0-0.008,0-0.0116c-7.5548-24.5508,3.906-65.3164,4.0232-65.7268c0.6056-2.1248-0.6248-4.336-2.75-4.9452
		c-2.1172-0.586-4.336,0.6248-4.9452,2.75c-0.258,0.9024-3.4492,12.2696-5.4024,26.7384
		c-3.7304-10.8868-9.3748-21.922-17.9219-30.4688c-1.5625-1.5628-4.0937-1.5628-5.656,0c-1.5629,1.5624-1.5629,4.0936,0,5.656
		C187.668,29.3245,188,73.4453,188,73.9961v0.008C188.004,76.2109,189.7927,78.0001,192,78.0001z"/>
</g>
</svg>
