<?xml version="1.0" encoding="utf-8"?>
<!-- Generator: Adobe Illustrator 19.2.0, SVG Export Plug-In . SVG Version: 6.00 Build 0)  -->
<svg version="1.1" id="garage" xmlns="http://www.w3.org/2000/svg" xmlns:xlink="http://www.w3.org/1999/xlink" x="0px" y="0px"
	 viewBox="0 0 232 207.9999" enable-background="new 0 0 232 207.9999" xml:space="preserve">
<g>
	<rect x="100" y="191.9999" fill="none" width="36" height="8"/>
	<path fill="none" d="M44,199.9999h36v-8H67.9648c-4.3984,0-7.1388-3.4532-6.0956-7.8124l4.8768-20.3752
		c0.8184-3.418,3.7776-6.2928,7.1564-7.3516l-6.4628-5.3864c-1.6976-1.4144-1.926-3.9376-0.512-5.6368
		c1.4104-1.6956,3.9316-1.922,5.6328-0.512l5.088,4.2384L80,127.9999h72l2.3516,21.164l5.0879-4.2384
		c1.6952-1.41,4.2168-1.1872,5.6328,0.512c1.414,1.6992,1.1856,4.2224-0.512,5.6368l-6.4568,5.3828
		c3.3808,1.0468,6.324,3.902,7.1504,7.3552l4.8768,20.3752c1.0333,4.3164-1.7304,7.8124-6.0956,7.8124H156v8h32v-80H44V199.9999z"/>
	<rect x="4" y="199.9999" fill="#456782" width="12" height="8"/>
	<rect x="216" y="199.9999" fill="#456782" width="12" height="8"/>
	<rect x="100" y="199.9999" fill="#456782" width="36" height="8"/>
	<rect x="44" y="199.9999" fill="#456782" width="36" height="8"/>
	<rect x="156" y="199.9999" fill="#456782" width="32" height="8"/>
	<rect x="44" y="71.9999" fill="#E1AD99" width="144" height="16"/>
	<polygon fill="#707086" points="100,191.9999 80,191.9999 80,199.9999 80,207.9999 100,207.9999 100,199.9999 	"/>
	<polygon fill="#707086" points="156,191.9999 136,191.9999 136,199.9999 136,207.9999 156,207.9999 156,199.9999 	"/>
	<path fill="#50CCD3" d="M85.424,155.9999h61.152c0.2288-0.3908,0.4944-0.7656,0.8636-1.0744l6.912-5.7616L152,127.9999H80
		l-2.3516,21.164l6.912,5.7616C84.9296,155.2343,85.1952,155.6091,85.424,155.9999z"/>
	<rect x="44" y="87.9999" fill="#FCD1C0" width="144" height="32"/>
	<path fill="#E06C3E" d="M170.1307,184.1875l-4.8768-20.3752c-0.8264-3.4532-3.7696-6.3084-7.1504-7.3552l6.4568-5.3828
		c1.6976-1.4144,1.926-3.9376,0.512-5.6368c-1.416-1.6992-3.9376-1.922-5.6328-0.512l-5.0879,4.2384l-6.912,5.7616
		c-0.3692,0.3088-0.6348,0.6836-0.8636,1.0744H85.424c-0.2288-0.3908-0.4944-0.7656-0.8636-1.0744l-6.912-5.7616l-5.088-4.2384
		c-1.7012-1.41-4.2224-1.1836-5.6328,0.512c-1.414,1.6992-1.1856,4.2224,0.512,5.6368l6.4628,5.3864
		c-3.3788,1.0588-6.338,3.9336-7.1564,7.3516l-4.8768,20.3752c-1.0432,4.3592,1.6972,7.8124,6.0956,7.8124H80h20h36h20h8.0351
		C168.4003,191.9999,171.164,188.5039,170.1307,184.1875z M100,179.9999H84v-8h16V179.9999z M132,171.9999h16v8h-16V171.9999z"/>
	<rect x="132" y="171.9999" fill="#F8A131" width="16" height="8"/>
	<rect x="84" y="171.9999" fill="#F8A131" width="16" height="8"/>
	<polygon fill="#89714D" points="188,71.9999 188,87.9999 188,119.9999 188,199.9999 188,207.9999 216,207.9999 216,199.9999 
		216,71.9999 	"/>
	<polygon fill="#89714D" points="44,119.9999 44,87.9999 44,71.9999 16,71.9999 16,199.9999 16,207.9999 44,207.9999 44,199.9999 	
		"/>
	<path fill="#E06C3E" d="M229.9843,64.5271l-111.9999-64c-1.2304-0.7028-2.7384-0.7028-3.9688,0l-112,64
		c-1.574,0.8984-2.3476,2.7464-1.8808,4.5C0.5996,70.7811,2.1856,71.9999,4,71.9999h12h28h144h28h12
		c1.8143,0,3.4003-1.2188,3.8651-2.9728C232.332,67.2735,231.5583,65.4255,229.9843,64.5271z"/>
</g>
</svg>
