<?xml version="1.0" encoding="utf-8"?>
<!-- Generator: Adobe Illustrator 19.2.0, SVG Export Plug-In . SVG Version: 6.00 Build 0)  -->
<svg version="1.1" id="garagedoor" xmlns="http://www.w3.org/2000/svg" xmlns:xlink="http://www.w3.org/1999/xlink" x="0px" y="0px"
	 viewBox="0 0 216 200" enable-background="new 0 0 216 200" xml:space="preserve">
<g>
	<polygon fill="#89714D" points="36,148 36,40 180,40 180,60 180.2419,60 180.2419,68 180,68 180,80 180.2419,80 180.2419,88 
		180,88 180,100 180.2419,100 180.2419,108 180,108 180,120 180.2419,120 180.2419,128 180,128 180,148 180,192 196,192 196,32 
		20,32 20,192 36,192 	"/>
	<polygon fill="#BC9A67" points="208,32 216,0 0,0 8,32 20,32 196,32 	"/>
	<path fill="#A9C7D8" d="M104,164.7344c1.256-0.4472,2.5899-0.7344,4-0.7344c1.4099,0,2.7419,0.2872,4,0.7344V148h-8V164.7344z"/>
	<polygon fill="#DBEEF7" points="40,128 40,120 180,120 180,108 40,108 40,100 180,100 180,88 40,88 40,80 180,80 180,68 40,68 
		40,60 180,60 180,40 36,40 36,148 104,148 112,148 180,148 180,128 	"/>
	<path fill="#4F676D" d="M180,192v-44h-68v16.7344c4.6503,1.6524,8,6.0488,8,11.2656c0,6.6288-5.3733,12-12,12
		c-6.6269,0-12-5.3712-12-12c0-5.2168,3.3495-9.6132,8-11.2656V148H36v44H20H8v8h12h16h144h16h12.1659v-8H196H180z"/>
	<polygon fill="#A9C7D8" points="40,68 180,68 180.2419,68 180.2419,60 180,60 40,60 	"/>
	<polygon fill="#A9C7D8" points="40,88 180,88 180.2419,88 180.2419,80 180,80 40,80 	"/>
	<polygon fill="#A9C7D8" points="40,108 180,108 180.2419,108 180.2419,100 180,100 40,100 	"/>
	<polygon fill="#A9C7D8" points="40,128 180,128 180.2419,128 180.2419,120 180,120 40,120 	"/>
	<path fill="#DBEEF7" d="M104,164.7344c-4.6505,1.6524-8,6.0488-8,11.2656c0,6.6288,5.3731,12,12,12c6.6267,0,12-5.3712,12-12
		c0-5.2168-3.3497-9.6132-8-11.2656c-1.2581-0.4472-2.5901-0.7344-4-0.7344C106.5899,164,105.256,164.2872,104,164.7344z"/>
</g>
</svg>
