<?xml version="1.0" encoding="utf-8"?>
<!-- Generator: Adobe Illustrator 19.2.0, SVG Export Plug-In . SVG Version: 6.00 Build 0)  -->
<svg version="1.1" id="gothiccloset" xmlns="http://www.w3.org/2000/svg" xmlns:xlink="http://www.w3.org/1999/xlink" x="0px"
	 y="0px" viewBox="0 0 184 208.6484" enable-background="new 0 0 184 208.6484" xml:space="preserve">
<g>
	<path fill="#89714D" d="M88,8H70.0743C47.3047,21.9764,27.6055,25.84,16,26.7616v156.3128l72,8.4296V8z M32,148h-8V84h8V148z"/>
	<path fill="#89714D" d="M96,8v183.504l72-8.4296V26.7616C156.3943,25.84,136.6951,21.9764,113.9255,8H96z M152,84h8v64h-8V84z"/>
	<rect x="152" y="84" fill="#BC9A67" width="8" height="64"/>
	<rect x="24" y="84" fill="#BC9A67" width="8" height="64"/>
	<path fill="#BC9A67" d="M184,16c0-6.6172-5.3829-12-12-12c-2.2109,0-4,1.7892-4,4s1.7891,4,4,4c2.2071,0,4,1.7928,4,4
		c0,1.5272-0.8869,2.8084-2.1485,3.4844c-0.5195-0.2772-1.09-0.4764-1.7188-0.496c-10.0584-0.332-30.5744-3.1604-54.9532-18.3828
		C116.5467,0.2108,115.8123,0,115.0623,0H92H68.9375c-0.75,0-1.4844,0.2108-2.1172,0.6056
		C42.4415,15.828,21.9255,18.6564,11.8671,18.9884c-0.6288,0.0196-1.1991,0.2188-1.7228,0.496C8.8867,18.8084,8,17.5272,8,16
		c0-2.2072,1.7927-4,4-4c2.2107,0,4-1.7892,4-4s-1.7893-4-4-4C5.3827,4,0,9.3828,0,16c0,5.2072,3.3555,9.6056,8,11.2616v159.3712
		c0,2.0272,1.5195,3.7384,3.5351,3.9728L20,191.5976v17.0508h8v-16.1132l63.5351,7.4376C91.6915,199.992,91.8435,200,92,200
		c0.1563,0,0.3083-0.008,0.4647-0.0272L156,192.5352v16.1132h8v-17.0508l8.4647-0.992c2.0156-0.2344,3.5353-1.9456,3.5353-3.9728
		V27.2616C180.6443,25.6056,184,21.2072,184,16z M16,26.7616C27.6055,25.84,47.3047,21.9764,70.0743,8H88v183.504l-72-8.4296
		V26.7616z M168,183.0744l-72,8.4296V8h17.9255C136.6951,21.9764,156.3943,25.84,168,26.7616V183.0744z"/>
</g>
</svg>
