<?xml version="1.0" encoding="utf-8"?>
<!-- Generator: Adobe Illustrator 19.2.0, SVG Export Plug-In . SVG Version: 6.00 Build 0)  -->
<svg version="1.1" id="gothicsofa" xmlns="http://www.w3.org/2000/svg" xmlns:xlink="http://www.w3.org/1999/xlink" x="0px" y="0px"
	 viewBox="0 0 232 132" enable-background="new 0 0 232 132" xml:space="preserve">
<g>
	<polygon fill="#89714D" points="24,132 44,132 49.332,116 24,116 	"/>
	<polygon fill="#89714D" points="188,132 208,132 208,116 182.668,116 	"/>
	<path fill="#FF8AAC" d="M28,76h156V54.0236C184,41.8788,193.8711,32,206,32c8.7735,0,16.3435,5.1816,19.8711,12.6368
		C225.9063,44.422,226,44.2264,226,44c0-25.496-20.1877-44-48-44c-20.1017,0-38.2385,11.1444-46.0273,28H48
		c-15.4377,0-28,12.5604-28,28v20H28z"/>
	<path fill="#FF6B97" d="M226.8787,82.754C226.1523,83.5156,225.1367,84,224,84h-8h-28c-2.2109,0-4-1.7912-4-4v-4H28h-8h-0.0197
		C8.9531,76,0,84.9552,0,96c0,11.0236,8.9451,20,19.9803,20H24h25.332h133.336H208h4.0195C223.0467,116,232,107.0428,232,96
		C232,90.9024,230.0271,86.2912,226.8787,82.754z"/>
	<path fill="#FF427A" d="M206,32c-12.1289,0-22,9.8788-22,22.0236V76v4c0,2.2088,1.7891,4,4,4h28h8
		c1.1367,0,2.1523-0.4844,2.8787-1.246C227.5663,82.0352,228,81.0724,228,80V54.0236c0-3.3596-0.7773-6.5352-2.1289-9.3868
		C222.3435,37.1816,214.7735,32,206,32z"/>
</g>
</svg>
