<?xml version="1.0" encoding="utf-8"?>
<!-- Generator: Adobe Illustrator 19.2.0, SVG Export Plug-In . SVG Version: 6.00 Build 0)  -->
<svg version="1.1" id="grandmachair" xmlns="http://www.w3.org/2000/svg" xmlns:xlink="http://www.w3.org/1999/xlink" x="0px"
	 y="0px" viewBox="0 0 192 234.004" enable-background="new 0 0 192 234.004" xml:space="preserve">
<g>
	<polygon fill="none" points="48.0508,98.004 51.162,110.004 120,110.004 120,98.004 	"/>
	<rect x="52" y="138.004" fill="none" width="84" height="40"/>
	<path fill="none" d="M136,186.004H52v16c0,0.2656-0.1016,0.498-0.1504,0.75c13.2736,4.6248,28.3768,7.25,44.1504,7.25
		c14.3712,0,28.1776-2.1932,40.5623-6.0744c-0.326-0.58-0.5623-1.2148-0.5623-1.9256V186.004z"/>
	<path fill="none" d="M13.668,189.6759C26.256,210.9296,58.414,226.004,96,226.004c37.7343,0,69.9979-15.1916,82.4783-36.4688
		C160.2595,207.0939,129.8476,218.004,96,218.004C62.244,218.004,31.9044,207.1503,13.668,189.6759z"/>
	<path fill="#89714D" d="M52,202.004v-16h84v16c0,0.7108,0.2363,1.3456,0.5623,1.9256c2.5392-0.7968,5.0276-1.652,7.4377-2.5896
		v-15.336v-8v-40h-8v40H52v-40h-8v40v8v13.668c2.5372,1.1056,5.1464,2.1404,7.8496,3.082C51.8984,202.502,52,202.2695,52,202.004z"
		/>
	<path fill="#FE8657" d="M188.8591,165.8652c-1.83-0.41-3.7028,0.5236-4.49,2.2268c-6.5468,14.156-21.3164,25.8396-40.3691,33.248
		c-2.4101,0.9376-4.8985,1.7928-7.4377,2.5896c-12.3847,3.8812-26.1911,6.0744-40.5623,6.0744
		c-15.7736,0-30.8768-2.6252-44.1504-7.25c-2.7032-0.9416-5.3124-1.9764-7.8496-3.082
		c-17.1016-7.4416-30.2912-18.4356-36.3692-31.58c-0.7892-1.7032-2.6544-2.512-4.49-2.1116C1.3068,166.3848,0,168.1252,0,170.004
		c0,35.2892,43.0664,64,96,64c52.9335,0,96-28.7108,96-64v-0.2324C192,167.8947,190.6931,166.2675,188.8591,165.8652z M96,226.004
		c-37.586,0-69.744-15.0744-82.332-36.328C31.9044,207.1503,62.244,218.004,96,218.004c33.8476,0,64.2595-10.91,82.4783-28.4688
		C165.9979,210.8123,133.7343,226.004,96,226.004z"/>
	<path fill="#89714D" d="M44,110.004h7.162l-3.1112-12H120v12h8v-12h24v-8H45.9764L23.8084,4.498
		c-0.832-3.2068-4.1052-5.1404-7.3144-4.3024c-3.2068,0.832-5.1328,4.1072-4.3024,7.3144L40,114.7716v-0.7676
		C40,111.7952,41.7912,110.004,44,110.004z"/>
	<path fill="#BC9A67" d="M136,138.004h8h14.0095c7.7152,0,13.9905-6.2812,13.9905-14s-6.2753-14-13.9905-14H128h-8H51.162H44
		c-2.2088,0-4,1.7912-4,4v0.7676v19.2324c0,2.2088,1.7912,4,4,4h8H136z"/>
</g>
</svg>
