<?xml version="1.0" encoding="utf-8"?>
<!-- Generator: Adobe Illustrator 19.2.0, SVG Export Plug-In . SVG Version: 6.00 Build 0)  -->
<svg version="1.1" id="hanger2" xmlns="http://www.w3.org/2000/svg" xmlns:xlink="http://www.w3.org/1999/xlink" x="0px" y="0px"
	 viewBox="0 0 212.0391 216" enable-background="new 0 0 212.0391 216" xml:space="preserve">
<g>
	<path fill="#BC9A67" d="M32,20h20h8h20h8h16V4c0-2.2108-1.7893-4-4-4H4C1.7891,0,0,1.7892,0,4v16h24H32z"/>
	<path fill="#BC9A67" d="M4,136h96c2.2107,0,4,1.7892,4,4V28H88v8c0,2.2108-1.7893,4-4,4c-2.2073,0-4,1.7928-4,4s1.7927,4,4,4
		c2.2107,0,4,1.7892,4,4s-1.7893,4-4,4c-6.6173,0-12-5.3828-12-12c0-5.2072,3.3555-9.6056,8-11.2616V28H60v8c0,2.2108-1.7893,4-4,4
		c-2.2073,0-4,1.7928-4,4s1.7927,4,4,4c2.2107,0,4,1.7892,4,4s-1.7893,4-4,4c-6.6173,0-12-5.3828-12-12
		c0-5.2072,3.3555-9.6056,8-11.2616V28H32v8c0,2.2108-1.7893,4-4,4c-2.2073,0-4,1.7928-4,4s1.7927,4,4,4c2.2107,0,4,1.7892,4,4
		s-1.7893,4-4,4c-6.6173,0-12-5.3828-12-12c0-5.2072,3.3555-9.6056,8-11.2616V28H0v112C0,137.7892,1.7891,136,4,136z"/>
	<path fill="#89714D" d="M4,156h100v-16c0-2.2108-1.7893-4-4-4H4c-2.2109,0-4,1.7892-4,4v20C0,157.7892,1.7891,156,4,156z"/>
	<polygon fill="#89714D" points="88,28 104,28 104.0819,28 104.0819,20 104,20 88,20 	"/>
	<rect x="32" y="20" fill="#89714D" width="20" height="8"/>
	<rect y="20" fill="#89714D" width="24" height="8"/>
	<rect x="60" y="20" fill="#89714D" width="20" height="8"/>
	<path fill="#DBEEF7" d="M24,20v8v4.7384c-4.6445,1.656-8,6.0544-8,11.2616c0,6.6172,5.3827,12,12,12c2.2107,0,4-1.7892,4-4
		s-1.7893-4-4-4c-2.2073,0-4-1.7928-4-4s1.7927-4,4-4c2.2107,0,4-1.7892,4-4v-8v-8H24z"/>
	<path fill="#DBEEF7" d="M52,20v8v4.7384c-4.6445,1.656-8,6.0544-8,11.2616c0,6.6172,5.3827,12,12,12c2.2107,0,4-1.7892,4-4
		s-1.7893-4-4-4c-2.2073,0-4-1.7928-4-4s1.7927-4,4-4c2.2107,0,4-1.7892,4-4v-8v-8H52z"/>
	<path fill="#DBEEF7" d="M80,20v8v4.7384c-4.6445,1.656-8,6.0544-8,11.2616c0,6.6172,5.3827,12,12,12c2.2107,0,4-1.7892,4-4
		s-1.7893-4-4-4c-2.2073,0-4-1.7928-4-4s1.7927-4,4-4c2.2107,0,4-1.7892,4-4v-8v-8H80z"/>
	<path fill="#456782" d="M140,56c2.2107,0,4-1.7892,4-4s-1.7893-4-4-4c-2.2073,0-4-1.7928-4-4s1.7927-4,4-4h4V24h-8v8.7384
		c-4.6445,1.656-8,6.0544-8,11.2616C128,50.6172,133.3827,56,140,56z"/>
	<path fill="#456782" d="M180,56c2.2107,0,4-1.7892,4-4s-1.7893-4-4-4c-2.2073,0-4-1.7928-4-4s1.7927-4,4-4h4V24h-8v8.7384
		c-4.6445,1.656-8,6.0544-8,11.2616C168,50.6172,173.3827,56,180,56z"/>
	<path fill="#49A25A" d="M212,160c0-2.2108-1.7893-4-4-4H104H4c-2.2109,0-4,1.7892-4,4v28h212V160z"/>
	<path fill="#49A25A" d="M0,212c0,2.2108,1.7891,4,4,4h204c2.2107,0,4-1.7892,4-4v-16H0V212z"/>
	<polygon fill="#99D59D" points="212.0391,188 212,188 0,188 0,196 212,196 212.0391,196 	"/>
</g>
</svg>
