<?xml version="1.0" encoding="utf-8"?>
<!-- Generator: Adobe Illustrator 19.2.0, SVG Export Plug-In . SVG Version: 6.00 Build 0)  -->
<svg version="1.1" id="hangers" xmlns="http://www.w3.org/2000/svg" xmlns:xlink="http://www.w3.org/1999/xlink" x="0px" y="0px"
	 viewBox="0 0 172 204" enable-background="new 0 0 172 204" xml:space="preserve">
<g>
	<path fill="#D793FD" d="M10.1895,6.3945c-1.3828,1.1408-2.6544,2.4124-3.7952,3.7952C7.5351,8.8069,8.8067,7.5353,10.1895,6.3945z"
		/>
	<path fill="#D793FD" d="M48,28c0-11.0271-8.9729-20-20-20C16.9727,8,8,16.9729,8,28c0,11.0273,8.9727,20,20,20
		C39.0271,48,48,39.0273,48,28z"/>
	<path fill="#D793FD" d="M6.3943,45.8105c1.1408,1.3828,2.4124,2.6544,3.7952,3.7952C8.8067,48.4649,7.5351,47.1933,6.3943,45.8105z
		"/>
	<path fill="#D793FD" d="M110.1895,82.3945c-1.3828,1.1408-2.6544,2.4124-3.7952,3.7952
		C107.5351,84.8069,108.8067,83.5353,110.1895,82.3945z"/>
	<path fill="#D793FD" d="M106.3943,121.8105c1.1408,1.3828,2.4124,2.6544,3.7952,3.7952
		C108.8067,124.4649,107.5351,123.1933,106.3943,121.8105z"/>
	<path fill="#D793FD" d="M148,104c0-11.0271-8.9729-20-20-20c-11.0273,0-20,8.9729-20,20c0,11.0273,8.9727,20,20,20
		C139.0271,124,148,115.0273,148,104z"/>
	<path fill="#FF427A" d="M64,104c0,8.8225-7.1777,16-16,16c-8.8225,0-16-7.1775-16-16V55.6817C45.5643,53.7365,56,42.1017,56,28
		C56,12.5353,43.4647,0,28,0c-6.7657,0-12.9709,2.4005-17.8105,6.3945c-1.3828,1.1408-2.6544,2.4124-3.7952,3.7952
		C2.4003,15.0293,0,21.2345,0,28c0,6.7657,2.4003,12.9709,6.3943,17.8105c1.1408,1.3828,2.4124,2.6544,3.7952,3.7952
		c3.8652,3.1912,8.6132,5.332,13.8105,6.076V104c0,13.2345,10.7655,24,24,24c13.2343,0,24-10.7655,24-24V72h-8V104z M8,28
		C8,16.9729,16.9727,8,28,8c11.0271,0,20,8.9729,20,20c0,11.0273-8.9729,20-20,20C16.9727,48,8,39.0273,8,28z"/>
	<path fill="#FF427A" d="M164,148v32c0,8.8225-7.1777,16-16,16c-8.8225,0-16-7.1775-16-16v-48.3183
		c13.5643-1.9452,24-13.58,24-27.6817c0-15.4647-12.5353-28-28-28c-6.7657,0-12.9709,2.4005-17.8105,6.3945
		c-1.3828,1.1408-2.6544,2.4124-3.7952,3.7952C102.4003,91.0293,100,97.2345,100,104c0,6.7657,2.4003,12.9709,6.3943,17.8105
		c1.1408,1.3828,2.4124,2.6544,3.7952,3.7952c3.8652,3.1912,8.6132,5.332,13.8105,6.076V180c0,13.2345,10.7655,24,24,24
		c13.2343,0,24-10.7655,24-24v-32H164z M108,104c0-11.0271,8.9727-20,20-20c11.0271,0,20,8.9729,20,20c0,11.0273-8.9729,20-20,20
		C116.9727,124,108,115.0273,108,104z"/>
</g>
</svg>
