<?xml version="1.0" encoding="utf-8"?>
<!-- Generator: Adobe Illustrator 19.2.0, SVG Export Plug-In . SVG Version: 6.00 Build 0)  -->
<svg version="1.1" id="icecream" xmlns="http://www.w3.org/2000/svg" xmlns:xlink="http://www.w3.org/1999/xlink" x="0px" y="0px"
	 viewBox="0 0 204 200" enable-background="new 0 0 204 200" xml:space="preserve">
<g>
	<path fill="#7BE5E4" d="M0.2967,74.5352c0.0393-0.1016,0.1056-0.1952,0.1524-0.2968C0.3983,74.34,0.336,74.4296,0.2967,74.5352z"/>
	<path fill="#7BE5E4" d="M203.9763,75.8908c0.0197,0.66-0.1052,1.328-0.418,1.9412C202.8711,79.164,201.5,80,200,80h-52h-24h-22H80
		h-2H56H32H4c-1.5,0-2.8713-0.836-3.5585-2.168c-0.3128-0.6132-0.4375-1.2812-0.418-1.9412C0.0195,75.9296,0,75.9608,0,76v96
		c0-2.2108,1.7891-4,4-4h196c2.2107,0,4,1.7892,4,4V76C204,75.9608,203.9803,75.9296,203.9763,75.8908z M100,140h-8V92h8V140z
		 M140,132c2.2107,0,4,1.7892,4,4s-1.7893,4-4,4h-28c-2.2109,0-4-1.7892-4-4V96c0-2.2108,1.7891-4,4-4h28c2.2107,0,4,1.7892,4,4
		s-1.7893,4-4,4h-24v32H140z M176,112c2.2107,0,4,1.7892,4,4s-1.7893,4-4,4h-20v12h24c2.2107,0,4,1.7892,4,4s-1.7893,4-4,4h-28
		c-2.2109,0-4-1.7892-4-4V96c0-2.2108,1.7891-4,4-4h28c2.2107,0,4,1.7892,4,4s-1.7893,4-4,4h-24v12H176z"/>
	<path fill="#7BE5E4" d="M203.5467,74.2384c0.0508,0.1016,0.1173,0.1952,0.1564,0.2968
		C203.664,74.4296,203.6015,74.34,203.5467,74.2384z"/>
	<rect x="92" y="92" fill="#3BABB7" width="8" height="48"/>
	<path fill="#7BE5E4" d="M24,44h156c1.2927,0,2.504,0.6248,3.2539,1.6756l1.3436,1.8792l19.0432-41.8984
		c0.5624-1.2384,0.4568-2.68-0.2776-3.8204C202.6251,0.6916,201.3591,0,200,0H4C2.6407,0,1.3751,0.6916,0.6367,1.836
		c-0.7344,1.1404-0.84,2.582-0.2776,3.8204l19.0432,41.8984l1.3436-1.8792C21.496,44.6248,22.7071,44,24,44z"/>
	<path fill="#3BABB7" d="M200,168H4c-2.2109,0-4,1.7892-4,4v24c0,2.2108,1.7891,4,4,4h196c2.2107,0,4-1.7892,4-4v-24
		C204,169.7892,202.2107,168,200,168z"/>
	<path fill="#4F676D" d="M4,80h28c-2.2109,0-4-1.7892-4-4V60c0-2.2108,1.7891-4,4-4h24h22h2h22c2.2107,0,4,1.7892,4,4v16
		c0,2.2108-1.7893,4-4,4h22c-2.2109,0-4-1.7892-4-4V60c0-2.2108,1.7891-4,4-4h24c2.2107,0,4,1.7892,4,4v16c0,2.2108-1.7893,4-4,4h52
		c1.5,0,2.8711-0.836,3.5583-2.168c0.3128-0.6132,0.4377-1.2812,0.418-1.9412c-0.0116-0.4652-0.0976-0.918-0.2732-1.3556
		c-0.0391-0.1016-0.1056-0.1952-0.1564-0.2968c-0.0936-0.1916-0.168-0.3868-0.2928-0.5628l-18.6564-26.1208l-1.3436-1.8792
		C182.504,44.6248,181.2927,44,180,44H24c-1.2929,0-2.504,0.6248-3.2541,1.6756l-1.3436,1.8792L0.7459,73.6756
		c-0.1248,0.176-0.2032,0.3752-0.2968,0.5628C0.4023,74.34,0.336,74.4336,0.2967,74.5352
		c-0.1756,0.4376-0.2616,0.8904-0.2732,1.3556c-0.0195,0.66,0.1052,1.328,0.418,1.9412C1.1287,79.164,2.5,80,4,80z"/>
	<path fill="#D793FD" d="M74,76V60c0-2.2108,1.7891-4,4-4H56c2.2107,0,4,1.7892,4,4v16c0,2.2108-1.7893,4-4,4h22
		C75.7891,80,74,78.2108,74,76z"/>
	<path fill="#FFAE8E" d="M152,76V60c0-2.2108-1.7893-4-4-4h-24c-2.2109,0-4,1.7892-4,4v16c0,2.2108,1.7891,4,4,4h24
		C150.2107,80,152,78.2108,152,76z"/>
	<path fill="#FE7D71" d="M60,76V60c0-2.2108-1.7893-4-4-4H32c-2.2109,0-4,1.7892-4,4v16c0,2.2108,1.7891,4,4,4h24
		C58.2107,80,60,78.2108,60,76z"/>
	<path fill="#FCC24C" d="M106,76V60c0-2.2108-1.7893-4-4-4H80h-2c-2.2109,0-4,1.7892-4,4v16c0,2.2108,1.7891,4,4,4h2h22
		C104.2107,80,106,78.2108,106,76z"/>
	<path fill="#3BABB7" d="M140,100c2.2107,0,4-1.7892,4-4s-1.7893-4-4-4h-28c-2.2109,0-4,1.7892-4,4v40c0,2.2108,1.7891,4,4,4h28
		c2.2107,0,4-1.7892,4-4s-1.7893-4-4-4h-24v-32H140z"/>
	<path fill="#3BABB7" d="M180,100c2.2107,0,4-1.7892,4-4s-1.7893-4-4-4h-28c-2.2109,0-4,1.7892-4,4v40c0,2.2108,1.7891,4,4,4h28
		c2.2107,0,4-1.7892,4-4s-1.7893-4-4-4h-24v-12h20c2.2107,0,4-1.7892,4-4s-1.7893-4-4-4h-20v-12H180z"/>
</g>
</svg>
