<?xml version="1.0" encoding="utf-8"?>
<!-- Generator: Adobe Illustrator 19.2.0, SVG Export Plug-In . SVG Version: 6.00 Build 0)  -->
<svg version="1.1" id="interiordoor" xmlns="http://www.w3.org/2000/svg" xmlns:xlink="http://www.w3.org/1999/xlink" x="0px"
	 y="0px" viewBox="0 0 180 204" enable-background="new 0 0 180 204" xml:space="preserve">
<g>
	<path fill="#FE8657" d="M160,0H24v196h136V0z M36,100h28v8H36V100z M144,192H40v-32h104V192z M144,144H40v-32h104V144z M144,96H40
		V64h104V96z M40,48V16h104v32H40z"/>
	<rect x="36" y="100" fill="#DBEEF7" width="28" height="8"/>
	<polygon fill="#4F676D" points="160,196 24,196 0,196 0,204 24,204 160,204 180,204 180,196 	"/>
	<rect x="48" y="24" fill="#DBEEF7" width="88" height="16"/>
	<path fill="#7BE5E4" d="M40,16v32h104V16H40z M136,40H48V24h88V40z"/>
	<rect x="48" y="72" fill="#DBEEF7" width="88" height="16"/>
	<path fill="#7BE5E4" d="M40,96h104V64H40V96z M48,72h88v16H48V72z"/>
	<rect x="48" y="120" fill="#DBEEF7" width="88" height="16"/>
	<path fill="#7BE5E4" d="M40,144h104v-32H40V144z M48,120h88v16H48V120z"/>
	<rect x="48" y="168" fill="#DBEEF7" width="88" height="16"/>
	<path fill="#7BE5E4" d="M40,192h104v-32H40V192z M48,168h88v16H48V168z"/>
</g>
</svg>
