<?xml version="1.0" encoding="utf-8"?>
<!-- Generator: Adobe Illustrator 19.2.0, SVG Export Plug-In . SVG Version: 6.00 Build 0)  -->
<svg version="1.1" id="irontable" xmlns="http://www.w3.org/2000/svg" xmlns:xlink="http://www.w3.org/1999/xlink" x="0px" y="0px"
	 viewBox="0 0 200 213.9999" enable-background="new 0 0 200 213.9999" xml:space="preserve">
<g>
	<polygon fill="none" points="125.5116,81.9999 74.4884,81.9999 100,120.8747 	"/>
	<path fill="#4A8F9E" d="M100,120.8747L74.4884,81.9999H60.3612c0.1564,0.4452,0.3536,0.8828,0.6232,1.2928l31.84,48.5156
		l-46.0628,70.1916H26c-3.3144,0-6,2.6876-6,6c0,3.3124,2.6856,6,6,6h24c2.0216,0,3.9064-1.0196,5.0156-2.7072L100,142.7459
		l44.9844,68.5468c1.1092,1.6876,2.994,2.7072,5.0156,2.7072h24c3.3143,0,6-2.6876,6-6c0-3.3124-2.6857-6-6-6h-20.7617
		l-46.0627-70.1916l31.84-48.5156c0.2696-0.41,0.4668-0.8476,0.6232-1.2928h-14.1272L100,120.8747z"/>
	<path fill="#63B473" d="M196,67.9999H4c-2.2088,0-4,1.7892-4,4v6c0,2.2108,1.7912,4,4,4h56.3612h14.1272h51.0232h14.1272H196
		c2.2087,0,4-1.7892,4-4v-6C200,69.7891,198.2087,67.9999,196,67.9999z"/>
	<path fill="#E1AD99" d="M135.1896,67.9999h37.6207c1.9337,0,4.3812-6.422,4.5684-8c0.3672-3.1132,0.6213-6.258,0.6213-9.4416
		c0-21.3124-8.5373-40.8864-21.752-49.8668c-1.3557-0.922-3.1405-0.922-4.496,0C138.5372,9.6719,130,29.2459,130,50.5583
		c0,3.1836,0.254,6.3284,0.6212,9.4416c0.1872,1.578,0.3536,3.164,0.6328,4.7108C131.5976,66.6171,133.256,67.9999,135.1896,67.9999
		z"/>
</g>
</svg>
