<?xml version="1.0" encoding="utf-8"?>
<!-- Generator: Adobe Illustrator 19.2.0, SVG Export Plug-In . SVG Version: 6.00 Build 0)  -->
<svg version="1.1" id="kitchen2" xmlns="http://www.w3.org/2000/svg" xmlns:xlink="http://www.w3.org/1999/xlink" x="0px" y="0px"
	 viewBox="0 0 228 144" enable-background="new 0 0 228 144" xml:space="preserve">
<g>
	<path fill="#A48659" d="M164,140v-4h-48V96h48v-8h-52H64H4c-2.2109,0-4,1.7892-4,4v48c0,2.2108,1.7891,4,4,4h60h48h56
		C165.7891,144,164,142.2108,164,140z M8,96h52v40H8V96z M68,96h40v40H68V96z"/>
	<rect x="116" y="96" fill="#89714D" width="48" height="40"/>
	<path fill="#89714D" d="M108,96H68v40h40V96z M104,124c0,2.2108-1.7893,4-4,4H76c-2.2109,0-4-1.7892-4-4v-20c0-2.2108,1.7891-4,4-4
		h24c2.2107,0,4,1.7892,4,4V124z"/>
	<path fill="#89714D" d="M60,96H8v40h52V96z M56,120h-8v-20h8V120z"/>
	<path fill="#C6DFED" d="M224,8h-56c-2.2109,0-4,1.7892-4,4v48v8v20v8v40v4c0,2.2108,1.7891,4,4,4h56c2.2107,0,4-1.7892,4-4V68v-8
		V12C228,9.7892,226.2107,8,224,8z M220,136h-48v-16v-8V92V68h48V136z M172,60V16h48v44H172z"/>
	<path fill="#A9C7D8" d="M172,92v20v8v16h48V68h-48V92z M184,72v20h-8V72H184z"/>
	<path fill="#A9C7D8" d="M172,16v44h48V16H172z M176,56V36h8v20H176z"/>
	<rect x="176" y="36" fill="#3BABB7" width="8" height="20"/>
	<rect x="176" y="72" fill="#3BABB7" width="8" height="20"/>
	<rect x="48" y="100" fill="#A48659" width="8" height="20"/>
	<path fill="#4A8F9E" d="M100,100H76c-2.2109,0-4,1.7892-4,4v20c0,2.2108,1.7891,4,4,4h24c2.2107,0,4-1.7892,4-4v-20
		C104,101.7892,102.2107,100,100,100z"/>
	<path fill="#F8A131" d="M108,56h16v-8h-12.84L100.4607,3.0744C100.0311,1.2736,98.4219,0,96.5703,0H79.4295
		c-1.8516,0-3.4608,1.2736-3.8904,3.0744L64.84,48H52v8h16H108z"/>
</g>
</svg>
