<?xml version="1.0" encoding="utf-8"?>
<!-- Generator: Adobe Illustrator 19.2.0, SVG Export Plug-In . SVG Version: 6.00 Build 0)  -->
<svg version="1.1" id="lightstand" xmlns="http://www.w3.org/2000/svg" xmlns:xlink="http://www.w3.org/1999/xlink" x="0px" y="0px"
	 viewBox="0 0 176 216" enable-background="new 0 0 176 216" xml:space="preserve">
<g>
	<polygon fill="#FCC24C" points="58.9843,0 20.2927,0 5.1251,108 52.4803,108 	"/>
	<polygon fill="#FCC24C" points="170.8751,108 155.7071,0 117.0155,0 123.5195,108 	"/>
	<polygon fill="#FE8657" points="123.5195,108 117.0155,0 58.9843,0 52.4803,108 	"/>
	<polygon fill="#A48659" points="84,196 68,196 68,208 112,208 112,196 96,196 96,144 84,144 	"/>
	<polygon fill="#89714D" points="24,208 24,216 152,216 152,208 112,208 68,208 	"/>
	<polygon fill="#4A8F9E" points="148,164 148,144 172,144 176,108 170.8751,108 123.5195,108 52.4803,108 5.1251,108 0,108 4,144 
		84,144 96,144 140,144 140,164 	"/>
</g>
</svg>
