<?xml version="1.0" encoding="utf-8"?>
<!-- Generator: Adobe Illustrator 19.2.0, SVG Export Plug-In . SVG Version: 6.00 Build 0)  -->
<svg version="1.1" id="lightbulb2" xmlns="http://www.w3.org/2000/svg" xmlns:xlink="http://www.w3.org/1999/xlink" x="0px" y="0px"
	 viewBox="0 0 232.0028 204" enable-background="new 0 0 232.0028 204" xml:space="preserve">
<g>
	<path fill="#FFAE8E" d="M120.0014,146.3436l7.668,7.668l5.2071-6.5116c0.7732-0.9648,1.8476-1.6212,3.1872-1.5
		c1.2384,0.0196,2.3948,0.6092,3.1368,1.6016l6,8c1.328,1.7656,0.9689,4.2732-0.8008,5.5976
		c-1.7656,1.3204-4.2772,0.9688-5.5976-0.8008l-2.9024-3.8672l-4.7732,5.9688c-0.7112,0.8868-1.7696,1.4296-2.9024,1.492
		c-1.1368,0.0664-2.25-0.3592-3.0507-1.164l-8.7189-8.7188c-7.504,9.7344-10.3788,9.9728-11.5352,10.0704
		c-0.1368,0.012-0.2736,0.0156-0.4064,0.0156c-1.2616,0-2.4608-0.488-3.3395-1.3672c-1.2501-1.246-3.4065-4.4532-5.3009-7.4256
		l-4.5431,6.8164c-1.2225,1.836-3.7029,2.328-5.5469,1.1092c-1.8396-1.2264-2.336-3.7068-1.1091-5.5468l8-12
		c0.7615-1.1404,1.9723-1.8516,3.4215-1.7812c1.3712,0.0352,2.6292,0.7656,3.336,1.9416c1.8788,3.1328,4.1524,6.7264,5.7345,9.0232
		c1.7811-1.8008,4.4139-4.9884,6.836-8.2812V128h-44v34c0,23.2032,18.7891,42,41.9687,42h12.0624
		c23.172,0,41.9689-18.8048,41.9689-42v-34h-44V146.3436z"/>
	<path fill="#90A9AE" d="M120.0014,19.5936c9.1171-1.8552,16-9.9372,16-19.5936h-8c0,6.0468-4.5117,11.0156-10.34,11.832h-3.324
		c-5.8245-0.8164-10.336-5.7852-10.336-11.832h-8c0,9.6564,6.8827,17.7384,16,19.5936V68h8V19.5936z"/>
	<path fill="#E06C3E" d="M112.7473,145.6756c0.6836-0.9568,1.7541-1.5664,2.9261-1.664c1.1755-0.07,2.324,0.3284,3.156,1.1604
		l1.172,1.1716V128h-8v18.6836C112.2513,146.3436,112.5054,146.0156,112.7473,145.6756z"/>
	<path fill="#FFDC82" d="M115.6734,144.0116c-1.172,0.0976-2.2425,0.7072-2.9261,1.664c-0.2419,0.34-0.496,0.668-0.7459,1.008
		c-2.4221,3.2928-5.0549,6.4804-6.836,8.2812c-1.5821-2.2968-3.8557-5.8904-5.7345-9.0232c-0.7068-1.176-1.9648-1.9064-3.336-1.9416
		c-1.4492-0.0704-2.66,0.6408-3.4215,1.7812l-8,12c-1.2269,1.84-0.7305,4.3204,1.1091,5.5468
		c1.844,1.2188,4.3244,0.7268,5.5469-1.1092l4.5431-6.8164c1.8944,2.9724,4.0508,6.1796,5.3009,7.4256
		c0.8787,0.8792,2.0779,1.3672,3.3395,1.3672c0.1328,0,0.2696-0.0036,0.4064-0.0156c1.1564-0.0976,4.0312-0.336,11.5352-10.0704
		l8.7189,8.7188c0.8007,0.8048,1.9139,1.2304,3.0507,1.164c1.1328-0.0624,2.1912-0.6052,2.9024-1.492l4.7732-5.9688l2.9024,3.8672
		c1.3204,1.7696,3.832,2.1212,5.5976,0.8008c1.7697-1.3244,2.1288-3.832,0.8008-5.5976l-6-8
		c-0.742-0.9924-1.8984-1.582-3.1368-1.6016c-1.3396-0.1212-2.414,0.5352-3.1872,1.5l-5.2071,6.5116l-7.668-7.668l-1.172-1.1716
		C117.9974,144.34,116.8489,143.9416,115.6734,144.0116z"/>
	<path fill="#D793FD" d="M230.3569,120.7696l-71.3048-52c-0.6836-0.5-1.508-0.7696-2.3556-0.7696h-36.6951h-8H75.3061
		c-0.8476,0-1.672,0.2696-2.3556,0.7696l-71.3048,52c-1.4024,1.0196-1.9843,2.824-1.4492,4.4688
		C0.7357,126.8868,2.2709,128,4.0014,128h64h44h8h44h64c1.7303,0,3.2655-1.1132,3.8047-2.7616
		C232.3414,123.5936,231.7593,121.7892,230.3569,120.7696z"/>
</g>
</svg>
