<?xml version="1.0" encoding="utf-8"?>
<!-- Generator: Adobe Illustrator 19.2.0, SVG Export Plug-In . SVG Version: 6.00 Build 0)  -->
<svg version="1.1" id="lightbulb" xmlns="http://www.w3.org/2000/svg" xmlns:xlink="http://www.w3.org/1999/xlink" x="0px" y="0px"
	 viewBox="0 0 184.001 208" enable-background="new 0 0 184.001 208" xml:space="preserve">
<g>
	<path fill="#9AB040" d="M156,64h-0.2033C153.7107,28.3672,124.1443,0,88,0C69.836,0,52.7615,7.0744,39.9179,19.918l0.2736,0.2736
		C41.4491,20.086,42.7147,20,44,20c2.4687,0,4.8751,0.254,7.2343,0.6444C61.7107,12.4764,74.5,8,88,8c33.0859,0,60,26.914,60,60v116
		h8V64z"/>
	<path fill="#F8A131" d="M40.1915,20.1916C17.6795,22.1248,0,40.9844,0,64h88c0-21.832-15.9141-39.8984-36.7657-43.3556
		C48.8751,20.254,46.4687,20,44,20C42.7147,20,41.4491,20.086,40.1915,20.1916z"/>
	<path fill="#BC9A67" d="M183.5779,202.2108l-8-16C174.8983,184.8556,173.5155,184,172,184h-16h-8h-16
		c-1.5157,0-2.8985,0.8556-3.5781,2.2108l-8,16c-0.6212,1.2384-0.5548,2.7112,0.1756,3.8908C121.328,207.2812,122.6131,208,124,208
		h56c1.3867,0,2.672-0.7188,3.4023-1.8984C184.1327,204.922,184.1991,203.4492,183.5779,202.2108z"/>
</g>
</svg>
