<?xml version="1.0" encoding="utf-8"?>
<!-- Generator: Adobe Illustrator 19.2.0, SVG Export Plug-In . SVG Version: 6.00 Build 0)  -->
<svg version="1.1" id="lightsroom" xmlns="http://www.w3.org/2000/svg" xmlns:xlink="http://www.w3.org/1999/xlink" x="0px" y="0px"
	 viewBox="0 0 204 136.1092" enable-background="new 0 0 204 136.1092" xml:space="preserve">
<g>
	<path fill="#FCC24C" d="M4,76.1092c-2.2089,0-4,1.7892-4,4v52c0,2.2108,1.7911,4,4,4h52c-2.2089,0-4-1.7892-4-4v-52
		c0-2.2108,1.7911-4,4-4h-8h-8H4z"/>
	<polygon fill="#4A8F9E" points="156,8.1092 180.0507,8.1092 180.0507,0.1092 156,0.1092 148,0.1092 48,0.1092 48,0 40,0 40,0.1092 
		16,0.1092 16,8.1092 40,8.1092 40,76.1092 48,76.1092 48,8.1092 148,8.1092 148,36.1092 156,36.1092 	"/>
	<path fill="#FFDC82" d="M160,100.1092v-60c0-2.2108,1.7911-4,4-4h-8h-8h-40c-2.2089,0-4,1.7892-4,4v60c0,2.2108,1.7911,4,4,4h56
		C161.7911,104.1092,160,102.32,160,100.1092z"/>
	<path fill="#F8A131" d="M52,80.1092v52c0,2.2108,1.7911,4,4,4h28c2.2087,0,4-1.7892,4-4v-52c0-2.2108-1.7913-4-4-4H56
		C53.7911,76.1092,52,77.8984,52,80.1092z"/>
	<path fill="#F8A131" d="M200,36.1092h-36c-2.2089,0-4,1.7892-4,4v60c0,2.2108,1.7911,4,4,4h36c2.2087,0,4-1.7892,4-4v-60
		C204,37.8984,202.2087,36.1092,200,36.1092z"/>
</g>
</svg>
