<?xml version="1.0" encoding="utf-8"?>
<!-- Generator: Adobe Illustrator 19.2.0, SVG Export Plug-In . SVG Version: 6.00 Build 0)  -->
<svg version="1.1" id="lighting" xmlns="http://www.w3.org/2000/svg" xmlns:xlink="http://www.w3.org/1999/xlink" x="0px" y="0px"
	 viewBox="0 0 104.0016 232" enable-background="new 0 0 104.0016 232" xml:space="preserve">
<g>
	<polygon fill="#A48659" points="48.0008,220 32.0008,220 32.0008,232 72.0008,232 72.0008,220 60.0008,220 60.0008,76 48.0008,76 	
		"/>
	<path fill="#FE8657" d="M89.5163,3.172C89.1259,1.3244,87.4928,0,85.6023,0H18.3991c-1.8903,0-3.5232,1.3244-3.914,3.172
		l-14.3984,68c-0.2499,1.1796,0.0468,2.41,0.8048,3.3476C1.6531,75.4572,2.7935,76,4.0008,76h44h12h8h8h24
		c1.2071,0,2.3475-0.5428,3.1091-1.4804c0.758-0.9376,1.0549-2.168,0.8048-3.3476L89.5163,3.172z"/>
	<path fill="#456782" d="M68.0008,113.1132c-2.3789,1.3868-4,3.9416-4,6.8868c0,4.41,3.5899,8,8,8c4.4099,0,8-3.59,8-8
		c0-2.9452-1.6213-5.5-4-6.8868V76h-8V113.1132z"/>
</g>
</svg>
