<?xml version="1.0" encoding="utf-8"?>
<!-- Generator: Adobe Illustrator 19.2.0, SVG Export Plug-In . SVG Version: 6.00 Build 0)  -->
<svg version="1.1" id="livingroom" xmlns="http://www.w3.org/2000/svg" xmlns:xlink="http://www.w3.org/1999/xlink" x="0px" y="0px"
	 viewBox="0 0 220.0008 208" enable-background="new 0 0 220.0008 208" xml:space="preserve">
<g>
	<path fill="#B976DD" d="M116.0008,76c-41.6112,0-75.7752,33.3633-79.6152,76h159.2303C191.7759,109.3633,157.6119,76,116.0008,76z
		 M126.8288,129.172c1.5628,1.5625,1.5628,4.0937,0,5.656c-0.7812,0.7813-1.8044,1.172-2.828,1.172s-2.0468-0.3907-2.828-1.172
		l-5.172-5.1715l-5.172,5.1715c-0.7812,0.7813-1.8044,1.172-2.828,1.172s-2.0468-0.3907-2.828-1.172
		c-1.5628-1.5623-1.5628-4.0935,0-5.656l5.1716-5.172l-5.1716-5.172c-1.5628-1.5623-1.5628-4.0935,0-5.656
		c1.5624-1.5627,4.0936-1.5627,5.656,0l5.172,5.1717l5.172-5.1717c1.5624-1.5627,4.0936-1.5627,5.656,0
		c1.5628,1.5625,1.5628,4.0937,0,5.656L121.6572,124L126.8288,129.172z"/>
	<rect x="48.0008" y="200" fill="#4F676D" width="8" height="8"/>
	<rect x="176.0008" y="200" fill="#4F676D" width="8" height="8"/>
	<path fill="#9D57C4" d="M199.9715,152h-4.3556H36.3856H32.03c-11.0448,0-20.0292,8.9905-20.0292,20.0393v7.9216
		C12.0008,191.0097,20.9852,200,32.03,200h15.9708h8h120h8h15.9707c11.0448,0,20.0293-8.9903,20.0293-20.0391v-7.9216
		C220.0008,160.9905,211.0163,152,199.9715,152z"/>
	<path fill="#D793FD" d="M126.8288,113.172c-1.5624-1.5627-4.0936-1.5627-5.656,0l-5.172,5.1717l-5.172-5.1717
		c-1.5624-1.5627-4.0936-1.5627-5.656,0c-1.5628,1.5625-1.5628,4.0937,0,5.656l5.1716,5.172l-5.1716,5.172
		c-1.5628,1.5625-1.5628,4.0937,0,5.656c0.7812,0.7813,1.8044,1.172,2.828,1.172s2.0468-0.3907,2.828-1.172l5.172-5.1715
		l5.172,5.1715c0.7812,0.7813,1.8044,1.172,2.828,1.172s2.0468-0.3907,2.828-1.172c1.5628-1.5623,1.5628-4.0935,0-5.656
		L121.6572,124l5.1716-5.172C128.3916,117.2657,128.3916,114.7345,126.8288,113.172z"/>
	<path fill="#7BE5E4" d="M35.7936,40.7013L25.7372,68h30.2636V57.3749c-0.1856-0.1092-0.3908-0.16-0.5604-0.3024L35.7936,40.7013z"
		/>
	<path fill="#7BE5E4" d="M32.5672,16.0413l23.4336,3.3476V8h-48v24.2265L29.6764,16.744
		C30.5124,16.1465,31.54,15.8889,32.5672,16.0413z"/>
	<path fill="#7BE5E4" d="M32.9656,30.1369c1.252-0.34,2.5976-0.0432,3.5956,0.7908l19.4396,16.1992v-19.658l-22.9784-3.2832
		L8.0008,42.0585V68h9.2108l13.0352-35.3827C30.696,31.3965,31.7116,30.4729,32.9656,30.1369z"/>
	<path fill="#3BABB7" d="M18.618,75.7541c-2.0724-0.7636-3.1348-3.0644-2.3712-5.1368L17.2116,68H8.0008V42.0585L6.3252,43.256
		C5.622,43.7581,4.8092,44,4.0048,44c-1.248,0-2.4788-0.5819-3.26-1.6755c-1.2832-1.7972-0.8672-4.2952,0.9316-5.5805l6.3244-4.5175
		V8h48v11.3889l4.5664,0.6524c2.1856,0.3124,3.7052,2.3376,3.3924,4.5252c-0.3144,2.1855-2.3376,3.6972-4.5252,3.3924l-3.4336-0.49
		v19.658l4.5604,3.8008c1.6976,1.414,1.926,3.9356,0.512,5.6328c-1.2716,1.5256-3.4124,1.7912-5.0724,0.8144V68H25.7372
		l-1.9824,5.3829c-0.594,1.6131-2.1192,2.6112-3.7404,2.6171h43.9864V0h-64v76h19.9884
		C19.534,75.9981,19.0712,75.9221,18.618,75.7541z"/>
	<path fill="#456782" d="M23.7548,73.3829L25.7372,68l10.0564-27.2987l19.6468,16.3712c0.1696,0.1424,0.3748,0.1932,0.5604,0.3024
		c1.66,0.9768,3.8008,0.7112,5.0724-0.8144c1.414-1.6972,1.1856-4.2188-0.512-5.6328l-4.5604-3.8008L36.5612,30.9277
		c-0.998-0.834-2.3436-1.1308-3.5956-0.7908c-1.254,0.336-2.2696,1.2596-2.7188,2.4804L17.2116,68l-0.9648,2.6173
		c-0.7636,2.0724,0.2988,4.3732,2.3712,5.1368c0.4532,0.168,0.916,0.244,1.3712,0.2459c0.0036,0,0.0076,0.0021,0.0116,0.0021
		S20.0088,76,20.0144,76C21.6356,75.9941,23.1608,74.996,23.7548,73.3829z"/>
	<path fill="#456782" d="M56.0008,27.4689l3.4336,0.49c2.1876,0.3048,4.2108-1.2069,4.5252-3.3924
		c0.3128-2.1876-1.2068-4.2128-3.3924-4.5252l-4.5664-0.6524l-23.4336-3.3476c-1.0272-0.1524-2.0548,0.1052-2.8908,0.7027
		L8.0008,32.2265L1.6764,36.744c-1.7988,1.2853-2.2148,3.7833-0.9316,5.5805C1.526,43.4181,2.7568,44,4.0048,44
		c0.8044,0,1.6172-0.2419,2.3204-0.744l1.6756-1.1975l25.0216-17.8728L56.0008,27.4689z"/>
</g>
</svg>
