<?xml version="1.0" encoding="utf-8"?>
<!-- Generator: Adobe Illustrator 19.2.0, SVG Export Plug-In . SVG Version: 6.00 Build 0)  -->
<svg version="1.1" id="lovebed" xmlns="http://www.w3.org/2000/svg" xmlns:xlink="http://www.w3.org/1999/xlink" x="0px" y="0px"
	 viewBox="0 0 232 172" enable-background="new 0 0 232 172" xml:space="preserve">
<g>
	<path fill="#50CCD3" d="M232,107.9845C232,99.1877,224.8203,92,215.9607,92H200v8h-28h-52h-8H60H32v-8H16.0371
		C7.1971,92,0,99.1565,0,107.9845V140h8v-6v-2h216v2v6h8V107.9845z"/>
	<rect x="8" y="152" fill="#4F676D" width="12" height="20"/>
	<rect x="212" y="152" fill="#4F676D" width="12" height="20"/>
	<polygon fill="#4A8F9E" points="224,132 8,132 8,134 8,140 8,152 20,152 212,152 224,152 224,140 224,134 	"/>
	<path fill="#63B473" d="M60,100V72c0,0,20-8,30-8c7.2303,0,19.6523,4.172,26,6.4885C122.3475,68.172,134.7695,64,142,64
		c10,0,30,8,30,8v28h28v-8V44.008C200,19.6953,180.2871,0,155.9687,0H76.0311C51.6835,0,32,19.7033,32,44.008V92v8H60z
		 M103.6151,16.0469c5.1836,0,9.75,2.586,12.42,6.5156c2.67-3.9296,7.2364-6.5156,12.42-6.5156
		c8.2324,0,14.904,2.8828,14.904,14.5744c0,11.6912-27.324,26.2732-27.324,26.2732s-27.3244-14.582-27.3244-26.2732
		C88.7107,18.9297,95.3847,16.0469,103.6151,16.0469z"/>
	<path fill="#FBBD47" d="M112,72c0,0,1.5683-0.6251,4-1.5115C109.6523,68.172,97.2303,64,90,64c-10,0-30,8-30,8v28h52V72z"/>
	<path fill="#F8A131" d="M172,72c0,0-20-8-30-8c-7.2305,0-19.6525,4.172-26,6.4885C113.5683,71.3749,112,72,112,72v28h8h52V72z"/>
	<path fill="#FE8657" d="M116.0351,56.8945c0,0,27.324-14.582,27.324-26.2732c0-11.6916-6.6716-14.5744-14.904-14.5744
		c-5.1836,0-9.75,2.586-12.42,6.5156c-2.67-3.9296-7.2364-6.5156-12.42-6.5156c-8.2304,0-14.9044,2.8828-14.9044,14.5744
		C88.7107,42.3125,116.0351,56.8945,116.0351,56.8945z"/>
</g>
</svg>
