<?xml version="1.0" encoding="utf-8"?>
<!-- Generator: Adobe Illustrator 19.2.0, SVG Export Plug-In . SVG Version: 6.00 Build 0)  -->
<svg version="1.1" id="macoffice" xmlns="http://www.w3.org/2000/svg" xmlns:xlink="http://www.w3.org/1999/xlink" x="0px" y="0px"
	 viewBox="0 0 224 216" enable-background="new 0 0 224 216" xml:space="preserve">
<g>
	<path fill="#4F676D" d="M128.8787,88h27.1232l0,0c3.3204,0,6.3984-1.0096,8.9512-2.7384c0.8516-0.578,1.6444-1.2344,2.3672-1.9588
		c2.8828-2.8928,4.664-6.8888,4.6757-11.3028l0,0H172v-0.0392V64V16.0392c0-3.3144-1.008-6.3984-2.7325-8.9592
		C166.3923,2.8124,161.5251,0,156.0019,0l0,0h-88.004c-3.3204,0-6.3984,1.0096-8.9512,2.7384C54.7927,5.6212,52,10.504,52,16.0392
		V64v7.9608V72h0.004c0.0075,3.2988,1.0095,6.3712,2.7283,8.92c1.7248,2.5604,4.168,4.5976,7.0372,5.8164
		C63.6835,87.5508,65.7891,88,67.9979,88h27.1232l-2.4004,12h38.5584L128.8787,88z M60,16.0392C60,11.6076,63.588,8,67.9979,8
		h88.004C160.412,8,164,11.6076,164,16.0392V64H60V16.0392z M60.004,72h103.992c-0.0213,4.414-3.5977,8-7.9941,8H124h-24H67.9979
		C63.6015,80,60.0251,76.414,60.004,72z"/>
	<path fill="#89714D" d="M20,128h16h40v-20H20V128z M40,116h16v8H40V116z"/>
	<path fill="#89714D" d="M96,108H84v20h56v-20h-12H96z M120,124h-16v-8h16V124z"/>
	<path fill="#89714D" d="M148,108v20h40h16v-20H148z M184,124h-16v-8h16V124z"/>
	<path fill="#BC9A67" d="M224,100h-12h-4h-60h-8h-8.7209H92.7207H84h-8H16h-4H0v8h12v20v8v80h24v-80h40h8h56h8h40v80h24v-80v-8v-20
		h12V100z M76,128H36H20v-20h56V128z M140,128H84v-20h12h32h12V128z M188,128h-40v-20h56v20H188z"/>
	<rect x="40" y="116" fill="#BC9A67" width="16" height="8"/>
	<rect x="104" y="116" fill="#BC9A67" width="16" height="8"/>
	<rect x="168" y="116" fill="#BC9A67" width="16" height="8"/>
	<path fill="#90A9AE" d="M167.3203,83.3028c2.8828-2.8928,4.664-6.8888,4.6757-11.3028l0,0
		C171.9843,76.414,170.2031,80.41,167.3203,83.3028z"/>
	<path fill="#90A9AE" d="M54.7323,80.92c1.7248,2.5604,4.168,4.5976,7.0372,5.8164C58.9003,85.5176,56.4571,83.4804,54.7323,80.92z"
		/>
	<path fill="#90A9AE" d="M59.0467,2.7384C54.7927,5.6212,52,10.502,52,16.0392C52,10.504,54.7927,5.6212,59.0467,2.7384z"/>
	<path fill="#90A9AE" d="M67.9979,0c-3.3204,0-6.3984,1.0096-8.9512,2.7384C61.5995,1.0096,64.6775,0,67.9979,0L67.9979,0z"/>
	<path fill="#90A9AE" d="M164,16.0392C164,11.6076,160.412,8,156.0019,8h-88.004C63.588,8,60,11.6076,60,16.0392V64h104V16.0392z
		 M78.828,18.828l-8,8C70.0467,27.6092,69.0235,28,68,28c-1.0237,0-2.0469-0.3908-2.828-1.172c-1.5629-1.5624-1.5629-4.0936,0-5.656
		l8-8c1.5623-1.5628,4.0935-1.5628,5.656,0C80.3907,14.7344,80.3907,17.2656,78.828,18.828z"/>
	<path fill="#90A9AE" d="M67.9979,88L67.9979,88c-2.2088,0-4.3144-0.4492-6.2284-1.2636C63.6835,87.5508,65.7891,88,67.9979,88z"/>
	<path fill="#90A9AE" d="M124,80h32.0019c4.3964,0,7.9728-3.586,7.9941-8H60.004c0.0211,4.414,3.5975,8,7.9939,8H100H124z"/>
	<path fill="#DBEEF7" d="M73.172,13.172l-8,8c-1.5629,1.5624-1.5629,4.0936,0,5.656C65.9531,27.6092,66.9763,28,68,28
		c1.0235,0,2.0467-0.3908,2.828-1.172l8-8c1.5627-1.5624,1.5627-4.0936,0-5.656C77.2655,11.6092,74.7343,11.6092,73.172,13.172z"/>
</g>
</svg>
