<?xml version="1.0" encoding="utf-8"?>
<!-- Generator: Adobe Illustrator 19.2.0, SVG Export Plug-In . SVG Version: 6.00 Build 0)  -->
<svg version="1.1" id="mirror" xmlns="http://www.w3.org/2000/svg" xmlns:xlink="http://www.w3.org/1999/xlink" x="0px" y="0px"
	 viewBox="0 0 152 216" enable-background="new 0 0 152 216" xml:space="preserve">
<g>
	<path fill="#89714D" d="M76,192c-1.34,0-2.6757-0.0468-4-0.1348V208H60v8h32v-8H80v-16.1348C78.6755,191.9532,77.34,192,76,192z"/>
	<path fill="#618287" d="M80,191.8652c40.0547-2.6348,72-44.6268,72-95.8652c0-52.9336-34.0937-96-76-96C34.0935,0,0,43.0664,0,96
		c0,51.2384,31.9451,93.2304,72,95.8652c1.3243,0.088,2.66,0.1348,4,0.1348C77.34,192,78.6755,191.9532,80,191.8652z M16,96
		c0-44.1112,26.9139-80,60-80c33.0859,0,60,35.8888,60,80s-26.9141,80-60,80C42.9139,176,16,140.1112,16,96z"/>
	<path fill="#8F89F5" d="M136,96c0-44.1112-26.9141-80-60-80c-33.0861,0-60,35.8888-60,80s26.9139,80,60,80
		C109.0859,176,136,140.1112,136,96z M24,96c0-39.7012,23.328-72,52-72s52,32.2988,52,72s-23.328,72-52,72S24,135.7012,24,96z"/>
	<path fill="#BDB9FF" d="M128,96c0-39.7012-23.328-72-52-72S24,56.2988,24,96s23.328,72,52,72S128,135.7012,128,96z M102.828,69.172
		c1.5627,1.5624,1.5627,4.0936,0,5.656l-12,12C90.0467,87.6092,89.0235,88,88,88c-1.0237,0-2.0469-0.3908-2.828-1.172
		c-1.5629-1.5624-1.5629-4.0936,0-5.656l12-12C98.7343,67.6092,101.2655,67.6092,102.828,69.172z M49.172,97.172l32-32
		c1.5623-1.5628,4.0935-1.5628,5.656,0c1.5627,1.5624,1.5627,4.0936,0,5.656l-32,32C54.0467,103.6092,53.0235,104,52,104
		c-1.0237,0-2.0469-0.3908-2.828-1.172C47.6091,101.2656,47.6091,98.7344,49.172,97.172z M81.1523,96.504l-6.3243,6.324
		C74.0467,103.6092,73.0235,104,72,104c-1.0237,0-2.0469-0.3908-2.828-1.172c-1.5629-1.5624-1.5629-4.0936,0-5.656l6.324-6.3244
		c1.5623-1.5624,4.0939-1.5624,5.6563,0S82.7147,94.9416,81.1523,96.504z M54.828,122.828C54.0467,123.6092,53.0235,124,52,124
		c-1.0237,0-2.0469-0.3908-2.828-1.172c-1.5629-1.5624-1.5629-4.0936,0-5.656l12-12c1.5623-1.5628,4.0935-1.5628,5.656,0
		c1.5627,1.5624,1.5627,4.0936,0,5.656L54.828,122.828z M72,124c-1.0237,0-2.0469-0.3908-2.828-1.172
		c-1.5629-1.5624-1.5629-4.0936,0-5.656l20-20c1.5623-1.5628,4.0935-1.5628,5.656,0c1.5627,1.5624,1.5627,4.0936,0,5.656l-20,20
		C74.0467,123.6092,73.0235,124,72,124z"/>
	<path fill="#B7F5F0" d="M52,104c1.0235,0,2.0467-0.3908,2.828-1.172l32-32c1.5627-1.5624,1.5627-4.0936,0-5.656
		c-1.5625-1.5628-4.0937-1.5628-5.656,0l-32,32c-1.5629,1.5624-1.5629,4.0936,0,5.656C49.9531,103.6092,50.9763,104,52,104z"/>
	<path fill="#B7F5F0" d="M94.828,97.172c-1.5625-1.5628-4.0937-1.5628-5.656,0l-20,20c-1.5629,1.5624-1.5629,4.0936,0,5.656
		C69.9531,123.6092,70.9763,124,72,124c1.0235,0,2.0467-0.3908,2.828-1.172l20-20C96.3907,101.2656,96.3907,98.7344,94.828,97.172z"
		/>
	<path fill="#B7F5F0" d="M66.828,105.172c-1.5625-1.5628-4.0937-1.5628-5.656,0l-12,12c-1.5629,1.5624-1.5629,4.0936,0,5.656
		C49.9531,123.6092,50.9763,124,52,124c1.0235,0,2.0467-0.3908,2.828-1.172l12-12C68.3907,109.2656,68.3907,106.7344,66.828,105.172
		z"/>
	<path fill="#B7F5F0" d="M75.496,90.8476l-6.324,6.3244c-1.5629,1.5624-1.5629,4.0936,0,5.656C69.9531,103.6092,70.9763,104,72,104
		c1.0235,0,2.0467-0.3908,2.828-1.172l6.3243-6.324c1.5624-1.5624,1.5624-4.094,0-5.6564S77.0583,89.2852,75.496,90.8476z"/>
	<path fill="#B7F5F0" d="M85.172,86.828C85.9531,87.6092,86.9763,88,88,88c1.0235,0,2.0467-0.3908,2.828-1.172l12-12
		c1.5627-1.5624,1.5627-4.0936,0-5.656c-1.5625-1.5628-4.0937-1.5628-5.656,0l-12,12C83.6091,82.7344,83.6091,85.2656,85.172,86.828
		z"/>
</g>
</svg>
