<?xml version="1.0" encoding="utf-8"?>
<!-- Generator: Adobe Illustrator 19.2.0, SVG Export Plug-In . SVG Version: 6.00 Build 0)  -->
<svg version="1.1" id="mirror2" xmlns="http://www.w3.org/2000/svg" xmlns:xlink="http://www.w3.org/1999/xlink" x="0px" y="0px"
	 viewBox="0 0 196 144" enable-background="new 0 0 196 144" xml:space="preserve">
<g>
	<path fill="#9D57C4" d="M163.9627,0H32.0371C14.332,0,0,14.328,0,32.004v79.992C0,129.668,14.3435,144,32.0371,144h131.9256
		C181.668,144,196,129.672,196,111.996V32.004C196,14.332,181.6563,0,163.9627,0z M180,107.9764
		C180,119.0352,171.0663,128,159.9727,128H36.0271C24.9667,128,16,119.0236,16,107.9764V36.0236
		c0-5.5296,2.2343-10.5352,5.8535-14.1584c2.7148-2.7188,6.2108-4.658,10.1288-5.4588C33.2891,16.1408,34.6407,16,36.0271,16
		h123.9456C171.0331,16,180,24.9764,180,36.0236V107.9764z"/>
	<path fill="#7BE5E4" d="M21.8535,21.8652c2.7148-2.7188,6.2108-4.658,10.1288-5.4588
		C28.0643,17.2072,24.5683,19.1464,21.8535,21.8652z"/>
	<path fill="#7BE5E4" d="M159.9727,24H36.0271C29.3943,24,24,29.3944,24,36.0236v71.9528C24,114.6056,29.3943,120,36.0271,120
		h14.584c0.164-0.2736,0.2932-0.5624,0.5296-0.7968L117.172,53.172c1.5623-1.5628,4.0935-1.5628,5.656,0
		c1.5627,1.5624,1.5627,4.0936,0,5.656L61.6563,120h98.3164C166.6035,120,172,114.6056,172,107.9764V36.0236
		C172,29.3944,166.6035,24,159.9727,24z M66.828,50.828l-6.1425,6.1428c-0.7812,0.7812-1.8048,1.1716-2.828,1.1716
		c-1.0236,0-2.0472-0.3904-2.8284-1.1716c-1.5624-1.5624-1.5624-4.094,0-5.6564l6.1429-6.1424c1.5623-1.5628,4.0935-1.5628,5.656,0
		C68.3907,46.7344,68.3907,49.2656,66.828,50.828z M146.828,54.828l-16,16C130.0467,71.6092,129.0235,72,128,72
		c-1.0237,0-2.0469-0.3908-2.828-1.172c-1.5629-1.5624-1.5629-4.0936,0-5.656l16-16c1.5623-1.5628,4.0935-1.5628,5.656,0
		C148.3907,50.7344,148.3907,53.2656,146.828,54.828z M162.828,38.828l-6.1425,6.1428c-0.7812,0.7812-1.8048,1.1716-2.828,1.1716
		c-1.0236,0-2.0472-0.3904-2.8284-1.1716c-1.5624-1.5624-1.5624-4.094,0-5.6564l6.1429-6.1424c1.5623-1.5628,4.0935-1.5628,5.656,0
		C164.3907,34.7344,164.3907,37.2656,162.828,38.828z"/>
	<path fill="#50CCD3" d="M159.9727,16H36.0271c-1.3864,0-2.738,0.1408-4.0448,0.4064c-3.918,0.8008-7.414,2.74-10.1288,5.4588
		C18.2343,25.4884,16,30.494,16,36.0236v71.9528C16,119.0236,24.9667,128,36.0271,128h123.9456
		C171.0663,128,180,119.0352,180,107.9764V36.0236C180,24.9764,171.0331,16,159.9727,16z M172,107.9764
		C172,114.6056,166.6035,120,159.9727,120H61.6563l61.1717-61.172c1.5627-1.5624,1.5627-4.0936,0-5.656
		c-1.5625-1.5628-4.0937-1.5628-5.656,0l-66.0313,66.0312c-0.2364,0.2344-0.3656,0.5232-0.5296,0.7968h-14.584
		C29.3943,120,24,114.6056,24,107.9764V36.0236C24,29.3944,29.3943,24,36.0271,24h123.9456C166.6035,24,172,29.3944,172,36.0236
		V107.9764z"/>
	<path fill="#50CCD3" d="M157.172,33.172l-6.1429,6.1424c-1.5624,1.5624-1.5624,4.094,0,5.6564
		c0.7812,0.7812,1.8048,1.1716,2.8284,1.1716c1.0232,0,2.0468-0.3904,2.828-1.1716l6.1425-6.1428
		c1.5627-1.5624,1.5627-4.0936,0-5.656C161.2655,31.6092,158.7343,31.6092,157.172,33.172z"/>
	<path fill="#50CCD3" d="M61.172,45.172l-6.1429,6.1424c-1.5624,1.5624-1.5624,4.094,0,5.6564
		c0.7812,0.7812,1.8048,1.1716,2.8284,1.1716c1.0232,0,2.0468-0.3904,2.828-1.1716l6.1425-6.1428
		c1.5627-1.5624,1.5627-4.0936,0-5.656C65.2655,43.6092,62.7343,43.6092,61.172,45.172z"/>
	<path fill="#50CCD3" d="M141.172,49.172l-16,16c-1.5629,1.5624-1.5629,4.0936,0,5.656C125.9531,71.6092,126.9763,72,128,72
		c1.0235,0,2.0467-0.3908,2.828-1.172l16-16c1.5627-1.5624,1.5627-4.0936,0-5.656C145.2655,47.6092,142.7343,47.6092,141.172,49.172
		z"/>
</g>
</svg>
