<?xml version="1.0" encoding="utf-8"?>
<!-- Generator: Adobe Illustrator 19.2.0, SVG Export Plug-In . SVG Version: 6.00 Build 0)  -->
<svg version="1.1" id="mirror3" xmlns="http://www.w3.org/2000/svg" xmlns:xlink="http://www.w3.org/1999/xlink" x="0px" y="0px"
	 viewBox="0 0 198.0004 192.0604" enable-background="new 0 0 198.0004 192.0604" xml:space="preserve">
<g>
	<path fill="none" d="M92,140V89.3984c-1.0585,1.9024-2.1797,3.754-3.4181,5.496C84.5059,100.6212,79.5,105.4296,73.8339,109
		c-5.668,3.5704-11.9979,5.9084-18.7208,6.6992C53.4315,115.8984,51.7263,116,50,116c-17.6309,0-33.0977-10.6112-42-26.6016V140H92z
		"/>
	<rect x="8" y="152" fill="none" width="84" height="12"/>
	<path fill="#FE8657" d="M92,89.3984V140H8V89.3984C3.252,80.8712,0.4063,70.8164,0.0859,60H0v80v12v12v12v16.0604h8V176h84v16.0604
		h8V176v-12v-12v-12V60h-0.0861c-0.2732,9.258-2.3592,17.9824-5.9492,25.6464C93.3611,86.9356,92.6835,88.17,92,89.3984z M92,164H8
		v-12h84V164z"/>
	<path fill="#A9C7D8" d="M50,8C26.8415,8,8,30.4296,8,58s18.8415,50,42,50c23.1583,0,42-22.4296,42-50S73.1583,8,50,8z
		 M24.6795,41.664L41.172,25.172c1.5623-1.5628,4.0935-1.5628,5.656,0c1.5627,1.5624,1.5627,4.0936,0,5.656L30.336,47.3204
		c-0.7813,0.7812-1.8049,1.1716-2.828,1.1716c-1.0237,0-2.0473-0.3904-2.8285-1.1716C23.1171,45.758,23.1171,43.2264,24.6795,41.664
		z M66.828,30.828L26.6287,71.0272c-0.7812,0.7812-1.8044,1.172-2.828,1.172c-1.0236,0-2.0468-0.3908-2.828-1.172
		c-1.5628-1.5624-1.5628-4.0936,0-5.656L61.172,25.172c1.5623-1.5628,4.0935-1.5628,5.656,0
		C68.3907,26.7344,68.3907,29.2656,66.828,30.828z"/>
	<path fill="#78E0DF" d="M93.9647,30.3536c-1.5392-3.2872-3.3436-6.3828-5.3828-9.248C84.5059,15.3788,79.5,10.5724,73.8339,7
		c-5.668-3.5704-11.9979-5.9084-18.7208-6.6992C53.4315,0.1016,51.7263,0,50,0C22.3847,0,0,25.9688,0,58
		c0,0.6756,0.0663,1.33,0.0859,2C0.4063,70.8164,3.252,80.8712,8,89.3984C16.9023,105.3888,32.3691,116,50,116
		c1.7263,0,3.4315-0.1016,5.1131-0.3008c6.7229-0.7908,13.0528-3.1288,18.7208-6.6992c5.6661-3.5704,10.672-8.3788,14.748-14.1056
		c1.2384-1.742,2.3596-3.5936,3.4181-5.496c0.6835-1.2284,1.3611-2.4628,1.9647-3.752c3.59-7.664,5.676-16.3884,5.9492-25.6464
		C99.9335,59.33,100,58.6756,100,58C100,47.9904,97.8143,38.5724,93.9647,30.3536z M50,108C26.8415,108,8,85.5704,8,58
		S26.8415,8,50,8c23.1583,0,42,22.4296,42,50S73.1583,108,50,108z"/>
	<path fill="#9AB040" d="M197.9023,184.9256L186.8243,124h7.318v-12H126v12h7.1755l-11.078,60.9256
		c-0.5935,3.262,1.5684,6.3848,4.828,6.9768c0.3636,0.0664,0.7248,0.0996,1.0825,0.0996c2.8435,0,5.3687-2.0312,5.8943-4.9276
		L145.3711,124h29.2576l11.4688,63.0744c0.5256,2.8964,3.0508,4.9276,5.8945,4.9276c0.3575,0,0.7187-0.0332,1.0823-0.0996
		C196.3339,191.3104,198.496,188.1876,197.9023,184.9256z"/>
	<path fill="#78E0DF" d="M27.508,48.492c1.0231,0,2.0467-0.3904,2.828-1.1716L46.828,30.828c1.5627-1.5624,1.5627-4.0936,0-5.656
		c-1.5625-1.5628-4.0937-1.5628-5.656,0L24.6795,41.664c-1.5624,1.5624-1.5624,4.094,0,5.6564
		C25.4607,48.1016,26.4843,48.492,27.508,48.492z"/>
	<path fill="#78E0DF" d="M61.172,25.172L20.9727,65.3712c-1.5628,1.5624-1.5628,4.0936,0,5.656
		c0.7812,0.7812,1.8044,1.172,2.828,1.172c1.0236,0,2.0468-0.3908,2.828-1.172L66.828,30.828c1.5627-1.5624,1.5627-4.0936,0-5.656
		C65.2655,23.6092,62.7343,23.6092,61.172,25.172z"/>
</g>
</svg>
