<?xml version="1.0" encoding="utf-8"?>
<!-- Generator: Adobe Illustrator 19.2.0, SVG Export Plug-In . SVG Version: 6.00 Build 0)  -->
<svg version="1.1" id="modernchair" xmlns="http://www.w3.org/2000/svg" xmlns:xlink="http://www.w3.org/1999/xlink" x="0px"
	 y="0px" viewBox="0 0 126.8542 206.0021" enable-background="new 0 0 126.8542 206.0021" xml:space="preserve">
<g>
	<path fill="#89714D" d="M126.5794,198.2109l-28.1952-90.2204c-0.0628,0-0.1252,0.0095-0.1876,0.0095H85.8178l29.3084,93.7893
		c0.8008,2.5684,3.168,4.2128,5.7269,4.2128c0.5895,0,1.1951-0.0901,1.7887-0.2756
		C125.8058,204.7385,127.5678,201.3733,126.5794,198.2109z"/>
	<path fill="#89714D" d="M28.4662,107.996L0.2746,198.2109c-0.988,3.1624,0.7736,6.5276,3.9376,7.5156
		c0.5936,0.1855,1.1992,0.2756,1.7892,0.2756c2.5544,0,4.9256-1.6444,5.7264-4.2128L41.0366,108h-12.5
		C28.5131,108,28.4894,107.996,28.4662,107.996z"/>
	<path fill="#D793FD" d="M98.3842,107.9905c17.6092-0.1016,29.0664-14.0724,25.6756-31.3008c0,0-6.6952-76.6897-60.6952-76.6897
		S2.6886,76.6173,2.6886,76.6173c-3.8672,17.2404,8.1292,31.3416,25.7776,31.3787c0.0232,0,0.0469,0.004,0.0704,0.004h12.5h44.7812
		h12.3788C98.259,108,98.3214,107.9905,98.3842,107.9905z M34.5051,83.912c-2.16-0.4627-3.5349-2.5895-3.0701-4.7499
		c0.4648-2.16,2.5976-3.5372,4.7461-3.0741C36.3646,76.1269,54.5482,80,63.3451,80c8.7967,0,26.9803-3.8731,27.164-3.912
		c2.1483-0.4787,4.2811,0.912,4.7459,3.0741c0.4652,2.1604-0.9099,4.2872-3.0699,4.7499C91.4034,84.0781,72.9894,88,63.3451,88
		C53.7006,88,35.2866,84.0781,34.5051,83.912z"/>
	<path fill="#B976DD" d="M95.255,79.1621C94.7902,77,92.6574,75.6093,90.5091,76.088C90.3254,76.1269,72.1418,80,63.3451,80
		c-8.7969,0-26.9805-3.8731-27.164-3.912c-2.1485-0.4631-4.2813,0.9141-4.7461,3.0741c-0.4648,2.1604,0.9101,4.2872,3.0701,4.7499
		C35.2866,84.0781,53.7006,88,63.3451,88c9.6443,0,28.0583-3.9219,28.84-4.088C94.3451,83.4493,95.7202,81.3225,95.255,79.1621z"/>
</g>
</svg>
