<?xml version="1.0" encoding="utf-8"?>
<!-- Generator: Adobe Illustrator 19.2.0, SVG Export Plug-In . SVG Version: 6.00 Build 0)  -->
<svg version="1.1" id="mozaic" xmlns="http://www.w3.org/2000/svg" xmlns:xlink="http://www.w3.org/1999/xlink" x="0px" y="0px"
	 viewBox="0 0 220 204" enable-background="new 0 0 220 204" xml:space="preserve">
<g>
	<polygon fill="#4F676D" points="88,12 200,12 200,196 212,196 212,0 76,0 76,196 88,196 	"/>
	<path fill="#618287" d="M88,12v184h112V12H88z M156,116v-8h28v8H156z"/>
	<rect x="156" y="108" fill="#535353" width="28" height="8"/>
	<polygon fill="#535353" points="212,196 200,196 88,196 76,196 0,196 0,204 76,204 88,204 200,204 212,204 220,204 220,196 	"/>
	<rect x="32" y="12" fill="#FFDC82" width="24" height="28"/>
	<rect x="32" y="48" fill="#FFDC82" width="24" height="28"/>
	<rect x="32" y="84" fill="#FFDC82" width="24" height="28"/>
	<rect x="32" y="120" fill="#FFDC82" width="24" height="28"/>
	<rect x="32" y="156" fill="#FFDC82" width="24" height="28"/>
	<path fill="#50CCD3" d="M64,156v-8v-28v-8V84v-8V48v-8V4H24v36v8v28v8v28v8v28v8v36h40V156z M32,12h24v28H32V12z M32,48h24v28H32
		V48z M32,84h24v28H32V84z M32,120h24v28H32V120z M56,184H32v-28h24V184z"/>
</g>
</svg>
