<?xml version="1.0" encoding="utf-8"?>
<!-- Generator: Adobe Illustrator 19.2.0, SVG Export Plug-In . SVG Version: 6.00 Build 0)  -->
<svg version="1.1" id="nightstand" xmlns="http://www.w3.org/2000/svg" xmlns:xlink="http://www.w3.org/1999/xlink" x="0px" y="0px"
	 viewBox="0 0 136 184" enable-background="new 0 0 136 184" xml:space="preserve">
<g>
	<rect x="16" y="20" fill="#FE8657" width="52" height="12"/>
	<polygon fill="#50CCD3" points="80,32 68,32 16,32 16,40 16,44 80,44 	"/>
	<polygon fill="#50CCD3" points="112,44 124,44 124,0 104,0 104,16 112,16 	"/>
	<polygon fill="#63B473" points="112,44 112,16 104,16 92,16 92,44 	"/>
	<path fill="#89714D" d="M132,44h-8h-12H92H80H16H4c-2.2088,0-4,1.7893-4,4v44c0-2.2107,1.7912-4,4-4h128c2.2087,0,4,1.7893,4,4V48
		C136,45.7893,134.2087,44,132,44z M94.828,74.828C94.0468,75.6093,93.0236,76,92,76s-2.0468-0.3907-2.828-1.172L82.3436,68H53.6564
		l-6.8284,6.828c-1.5624,1.5629-4.0936,1.5629-5.656,0c-1.5628-1.5623-1.5628-4.0935,0-5.656l8-8C49.922,60.4221,50.9396,60,52,60
		h32c1.0604,0,2.078,0.4221,2.828,1.172l8,8C96.3908,70.7345,96.3908,73.2657,94.828,74.828z"/>
	<path fill="#BC9A67" d="M132,88H4c-2.2088,0-4,1.7893-4,4v44c0-2.2107,1.7912-4,4-4h128c2.2087,0,4,1.7893,4,4V92
		C136,89.7893,134.2087,88,132,88z M94.828,118.828C94.0468,119.6093,93.0236,120,92,120s-2.0468-0.3907-2.828-1.172L82.3436,112
		H53.6564l-6.8284,6.828c-1.5624,1.5629-4.0936,1.5629-5.656,0c-1.5628-1.5623-1.5628-4.0935,0-5.656l8-8
		C49.922,104.4221,50.9396,104,52,104h32c1.0604,0,2.078,0.4221,2.828,1.172l8,8C96.3908,114.7345,96.3908,117.2657,94.828,118.828z
		"/>
	<path fill="#89714D" d="M132,132H4c-2.2088,0-4,1.7893-4,4v44c0,2.2109,1.7912,4,4,4h128c2.2087,0,4-1.7891,4-4v-44
		C136,133.7893,134.2087,132,132,132z M94.828,162.828C94.0468,163.6093,93.0236,164,92,164s-2.0468-0.3907-2.828-1.172L82.3436,156
		H53.6564l-6.8284,6.828c-1.5624,1.5629-4.0936,1.5629-5.656,0c-1.5628-1.5623-1.5628-4.0935,0-5.656l8-8
		C49.922,148.4221,50.9396,148,52,148h32c1.0604,0,2.078,0.4221,2.828,1.172l8,8C96.3908,158.7345,96.3908,161.2657,94.828,162.828z
		"/>
	<path fill="#D8F768" d="M86.828,149.172C86.078,148.4221,85.0604,148,84,148H52c-1.0604,0-2.078,0.4221-2.828,1.172l-8,8
		c-1.5628,1.5625-1.5628,4.0937,0,5.656c1.5624,1.5629,4.0936,1.5629,5.656,0L53.6564,156h28.6872l6.8284,6.828
		C89.9532,163.6093,90.9764,164,92,164s2.0468-0.3907,2.828-1.172c1.5628-1.5623,1.5628-4.0935,0-5.656L86.828,149.172z"/>
	<path fill="#D8F768" d="M86.828,105.172C86.078,104.4221,85.0604,104,84,104H52c-1.0604,0-2.078,0.4221-2.828,1.172l-8,8
		c-1.5628,1.5625-1.5628,4.0937,0,5.656c1.5624,1.5629,4.0936,1.5629,5.656,0L53.6564,112h28.6872l6.8284,6.828
		C89.9532,119.6093,90.9764,120,92,120s2.0468-0.3907,2.828-1.172c1.5628-1.5623,1.5628-4.0935,0-5.656L86.828,105.172z"/>
	<path fill="#D8F768" d="M86.828,61.172C86.078,60.4221,85.0604,60,84,60H52c-1.0604,0-2.078,0.4221-2.828,1.172l-8,8
		c-1.5628,1.5625-1.5628,4.0937,0,5.656c1.5624,1.5629,4.0936,1.5629,5.656,0L53.6564,68h28.6872l6.8284,6.828
		C89.9532,75.6093,90.9764,76,92,76s2.0468-0.3907,2.828-1.172c1.5628-1.5623,1.5628-4.0935,0-5.656L86.828,61.172z"/>
</g>
</svg>
