<?xml version="1.0" encoding="utf-8"?>
<!-- Generator: Adobe Illustrator 19.2.0, SVG Export Plug-In . SVG Version: 6.00 Build 0)  -->
<svg version="1.1" id="oldchair" xmlns="http://www.w3.org/2000/svg" xmlns:xlink="http://www.w3.org/1999/xlink" x="0px" y="0px"
	 viewBox="0 0 132.0643 224" enable-background="new 0 0 132.0643 224" xml:space="preserve">
<g>
	<path fill="none" d="M121.1407,10.1444C119.8495,8.7616,118.0175,8,115.9823,8H112v100h4.5331l6.3869-92.6016
		C123.0583,13.3868,122.4255,11.5216,121.1407,10.1444z"/>
	<rect x="92" y="8" fill="none" width="12" height="100"/>
	<rect x="8" y="132" fill="none" width="8" height="36"/>
	<path fill="none" d="M20.0176,8c-2.0468,0-3.8828,0.758-5.168,2.1368c-1.2812,1.3712-1.908,3.24-1.7696,5.2616L19.4668,108H24V8
		H20.0176z"/>
	<rect x="32" y="8" fill="none" width="12" height="100"/>
	<rect x="52" y="8" fill="none" width="12" height="100"/>
	<rect x="72" y="8" fill="none" width="12" height="100"/>
	<rect x="116" y="132" fill="none" width="8" height="36"/>
	<rect x="24" y="132" fill="none" width="84" height="36"/>
	<path fill="#89714D" d="M0.2852,126.59c0.0232-0.0648,0.0352-0.1328,0.0644-0.1976C0.3204,126.4552,0.3104,126.5252,0.2852,126.59z
		"/>
	<path fill="#89714D" d="M131.6503,126.3924c0.0292,0.0648,0.0392,0.1312,0.0644,0.1976
		C131.6895,126.5236,131.6795,126.4552,131.6503,126.3924z"/>
	<path fill="#89714D" d="M132.0643,168H132v-40c0-0.0584-0.0313-0.1056-0.0333-0.162c0.0333,0.8028-0.1464,1.6072-0.59,2.3064
		C130.6423,131.3008,129.3691,132,128,132h-4v36h-8v-36h-8v36H24v-36h-8v36H8v-36H4c-1.3692,0-2.6424-0.6992-3.3768-1.8556
		c-0.4436-0.6992-0.6232-1.5036-0.59-2.3084C0.0312,127.8944,0,127.9416,0,128v40v8v44c0,2.2088,1.7912,4,4,4s4-1.7912,4-4v-44h8v20
		h8v-20h84v20h8v-20h8v44c0,2.2088,1.7911,4,4,4c2.2087,0,4-1.7912,4-4v-44h0.0643V168z"/>
	<rect x="32" fill="#89704D" width="12" height="8"/>
	<rect x="52" fill="#89704D" width="12" height="8"/>
	<rect x="72" fill="#89704D" width="12" height="8"/>
	<rect x="92" fill="#89704D" width="12" height="8"/>
	<path fill="#89704D" d="M19.4668,108L13.08,15.3984c-0.1384-2.0216,0.4884-3.8904,1.7696-5.2616C16.1348,8.758,17.9708,8,20.0176,8
		H24V0h-3.9824C11.1564,0,4.492,7.1408,5.0996,15.9492l6.3496,92.0604C11.4728,108.008,11.492,108,11.5156,108H19.4668z"/>
	<path fill="#89704D" d="M115.9823,8c2.0352,0,3.8672,0.7616,5.1584,2.1444c1.2848,1.3772,1.9176,3.2424,1.7793,5.254L116.5331,108
		h3.9512c1.5508,0,2.9608,0.8964,3.6212,2.2988l0.25,0.5352l6.5448-94.8848C131.5059,7.168,124.828,0,115.9823,0H112v8H115.9823z"/>
	<polygon fill="#89714D" points="24,108 32,108 32,8 32,0 24,0 24,8 	"/>
	<polygon fill="#89714D" points="64,108 72,108 72,8 72,0 64,0 64,8 	"/>
	<polygon fill="#89714D" points="104,108 112,108 112,8 112,0 104,0 104,8 	"/>
	<polygon fill="#89714D" points="44,108 52,108 52,8 52,0 44,0 44,8 	"/>
	<polygon fill="#89714D" points="84,108 92,108 92,8 92,0 84,0 84,8 	"/>
	<path fill="#BC9A67" d="M0.6232,130.1444C1.3576,131.3008,2.6308,132,4,132h4h8h8h84h8h8h4c1.3691,0,2.6423-0.6992,3.3767-1.8556
		c0.4436-0.6992,0.6233-1.5036,0.59-2.3064c-0.0176-0.424-0.0976-0.842-0.252-1.248c-0.0252-0.0664-0.0352-0.1328-0.0644-0.1976
		c-0.0116-0.0292-0.0156-0.0624-0.0292-0.0936l-7.2656-15.4648l-0.25-0.5352c-0.6604-1.4024-2.0704-2.2988-3.6212-2.2988h-3.9512
		H112h-8H92h-8H72h-8H52h-8H32h-8h-4.5332h-7.9512c-0.0236,0-0.0428,0.008-0.0664,0.0096
		c-1.5236,0.0256-2.9044,0.9084-3.5548,2.2892l-7.5156,16c-0.0136,0.0312-0.0176,0.0644-0.0292,0.0936
		c-0.0292,0.0648-0.0412,0.1328-0.0644,0.1976c-0.1544,0.406-0.2344,0.824-0.252,1.246C0,128.6408,0.1796,129.4452,0.6232,130.1444z
		"/>
</g>
</svg>
