<?xml version="1.0" encoding="utf-8"?>
<!-- Generator: Adobe Illustrator 19.2.0, SVG Export Plug-In . SVG Version: 6.00 Build 0)  -->
<svg version="1.1" id="oldcloset" xmlns="http://www.w3.org/2000/svg" xmlns:xlink="http://www.w3.org/1999/xlink" x="0px" y="0px"
	 viewBox="0 0 176 196" enable-background="new 0 0 176 196" xml:space="preserve">
<g>
	<path fill="#89714D" d="M155.9747,0H80H20.0251C8.9823,0,0,8.9749,0,20.008V180c0,2.2089,1.7911,4,4,4h8v12h8v-12h60h76v12h8v-12h8
		c2.2087,0,4-1.7911,4-4V20.008C176,8.9749,167.0175,0,155.9747,0z M20.0251,8H76v28H8V20.008C8,13.3869,13.3943,8,20.0251,8z
		 M12,108H8V80h40h16h12v28H56H12z M76,64v8h-8H44H8V44h68V64z M12,176H8v-60h8h36h24v60H20H12z M168,176h-4h-8H84v-60v-8V80v-4v-4
		V60V44v-8V8h36V4h8v4h27.9747C162.6055,8,168,13.3869,168,20.008V176z"/>
	<polygon fill="#FFDC82" points="76,116 52,116 16,116 8,116 8,176 12,176 20,176 76,176 	"/>
	<path fill="#FFDC82" d="M76,80H64H48H8v28h4V96c0-2.2087,1.7911-4,4-4h36c2.2087,0,4,1.7913,4,4v12h20V80z"/>
	<path fill="#FFDC82" d="M76,36V8H20.0251C13.3943,8,8,13.3869,8,20.008V36H76z"/>
	<path fill="#FFDC82" d="M8,72h36V60c0-2.2087,1.7911-4,4-4h16c2.2087,0,4,1.7913,4,4v4v8h8v-8V44H8V72z"/>
	<path fill="#FFDC82" d="M155.9747,8H128v76.4025c9.1287,1.8535,16,9.922,16,19.5975c0,11.0449-8.9553,20-20,20
		c-11.0449,0-20-8.9551-20-20c0-9.6755,6.8711-17.744,16-19.5975V8H84v28v8v16v12v4v4v28v8v60h72h8h4V20.008
		C168,13.3869,162.6055,8,155.9747,8z"/>
	<path fill="#B976DD" d="M124,84c1.3691,0,2.7071,0.1409,4,0.4025V8V4h-8v4v76.4025C121.2927,84.1409,122.6307,84,124,84z"/>
	<path fill="#D793FD" d="M120,84.4025c-9.1289,1.8535-16,9.922-16,19.5975c0,11.0449,8.9551,20,20,20c11.0447,0,20-8.9551,20-20
		c0-9.6755-6.8713-17.744-16-19.5975C126.7071,84.1409,125.3691,84,124,84C122.6307,84,121.2927,84.1409,120,84.4025z"/>
	<path fill="#FD5A5A" d="M52,92H16c-2.2089,0-4,1.7913-4,4v12h44V96C56,93.7913,54.2087,92,52,92z"/>
	<path fill="#7BE5E4" d="M68,60c0-2.2087-1.7913-4-4-4H48c-2.2089,0-4,1.7913-4,4v12h24v-8V60z"/>
</g>
</svg>
