<?xml version="1.0" encoding="utf-8"?>
<!-- Generator: Adobe Illustrator 19.2.0, SVG Export Plug-In . SVG Version: 6.00 Build 0)  -->
<svg version="1.1" id="opendoor" xmlns="http://www.w3.org/2000/svg" xmlns:xlink="http://www.w3.org/1999/xlink" x="0px" y="0px"
	 viewBox="0 0 180 204" enable-background="new 0 0 180 204" xml:space="preserve">
<g>
	<polygon fill="#FFDC82" points="80,26 135.3827,8 32,8 32,196 120,196 80,188 	"/>
	<path fill="#A48659" d="M80,26v162l40,8h32h8V0l-24.6173,8L80,26z M104,120H92v-8h12V120z"/>
	<rect x="92" y="112" fill="#535353" width="12" height="8"/>
	<polygon fill="#89714D" points="160,196 152,196 120,196 32,196 32,8 135.3827,8 160,0 24,0 24,196 0,196 0,204 24,204 160,204 
		180,204 180,196 	"/>
</g>
</svg>
