<?xml version="1.0" encoding="utf-8"?>
<!-- Generator: Adobe Illustrator 19.2.0, SVG Export Plug-In . SVG Version: 6.00 Build 0)  -->
<svg version="1.1" id="opencloset" xmlns="http://www.w3.org/2000/svg" xmlns:xlink="http://www.w3.org/1999/xlink" x="0px" y="0px"
	 viewBox="0 0 164 220.0002" enable-background="new 0 0 164 220.0002" xml:space="preserve">
<g>
	<path fill="#618287" d="M88,180.0002v24c0,2.2088-1.7913,4-4,4h36v-28H88z"/>
	<polygon fill="#618287" points="88,64.0002 92,64.0002 100,64.0002 108,64.0002 116,64.0002 120,64.0002 120,56.0002 88,56.0002 	
		"/>
	<polygon fill="#618287" points="116,88.0002 108,88.0002 108,72.0002 100,72.0002 100,88.0002 92,88.0002 92,72.0002 88,72.0002 
		88,172.0002 120,172.0002 120,72.0002 116,72.0002 	"/>
	<path fill="#618287" d="M88,12.0002v36h32v-40H84C86.2087,8.0002,88,9.7914,88,12.0002z"/>
	<rect x="20" y="208.0002" fill="#4F676D" width="8" height="12"/>
	<path fill="#4F676D" d="M140,210.883v9.1172h8v-11.9784c-0.6329,0.2792-1.244,0.6112-1.8965,0.828L140,210.883z"/>
	<path fill="#C1DB66" d="M88,204.0002v-24v-8v-100v-8v-8v-8v-36c0-2.2088-1.7913-4-4-4H19.996C8.9707,8.0002,0,16.9906,0,28.0394
		V187.961c0,11.0488,8.9707,20.0392,19.996,20.0392H20h8h56C86.2087,208.0002,88,206.209,88,204.0002z M72,120.0002h-8v-28h8
		V120.0002z"/>
	<path fill="#9AB040" d="M146.1035,7.1506l-20.838-6.9452c-1.2244-0.4064-2.5604-0.2032-3.6055,0.5508
		c-1.0429,0.752-1.66,1.9588-1.66,3.244v4v40v8v8v8v100v8v28v4c0,1.2852,0.6171,2.492,1.66,3.244
		c0.6915,0.498,1.512,0.756,2.34,0.756c0.4255,0,0.8515-0.0684,1.2655-0.2052L140,210.883l6.1035-2.0332
		c0.6525-0.2168,1.2636-0.5488,1.8965-0.828c9.0975-4.0176,16-14.1232,16-24.0276V32.0082
		C164,21.4162,156.1387,10.4982,146.1035,7.1506z M132,92.0002h8v28h-8V92.0002z"/>
	<rect x="64" y="92.0002" fill="#456782" width="8" height="28"/>
	<rect x="132" y="92.0002" fill="#456782" width="8" height="28"/>
	<rect x="88" y="48.0002" fill="#535353" width="32" height="8"/>
	<polygon fill="#535353" points="108,64.0002 100,64.0002 92,64.0002 88,64.0002 88,72.0002 92,72.0002 92,88.0002 100,88.0002 
		100,72.0002 108,72.0002 108,88.0002 116,88.0002 116,72.0002 120,72.0002 120,64.0002 116,64.0002 	"/>
	<rect x="88" y="172.0002" fill="#535353" width="32" height="8"/>
</g>
</svg>
