<?xml version="1.0" encoding="utf-8"?>
<!-- Generator: Adobe Illustrator 19.2.0, SVG Export Plug-In . SVG Version: 6.00 Build 0)  -->
<svg version="1.1" id="openmachine" xmlns="http://www.w3.org/2000/svg" xmlns:xlink="http://www.w3.org/1999/xlink" x="0px"
	 y="0px" viewBox="0 0 196.0019 188" enable-background="new 0 0 196.0019 188" xml:space="preserve">
<g>
	<path fill="#9D57C4" d="M168.001,11.9885c0-2.1992-1.7853-3.9885-3.9805-3.9885H31.9813c-2.1952,0-3.9803,1.7893-3.9803,3.9885V24
		h140V11.9885z M148.001,20h-12v-8h12V20z"/>
	<polygon fill="#9D57C4" points="124.001,40 168.001,40 168.001,32 28.001,32 28.001,40 72.001,40 	"/>
	<polygon fill="#9D57C4" points="36.001,172 36.001,180 36.001,188 44.001,188 44.001,180 156.001,180 156.001,188 164.001,188 
		164.001,180 164.001,172 164.001,164 36.001,164 	"/>
	<path fill="#B976DD" d="M195.0401,41.3985C194.2821,40.5117,193.169,40,192.001,40h-16V11.9885
		C176.001,5.3673,170.6377,0,164.0205,0H31.9813C25.3721,0,20.001,5.3673,20.001,11.9885V24v8v8h-16
		c-1.168,0-2.2813,0.5117-3.0393,1.3985c-0.7616,0.8908-1.0936,2.0664-0.914,3.2188l16.9296,108.1172
		C17.9657,159.0509,23.7549,164,30.1573,164h5.8437h128h1.8435c6.4024,0,12.1916-4.9491,13.18-11.2655l16.9296-108.1172
		C196.1337,43.4649,195.8017,42.2893,195.0401,41.3985z M28.001,11.9885C28.001,9.7893,29.7861,8,31.9813,8h132.0392
		c2.1952,0,3.9805,1.7893,3.9805,3.9885V24h-140V11.9885z M28.001,32h140v8h-44c2.2107,0,4,1.7893,4,4v16c0,2.2109-1.7893,4-4,4h-52
		c-2.2109,0-4-1.7891-4-4V44c0-2.2107,1.7891-4,4-4h-44V32z"/>
	<path fill="#D793FD" d="M68.001,44v16c0,2.2109,1.7891,4,4,4h52c2.2107,0,4-1.7891,4-4V44c0-2.2107-1.7893-4-4-4h-52
		C69.7901,40,68.001,41.7893,68.001,44z"/>
	<rect x="136.001" y="12" fill="#D8F768" width="12" height="8"/>
</g>
</svg>
