<?xml version="1.0" encoding="utf-8"?>
<!-- Generator: Adobe Illustrator 19.2.0, SVG Export Plug-In . SVG Version: 6.00 Build 0)  -->
<svg version="1.1" id="opencloset2" xmlns="http://www.w3.org/2000/svg" xmlns:xlink="http://www.w3.org/1999/xlink" x="0px"
	 y="0px" viewBox="0 0 176 220.0002" enable-background="new 0 0 176 220.0002" xml:space="preserve">
<g>
	<polygon fill="#618287" points="92,64.0002 96,64.0002 104,64.0002 108,64.0002 116,64.0002 120,64.0002 128,64.0002 132,64.0002 
		132,56.0002 92,56.0002 	"/>
	<path fill="#618287" d="M92,12.0002v36h40v-40H88C90.2087,8.0002,92,9.7914,92,12.0002z"/>
	<polygon fill="#618287" points="128,88.0002 120,88.0002 120,72.0002 116,72.0002 116,88.0002 108,88.0002 108,72.0002 
		104,72.0002 104,88.0002 96,88.0002 96,72.0002 92,72.0002 92,172.0002 132,172.0002 132,72.0002 128,72.0002 	"/>
	<path fill="#618287" d="M92,180.0002v24c0,2.2088-1.7913,4-4,4h44v-28H92z"/>
	<path fill="#4F676D" d="M84,48.0002h4h4v-36c0-2.2088-1.7913-4-4-4H44v40H84z"/>
	<path fill="#4F676D" d="M92,204.0002v-24v-8v-100v-8v-8h-4h-4H44v96h48v8H44v48h44C90.2087,208.0002,92,206.209,92,204.0002z"/>
	<polygon fill="#4F676D" points="24,220.0002 32,220.0002 32,213.551 24,210.883 	"/>
	<polygon fill="#4F676D" points="144,220.0002 152,220.0002 152,210.883 144,213.551 	"/>
	<path fill="#9D57C4" d="M158.1035,7.1506l-20.838-6.9452c-1.2244-0.4064-2.5604-0.2032-3.6055,0.5508
		c-1.0429,0.752-1.66,1.9588-1.66,3.244v4v40v8v8v8v100v8v28v4c0,1.2852,0.6171,2.492,1.66,3.244
		c0.6915,0.498,1.512,0.756,2.34,0.756c0.4255,0,0.8515-0.0684,1.2655-0.2052L144,213.551l8-2.668l6.1035-2.0332
		C168.1387,205.5042,176,194.5862,176,183.9942V32.0082C176,21.4162,168.1387,10.4982,158.1035,7.1506z M152,120.0002h-8v-28h8
		V120.0002z"/>
	<path fill="#9D57C4" d="M44,152.0002v-96v-8v-40v-4c0-1.2852-0.6173-2.492-1.66-3.244c-1.0509-0.754-2.3889-0.9572-3.6057-0.5508
		l-20.838,6.9452C7.8611,10.4982,0,21.4162,0,32.0082v151.986c0,10.592,7.8611,21.51,17.8963,24.8556L24,210.883l8,2.668
		l6.7343,2.244c0.414,0.1368,0.84,0.2052,1.2657,0.2052c0.828,0,1.6483-0.258,2.34-0.756c1.0427-0.752,1.66-1.9588,1.66-3.244v-4
		v-48V152.0002z M32,120.0002h-8v-28h8V120.0002z"/>
	<rect x="24" y="92.0002" fill="#B7F5F0" width="8" height="28"/>
	<rect x="144" y="92.0002" fill="#B7F5F0" width="8" height="28"/>
	<polygon fill="#535353" points="88,48.0002 84,48.0002 44,48.0002 44,56.0002 84,56.0002 88,56.0002 92,56.0002 132,56.0002 
		132,48.0002 92,48.0002 	"/>
	<polygon fill="#535353" points="120,64.0002 116,64.0002 108,64.0002 104,64.0002 96,64.0002 92,64.0002 92,72.0002 96,72.0002 
		96,88.0002 104,88.0002 104,72.0002 108,72.0002 108,88.0002 116,88.0002 116,72.0002 120,72.0002 120,88.0002 128,88.0002 
		128,72.0002 132,72.0002 132,64.0002 128,64.0002 	"/>
	<rect x="92" y="172.0002" fill="#535353" width="40" height="8"/>
	<rect x="44" y="152.0002" fill="#535353" width="48" height="8"/>
</g>
</svg>
