<?xml version="1.0" encoding="utf-8"?>
<!-- Generator: Adobe Illustrator 19.2.0, SVG Export Plug-In . SVG Version: 6.00 Build 0)  -->
<svg version="1.1" id="oven3" xmlns="http://www.w3.org/2000/svg" xmlns:xlink="http://www.w3.org/1999/xlink" x="0px" y="0px"
	 viewBox="0 0 152 186.0049" enable-background="new 0 0 152 186.0049" xml:space="preserve">
<g>
	<path fill="#618287" d="M86.1991,27.4113l45.3944-19.7384c2.0276-0.8788,2.9572-3.2384,2.0745-5.2616
		c-0.8829-2.0276-3.2305-2.9648-5.2617-2.0744L86.1915,18.6925c-0.6448-0.4296-1.3948-0.6876-2.1915-0.6876H16
		c-1.3205,0-2.5549,0.6484-3.3009,1.7384c-0.742,1.086-0.9064,2.4724-0.4296,3.7032l4.078,10.5584h67.3008L86.1991,27.4113z"/>
	<path fill="#A9C7D8" d="M148,34.0049H83.6483H16.3475H4c-2.2109,0-4,1.7892-4,4v144c0,2.2108,1.7891,4,4,4h144
		c2.2107,0,4-1.7892,4-4v-144C152,35.7941,150.2107,34.0049,148,34.0049z M124,46.0049c6.6171,0,12,5.3828,12,12s-5.3829,12-12,12
		c-6.6173,0-12-5.3828-12-12S117.3827,46.0049,124,46.0049z M104,58.0049c0,6.6172-5.3829,12-12,12c-6.6173,0-12-5.3828-12-12
		s5.3827-12,12-12C98.6171,46.0049,104,51.3877,104,58.0049z M72,58.0049c0,6.6172-5.3829,12-12,12c-6.6173,0-12-5.3828-12-12
		s5.3827-12,12-12C66.6171,46.0049,72,51.3877,72,58.0049z M28,46.0049c6.6171,0,12,5.3828,12,12s-5.3829,12-12,12
		c-6.6173,0-12-5.3828-12-12S21.3827,46.0049,28,46.0049z M140,150.0049c0,2.2108-1.7893,4-4,4H16c-2.2109,0-4-1.7892-4-4v-68
		c0-2.2108,1.7891-4,4-4h120c2.2107,0,4,1.7892,4,4V150.0049z"/>
	<path fill="#4F676D" d="M136,78.0049H16c-2.2109,0-4,1.7892-4,4v68c0,2.2108,1.7891,4,4,4h120c2.2107,0,4-1.7892,4-4v-68
		C140,79.7941,138.2107,78.0049,136,78.0049z M132,146.0049H20v-60h112V146.0049z"/>
	<rect x="20" y="86.0049" fill="#4A8F9E" width="112" height="60"/>
	<path fill="#FE7D71" d="M28,70.0049c6.6171,0,12-5.3828,12-12s-5.3829-12-12-12c-6.6173,0-12,5.3828-12,12
		S21.3827,70.0049,28,70.0049z"/>
	<path fill="#FE7D71" d="M48,58.0049c0,6.6172,5.3827,12,12,12c6.6171,0,12-5.3828,12-12s-5.3829-12-12-12
		C53.3827,46.0049,48,51.3877,48,58.0049z"/>
	<path fill="#FE7D71" d="M80,58.0049c0,6.6172,5.3827,12,12,12c6.6171,0,12-5.3828,12-12s-5.3829-12-12-12
		C85.3827,46.0049,80,51.3877,80,58.0049z"/>
	<path fill="#FE7D71" d="M124,70.0049c6.6171,0,12-5.3828,12-12s-5.3829-12-12-12c-6.6173,0-12,5.3828-12,12
		S117.3827,70.0049,124,70.0049z"/>
</g>
</svg>
