<?xml version="1.0" encoding="utf-8"?>
<!-- Generator: Adobe Illustrator 19.2.0, SVG Export Plug-In . SVG Version: 6.00 Build 0)  -->
<svg version="1.1" id="oven" xmlns="http://www.w3.org/2000/svg" xmlns:xlink="http://www.w3.org/1999/xlink" x="0px" y="0px"
	 viewBox="0 0 172 208" enable-background="new 0 0 172 208" xml:space="preserve">
<g>
	<path fill="#E06C3E" d="M168,0H4C1.7891,0,0,1.7893,0,4v180h172V4C172,1.7893,170.2107,0,168,0z M148.0703,72H148v100H24V72v-8V36
		h124v28h0.0703V72z M164,28H8v-8h156V28z"/>
	<path fill="#4F676D" d="M32,44v20h108V44H32z M52,56H40v-8h12V56z M72,56H60v-8h12V56z M92,56H80v-8h12V56z M112,56h-12v-8h12V56z
		 M120,56v-8h12v8H120z"/>
	<rect x="32" y="72" fill="#4F676D" width="108" height="92"/>
	<polygon fill="#90A9AE" points="140,164 32,164 32,72 24,72 24,172 148,172 148,72 140,72 	"/>
	<polygon fill="#90A9AE" points="32,44 140,44 140,64 148,64 148,36 24,36 24,64 32,64 	"/>
	<polygon fill="#7BE5E4" points="140,64 32,64 24,64 24,72 32,72 140,72 148,72 148.0703,72 148.0703,64 148,64 	"/>
	<rect x="40" y="48" fill="#7BE5E4" width="12" height="8"/>
	<rect x="60" y="48" fill="#7BE5E4" width="12" height="8"/>
	<rect x="80" y="48" fill="#7BE5E4" width="12" height="8"/>
	<rect x="100" y="48" fill="#7BE5E4" width="12" height="8"/>
	<rect x="120" y="48" fill="#7BE5E4" width="12" height="8"/>
	<rect x="8" y="20" fill="#FFAE8E" width="156" height="8"/>
	<polygon fill="#F8A131" points="0,188 0,208 172,208 172,188 172,184 0,184 	"/>
</g>
</svg>
