<?xml version="1.0" encoding="utf-8"?>
<!-- Generator: Adobe Illustrator 19.2.0, SVG Export Plug-In . SVG Version: 6.00 Build 0)  -->
<svg version="1.1" id="plants" xmlns="http://www.w3.org/2000/svg" xmlns:xlink="http://www.w3.org/1999/xlink" x="0px" y="0px"
	 viewBox="0 0 176 228" enable-background="new 0 0 176 228" xml:space="preserve">
<g>
	<path fill="none" d="M81.5195,96.1328c-7,13.4608-10.4435,24.6016-11.3712,27.8672h14.002
		C84.4023,120.0976,84.6463,109.5392,81.5195,96.1328z"/>
	<path fill="none" d="M87.4903,85.6564c-0.168,0.2692-0.334,0.5388-0.4983,0.8124c5.4435,17.5076,5.4415,31.9728,5.1603,37.5312
		h7.6016C97.8339,118.586,92.5,103.1992,87.4903,85.6564z"/>
	<polygon fill="#8F89F5" points="35.2735,220 132.7263,220 139.2735,148 28.7263,148 	"/>
	<polygon fill="#89714D" points="16,220 16,228 36,228 132,228 152.0623,228 152.0623,220 132.7263,220 35.2735,220 	"/>
	<path fill="#E06C3E" d="M153.3907,26.504c-28.1448,6.16-48.3888,22.746-62.5176,40.5c-4.3616-17.6876-7.1312-34.1916-5.014-41.9532
		c0.5804-2.1288-0.6756-4.328-2.8064-4.91c-2.1388-0.59-4.33,0.6756-4.912,2.8084c-2.8812,10.5624,1.1404,31.9064,6.5313,52.4492
		c-0.3733,0.5432-0.7169,1.086-1.0805,1.6288c-8.2324-19.988-25.2088-44.6524-60.1052-61.742
		c-0.7736,2.7032-2.426,5.0312-4.6836,6.5896c13.7128,6.5588,24.5684,14.2892,33.17,22.5236
		c9.0916,1.836,15.9372,9.832,16.0116,19.4492c4.6504,7.3008,8.0176,14.5976,10.418,21.4884
		c-11.6796,20.0272-16.1896,37.3204-16.2832,37.6952c-0.082,0.328-0.0448,0.6444-0.0448,0.9688h8.074
		c0.9277-3.2656,4.3712-14.4064,11.3712-27.8672c3.1268,13.4064,2.8828,23.9648,2.6308,27.8672h8.002
		c0.2812-5.5584,0.2832-20.0236-5.1603-37.5312c0.1643-0.2736,0.3303-0.5432,0.4983-0.8124
		C92.5,103.1992,97.8339,118.586,99.7539,124h8.2088c0-0.4492-0.0372-0.9064-0.1972-1.3516
		c-3.5352-9.8516-9.4532-27.7384-14.3495-45.828c2.7283-3.758,5.744-7.496,9.0427-11.1288c0.0588-2.09,0.3556-4.1996,1.1096-6.2696
		c0.4296-1.1836,0.9864-2.2776,1.6037-3.3244c0.1891-0.324,0.4059-0.6172,0.6131-0.9256c0.4744-0.7112,0.9824-1.3828,1.5352-2.0196
		c0.2597-0.2968,0.5197-0.59,0.7948-0.8712c0.6232-0.6328,1.2852-1.2108,1.9824-1.754c0.2324-0.1796,0.4492-0.3828,0.6896-0.5544
		c0.9492-0.676,1.9492-1.2656,2.998-1.7656c0.2208-0.1016,0.4532-0.172,0.6776-0.2656c0.8496-0.3672,1.7168-0.6836,2.6116-0.926
		c0.3688-0.1056,0.742-0.1796,1.1172-0.2616c0.8045-0.172,1.6168-0.2932,2.4432-0.3632c0.3788-0.0352,0.75-0.0784,1.1308-0.09
		c0.2012-0.004,0.3964-0.0428,0.5976-0.0428c0.6388,0,1.2832,0.1012,1.926,0.164c0.324,0.0352,0.6444,0,0.9669,0.0468
		c7.9823-4.9768,17.0019-8.9884,27.1523-11.5236C152.168,34,152,33.0236,152,32C152,30.008,152.5311,28.16,153.3907,26.504z"/>
	<path fill="#C1DB66" d="M148.5899,78.7772c-0.2344,0.094-0.4708,0.1876-0.7228,0.2852
		C148.1231,78.9608,148.3515,78.8748,148.5899,78.7772z"/>
	<path fill="#C1DB66" d="M152.1503,77.328c-0.0196,0.008-0.0623,0.0276-0.086,0.0352
		C152.0955,77.3516,152.1251,77.34,152.1503,77.328z"/>
	<path fill="#C1DB66" d="M126.1503,85.34c-0.1776,0.0272-0.3592,0.0624-0.5352,0.0896
		C125.7911,85.4024,125.9727,85.3672,126.1503,85.34z"/>
	<path fill="#C1DB66" d="M129.4783,84.7344c-0.3456,0.0704-0.6912,0.1484-1.0352,0.2148
		C128.7871,84.8828,129.1327,84.8048,129.4783,84.7344z"/>
	<path fill="#C1DB66" d="M122.916,85.7188c-0.2421,0.0196-0.4689,0.0156-0.7053,0.0312
		C122.4471,85.7344,122.6739,85.7384,122.916,85.7188z"/>
	<path fill="#C1DB66" d="M122.3631,54.258c-5.0252,0-9.5584,3.1716-11.2772,7.8984c-1.0976,3.0116-0.9552,6.2732,0.4004,9.1756
		c1.3537,2.9064,3.7596,5.1096,6.7716,6.2072c0.1248,0.0428,0.8301,0.2692,2.4452,0.2692c5.5604,0,13.8692-2.4412,20.3712-4.75
		c-5.1252-8.6872-11.2716-16.8592-14.6076-18.074C125.1367,54.5,123.756,54.258,122.3631,54.258z"/>
	<path fill="#C1DB66" d="M120.4451,85.7928c-0.6192-0.0076-1.1971-0.0584-1.7712-0.1132
		C119.248,85.7344,119.8243,85.7852,120.4451,85.7928z"/>
	<path fill="#C1DB66" d="M106.1815,78.0196c2.2616,3.1212,5.4472,5.6212,9.34,7.0352c0.6912,0.2536,1.4628,0.4256,2.2852,0.5508
		c-0.8224-0.1252-1.594-0.2972-2.2852-0.5508C111.6287,83.6408,108.4431,81.1408,106.1815,78.0196z"/>
	<path fill="#C1DB66" d="M132.4823,84.0428c-0.3808,0.098-0.7596,0.1916-1.1388,0.2816
		C131.7227,84.2344,132.1015,84.1408,132.4823,84.0428z"/>
	<path fill="#C1DB66" d="M146.5703,79.5548c-0.258,0.0976-0.506,0.1912-0.7756,0.2928
		C146.0683,79.746,146.3103,79.6524,146.5703,79.5548z"/>
	<path fill="#C1DB66" d="M150.2107,78.1328c-0.1796,0.0744-0.3747,0.1524-0.572,0.2304
		C149.8435,78.2812,150.0251,78.2072,150.2107,78.1328z"/>
	<path fill="#C1DB66" d="M151.4179,77.6368c-0.1152,0.0468-0.2616,0.1092-0.3944,0.164
		C151.1659,77.742,151.2967,77.6876,151.4179,77.6368z"/>
	<path fill="#C1DB66" d="M140.9395,81.5624c-0.2656,0.086-0.5472,0.176-0.8184,0.2656
		C140.3943,81.7384,140.672,81.6484,140.9395,81.5624z"/>
	<path fill="#C1DB66" d="M143.7343,80.5976c-0.09,0.0312-0.172,0.0624-0.2656,0.094
		C143.5623,80.66,143.6423,80.6288,143.7343,80.5976z"/>
	<path fill="#C1DB66" d="M138.2323,82.4296c-0.3436,0.1096-0.6912,0.2112-1.0392,0.3164
		C137.5411,82.6408,137.8887,82.5392,138.2323,82.4296z"/>
	<path fill="#C1DB66" d="M135.4023,83.2696c-0.3752,0.1052-0.754,0.2068-1.1328,0.3124
		C134.6503,83.4764,135.0251,83.3748,135.4023,83.2696z"/>
	<path fill="#C1DB66" d="M110.0975,50.5272c0.2324-0.1796,0.4492-0.3828,0.6896-0.5544
		C110.5467,50.1444,110.3299,50.3476,110.0975,50.5272z"/>
	<path fill="#C1DB66" d="M117.0743,47.0156c0.3672-0.1056,0.742-0.1796,1.1172-0.2616
		C117.8163,46.836,117.4431,46.91,117.0743,47.0156z"/>
	<path fill="#C1DB66" d="M113.7851,48.2072c0.2189-0.1016,0.4532-0.172,0.6776-0.2656
		C114.2383,48.0352,114.0059,48.1056,113.7851,48.2072z"/>
	<path fill="#C1DB66" d="M107.3203,53.1524c0.2597-0.2968,0.5197-0.59,0.7948-0.8712
		C107.84,52.5624,107.58,52.8556,107.3203,53.1524z"/>
	<path fill="#C1DB66" d="M120.6347,46.3908c0.3768-0.0352,0.752-0.0784,1.1308-0.09
		C121.3847,46.3124,121.0135,46.3556,120.6347,46.3908z"/>
	<path fill="#C1DB66" d="M105.172,56.0976c0.1891-0.3204,0.408-0.6172,0.6131-0.9256
		C105.5779,55.4804,105.3611,55.7736,105.172,56.0976z"/>
	<path fill="#C1DB66" d="M125.5059,46.5272c-0.084-0.0116-0.1659-0.0468-0.2499-0.0584c-0.3225-0.0468-0.6429-0.0116-0.9669-0.0468
		C124.6951,46.4648,125.0995,46.4648,125.5059,46.5272z"/>
	<path fill="#9AB040" d="M124.2891,46.422c-0.6428-0.0628-1.2872-0.164-1.926-0.164c-0.2012,0-0.3964,0.0388-0.5976,0.0428
		c-0.3788,0.0116-0.754,0.0548-1.1308,0.09c-0.8264,0.07-1.6387,0.1912-2.4432,0.3632c-0.3752,0.082-0.75,0.156-1.1172,0.2616
		c-0.8948,0.2424-1.762,0.5588-2.6116,0.926c-0.2244,0.0936-0.4587,0.164-0.6776,0.2656c-1.0488,0.5-2.0488,1.0896-2.998,1.7656
		c-0.2404,0.1716-0.4572,0.3748-0.6896,0.5544c-0.6972,0.5432-1.3592,1.1212-1.9824,1.754
		c-0.2751,0.2812-0.5351,0.5744-0.7948,0.8712c-0.5528,0.6368-1.0608,1.3084-1.5352,2.0196
		c-0.2051,0.3084-0.424,0.6052-0.6131,0.9256c-0.6173,1.0468-1.1741,2.1408-1.6037,3.3244c-0.754,2.07-1.0508,4.1796-1.1096,6.2696
		c-0.1267,4.4528,1.1564,8.7928,3.7228,12.328c2.2616,3.1212,5.4472,5.6212,9.34,7.0352c0.6912,0.2536,1.4628,0.4256,2.2852,0.5508
		c0.2752,0.0388,0.58,0.0468,0.8672,0.074c0.5741,0.0548,1.152,0.1056,1.7712,0.1132c0.09,0,0.166,0.0156,0.258,0.0156
		c0.4844,0,1-0.0348,1.5076-0.0584c0.2364-0.0156,0.4632-0.0116,0.7053-0.0312c0.8751-0.0624,1.7755-0.1604,2.6991-0.2892
		c0.176-0.0272,0.3576-0.0624,0.5352-0.0896c0.756-0.1136,1.5196-0.2424,2.2928-0.3908c0.344-0.0664,0.6896-0.1444,1.0352-0.2148
		c0.6212-0.1288,1.2404-0.2616,1.8652-0.41c0.3792-0.09,0.758-0.1836,1.1388-0.2816c0.5977-0.1484,1.1932-0.3008,1.7872-0.4608
		c0.3788-0.1056,0.7576-0.2072,1.1328-0.3124c0.6036-0.172,1.1972-0.3476,1.7908-0.5236c0.348-0.1052,0.6956-0.2068,1.0392-0.3164
		c0.6428-0.1992,1.2677-0.3984,1.8888-0.6016c0.2712-0.0896,0.5528-0.1796,0.8184-0.2656c0.8728-0.2928,1.7205-0.582,2.5292-0.8708
		c0.0936-0.0316,0.1756-0.0628,0.2656-0.094c0.7188-0.2576,1.4064-0.5076,2.0604-0.75c0.2696-0.1016,0.5176-0.1952,0.7756-0.2928
		c0.4512-0.168,0.8868-0.336,1.2968-0.4924c0.252-0.0976,0.4884-0.1912,0.7228-0.2852c0.3748-0.1444,0.7224-0.2812,1.0488-0.414
		c0.1973-0.078,0.3924-0.156,0.572-0.2304c0.3048-0.1248,0.5664-0.2304,0.8128-0.332c0.1328-0.0548,0.2792-0.1172,0.3944-0.164
		c0.2752-0.1132,0.4844-0.2032,0.6464-0.2736c0.0237-0.0076,0.0664-0.0272,0.086-0.0352c0.174-0.074,0.2812-0.1208,0.2812-0.1208
		s-5.0195-10.1408-11.3184-18.668c-3.7792-5.1172-8.0176-9.6564-11.91-11.0704c-1.2228-0.4452-2.4591-0.7424-3.6972-0.9416
		C125.0995,46.4648,124.6951,46.4648,124.2891,46.422z M141.0743,73.0584c-6.502,2.3088-14.8108,4.75-20.3712,4.75
		c-1.6151,0-2.3204-0.2264-2.4452-0.2692c-3.012-1.0976-5.4179-3.3008-6.7716-6.2072c-1.3556-2.9024-1.498-6.164-0.4004-9.1756
		c1.7188-4.7268,6.252-7.8984,11.2772-7.8984c1.3929,0,2.7736,0.242,4.1036,0.7264
		C129.8027,56.1992,135.9491,64.3712,141.0743,73.0584z"/>
	<path fill="#C1DB66" d="M48,52c-3.5665,0-12.1445,5.582-19.9277,11.996C35.8651,70.414,44.4471,76,48,76c6.6171,0,12-5.3828,12-12
		S54.6171,52,48,52z"/>
	<path fill="#9AB040" d="M51.9727,44.3984C50.6875,44.1408,49.3611,44,48,44c-11.0449,0-32,20-32,20s20.9551,20,32,20
		c11.0447,0,20-8.9532,20-20c0-0.0548-0.0157-0.1016-0.0157-0.1524C67.9099,54.2304,61.0643,46.2344,51.9727,44.3984z M48,76
		c-3.5529,0-12.1349-5.586-19.9277-12.004C35.8555,57.582,44.4335,52,48,52c6.6171,0,12,5.3828,12,12S54.6171,76,48,76z"/>
	<path fill="#50CCD3" d="M164,20c-4.6369,0-8.6113,2.6564-10.6093,6.504C152.5311,28.16,152,30.008,152,32
		c0,1.0236,0.168,2,0.4083,2.9452C153.7283,40.1408,158.3943,44,164,44c6.6267,0,12-5.3712,12-12S170.6267,20,164,20z"/>
	<path fill="#50CCD3" d="M23.4863,15.2852C23.7871,14.2344,24,13.1484,24,12c0-6.6288-5.3733-12-12-12C5.3731,0,0,5.3712,0,12
		s5.3731,12,12,12c2.5291,0,4.8671-0.7892,6.8027-2.1252C21.0603,20.3164,22.7127,17.9884,23.4863,15.2852z"/>
	<polygon fill="#746DE0" points="92.1523,124 84.1503,124 70.1483,124 62.0743,124 12,124 12,148 28.7263,148 139.2735,148 156,148 
		156,124 107.9627,124 99.7539,124 	"/>
</g>
</svg>
