<?xml version="1.0" encoding="utf-8"?>
<!-- Generator: Adobe Illustrator 19.2.0, SVG Export Plug-In . SVG Version: 6.00 Build 0)  -->
<svg version="1.1" id="portraits" xmlns="http://www.w3.org/2000/svg" xmlns:xlink="http://www.w3.org/1999/xlink" x="0px" y="0px"
	 viewBox="0 0 224 163.9425" enable-background="new 0 0 224 163.9425" xml:space="preserve">
<g>
	<polygon fill="none" points="96,31.9425 131.1835,31.9425 112.2383,10.2921 	"/>
	<path fill="#A9C7D8" d="M112.2383,10.2921l18.9452,21.6504h10.6328L115.0115,1.3077c-0.0976-0.1112-0.2344-0.162-0.3395-0.2596
		c-0.1017-0.094-0.1605-0.2188-0.2737-0.3048c-0.1056-0.078-0.2303-0.0956-0.3436-0.164c-0.2344-0.1428-0.4728-0.256-0.7267-0.3476
		c-0.2421-0.086-0.4725-0.1524-0.7189-0.1896c-0.2576-0.0412-0.5076-0.0488-0.7656-0.0372c-0.2536,0.01-0.492,0.0372-0.7344,0.094
		c-0.2536,0.0564-0.484,0.1424-0.7224,0.25c-0.2424,0.1072-0.4648,0.2344-0.6876,0.3944c-0.1056,0.074-0.2304,0.1016-0.332,0.1896
		c-0.1092,0.0956-0.1564,0.2264-0.254,0.33c-0.0976,0.1052-0.2264,0.162-0.3124,0.2792L86,31.9425h10L112.2383,10.2921z"/>
	<path fill="#BC9A67" d="M141.8163,31.9425h-10.6328H96H86H0v132h224v-132H141.8163z M104,143.9425H24v-92h80V143.9425z
		 M200,143.9425h-80v-92h80V143.9425z"/>
	<path fill="#B7F5F0" d="M51.8435,113.6221c-4.7108-4.5528-7.7536-11.664-7.7536-19.6796c0-13.744,8.9141-24.8888,19.9101-24.8888
		s19.9099,11.1448,19.9099,24.8888c0,8.0156-3.0428,15.1268-7.7536,19.6796c8.6092,2.412,15.6952,7.2892,19.8437,13.5508V59.9425H32
		v67.2304C36.1483,120.9113,43.2343,116.0341,51.8435,113.6221z"/>
	<path fill="#B7F5F0" d="M64,77.0537c-6.4573,0-11.9101,7.7344-11.9101,16.8888S57.5427,110.8293,64,110.8293
		c6.4571,0,11.9099-7.7324,11.9099-16.8868S70.4571,77.0537,64,77.0537z"/>
	<path fill="#B7F5F0" d="M36.5663,135.9425h54.8712c-2.6055-9.1172-13.918-16-27.4375-16
		C50.4803,119.9425,39.168,126.8253,36.5663,135.9425z"/>
	<path fill="#89714D" d="M24,143.9425h80v-92H24V143.9425z M64,110.8293c-6.4573,0-11.9101-7.7324-11.9101-16.8868
		S57.5427,77.0537,64,77.0537c6.4571,0,11.9099,7.7344,11.9099,16.8888S70.4571,110.8293,64,110.8293z M91.4375,135.9425H36.5663
		c2.6017-9.1172,13.914-16,27.4337-16C77.5195,119.9425,88.832,126.8253,91.4375,135.9425z M96,59.9425v67.2304
		c-4.1485-6.2616-11.2345-11.1388-19.8437-13.5508c4.7108-4.5528,7.7536-11.664,7.7536-19.6796
		c0-13.744-8.9139-24.8888-19.9099-24.8888S44.0899,80.1985,44.0899,93.9425c0,8.0156,3.0428,15.1268,7.7536,19.6796
		c-8.6092,2.412-15.6952,7.2892-19.8435,13.5508V59.9425H96z"/>
	<path fill="#B7F5F0" d="M160,77.0537c-6.4573,0-11.9101,7.7344-11.9101,16.8888s5.4528,16.8868,11.9101,16.8868
		c6.4571,0,11.9099-7.7324,11.9099-16.8868S166.4571,77.0537,160,77.0537z"/>
	<path fill="#B7F5F0" d="M147.8435,113.6221c-4.7108-4.5528-7.7536-11.664-7.7536-19.6796c0-13.744,8.9141-24.8888,19.9101-24.8888
		s19.9099,11.1448,19.9099,24.8888c0,8.0156-3.0428,15.1268-7.7536,19.6796c8.6092,2.412,15.6952,7.2892,19.8437,13.5508V59.9425
		h-64v67.2304C132.1483,120.9113,139.2343,116.0341,147.8435,113.6221z"/>
	<path fill="#B7F5F0" d="M132.5663,135.9425h54.8712c-2.6055-9.1172-13.918-16-27.4375-16
		C146.4803,119.9425,135.168,126.8253,132.5663,135.9425z"/>
	<path fill="#89714D" d="M120,143.9425h80v-92h-80V143.9425z M160,110.8293c-6.4573,0-11.9101-7.7324-11.9101-16.8868
		S153.5427,77.0537,160,77.0537c6.4571,0,11.9099,7.7344,11.9099,16.8888S166.4571,110.8293,160,110.8293z M187.4375,135.9425
		h-54.8712c2.6017-9.1172,13.914-16,27.4337-16C173.5195,119.9425,184.832,126.8253,187.4375,135.9425z M192,59.9425v67.2304
		c-4.1485-6.2616-11.2345-11.1388-19.8437-13.5508c4.7108-4.5528,7.7536-11.664,7.7536-19.6796
		c0-13.744-8.9139-24.8888-19.9099-24.8888s-19.9101,11.1448-19.9101,24.8888c0,8.0156,3.0428,15.1268,7.7536,19.6796
		c-8.6092,2.412-15.6952,7.2892-19.8435,13.5508V59.9425H192z"/>
</g>
</svg>
