<?xml version="1.0" encoding="utf-8"?>
<!-- Generator: Adobe Illustrator 19.2.0, SVG Export Plug-In . SVG Version: 6.00 Build 0)  -->
<svg version="1.1" id="pvc" xmlns="http://www.w3.org/2000/svg" xmlns:xlink="http://www.w3.org/1999/xlink" x="0px" y="0px"
	 viewBox="0 0 204 204" enable-background="new 0 0 204 204" xml:space="preserve">
<g>
	<rect x="56" y="8" fill="none" width="116" height="8"/>
	<rect x="56" y="160" fill="#618287" width="116" height="16"/>
	<path fill="#FFDC82" d="M24,0H0v187.992C0,196.8592,7.164,204,16,204c4.7948,0,9.0568-2.164,11.992-5.5196
		C25.5372,195.67,24,192.0332,24,187.992V0z"/>
	<path fill="#7BE5E4" d="M56,152h116V24H56V152z M102.828,37.172c1.5628,1.5624,1.5628,4.0936,0,5.656l-32,32
		C70.0468,75.6092,69.0236,76,68,76s-2.0468-0.3908-2.828-1.172c-1.5628-1.5624-1.5628-4.0936,0-5.656l32-32
		C98.7344,35.6092,101.2656,35.6092,102.828,37.172z M65.172,49.172l12-12c1.5624-1.5628,4.0936-1.5628,5.656,0
		c1.5628,1.5624,1.5628,4.0936,0,5.656l-12,12C70.0468,55.6092,69.0236,56,68,56s-2.0468-0.3908-2.828-1.172
		C63.6092,53.2656,63.6092,50.7344,65.172,49.172z"/>
	<rect x="56" y="16" fill="#50CCD3" width="116" height="8"/>
	<rect x="56" y="152" fill="#50CCD3" width="116" height="8"/>
	<rect x="56" fill="#4F676D" width="116" height="8"/>
	<path fill="#FCC24C" d="M56,152V24v-8V8V0h-8H32h-8v187.992c0,4.0412,1.5372,7.678,3.992,10.4884
		C30.9256,201.84,35.1896,204,40,204c8.8184,0,16-7.168,16-16.008V176v-16V152z"/>
	<path fill="#FFDC82" d="M184,0h-12v8v8v8v128v8v16v11.992c0,8.8672,7.164,16.008,16,16.008c8.8183,0,16-7.168,16-16.008V0H184z"/>
	<path fill="#50CCD3" d="M68,56c1.0236,0,2.0468-0.3908,2.828-1.172l12-12c1.5628-1.5624,1.5628-4.0936,0-5.656
		c-1.5624-1.5628-4.0936-1.5628-5.656,0l-12,12c-1.5628,1.5624-1.5628,4.0936,0,5.656C65.9532,55.6092,66.9764,56,68,56z"/>
	<path fill="#50CCD3" d="M65.172,74.828C65.9532,75.6092,66.9764,76,68,76s2.0468-0.3908,2.828-1.172l32-32
		c1.5628-1.5624,1.5628-4.0936,0-5.656c-1.5624-1.5628-4.0936-1.5628-5.656,0l-32,32C63.6092,70.7344,63.6092,73.2656,65.172,74.828
		z"/>
</g>
</svg>
