<?xml version="1.0" encoding="utf-8"?>
<!-- Generator: Adobe Illustrator 19.2.0, SVG Export Plug-In . SVG Version: 6.00 Build 0)  -->
<svg version="1.1" id="radiator" xmlns="http://www.w3.org/2000/svg" xmlns:xlink="http://www.w3.org/1999/xlink" x="0px" y="0px"
	 viewBox="0 0 220 152" enable-background="new 0 0 220 152" xml:space="preserve">
<g>
	<rect x="48" y="48" fill="none" width="8" height="80"/>
	<rect x="128" y="48" fill="none" width="8" height="80"/>
	<rect x="168" y="48" fill="none" width="8" height="80"/>
	<rect x="88" y="48" fill="none" width="8" height="80"/>
	<path fill="#BC9A67" d="M40,48V24v-8.0195C40,11.5781,36.4099,8,32,8c-4.4101,0-8,3.5781-8,7.9805V24v24v88.0197
		C24,140.4221,27.5899,144,32,144c4.4099,0,8-3.5779,8-7.9803V136v-8V48z"/>
	<path fill="#89714D" d="M220,24h-12v-8.0195C208,7.1289,200.836,0,192,0c-8.8205,0-16,7.1565-16,15.9805V24h-8v-8.0195
		C168,7.1289,160.836,0,152,0c-8.8205,0-16,7.1565-16,15.9805V24h-8v-8.0195C128,7.1289,120.836,0,112,0
		c-8.8205,0-16,7.1565-16,15.9805V24h-8v-8.0195C88,7.1289,80.836,0,72,0c-8.8205,0-16,7.1565-16,15.9805V24h-8v-8.0195
		C48,7.1289,40.836,0,32,0c-8.8205,0-16,7.1565-16,15.9805V24H8v-8H0v8v24v8h8v-8h8v88.0197C16,144.8713,23.164,152,32,152
		c8.8203,0,16-7.1563,16-15.9803V136h8v0.0197C56,144.8713,63.164,152,72,152c8.8203,0,16-7.1563,16-15.9803V136h8v0.0197
		C96,144.8713,103.164,152,112,152c8.8203,0,16-7.1563,16-15.9803V136h8v0.0197C136,144.8713,143.164,152,152,152
		c8.8203,0,16-7.1563,16-15.9803V136h8v0.0197C176,144.8713,183.164,152,192,152c8.8203,0,16-7.1563,16-15.9803V48h12V24z
		 M40,136.0197C40,140.4221,36.4099,144,32,144c-4.4101,0-8-3.5779-8-7.9803V48V24v-8.0195C24,11.5781,27.5899,8,32,8
		c4.4099,0,8,3.5781,8,7.9805V24v24v80v8V136.0197z M48,128V48h8v80H48z M80,136.0197C80,140.4221,76.4099,144,72,144
		c-4.4101,0-8-3.5779-8-7.9803V48V24v-8.0195C64,11.5781,67.5899,8,72,8c4.4099,0,8,3.5781,8,7.9805V24v24V136.0197z M88,128V48h8
		v80H88z M120,136.0197c0,4.4024-3.5901,7.9803-8,7.9803c-4.4101,0-8-3.5779-8-7.9803V136v-8V48V24v-8.0195
		C104,11.5781,107.5899,8,112,8c4.4099,0,8,3.5781,8,7.9805V24v24v80v8V136.0197z M128,128V48h8v80H128z M160,136.0197
		c0,4.4024-3.5901,7.9803-8,7.9803c-4.4101,0-8-3.5779-8-7.9803V48V24v-8.0195C144,11.5781,147.5899,8,152,8
		c4.4099,0,8,3.5781,8,7.9805V24v24v80v8V136.0197z M168,128V48h8v80H168z M200,136.0197c0,4.4024-3.5901,7.9803-8,7.9803
		c-4.4101,0-8-3.5779-8-7.9803V48V24v-8.0195C184,11.5781,187.5899,8,192,8c4.4099,0,8,3.5781,8,7.9805V24v24V136.0197z"/>
	<path fill="#BC9A67" d="M80,15.9805C80,11.5781,76.4099,8,72,8c-4.4101,0-8,3.5781-8,7.9805V24v24v88.0197
		C64,140.4221,67.5899,144,72,144c4.4099,0,8-3.5779,8-7.9803V48V24V15.9805z"/>
	<path fill="#BC9A67" d="M120,48V24v-8.0195C120,11.5781,116.4099,8,112,8c-4.4101,0-8,3.5781-8,7.9805V24v24v80v8v0.0197
		c0,4.4024,3.5899,7.9803,8,7.9803c4.4099,0,8-3.5779,8-7.9803V136v-8V48z"/>
	<path fill="#BC9A67" d="M160,48V24v-8.0195C160,11.5781,156.4099,8,152,8c-4.4101,0-8,3.5781-8,7.9805V24v24v88.0197
		c0,4.4024,3.5899,7.9803,8,7.9803c4.4099,0,8-3.5779,8-7.9803V136v-8V48z"/>
	<path fill="#BC9A67" d="M200,15.9805C200,11.5781,196.4099,8,192,8c-4.4101,0-8,3.5781-8,7.9805V24v24v88.0197
		c0,4.4024,3.5899,7.9803,8,7.9803c4.4099,0,8-3.5779,8-7.9803V48V24V15.9805z"/>
</g>
</svg>
