<?xml version="1.0" encoding="utf-8"?>
<!-- Generator: Adobe Illustrator 19.2.0, SVG Export Plug-In . SVG Version: 6.00 Build 0)  -->
<svg version="1.1" id="seif" xmlns="http://www.w3.org/2000/svg" xmlns:xlink="http://www.w3.org/1999/xlink" x="0px" y="0px"
	 viewBox="0 0 168.0507 168" enable-background="new 0 0 168.0507 168" xml:space="preserve">
<g>
	<path fill="#618287" d="M4,24h164V4c0-2.2107-1.7913-4-4-4H4C1.7912,0,0,1.7893,0,4v160c0,2.2109,1.7912,4,4,4h160
		c2.2087,0,4-1.7891,4-4V32H4V24z M108,68c15.4396,0,28,12.5625,28,28c0,14.0745-10.4533,25.7305-24,27.6797V132h-8v-8.3203
		C90.4532,121.7305,80,110.0745,80,96C80,80.5625,92.5604,68,108,68z M24,56h8v28h-8V56z M24,108h8v28h-8V108z"/>
	<path fill="#618287" d="M108,104c4.412,0,8-3.5899,8-8c0-4.4099-3.588-8-8-8s-8,3.5901-8,8C100,100.4101,103.588,104,108,104z"/>
	<path fill="#618287" d="M108,116c11.0272,0,20-8.9727,20-20c0-11.0271-8.9728-20-20-20s-20,8.9729-20,20
		C88,107.0273,96.9728,116,108,116z M108,80c8.8224,0,16,7.1757,16,16c0,8.8245-7.1776,16-16,16s-16-7.1755-16-16
		C92,87.1757,99.1776,80,108,80z"/>
	<polygon fill="#4F676D" points="168.0507,24 168,24 4,24 4,32 168,32 168.0507,32 	"/>
	<path fill="#FCC24C" d="M104,123.6797V132h8v-8.3203c13.5467-1.9492,24-13.6052,24-27.6797c0-15.4375-12.5604-28-28-28
		S80,80.5625,80,96C80,110.0745,90.4532,121.7305,104,123.6797z M108,76c11.0272,0,20,8.9729,20,20c0,11.0273-8.9728,20-20,20
		s-20-8.9727-20-20C88,84.9729,96.9728,76,108,76z"/>
	<path fill="#4F676D" d="M108,112c8.8224,0,16-7.1755,16-16c0-8.8243-7.1776-16-16-16s-16,7.1757-16,16
		C92,104.8245,99.1776,112,108,112z M108,88c4.412,0,8,3.5901,8,8c0,4.4101-3.588,8-8,8s-8-3.5899-8-8
		C100,91.5901,103.588,88,108,88z"/>
	<rect x="24" y="56" fill="#90A9AE" width="8" height="28"/>
	<rect x="24" y="108" fill="#90A9AE" width="8" height="28"/>
</g>
</svg>
