<?xml version="1.0" encoding="utf-8"?>
<!-- Generator: Adobe Illustrator 19.2.0, SVG Export Plug-In . SVG Version: 6.00 Build 0)  -->
<svg version="1.1" id="shelf" xmlns="http://www.w3.org/2000/svg" xmlns:xlink="http://www.w3.org/1999/xlink" x="0px" y="0px"
	 viewBox="0 0 140 224" enable-background="new 0 0 140 224" xml:space="preserve">
<g>
	<path fill="#7BE5E4" d="M136,0H4C1.7891,0,0,1.7913,0,4v216c0,2.2089,1.7891,4,4,4h24c-2.2109,0-4-1.7911-4-4V16
		c0-2.2087,1.7891-4,4-4h96c2.2107,0,4,1.7913,4,4v44v8v40v8v36v8v60c0,2.2089-1.7893,4-4,4h12c2.2107,0,4-1.7911,4-4V4
		C140,1.7913,138.2107,0,136,0z M20,184h-8V48h8V184z"/>
	<rect x="12" y="48" fill="#4A8F9E" width="8" height="136"/>
	<path fill="#50CCD3" d="M128,220v-60v-8v-36v-8V68v-8V16c0-2.2087-1.7893-4-4-4H28c-2.2109,0-4,1.7913-4,4v204
		c0,2.2089,1.7891,4,4,4h96C126.2107,224,128,222.2089,128,220z M120,152H32v-36h88V152z M120,108H32V68h88V108z M120,20v40H32V20
		H120z M32,216v-56h88v56H32z"/>
	<path fill="#4A8F9E" d="M32,160v56h88v-56H32z M54,212c-9.9257,0-18-8.0743-18-18c0-9.9255,8.0743-18,18-18
		c9.9255,0,18,8.0745,18,18C72,203.9257,63.9255,212,54,212z"/>
	<path fill="#4A8F9E" d="M120,60V20H32v40H120z M81,34c6.0663,0,11,4.9337,11,11c0,6.0665-4.9337,11-11,11
		c-6.0665,0-11-4.9335-11-11C70,38.9337,74.9335,34,81,34z"/>
	<path fill="#4A8F9E" d="M32,152h88v-36H32V152z M98,122c7.7187,0,14,6.2813,14,14c0,7.7189-6.2813,14-14,14
		c-7.7189,0-14-6.2811-14-14C84,128.2813,90.2811,122,98,122z"/>
	<path fill="#4A8F9E" d="M32,108h88V68H32V108z M58,74c3.9179,0,7.4571,1.6289,10,4.2345C70.5427,75.6289,74.0819,74,78,74
		c7.7187,0,14,6.2813,14,14c0,7.7189-6.2813,14-14,14c-3.9181,0-7.4573-1.6287-10-4.2323C65.4571,100.3713,61.9179,102,58,102
		c-7.7189,0-14-6.2811-14-14C44,80.2813,50.2811,74,58,74z"/>
	<path fill="#BDB9FF" d="M58,102c3.9179,0,7.4571-1.6287,10-4.2323c-2.4649-2.5256-4-5.9668-4-9.7677
		c0-3.8007,1.5351-7.2419,4-9.7655C65.4571,75.6289,61.9179,74,58,74c-7.7189,0-14,6.2813-14,14C44,95.7189,50.2811,102,58,102z"/>
	<path fill="#BC9A67" d="M68,97.7677C70.5427,100.3713,74.0819,102,78,102c7.7187,0,14-6.2811,14-14c0-7.7187-6.2813-14-14-14
		c-3.9181,0-7.4573,1.6289-10,4.2345c-2.4649,2.5236-4,5.9648-4,9.7655C64,91.8009,65.5351,95.2421,68,97.7677z"/>
	<path fill="#49A25A" d="M98,150c7.7187,0,14-6.2811,14-14c0-7.7187-6.2813-14-14-14c-7.7189,0-14,6.2813-14,14
		C84,143.7189,90.2811,150,98,150z"/>
	<path fill="#FFDC82" d="M81,56c6.0663,0,11-4.9335,11-11c0-6.0663-4.9337-11-11-11c-6.0665,0-11,4.9337-11,11
		C70,51.0665,74.9335,56,81,56z"/>
	<path fill="#FFDC82" d="M54,176c-9.9257,0-18,8.0745-18,18c0,9.9257,8.0743,18,18,18c9.9255,0,18-8.0743,18-18
		C72,184.0745,63.9255,176,54,176z"/>
</g>
</svg>
