<?xml version="1.0" encoding="utf-8"?>
<!-- Generator: Adobe Illustrator 19.2.0, SVG Export Plug-In . SVG Version: 6.00 Build 0)  -->
<svg version="1.1" id="simplechair" xmlns="http://www.w3.org/2000/svg" xmlns:xlink="http://www.w3.org/1999/xlink" x="0px"
	 y="0px" viewBox="0 0 208.0042 148" enable-background="new 0 0 208.0042 148" xml:space="preserve">
<g>
	<path fill="#89714D" d="M38.0022,35.5625c-0.7209,0.6484-1.3125,1.4612-1.6585,2.4415l-36,102
		c-1.1032,3.1249,0.5372,6.5509,3.6625,7.6525C4.6662,147.8909,5.3401,148,6.0022,148c2.4727,0,4.7891-1.5391,5.6583-4.004
		L46.9533,44h-8.9511V35.5625z"/>
	<path fill="#89714D" d="M207.6605,140.004l-36-102c-0.346-0.9803-0.9376-1.7891-1.6583-2.4415V44h-8.9513l35.2928,99.996
		c0.8692,2.4649,3.1856,4.004,5.6585,4.004c0.6619,0,1.336-0.1091,1.996-0.3435
		C207.1233,146.5549,208.7637,143.1289,207.6605,140.004z"/>
	<polygon fill="#A48659" points="170.0022,35.5625 170.0022,24 38.0022,24 38.0022,35.5625 38.0022,44 46.9533,44 161.0509,44 
		170.0022,44 	"/>
	<path fill="#9AB040" d="M177.9749,24c6.664,0,12.0273-5.3711,12.0273-12c0-6.6131-5.3849-12-12.0273-12H26.0293
		c-6.664,0-12.0271,5.3713-12.0271,12c0,6.6133,5.3847,12,12.0271,12h11.9729h132H177.9749z"/>
</g>
</svg>
