<?xml version="1.0" encoding="utf-8"?>
<!-- Generator: Adobe Illustrator 19.2.0, SVG Export Plug-In . SVG Version: 6.00 Build 0)  -->
<svg version="1.1" id="simplestand" xmlns="http://www.w3.org/2000/svg" xmlns:xlink="http://www.w3.org/1999/xlink" x="0px"
	 y="0px" viewBox="0 0 224 221.9994" enable-background="new 0 0 224 221.9994" xml:space="preserve">
<g>
	<path fill="#63B473" d="M66.0623,47.9994c0.422-1.3083,3.0352-7.0779,17.7268-14.4219c1.9764-0.988,2.7772-3.3904,1.7888-5.3672
		c-0.992-1.9764-3.3904-2.7732-5.3672-1.7888c-9.8476,4.9256-15.3084,9.5508-18.3672,13.2812
		c0.1408-15.418,2.7852-30.3633,7.422-31.9104c2.0936-0.6952,3.2265-2.9609,2.5272-5.0584
		c-0.6992-2.0936-2.9412-3.2265-5.0584-2.5272C57.4375,3.3043,54.672,19.3903,54,32.6634
		c-3.5273-5.336-8.9025-10.1091-16.8517-12.496c-2.1288-0.6367-4.3476,0.5665-4.9803,2.6837
		c-0.6329,2.1132,0.5663,4.3436,2.6835,4.9803c12.2032,3.66,15.7068,14.2893,16.7228,20.168H66.0623z"/>
	<path fill="#4F676D" d="M32.7615,143.9371l-18.5624,70.5352c-0.8436,3.2028,1.0704,6.488,4.2736,7.328
		c0.5116,0.1368,1.0273,0.1991,1.5313,0.1991c2.66,0,5.0895-1.7811,5.7967-4.4727l19.3476-73.5273H34.0195
		C33.5935,143.9994,33.1835,143.9527,32.7615,143.9371z"/>
	<path fill="#4F676D" d="M194.1991,217.5267c0.7072,2.6916,3.1369,4.4727,5.7969,4.4727c0.504,0,1.0195-0.0623,1.5311-0.1991
		c3.2032-0.84,5.1172-4.1252,4.2736-7.328l-18.5468-70.4729h-12.4024L194.1991,217.5267z"/>
	<polygon fill="#EB4548" points="92,47.9994 66.0623,47.9994 51.5743,47.9994 36,47.9994 42.2227,75.9994 85.7771,75.9994 	"/>
	
		<rect x="56.0003" y="107.9997" transform="matrix(0.7071 -0.7071 0.7071 0.7071 -60.7935 73.2303)" fill="#89714D" width="3.9994" height="3.9994"/>
	<path fill="#89714D" d="M85.7771,75.9994H42.2227h-8.2032C15.2187,75.9994,0,91.2223,0,109.9994
		c0,18.3165,14.5583,33.2657,32.7615,33.9377c0.422,0.0156,0.832,0.0623,1.258,0.0623h11.1288H108v-68H85.7771z M69.3123,112.8274
		l-8.4843,8.4845c-0.7813,0.7812-1.8045,1.172-2.828,1.172c-1.0237,0-2.0469-0.3908-2.828-1.172l-8.4845-8.4845
		c-1.5624-1.5623-1.5624-4.0935,0-5.656l8.4845-8.4843c1.5623-1.5628,4.0935-1.5628,5.656,0l8.4843,8.4843
		C70.8751,108.7339,70.8751,111.2651,69.3123,112.8274z"/>
	<path fill="#89714D" d="M224,109.9994c0-18.7383-15.2305-34-34.0197-34H116v68h58.8515h12.4024h2.7264
		C208.7811,143.9994,224,128.7767,224,109.9994z M166,122.4839c-1.0237,0-2.0469-0.3908-2.828-1.172l-8.4845-8.4845
		c-1.5624-1.5623-1.5624-4.0935,0-5.656l8.4845-8.4843c1.5623-1.5628,4.0935-1.5628,5.656,0l8.4843,8.4843
		c1.5628,1.5625,1.5628,4.0937,0,5.656l-8.4843,8.4845C168.0467,122.0931,167.0235,122.4839,166,122.4839z"/>
	
		<rect x="164.0003" y="107.9997" transform="matrix(0.7071 -0.7071 0.7071 0.7071 -29.161 149.5978)" fill="#89714D" width="3.9994" height="3.9994"/>
	<rect x="108" y="75.9994" fill="#F8A131" width="8" height="68"/>
	<path fill="#FFDC82" d="M60.828,98.6871c-1.5625-1.5628-4.0937-1.5628-5.656,0l-8.4845,8.4843
		c-1.5624,1.5625-1.5624,4.0937,0,5.656l8.4845,8.4845c0.7811,0.7812,1.8043,1.172,2.828,1.172c1.0235,0,2.0467-0.3908,2.828-1.172
		l8.4843-8.4845c1.5628-1.5623,1.5628-4.0935,0-5.656L60.828,98.6871z M58,112.8274l-2.828-2.828l2.828-2.828l2.828,2.828
		L58,112.8274z"/>
	<path fill="#FFDC82" d="M177.3123,107.1714l-8.4843-8.4843c-1.5625-1.5628-4.0937-1.5628-5.656,0l-8.4845,8.4843
		c-1.5624,1.5625-1.5624,4.0937,0,5.656l8.4845,8.4845c0.7811,0.7812,1.8043,1.172,2.828,1.172c1.0235,0,2.0467-0.3908,2.828-1.172
		l8.4843-8.4845C178.8751,111.2651,178.8751,108.7339,177.3123,107.1714z M166,112.8274l-2.828-2.828l2.828-2.828l2.828,2.828
		L166,112.8274z"/>
</g>
</svg>
