<?xml version="1.0" encoding="utf-8"?>
<!-- Generator: Adobe Illustrator 19.2.0, SVG Export Plug-In . SVG Version: 6.00 Build 0)  -->
<svg version="1.1" id="singlebed" xmlns="http://www.w3.org/2000/svg" xmlns:xlink="http://www.w3.org/1999/xlink" x="0px" y="0px"
	 viewBox="0 0 156 124" enable-background="new 0 0 156 124" xml:space="preserve">
<g>
	<path fill="#63B473" d="M140.0391,44H136v8h-28H48H20v-8h-4.0393C7.16,44,0,51.1565,0,59.9845V84h156V59.9845
		C156,51.1877,148.8535,44,140.0391,44z"/>
	<rect y="104" fill="#4F676D" width="12" height="20"/>
	<rect x="144" y="104" fill="#4F676D" width="12" height="20"/>
	<polygon fill="#4A8F9E" points="0,86 0,92 0,104 12,104 144,104 156,104 156,92 156,86 156,84 0,84 	"/>
	<path fill="#99D59D" d="M48,52V24c0,0,20-8,30-8s30,8,30,8v28h28v-8V26c0-14.328-11.6565-26-26.0333-26H46.0331
		C31.6543,0,20,11.6409,20,26v18v8H48z"/>
	<path fill="#B976DD" d="M108,24c0,0-20-8-30-8s-30,8-30,8v28h60V24z"/>
</g>
</svg>
