<?xml version="1.0" encoding="utf-8"?>
<!-- Generator: Adobe Illustrator 19.2.0, SVG Export Plug-In . SVG Version: 6.00 Build 0)  -->
<svg version="1.1" id="sink" xmlns="http://www.w3.org/2000/svg" xmlns:xlink="http://www.w3.org/1999/xlink" x="0px" y="0px"
	 viewBox="0 0 104.0819 204" enable-background="new 0 0 104.0819 204" xml:space="preserve">
<g>
	<path fill="#FCC24C" d="M28.992,93.4336C28.3983,94.1328,28,95.008,28,96v72h48V96c0-0.992-0.3985-1.8672-0.992-2.5664
		C68.3047,97.5704,60.4375,100,52,100C43.5623,100,35.6991,97.5704,28.992,93.4336z"/>
	<path fill="#FE8657" d="M16.2107,168c-1.9804,0-3.66,1.4492-3.9568,3.4064l-4.2112,28c-0.1716,1.152,0.1644,2.32,0.926,3.2028
		C9.7263,203.492,10.836,204,12,204h80c1.164,0,2.2735-0.508,3.0311-1.3908c0.7616-0.8828,1.0976-2.0508,0.926-3.2028l-4.2112-28
		C91.4491,169.4492,89.7695,168,87.7891,168H76H28H16.2107z"/>
	<path fill="#FE8657" d="M95.7967,60H8.2031C9.4843,74.1444,17.496,86.34,28.992,93.4336C35.6991,97.5704,43.5623,100,52,100
		c8.4375,0,16.3047-2.4296,23.008-6.5664C86.504,86.34,94.5155,74.1444,95.7967,60z"/>
	<polygon fill="#FFDC82" points="104.0819,60 104.0819,52 92,52 12,52 0,52 0,60 8.2031,60 95.7967,60 	"/>
	<path fill="#F8A131" d="M28,20c2.2107,0,4-1.7892,4-4c0-4.41,3.5899-8,8-8c4.4099,0,8,3.59,8,8v24h-8v-8h-8v8h-4v8h48v-8h-4v-8h-8
		v8h-8V16c0-8.8244-7.1757-16-16-16c-8.8245,0-16,7.1756-16,16C24,18.2108,25.7891,20,28,20z"/>
</g>
</svg>
