<?xml version="1.0" encoding="utf-8"?>
<!-- Generator: Adobe Illustrator 19.2.0, SVG Export Plug-In . SVG Version: 6.00 Build 0)  -->
<svg version="1.1" id="sofa" xmlns="http://www.w3.org/2000/svg" xmlns:xlink="http://www.w3.org/1999/xlink" x="0px" y="0px"
	 viewBox="0 0 216 120" enable-background="new 0 0 216 120" xml:space="preserve">
<g>
	<path fill="#B976DD" d="M36,48v20h144V48c0-2.2088,1.7911-4,4-4h4V12c0-6.6172-5.3889-12-12.0117-12H40.0115
		C33.3887,0,28,5.3828,28,12v32h4C34.2087,44,36,45.7912,36,48z"/>
	<path fill="#BDB9FF" d="M28,100V72c0-2.2088,1.7911-4,4-4h4V48c0-2.2088-1.7913-4-4-4h-4H18C8.0743,44,0,52.076,0,62.004V100
		c0,2.2088,1.7911,4,4,4h28C29.7911,104,28,102.2088,28,100z"/>
	<polygon fill="#618287" points="36,120 52,120 60,104 36,104 	"/>
	<polygon fill="#618287" points="164,120 180,120 180,104 156,104 	"/>
	<path fill="#BDB9FF" d="M198,44h-10h-4c-2.2089,0-4,1.7912-4,4v20h4c2.2087,0,4,1.7912,4,4v28c0,2.2088-1.7913,4-4,4h28
		c2.2087,0,4-1.7912,4-4V62.004C216,52.076,207.9255,44,198,44z"/>
	<path fill="#746DE0" d="M188,100V72c0-2.2088-1.7913-4-4-4h-4H36h-4c-2.2089,0-4,1.7912-4,4v28c0,2.2088,1.7911,4,4,4h4h24h96h24h4
		C186.2087,104,188,102.2088,188,100z"/>
</g>
</svg>
