<?xml version="1.0" encoding="utf-8"?>
<!-- Generator: Adobe Illustrator 19.2.0, SVG Export Plug-In . SVG Version: 6.00 Build 0)  -->
<svg version="1.1" id="specialbox" xmlns="http://www.w3.org/2000/svg" xmlns:xlink="http://www.w3.org/1999/xlink" x="0px" y="0px"
	 viewBox="0 0 184 176" enable-background="new 0 0 184 176" xml:space="preserve">
<g>
	<rect x="16" y="112" fill="#61B171" width="152" height="8"/>
	<path fill="#61B171" d="M16,164.0352C16,170.6328,21.3827,176,28,176h128c6.6171,0,12-5.3672,12-11.9648V160H16V164.0352z"/>
	<rect x="16" y="96" fill="#61B171" width="152" height="8"/>
	<rect x="16" y="144" fill="#61B171" width="152" height="8"/>
	<rect x="16" y="128" fill="#61B171" width="152" height="8"/>
	<path fill="#BDD764" d="M159.1443,9.3476C156.5235,4.1056,149.8867,0,144.0351,0H39.9647c-5.9492,0-12.4452,4.0196-15.1092,9.3476
		L17.5271,24h148.9456L159.1443,9.3476z"/>
	<path fill="#F8A131" d="M166.4727,24H17.5271H0v72h16h152h0.0547H184V24H166.4727z M104.0115,76H79.9883
		C71.172,76,64,68.8244,64,60s7.172-16,15.9883-16h24.0232C112.828,44,120,51.1756,120,60S112.828,76,104.0115,76z"/>
	<polygon fill="#49A15A" points="16,112 168,112 168.0547,112 168.0547,104 168,104 16,104 	"/>
	<path fill="#61B171" d="M112,60c0-4.41-3.5821-8-7.9885-8H79.9883C75.5819,52,72,55.59,72,60s3.5819,8,7.9883,8h24.0232
		C108.4179,68,112,64.41,112,60z"/>
	<path fill="#49A15A" d="M104.0115,44H79.9883C71.172,44,64,51.1756,64,60s7.172,16,15.9883,16h24.0232
		C112.828,76,120,68.8244,120,60S112.828,44,104.0115,44z M72,60c0-4.41,3.5819-8,7.9883-8h24.0232C108.4179,52,112,55.59,112,60
		s-3.5821,8-7.9885,8H79.9883C75.5819,68,72,64.41,72,60z"/>
	<polygon fill="#49A15A" points="16,128 168,128 168.0547,128 168.0547,120 168,120 16,120 	"/>
	<polygon fill="#49A15A" points="16,144 168,144 168.0547,144 168.0547,136 168,136 16,136 	"/>
	<polygon fill="#49A15A" points="16,160 168,160 168.0547,160 168.0547,152 168,152 16,152 	"/>
</g>
</svg>
