<?xml version="1.0" encoding="utf-8"?>
<!-- Generator: Adobe Illustrator 19.2.0, SVG Export Plug-In . SVG Version: 6.00 Build 0)  -->
<svg version="1.1" id="stairs" xmlns="http://www.w3.org/2000/svg" xmlns:xlink="http://www.w3.org/1999/xlink" x="0px" y="0px"
	 viewBox="0 0 224 212" enable-background="new 0 0 224 212" xml:space="preserve">
<g>
	<polygon fill="none" points="152,170 152.6915,170.6953 152.6915,170 	"/>
	<polygon fill="none" points="112,138 112.3475,138.3477 112.3475,138 	"/>
	<polygon fill="#BC9A67" points="194,172 152.6915,172 152.6915,170.6953 152,170 152.6915,170 152.6915,164 154,164 154,140 
		112.3475,140 112.3475,138.3477 112,138 112.3475,138 112.3475,132 114,132 114,104 70.6795,104 70.6795,96 74,96 74,72 34,72 
		34,204 194,204 	"/>
	<polygon fill="#89714D" points="152.6915,170 152.6915,170.6953 152.6915,172 194,172 200,172 200,164 154,164 152.6915,164 	"/>
	<polygon fill="#89714D" points="70.6795,104 114,104 117.9883,104 117.9883,96 74,96 70.6795,96 	"/>
	<polygon fill="#89714D" points="84,72 84,64 0,64 0,72 34,72 74,72 	"/>
	<polygon fill="#89714D" points="112.3475,138 112.3475,138.3477 112.3475,140 154,140 159.6523,140 159.6523,132 114,132 
		112.3475,132 	"/>
	<polygon fill="#89714D" points="194,204 34,204 28,204 28,212 224,212 224,204 	"/>
	<rect x="184" y="40" fill="#535353" width="8" height="8"/>
	<rect x="128" fill="#535353" width="8" height="8"/>
	<polygon fill="#FFAE8E" points="184,56 172,56 172,92 204,92 204,56 192,56 	"/>
	<path fill="#89714D" d="M212,48h-20h-8h-20v52h48V48z M204,92h-32V56h12h8h12V92z"/>
	<polygon fill="#FFAE8E" points="128,16 116,16 116,52 148,52 148,16 136,16 	"/>
	<path fill="#89714D" d="M156,8h-20h-8h-20v52h48V8z M148,52h-32V16h12h8h12V52z"/>
</g>
</svg>
