<?xml version="1.0" encoding="utf-8"?>
<!-- Generator: Adobe Illustrator 19.2.0, SVG Export Plug-In . SVG Version: 6.00 Build 0)  -->
<svg version="1.1" id="table" xmlns="http://www.w3.org/2000/svg" xmlns:xlink="http://www.w3.org/1999/xlink" x="0px" y="0px"
	 viewBox="0 0 232.0001 118.1525" enable-background="new 0 0 232.0001 118.1525" xml:space="preserve">
<g>
	<rect x="28.0001" y="56" fill="#4A8F9E" width="12" height="62.1525"/>
	<rect x="196.0001" y="56" fill="#4A8F9E" width="12" height="62.1525"/>
	<rect x="168.0001" y="56" fill="#4A8F9E" width="12" height="24"/>
	<rect x="56.0001" y="56" fill="#4A8F9E" width="12" height="24"/>
	<path fill="#EB4548" d="M231.3281,49.7813l-32-48C198.586,0.668,197.338,0,196.0001,0h-160c-1.3381,0-2.5861,0.668-3.328,1.7813
		l-32,48c-0.8185,1.2267-0.8949,2.8048-0.1993,4.1056C1.17,55.1877,2.5252,56,4.0001,56h24h12h16h12h100h12h16h12h20
		c1.4747,0,2.8299-0.8123,3.5271-2.1131C232.2228,52.5861,232.1464,51.008,231.3281,49.7813z"/>
</g>
</svg>
