<?xml version="1.0" encoding="utf-8"?>
<!-- Generator: Adobe Illustrator 19.2.0, SVG Export Plug-In . SVG Version: 6.00 Build 0)  -->
<svg version="1.1" id="tallchair" xmlns="http://www.w3.org/2000/svg" xmlns:xlink="http://www.w3.org/1999/xlink" x="0px" y="0px"
	 viewBox="0 0 116 236" enable-background="new 0 0 116 236" xml:space="preserve">
<g>
	<polygon fill="none" points="22.2891,192 95.7107,192 86.2263,108 31.7735,108 	"/>
	<path fill="#4A8F9E" d="M86.2263,108l9.4844,84H22.2891l9.4844-84h-8.0548L10.172,228H4c-2.2109,0-4,1.7913-4,4
		c0,2.2089,1.7891,4,4,4h16c2.2107,0,4-1.7911,4-4c0-2.2087-1.7893-4-4-4h-1.7737l2.7112-24H96
		c0.3591,0,0.7107-0.0447,1.0507-0.1055L99.7735,228H96c-2.2109,0-4,1.7913-4,4c0,2.2089,1.7891,4,4,4h16c2.2107,0,4-1.7911,4-4
		c0-2.2087-1.7893-4-4-4h-4.172L94.2811,108H86.2263z"/>
	<rect x="44" y="64" fill="#4A8F9E" width="28" height="12"/>
	<path fill="#BC9A67" d="M86.2263,108h8.0548H116V92c0-8.8183-7.168-16-16.008-16H72H44H16.008C7.168,76,0,83.164,0,92v16h23.7187
		h8.0548H86.2263z"/>
	<path fill="#89714D" d="M99.9843,64C106.6091,64,112,58.6057,112,51.9765V12.0237C112,5.3945,106.6091,0,99.9843,0H16.0155
		C9.3907,0,4,5.3945,4,12.0237v39.9528C4,58.6057,9.3907,64,16.0155,64H44h28H99.9843z"/>
</g>
</svg>
