<?xml version="1.0" encoding="utf-8"?>
<!-- Generator: Adobe Illustrator 19.2.0, SVG Export Plug-In . SVG Version: 6.00 Build 0)  -->
<svg version="1.1" id="throne" xmlns="http://www.w3.org/2000/svg" xmlns:xlink="http://www.w3.org/1999/xlink" x="0px" y="0px"
	 viewBox="0 0 164 132" enable-background="new 0 0 164 132" xml:space="preserve">
<g>
	<path fill="#E1AD99" d="M32,56c2.2107,0,4,1.7912,4,4v20h92V60c0-2.2088,1.7891-4,4-4h14c0.6835,0,1.336,0.1288,2,0.2032V44.0176
		C148,19.746,128.2615,0,103.996,0H60.004C35.7383,0,16,19.7364,16,43.994v12.2092C16.664,56.1288,17.3163,56,18,56H32z
		 M73.172,46.828c-1.5629-1.5624-1.5629-4.0936,0-5.656c1.5623-1.5628,4.0935-1.5628,5.656,0L82,44.3436l3.172-3.1716
		c1.5623-1.5628,4.0935-1.5628,5.656,0c1.5627,1.5624,1.5627,4.0936,0,5.656L87.6563,50l3.1717,3.172
		c1.5627,1.5624,1.5627,4.0936,0,5.656C90.0467,59.6092,89.0235,60,88,60c-1.0237,0-2.0469-0.3908-2.828-1.172L82,55.6564
		l-3.172,3.1716C78.0467,59.6092,77.0235,60,76,60c-1.0237,0-2.0469-0.3908-2.828-1.172c-1.5629-1.5624-1.5629-4.0936,0-5.656
		L76.3435,50L73.172,46.828z"/>
	<path fill="#BC9A67" d="M28,112V84c0-2.2088,1.7891-4,4-4h0.4415H36V60c0-2.2088-1.7893-4-4-4H18c-0.6837,0-1.336,0.1288-2,0.2032
		C7.0235,57.2128,0,64.7616,0,74.004V112c0,2.2088,1.7891,4,4,4h28C29.7891,116,28,114.2088,28,112z"/>
	<path fill="#BC9A67" d="M148,56.2032C147.336,56.1288,146.6835,56,146,56h-14c-2.2109,0-4,1.7912-4,4v20h4c2.2107,0,4,1.7912,4,4
		v28c0,2.2088-1.7893,4-4,4h28c2.2107,0,4-1.7912,4-4V74.004C164,64.7616,156.9763,57.2128,148,56.2032z"/>
	<polygon fill="#618287" points="36,132 52,132 60,116 36,116 	"/>
	<polygon fill="#618287" points="112,132 128,132 128,116 104,116 	"/>
	<path fill="#FCD1C0" d="M136,112V84c0-2.2088-1.7893-4-4-4h-4H36h-3.5585H32c-2.2109,0-4,1.7912-4,4v28c0,2.2088,1.7891,4,4,4h4h24
		h44h24h4C134.2107,116,136,114.2088,136,112z"/>
	<path fill="#FFE9E1" d="M73.172,58.828C73.9531,59.6092,74.9763,60,76,60c1.0235,0,2.0467-0.3908,2.828-1.172L82,55.6564
		l3.172,3.1716C85.9531,59.6092,86.9763,60,88,60c1.0235,0,2.0467-0.3908,2.828-1.172c1.5627-1.5624,1.5627-4.0936,0-5.656
		L87.6563,50l3.1717-3.172c1.5627-1.5624,1.5627-4.0936,0-5.656c-1.5625-1.5628-4.0937-1.5628-5.656,0L82,44.3436l-3.172-3.1716
		c-1.5625-1.5628-4.0937-1.5628-5.656,0c-1.5629,1.5624-1.5629,4.0936,0,5.656L76.3435,50l-3.1715,3.172
		C71.6091,54.7344,71.6091,57.2656,73.172,58.828z"/>
</g>
</svg>
