<?xml version="1.0" encoding="utf-8"?>
<!-- Generator: Adobe Illustrator 19.2.0, SVG Export Plug-In . SVG Version: 6.00 Build 0)  -->
<svg version="1.1" id="towelset" xmlns="http://www.w3.org/2000/svg" xmlns:xlink="http://www.w3.org/1999/xlink" x="0px" y="0px"
	 viewBox="0 0 220 108" enable-background="new 0 0 220 108" xml:space="preserve">
<g>
	<path fill="#99D59D" d="M196,8H49.996C46.6895,8,44,10.6916,44,14s2.6895,6,5.996,6H196c2.2087,0,4,1.7892,4,4s-1.7913,4-4,4
		H49.996C46.6895,28,44,30.6916,44,34s2.6895,6,5.996,6H196c8.8223,0,16-7.1756,16-16S204.8223,8,196,8z"/>
	<path fill="#63B473" d="M196,0H49.996C42.2791,0,36,6.2812,36,14c0,3.918,1.6287,7.4572,4.2323,10C37.6287,26.5428,36,30.082,36,34
		c0,7.7188,6.2791,14,13.996,14H196c13.2343,0,24-10.7656,24-24S209.2343,0,196,0z M196,40H49.996C46.6895,40,44,37.3084,44,34
		s2.6895-6,5.996-6H196c2.2087,0,4-1.7892,4-4s-1.7913-4-4-4H49.996C46.6895,20,44,17.3084,44,14s2.6895-6,5.996-6H196
		c8.8223,0,16,7.1756,16,16S204.8223,40,196,40z"/>
	<path fill="#3BABB7" d="M170.004,68H34H24c-8.8225,0-16,7.1756-16,16s7.1775,16,16,16h146.004c3.3063,0,5.996-2.6916,5.996-6
		s-2.6897-6-5.996-6H24c-2.2089,0-4-1.7892-4-4s1.7911-4,4-4h146.004c3.3063,0,5.996-2.6916,5.996-6S173.3103,68,170.004,68z"/>
	<path fill="#50CCD3" d="M184,74c0-7.7188-6.2793-14-13.996-14H34H24C10.7655,60,0,70.7656,0,84s10.7655,24,24,24h146.004
		c7.7167,0,13.996-6.2812,13.996-14c0-3.918-1.6289-7.4572-4.2325-10C182.3711,81.4572,184,77.918,184,74z M170.004,80H24
		c-2.2089,0-4,1.7892-4,4s1.7911,4,4,4h146.004c3.3063,0,5.996,2.6916,5.996,6s-2.6897,6-5.996,6H24c-8.8225,0-16-7.1756-16-16
		s7.1775-16,16-16h10h136.004c3.3063,0,5.996,2.6916,5.996,6S173.3103,80,170.004,80z"/>
</g>
</svg>
