<?xml version="1.0" encoding="utf-8"?>
<!-- Generator: Adobe Illustrator 19.2.0, SVG Export Plug-In . SVG Version: 6.00 Build 0)  -->
<svg version="1.1" id="towels" xmlns="http://www.w3.org/2000/svg" xmlns:xlink="http://www.w3.org/1999/xlink" x="0px" y="0px"
	 viewBox="0 0 206.9285 206" enable-background="new 0 0 206.9285 206" xml:space="preserve">
<g>
	<path fill="#63B473" d="M140,24h-16.412l-9.6117,88.4336c-0.1288,1.1756-0.7712,2.2384-1.7576,2.8944l-30,20
		C81.5487,135.7736,80.7751,136,80,136c-0.6465,0-1.2969-0.1564-1.8869-0.4728C76.8123,134.832,76,133.4764,76,132v-32H60
		c-13.2345,0-24-10.754-24-23.9688V24H20v128.0196C20,163.0352,28.9667,172,39.9863,172h80.0252
		C131.0331,172,140,163.0352,140,152.0196V24z"/>
	<path fill="#50CCD3" d="M199.5859,150.6524c-6.0528-5.1212-17.084-7.5664-28.2444,2.3592
		C154.9707,167.5624,142.2051,167.996,141.9707,168c-1.9924,0.0156-3.672,1.492-3.9356,3.4728
		c-0.2676,2.0076-2.3828,19.8864,5.7324,29.156C146.8435,204.1444,151.0743,206,156,206c19.1951,0,36.4823-10.0468,47.4295-27.5584
		C210.0195,167.8944,206.4843,156.4764,199.5859,150.6524z"/>
	<path fill="#FE7D71" d="M36,24v52.0312C36,89.246,46.7655,100,60,100h16V24H36z"/>
	<path fill="#FCC24C" d="M76,24v76v32c0,1.4764,0.8123,2.832,2.1131,3.5272C78.7031,135.8436,79.3535,136,80,136
		c0.7751,0,1.5487-0.2264,2.2187-0.672l30-20c0.9864-0.656,1.6288-1.7188,1.7576-2.8944L123.588,24H76z"/>
	<path fill="#FCC24C" d="M119.172,177.172l-6,6c-1.5629,1.5624-1.5629,4.0936,0,5.656c0.7811,0.7812,1.8043,1.172,2.828,1.172
		c1.0235,0,2.0467-0.3908,2.828-1.172l6-6c1.5627-1.5624,1.5627-4.0936,0-5.656
		C123.2655,175.6092,120.7343,175.6092,119.172,177.172z"/>
	<path fill="#49A25A" d="M76,24h47.588H140h12c2.2087,0,4-1.7892,4-4V4c0-2.2108-1.7913-4-4-4H4C1.7911,0,0,1.7892,0,4v16
		c0,2.2108,1.7911,4,4,4h16h16H76z"/>
	<path fill="#FCC24C" d="M96.6035,180.9648c-1.674-1.4376-4.2012-1.25-5.6408,0.4336c-1.4376,1.676-1.244,4.1992,0.4336,5.6368
		l14,12c0.754,0.6484,1.6797,0.9648,2.6016,0.9648c1.1272,0,2.248-0.4728,3.0392-1.3984c1.4376-1.676,1.244-4.1992-0.4336-5.6368
		L96.6035,180.9648z"/>
</g>
</svg>
