<?xml version="1.0" encoding="utf-8"?>
<!-- Generator: Adobe Illustrator 19.2.0, SVG Export Plug-In . SVG Version: 6.00 Build 0)  -->
<svg version="1.1" id="wardrobe" xmlns="http://www.w3.org/2000/svg" xmlns:xlink="http://www.w3.org/1999/xlink" x="0px" y="0px"
	 viewBox="0 0 168 212" enable-background="new 0 0 168 212" xml:space="preserve">
<g>
	<rect x="20" y="200" fill="#4F676D" width="8" height="12"/>
	<rect x="140" y="200" fill="#4F676D" width="8" height="12"/>
	<path fill="#49A25A" d="M80,196V4c0-2.2088,1.7911-4,4-4H19.996C8.9707,0,0,8.9904,0,20.0392v159.9216
		C0,191.0096,8.9707,200,19.996,200H20h8h56C81.7911,200,80,198.2088,80,196z M72,112h-8V84h8V112z"/>
	<path fill="#63B473" d="M148.004,0H84c-2.2089,0-4,1.7912-4,4v192c0,2.2088,1.7911,4,4,4h56h8h0.004
		c11.0251,0,19.996-8.9904,19.996-20.0392V20.0392C168,8.9904,159.0291,0,148.004,0z M104,112h-8V84h8V112z"/>
	<rect x="64" y="84" fill="#4F676D" width="8" height="28"/>
	<rect x="96" y="84" fill="#4F676D" width="8" height="28"/>
</g>
</svg>
