<?xml version="1.0" encoding="utf-8"?>
<!-- Generator: Adobe Illustrator 19.2.0, SVG Export Plug-In . SVG Version: 6.00 Build 0)  -->
<svg version="1.1" id="washingmachine" xmlns="http://www.w3.org/2000/svg" xmlns:xlink="http://www.w3.org/1999/xlink" x="0px"
	 y="0px" viewBox="0 0 172 212" enable-background="new 0 0 172 212" xml:space="preserve">
<g>
	<path fill="#3BABB7" d="M4,44c-1.0901,0-2.0745-0.4415-2.7949-1.1483C0.4551,44.4141,0,46.1445,0,47.9885v152.0232
		C0,206.6213,5.3923,212,12.0215,212h147.9568C166.6075,212,172,206.6213,172,200.0117V47.9885c0-1.844-0.4553-3.5744-1.2053-5.1368
		C170.0743,43.5585,169.0899,44,168,44H4z M28,60H16v-8h12V60z M32,52h12v8H32V52z M88,188c-28.6741,0-52-23.328-52-52
		s23.3259-52,52-52c28.6739,0,52,23.328,52,52S116.6739,188,88,188z"/>
	<path fill="#4A8F9E" d="M172,40V4c0-2.2107-1.7913-4-4-4H4C1.7911,0,0,1.7893,0,4v36c0,1.1213,0.4647,2.1249,1.2051,2.8517
		C1.9255,43.5585,2.9099,44,4,44h164c1.0899,0,2.0743-0.4415,2.7947-1.1483C171.5351,42.1249,172,41.1213,172,40z M146,12
		c5.5135,0,10,4.4845,10,10c0,5.5157-4.4865,10-10,10c-5.5137,0-10-4.4843-10-10C136,16.4845,140.4863,12,146,12z"/>
	<circle fill="#4A8F9E" cx="146" cy="22" r="2"/>
	<path fill="#4A8F9E" d="M88,84c-28.6741,0-52,23.328-52,52s23.3259,52,52,52c28.6739,0,52-23.328,52-52S116.6739,84,88,84z M88,180
		c-24.2617,0-44-19.7383-44-44c0-24.2615,19.7383-44,44-44c24.2615,0,44,19.7385,44,44C132,160.2617,112.2615,180,88,180z"/>
	<path fill="#50CCD3" d="M88,92c-24.2617,0-44,19.7385-44,44c0,24.2617,19.7383,44,44,44c24.2615,0,44-19.7383,44-44
		C132,111.7385,112.2615,92,88,92z M88,164c-15.4397,0-28-12.5623-28-28c0-2.2107,1.7911-4,4-4c2.2087,0,4,1.7893,4,4
		c0,11.0273,8.9727,20,20,20c11.0271,0,20-8.9727,20-20c0-11.0271-8.9729-20-20-20c-2.2089,0-4-1.7891-4-4c0-2.2107,1.7911-4,4-4
		c15.4395,0,28,12.5625,28,28C116,151.4377,103.4395,164,88,164z"/>
	<path fill="#7BE5E4" d="M88,108c-2.2089,0-4,1.7893-4,4c0,2.2109,1.7911,4,4,4c11.0271,0,20,8.9729,20,20
		c0,11.0273-8.9729,20-20,20c-11.0273,0-20-8.9727-20-20c0-2.2107-1.7913-4-4-4c-2.2089,0-4,1.7893-4,4c0,15.4377,12.5603,28,28,28
		c15.4395,0,28-12.5623,28-28C116,120.5625,103.4395,108,88,108z"/>
	<rect x="32" y="52" fill="#D8F768" width="12" height="8"/>
	<rect x="16" y="52" fill="#D8F768" width="12" height="8"/>
	<path fill="#7BE5E4" d="M146,32c5.5135,0,10-4.4843,10-10c0-5.5155-4.4865-10-10-10c-5.5137,0-10,4.4845-10,10
		C136,27.5157,140.4863,32,146,32z M146,20c1.1035,0,2,0.8985,2,2c0,1.1017-0.8965,2-2,2c-1.1037,0-2-0.8983-2-2
		C144,20.8985,144.8963,20,146,20z"/>
</g>
</svg>
