<?xml version="1.0" encoding="utf-8"?>
<!-- Generator: Adobe Illustrator 19.2.0, SVG Export Plug-In . SVG Version: 6.00 Build 0)  -->
<svg version="1.1" id="windows" xmlns="http://www.w3.org/2000/svg" xmlns:xlink="http://www.w3.org/1999/xlink" x="0px" y="0px"
	 viewBox="0 0 228 164" enable-background="new 0 0 228 164" xml:space="preserve">
<g>
	<path fill="#4A8F9E" d="M219.9939,0H8.0059C3.5915,0,0,3.5956,0,8.0136v147.9728C0,160.4044,3.5915,164,8.0059,164h211.988
		c4.4144,0,8.0061-3.5956,8.0061-8.0136V8.0136C228,3.5956,224.4083,0,219.9939,0z M112,143.9784
		c0,4.424-3.5937,8.0216-8.0117,8.0216H20.0115C15.5935,152,12,148.4024,12,143.9784V20.0236C12,15.5996,15.5935,12,20.0115,12
		h83.9768c4.418,0,8.0117,3.5996,8.0117,8.0236V143.9784z M216,143.9784c0,4.424-3.5937,8.0216-8.0117,8.0216h-83.9768
		c-4.418,0-8.0115-3.5976-8.0115-8.0216V20.0236c0-4.424,3.5935-8.0236,8.0115-8.0236h83.9768c4.418,0,8.0117,3.5996,8.0117,8.0236
		V143.9784z"/>
	<path fill="#7BE5E4" d="M103.9883,12H20.0115C15.5935,12,12,15.5996,12,20.0236v123.9548c0,4.424,3.5935,8.0216,8.0115,8.0216
		h83.9768c4.418,0,8.0117-3.5976,8.0117-8.0216V20.0236C112,15.5996,108.4063,12,103.9883,12z M103.9883,144L20,143.9784V20.0236
		L20.0115,20L104,20.0236L103.9883,144z"/>
	<path fill="#7BE5E4" d="M207.9883,12h-83.9768C119.5935,12,116,15.5996,116,20.0236v123.9548c0,4.424,3.5935,8.0216,8.0115,8.0216
		h83.9768c4.418,0,8.0117-3.5976,8.0117-8.0216V20.0236C216,15.5996,212.4063,12,207.9883,12z M207.9883,144L124,143.9784V20.0236
		L124.0115,20L208,20.0236L207.9883,144z"/>
	<path fill="#49A25A" d="M20,20.0236v123.9548L103.9883,144L104,20.0236L20.0115,20L20,20.0236z M42.828,62.828l-4,4
		C38.0467,67.6092,37.0235,68,36,68c-1.0237,0-2.0469-0.3908-2.828-1.172c-1.5629-1.5624-1.5629-4.0936,0-5.656l4-4
		c1.5623-1.5628,4.0935-1.5628,5.656,0C44.3907,58.7344,44.3907,61.2656,42.828,62.828z M70.828,29.172
		c1.5627,1.5624,1.5627,4.0936,0,5.656L52.7167,52.9396c-0.7812,0.7812-1.8047,1.1716-2.828,1.1716
		c-1.0236,0-2.0472-0.3904-2.8284-1.1716c-1.5624-1.5628-1.5624-4.094,0-5.6564L65.172,29.172
		C66.7343,27.6092,69.2655,27.6092,70.828,29.172z M29.172,41.172l12-12c1.5623-1.5628,4.0935-1.5628,5.656,0
		c1.5627,1.5624,1.5627,4.0936,0,5.656l-12,12C34.0467,47.6092,33.0235,48,32,48c-1.0237,0-2.0469-0.3908-2.828-1.172
		C27.6091,45.2656,27.6091,42.7344,29.172,41.172z"/>
	<path fill="#49A25A" d="M124,20.0236v123.9548L207.9883,144L208,20.0236L124.0115,20L124,20.0236z M187.6795,133.5196
		c-0.2012,0.5196-0.4804,0.92-0.8395,1.3204c-0.76,0.7184-1.8009,1.16-2.84,1.16c-1.0413,0-2.08-0.4416-2.84-1.16
		c-0.3613-0.3616-0.6405-0.8008-0.8417-1.3204c-0.1992-0.4804-0.3183-1-0.3183-1.5196c0-1.08,0.4395-2.08,1.16-2.84
		c1.4787-1.4804,4.1583-1.4804,5.68,0c0.7183,0.76,1.16,1.7988,1.16,2.84C188,132.5196,187.8787,133.0392,187.6795,133.5196z
		 M198.828,122.828l-4,4C194.0467,127.6092,193.0235,128,192,128c-1.0237,0-2.0469-0.3908-2.828-1.172
		c-1.5629-1.5624-1.5629-4.0936,0-5.656l4-4c1.5623-1.5628,4.0935-1.5628,5.656,0
		C200.3907,118.7344,200.3907,121.2656,198.828,122.828z M161.172,129.172l28-28c1.5623-1.5628,4.0935-1.5628,5.656,0
		c1.5627,1.5624,1.5627,4.0936,0,5.656l-28,28C166.0467,135.6092,165.0235,136,164,136c-1.0237,0-2.0469-0.3908-2.828-1.172
		C159.6091,133.2656,159.6091,130.7344,161.172,129.172z"/>
	<path fill="#7BE5E4" d="M32,48c1.0235,0,2.0467-0.3908,2.828-1.172l12-12c1.5627-1.5624,1.5627-4.0936,0-5.656
		c-1.5625-1.5628-4.0937-1.5628-5.656,0l-12,12c-1.5629,1.5624-1.5629,4.0936,0,5.656C29.9531,47.6092,30.9763,48,32,48z"/>
	<path fill="#7BE5E4" d="M193.172,117.172l-4,4c-1.5629,1.5624-1.5629,4.0936,0,5.656c0.7811,0.7812,1.8043,1.172,2.828,1.172
		c1.0235,0,2.0467-0.3908,2.828-1.172l4-4c1.5627-1.5624,1.5627-4.0936,0-5.656
		C197.2655,115.6092,194.7343,115.6092,193.172,117.172z"/>
	<path fill="#7BE5E4" d="M164,136c1.0235,0,2.0467-0.3908,2.828-1.172l28-28c1.5627-1.5624,1.5627-4.0936,0-5.656
		c-1.5625-1.5628-4.0937-1.5628-5.656,0l-28,28c-1.5629,1.5624-1.5629,4.0936,0,5.656C161.9531,135.6092,162.9763,136,164,136z"/>
	<path fill="#7BE5E4" d="M181.16,129.16c-0.7205,0.76-1.16,1.76-1.16,2.84c0,0.5196,0.1191,1.0392,0.3183,1.5196
		c0.2012,0.5196,0.4804,0.9588,0.8417,1.3204c0.76,0.7184,1.7987,1.16,2.84,1.16c1.0391,0,2.08-0.4416,2.84-1.16
		c0.3591-0.4004,0.6383-0.8008,0.8395-1.3204c0.1992-0.4804,0.3205-1,0.3205-1.5196c0-1.0412-0.4417-2.08-1.16-2.84
		C185.3183,127.6796,182.6387,127.6796,181.16,129.16z"/>
	<path fill="#7BE5E4" d="M37.172,57.172l-4,4c-1.5629,1.5624-1.5629,4.0936,0,5.656C33.9531,67.6092,34.9763,68,36,68
		c1.0235,0,2.0467-0.3908,2.828-1.172l4-4c1.5627-1.5624,1.5627-4.0936,0-5.656C41.2655,55.6092,38.7343,55.6092,37.172,57.172z"/>
	<path fill="#7BE5E4" d="M47.0603,52.9396c0.7812,0.7812,1.8048,1.1716,2.8284,1.1716c1.0233,0,2.0468-0.3904,2.828-1.1716
		L70.828,34.828c1.5627-1.5624,1.5627-4.0936,0-5.656c-1.5625-1.5628-4.0937-1.5628-5.656,0L47.0603,47.2832
		C45.4979,48.8456,45.4979,51.3768,47.0603,52.9396z"/>
</g>
</svg>
