<?xml version="1.0" encoding="utf-8"?>
<!-- Generator: Adobe Illustrator 19.2.0, SVG Export Plug-In . SVG Version: 6.00 Build 0)  -->
<svg version="1.1" id="workspace" xmlns="http://www.w3.org/2000/svg" xmlns:xlink="http://www.w3.org/1999/xlink" x="0px" y="0px"
	 viewBox="0 0 224 202" enable-background="new 0 0 224 202" xml:space="preserve">
<g>
	<polygon fill="#89714D" points="28,120 16,120 0,120 0,128 16,128 16,202 28,202 28,128 46.2227,128 45.7771,120 	"/>
	<polygon fill="#89714D" points="224,120 208,120 196,120 178.2227,120 177.7771,128 196,128 196,202 208,202 208,128 224,128 	"/>
	<polygon fill="#89714D" points="98.2227,120 97.7771,128 126.2227,128 125.7771,120 	"/>
	<path fill="#E1AD99" d="M98.5271,114.504C99.34,99.8868,88.1251,88,73.4763,88h-2.9528C55.8751,88,44.66,99.8632,45.4727,114.504
		L45.7771,120l0.4456,8l1.332,24h48.8904l1.332-24l0.4456-8L98.5271,114.504z"/>
	<polygon fill="#BC9A67" points="40,152 40,156 40,160 40,200 48,200 48,160 96,160 96,200 104,200 104,160 104,156 104,152 
		96.4451,152 47.5547,152 	"/>
	<path fill="#E1AD99" d="M178.5271,114.504C179.34,99.8868,168.1251,88,153.4763,88h-2.9528
		c-14.6484,0-25.8635,11.8632-25.0508,26.504l0.3044,5.496l0.4456,8l1.332,24h48.8904l1.332-24l0.4456-8L178.5271,114.504z"/>
	<polygon fill="#BC9A67" points="120,152 120,156 120,160 120,200 128,200 128,160 176,160 176,200 184,200 184,160 184,156 
		184,152 176.4451,152 127.5547,152 	"/>
	<path fill="#99D59D" d="M110,60c16.5703,0,30-13.4316,30-30S126.5703,0,110,0C93.4295,0,80,13.4316,80,30S93.4295,60,110,60z
		 M101.172,17.172c1.5623-1.5628,4.0935-1.5628,5.656,0l8,8c1.2775,1.2752,1.5391,3.246,0.6447,4.8124l-8,14
		C106.7343,45.2772,105.3867,46,103.996,46c-0.6717,0-1.3553-0.17-1.9805-0.5272c-1.918-1.096-2.586-3.5392-1.4884-5.4572
		l6.4844-11.3476l-5.8395-5.84C99.6091,21.2656,99.6091,18.7344,101.172,17.172z"/>
	<path fill="#49A25A" d="M107.0115,28.668l-6.4844,11.3476c-1.0976,1.918-0.4296,4.3612,1.4884,5.4572
		C102.6407,45.83,103.3243,46,103.996,46c1.3907,0,2.7383-0.7228,3.4767-2.0156l8-14c0.8944-1.5664,0.6328-3.5372-0.6447-4.8124
		l-8-8c-1.5625-1.5628-4.0937-1.5628-5.656,0c-1.5629,1.5624-1.5629,4.0936,0,5.656L107.0115,28.668z"/>
</g>
</svg>
